<svg xmlns="http://www.w3.org/2000/svg" xmlns:xlink="http://www.w3.org/1999/xlink" xmlns:lucid="lucid" width="1478.04" height="1457.8"><g transform="translate(-143.61566775614904 1022.1459925584036)" lucid:page-tab-id="0_0"><path d="M0-1500h2000V500H0z" fill="#fff"/><path d="M165.62-159.33a6 6 0 0 1 6-6H339a6 6 0 0 1 6 6v8a14.48 14.48 0 0 1-4.24 10.24l-1.52 1.53a14.48 14.48 0 0 1-10.24 4.24H171.62a6 6 0 0 1-6-6z" fill="#fff"/><path d="M345-165.33v20l-10 10H165.62" stroke="#00c2a8" stroke-width="4" fill="none"/><path d="M165.62-159.33a6 6 0 0 1 6-6h1049.96a6 6 0 0 1 6 6v566.98a6 6 0 0 1-6 6H171.62a6 6 0 0 1-6-6z" stroke="#00c2a8" stroke-width="4" fill="none"/><use xlink:href="#a" transform="matrix(1,0,0,1,173.61566775614904,-165.33242876021012) translate(0 19.933333333333334)"/><path d="M197.57-106.74a6 6 0 0 1 6-6h116.1a6 6 0 0 1 6 6v8a14.48 14.48 0 0 1-4.24 10.24l-1.52 1.52a14.48 14.48 0 0 1-10.23 4.24h-106.1a6 6 0 0 1-6-6z" fill="#fff"/><path d="M325.67-112.74v20l-10 10h-118.1" stroke="#54c45e" stroke-width="4" fill="none"/><path d="M197.57-106.74a6 6 0 0 1 6-6H872.9a6 6 0 0 1 6 6v488a6 6 0 0 1-6 6H203.58a6 6 0 0 1-6-6z" stroke="#54c45e" stroke-width="4" fill="none"/><use xlink:href="#b" transform="matrix(1,0,0,1,205.5748931099085,-112.74010680291269) translate(0 19.933333333333326)"/><path d="M605.75-41.82c-15.9 0-28.8 12.9-28.8 28.8v86.4c0 15.9 12.9 28.8 28.8 28.8h170.4c15.9 0 28.8-12.9 28.8-28.8v-86.4c0-15.9-12.9-28.8-28.8-28.8z" stroke="#54c45e" stroke-width="2" fill="#dfdddd" fill-opacity=".26"/><path d="M576.95 2.18h228" stroke="#54c45e" stroke-width="2" fill="none"/><use xlink:href="#c" transform="matrix(1,0,0,1,622.546071382942,-41.82207819763511) translate(45.043209876543216 26.444444444444443)"/><use xlink:href="#d" transform="matrix(1,0,0,1,599.7464648786888,18.177921802364892) translate(0 25.28888888888889)"/><use xlink:href="#e" transform="matrix(1,0,0,1,599.7464648786888,18.177921802364892) translate(90.61975308641975 25.28888888888889)"/><use xlink:href="#f" transform="matrix(1,0,0,1,599.7464648786888,18.177921802364892) translate(0 51.422222222222224)"/><use xlink:href="#g" transform="matrix(1,0,0,1,599.7464648786888,18.177921802364892) translate(80.94074074074074 51.422222222222224)"/><use xlink:href="#h" transform="matrix(1,0,0,1,599.7464648786888,18.177921802364892) translate(123.28641975308642 51.422222222222224)"/><path d="M295.3-41.82c-15.9 0-28.8 12.9-28.8 28.8v86.4c0 15.9 12.9 28.8 28.8 28.8h170.4c15.92 0 28.8-12.9 28.8-28.8v-86.4c0-15.9-12.88-28.8-28.8-28.8z" stroke="#54c45e" stroke-width="2" fill="#dfdddd" fill-opacity=".26"/><path d="M266.5 2.18h228" stroke="#54c45e" stroke-width="2" fill="none"/><use xlink:href="#i" transform="matrix(1,0,0,1,312.11249348996,-41.82207819763511) translate(36.46296296296297 26.444444444444443)"/><use xlink:href="#d" transform="matrix(1,0,0,1,289.31288698570677,18.177921802364892) translate(0 25.28888888888889)"/><use xlink:href="#e" transform="matrix(1,0,0,1,289.31288698570677,18.177921802364892) translate(90.61975308641975 25.28888888888889)"/><use xlink:href="#j" transform="matrix(1,0,0,1,289.31288698570677,18.177921802364892) translate(0 51.422222222222224)"/><path d="M295.3 182.36c-15.9 0-28.8 12.9-28.8 28.8v86.4c0 15.9 12.9 28.8 28.8 28.8h170.4c15.92 0 28.8-12.9 28.8-28.8v-86.4c0-15.9-12.88-28.8-28.8-28.8z" stroke="#54c45e" stroke-width="2" fill="#dfdddd" fill-opacity=".26"/><path d="M266.5 226.36h228" stroke="#54c45e" stroke-width="2" fill="none"/><use xlink:href="#k" transform="matrix(1,0,0,1,312.11249348996,182.35703952317562) translate(-6.499999999999986 26.444444444444443)"/><use xlink:href="#d" transform="matrix(1,0,0,1,289.31288698570677,242.35703952317562) translate(0 25.28888888888889)"/><use xlink:href="#l" transform="matrix(1,0,0,1,289.31288698570677,242.35703952317562) translate(90.61975308641975 25.28888888888889)"/><use xlink:href="#m" transform="matrix(1,0,0,1,289.31288698570677,242.35703952317562) translate(0 51.422222222222224)"/><path d="M605.75 182.36c-15.9 0-28.8 12.9-28.8 28.8v86.4c0 15.9 12.9 28.8 28.8 28.8h170.4c15.9 0 28.8-12.9 28.8-28.8v-86.4c0-15.9-12.9-28.8-28.8-28.8z" stroke="#54c45e" stroke-width="2" fill="#dfdddd" fill-opacity=".26"/><path d="M576.95 226.36h228" stroke="#54c45e" stroke-width="2" fill="none"/><use xlink:href="#n" transform="matrix(1,0,0,1,622.546071382942,182.35703952317562) translate(8.253086419753082 26.444444444444443)"/><use xlink:href="#d" transform="matrix(1,0,0,1,599.7464648786888,242.35703952317562) translate(0 25.28888888888889)"/><use xlink:href="#l" transform="matrix(1,0,0,1,599.7464648786888,242.35703952317562) translate(90.61975308641975 25.28888888888889)"/><use xlink:href="#h" transform="matrix(1,0,0,1,599.7464648786888,242.35703952317562) translate(0 51.422222222222224)"/><path d="M538.24-116.24v-228.2" stroke="#5e5e5e" stroke-width="3" fill="none"/><path d="M539.72-114.74h-2.95v-1.54h2.95z" stroke="#5e5e5e" stroke-width=".05" fill="#5e5e5e"/><path d="M538.24-360.2l4.64 14.27h-9.27z" stroke="#5e5e5e" stroke-width="3" fill="#5e5e5e"/><path d="M967.54 65.26c-15.9 0-28.8 12.9-28.8 28.8v86.4c0 15.9 12.9 28.8 28.8 28.8h170.4c15.9 0 28.8-12.9 28.8-28.8v-86.4c0-15.9-12.9-28.8-28.8-28.8z" stroke="#fc9432" stroke-width="2" fill="#dfdddd" fill-opacity=".26"/><path d="M938.74 109.26h228" stroke="#fc9432" stroke-width="2" fill="none"/><use xlink:href="#o" transform="matrix(1,0,0,1,984.3402580869163,65.26058760134634) translate(6.925925925925924 26.444444444444443)"/><use xlink:href="#p" transform="matrix(1,0,0,1,961.540651582663,125.26058760134634) translate(0 17.422222222222224)"/><use xlink:href="#q" transform="matrix(1,0,0,1,961.540651582663,125.26058760134634) translate(80.94074074074074 17.422222222222224)"/><use xlink:href="#r" transform="matrix(1,0,0,1,961.540651582663,125.26058760134634) translate(0 43.55555555555556)"/><use xlink:href="#s" transform="matrix(1,0,0,1,961.540651582663,125.26058760134634) translate(24.19753086419753 43.55555555555556)"/><use xlink:href="#t" transform="matrix(1,0,0,1,961.540651582663,125.26058760134634) translate(59.28395061728395 43.55555555555556)"/><use xlink:href="#u" transform="matrix(1,0,0,1,961.540651582663,125.26058760134634) translate(0 69.6888888888889)"/><path d="M867.2-690.4a6 6 0 0 1 6-6H1004a6 6 0 0 1 6 6v8a14.48 14.48 0 0 1-4.24 10.23l-1.52 1.52A14.48 14.48 0 0 1 994-666.4H873.2a6 6 0 0 1-6-6z" fill="#fff"/><path d="M1010-696.4v20l-10 10H867.2" stroke="#fc9432" stroke-width="4" fill="none"/><path d="M867.2-690.4a6 6 0 0 1 6-6h355.03a6 6 0 0 1 6 6v430a6 6 0 0 1-6 6H873.2a6 6 0 0 1-6-6z" stroke="#fc9432" stroke-width="4" fill="none"/><use xlink:href="#v" transform="matrix(1,0,0,1,875.2139343787974,-696.4098142468607) translate(0 19.933333333333334)"/><path d="M973.54-435.74c-15.9 0-28.8 12.9-28.8 28.8v86.4c0 15.9 12.9 28.8 28.8 28.8h158.4c15.9 0 28.8-12.9 28.8-28.8v-86.4c0-15.9-12.9-28.8-28.8-28.8z" stroke="#fc9432" stroke-width="2" fill="#dfdddd" fill-opacity=".26"/><path d="M944.74-391.74h216" stroke="#fc9432" stroke-width="2" fill="none"/><use xlink:href="#w" transform="matrix(1,0,0,1,987.9400497656386,-435.7362421156183) translate(12.067901234567906 26.444444444444443)"/><use xlink:href="#x" transform="matrix(1,0,0,1,966.3403738209595,-375.7362421156183) translate(0 25.28888888888889)"/><use xlink:href="#y" transform="matrix(1,0,0,1,966.3403738209595,-375.7362421156183) translate(76.04074074074073 25.28888888888889)"/><use xlink:href="#z" transform="matrix(1,0,0,1,966.3403738209595,-375.7362421156183) translate(0 51.422222222222224)"/><path d="M937.64-636.02c-16.8 0-30.4 13.6-30.4 30.4v91.2c0 16.78 13.6 30.4 30.4 30.4h230.2c16.8 0 30.4-13.62 30.4-30.4v-91.2c0-16.8-13.62-30.4-30.4-30.4z" stroke="#fc9432" stroke-width="2" fill="#dfdddd" fill-opacity=".26"/><path d="M907.24-592.02h291" stroke="#fc9432" stroke-width="2" fill="none"/><use xlink:href="#A" transform="matrix(1,0,0,1,965.4413517736242,-636.0245356171521) translate(29.01234567901234 26.444444444444443)"/><use xlink:href="#p" transform="matrix(1,0,0,1,936.3421098316069,-576.0245356171521) translate(0 17.422222222222224)"/><use xlink:href="#B" transform="matrix(1,0,0,1,936.3421098316069,-576.0245356171521) translate(80.94074074074074 17.422222222222224)"/><use xlink:href="#C" transform="matrix(1,0,0,1,936.3421098316069,-576.0245356171521) translate(117.23703703703703 17.422222222222224)"/><use xlink:href="#D" transform="matrix(1,0,0,1,936.3421098316069,-576.0245356171521) translate(0 43.55555555555556)"/><use xlink:href="#r" transform="matrix(1,0,0,1,936.3421098316069,-576.0245356171521) translate(53.23456790123457 43.55555555555556)"/><use xlink:href="#E" transform="matrix(1,0,0,1,936.3421098316069,-576.0245356171521) translate(77.4320987654321 43.55555555555556)"/><use xlink:href="#y" transform="matrix(1,0,0,1,936.3421098316069,-576.0245356171521) translate(166.90246913580245 43.55555555555556)"/><use xlink:href="#F" transform="matrix(1,0,0,1,936.3421098316069,-576.0245356171521) translate(0 69.6888888888889)"/><use xlink:href="#G" transform="matrix(1,0,0,1,936.3421098316069,-576.0245356171521) translate(125.64567901234568 69.6888888888889)"/><path d="M1052.74-482.03v26.79" stroke="#5e5e5e" stroke-width="2" fill="none"/><path d="M1053.7-482h-1.94v-1.03h1.95z" stroke="#5e5e5e" stroke-width=".05" fill="#5e5e5e"/><path d="M1052.74-439.97l-4.64-14.27h9.27z" stroke="#5e5e5e" stroke-width="2" fill="#5e5e5e"/><path d="M1050.72-250.9V43.13" stroke="#5e5e5e" stroke-width="3" fill="none"/><path d="M1052.2-250.87h-2.95v-1.54h2.95z" stroke="#5e5e5e" stroke-width=".05" fill="#5e5e5e"/><path d="M1050.72 58.9l-4.63-14.26h9.26z" stroke="#5e5e5e" stroke-width="3" fill="#5e5e5e"/><path d="M368.73-994.15a6 6 0 0 1 6-6H492a6 6 0 0 1 6 6v8a14.48 14.48 0 0 1-4.24 10.25l-1.52 1.5a14.48 14.48 0 0 1-10.24 4.25H374.73a6 6 0 0 1-6-6z" fill="#fff"/><path d="M498-1000.15v20l-10 10H368.73" stroke="#ba23f6" stroke-width="4" fill="none"/><path d="M368.73-994.15a6 6 0 0 1 6-6h319.03a6 6 0 0 1 6 6v230.02a6 6 0 0 1-6 6H374.73a6 6 0 0 1-6-6z" stroke="#ba23f6" stroke-width="4" fill="none"/><use xlink:href="#H" transform="matrix(1,0,0,1,376.7343097691828,-1000.1459925584036) translate(0 19.933333333333334)"/><path d="M445.55-944.47c-15.9 0-28.8 12.9-28.8 28.8v86.4c0 15.9 12.9 28.8 28.8 28.8h181.4c15.9 0 28.8-12.9 28.8-28.8v-86.4c0-15.9-12.9-28.8-28.8-28.8z" stroke="#54c45e" stroke-width="2" fill="#dfdddd" fill-opacity=".26"/><path d="M416.75-900.47h239" stroke="#54c45e" stroke-width="2" fill="none"/><use xlink:href="#I" transform="matrix(1,0,0,1,464.54545454545456,-944.4719381796574) translate(34.46913580246914 26.444444444444443)"/><use xlink:href="#J" transform="matrix(1,0,0,1,440.6459116949251,-884.4719381796574) translate(0 17.422222222222224)"/><use xlink:href="#B" transform="matrix(1,0,0,1,440.6459116949251,-884.4719381796574) translate(42.345679012345684 17.422222222222224)"/><use xlink:href="#K" transform="matrix(1,0,0,1,440.6459116949251,-884.4719381796574) translate(78.64197530864197 17.422222222222224)"/><use xlink:href="#L" transform="matrix(1,0,0,1,440.6459116949251,-884.4719381796574) translate(0 43.55555555555556)"/><use xlink:href="#M" transform="matrix(1,0,0,1,440.6459116949251,-884.4719381796574) translate(48.39506172839506 43.55555555555556)"/><use xlink:href="#y" transform="matrix(1,0,0,1,440.6459116949251,-884.4719381796574) translate(114.8172839506173 43.55555555555556)"/><use xlink:href="#N" transform="matrix(1,0,0,1,440.6459116949251,-884.4719381796574) translate(0 69.6888888888889)"/><path d="M1359-955.8c-16.94 0-30.67 13.73-30.67 30.66v92c0 16.94 13.73 30.67 30.67 30.67h211c16.93 0 30.66-13.73 30.66-30.67v-92c0-16.93-13.73-30.66-30.67-30.66z" stroke="#54c45e" stroke-width="2" fill="#dfdddd" fill-opacity=".26"/><path d="M1328.33-911.8h272.33" stroke="#54c45e" stroke-width="2" fill="none"/><use xlink:href="#O" transform="matrix(1,0,0,1,1382.7949771425262,-955.8042299289261) translate(19.74691358024691 26.444444444444443)"/><use xlink:href="#P" transform="matrix(1,0,0,1,1355.5622938487354,-895.8042299289261) translate(0 17.422222222222224)"/><use xlink:href="#y" transform="matrix(1,0,0,1,1355.5622938487354,-895.8042299289261) translate(84.57037037037036 17.422222222222224)"/><use xlink:href="#Q" transform="matrix(1,0,0,1,1355.5622938487354,-895.8042299289261) translate(0 43.55555555555556)"/><use xlink:href="#R" transform="matrix(1,0,0,1,1355.5622938487354,-895.8042299289261) translate(112.39753086419752 43.55555555555556)"/><use xlink:href="#y" transform="matrix(1,0,0,1,1355.5622938487354,-895.8042299289261) translate(161.88148148148147 43.55555555555556)"/><use xlink:href="#S" transform="matrix(1,0,0,1,1355.5622938487354,-895.8042299289261) translate(0 69.6888888888889)"/><use xlink:href="#T" transform="matrix(1,0,0,1,1355.5622938487354,-895.8042299289261) translate(73.68148148148147 69.6888888888889)"/><path d="M1325.83-879.14h-84.97" stroke="#5e5e5e" stroke-width="3" fill="none"/><path d="M1327.33-877.66h-1.54v-2.95h1.53z" stroke="#5e5e5e" stroke-width=".05" fill="#5e5e5e"/><path d="M1225.1-879.14l14.27-4.63v9.27z" stroke="#5e5e5e" stroke-width="3" fill="#5e5e5e"/><path d="M1052.74-754.63v35.6" stroke="#5e5e5e" stroke-width="3" fill="none"/><path d="M1054.2-754.6h-2.94v-1.53h2.95z" stroke="#5e5e5e" stroke-width=".05" fill="#5e5e5e"/><path d="M1052.74-703.26l-4.63-14.27h9.28z" stroke="#5e5e5e" stroke-width="3" fill="#5e5e5e"/><path d="M887.23-994.15a6 6 0 0 1 6-6H1034a6 6 0 0 1 6 6v8a14.48 14.48 0 0 1-4.24 10.25l-1.52 1.5a14.48 14.48 0 0 1-10.24 4.25H893.23a6 6 0 0 1-6-6z" fill="#fff"/><path d="M1040-1000.15v20l-10 10H887.23" stroke="#e81313" stroke-width="4" fill="none"/><path d="M887.23-994.15a6 6 0 0 1 6-6h319.02a6 6 0 0 1 6 6v230.02a6 6 0 0 1-6 6H893.23a6 6 0 0 1-6-6z" stroke="#e81313" stroke-width="4" fill="none"/><g><use xlink:href="#U" transform="matrix(1,0,0,1,895.2284011341936,-1000.1459925584036) translate(0 19.933333333333334)"/></g><path d="M964.04-944.47c-15.9 0-28.8 12.9-28.8 28.8v86.4c0 15.9 12.9 28.8 28.8 28.8h181.4c15.9 0 28.8-12.9 28.8-28.8v-86.4c0-15.9-12.9-28.8-28.8-28.8z" stroke="#54c45e" stroke-width="2" fill="#dfdddd" fill-opacity=".26"/><path d="M935.24-900.47h239" stroke="#54c45e" stroke-width="2" fill="none"/><g><use xlink:href="#V" transform="matrix(1,0,0,1,983.0395459104653,-944.4719381796574) translate(14.067901234567906 26.444444444444443)"/></g><g><use xlink:href="#W" transform="matrix(1,0,0,1,959.1400030599359,-884.4719381796574) translate(0 25.28888888888889)"/><use xlink:href="#y" transform="matrix(1,0,0,1,959.1400030599359,-884.4719381796574) translate(84.63086419753087 25.28888888888889)"/><use xlink:href="#X" transform="matrix(1,0,0,1,959.1400030599359,-884.4719381796574) translate(0 51.422222222222224)"/><use xlink:href="#Y" transform="matrix(1,0,0,1,959.1400030599359,-884.4719381796574) translate(79.67037037037038 51.422222222222224)"/></g><path d="M705.25-443.22H813a6 6 0 0 0 6-6v-417.25a6 6 0 0 1 6-6h88.62" stroke="#5e5e5e" stroke-width="3" fill="none"/><path d="M705.3-441.74h-1.54v-2.95h1.53z" stroke="#5e5e5e" stroke-width=".05" fill="#5e5e5e"/><path d="M929.4-872.47l-14.28 4.63v-9.27z" stroke="#5e5e5e" stroke-width="3" fill="#5e5e5e"/><path d="M705.25-443.22H812.5a6 6 0 0 0 6-6v-104.8a6 6 0 0 1 6-6h61.12" stroke="#5e5e5e" stroke-width="3" fill="none"/><path d="M705.3-441.74h-1.54v-2.95h1.53z" stroke="#5e5e5e" stroke-width=".05" fill="#5e5e5e"/><path d="M901.4-560.02l-14.28 4.63v-9.26z" stroke="#5e5e5e" stroke-width="3" fill="#5e5e5e"/><path d="M942.24-363.74H766.18a6 6 0 0 1-6-6v-251.92a6 6 0 0 0-6-6H542.24a6 6 0 0 1-6-6v-145.2" stroke="#5e5e5e" stroke-width="3" fill="none"/><path d="M943.74-362.26h-1.54v-2.95h1.54z" stroke="#5e5e5e" stroke-width=".05" fill="#5e5e5e"/><path d="M536.24-794.62l4.64 14.27h-9.27z" stroke="#5e5e5e" stroke-width="3" fill="#5e5e5e"/><path d="M536.24-567.73v-211.12" stroke="#5e5e5e" stroke-width="3" fill="none"/><path d="M537.72-566.23h-2.95v-1.53h2.95z" stroke="#5e5e5e" stroke-width=".05" fill="#5e5e5e"/><path d="M536.24-794.62l4.64 14.27h-9.27z" stroke="#5e5e5e" stroke-width="3" fill="#5e5e5e"/><path d="M370.73-558.23a6 6 0 0 1 6-6H494a6 6 0 0 1 6 6v8a14.48 14.48 0 0 1-4.24 10.25l-1.52 1.5a14.48 14.48 0 0 1-10.24 4.25H376.73a6 6 0 0 1-6-6z" fill="#fff"/><path d="M500-564.23v20l-10 10H370.73" stroke="#54c45e" stroke-width="4" fill="none"/><path d="M370.73-558.23a6 6 0 0 1 6-6h319.02a6 6 0 0 1 6 6v230.02a6 6 0 0 1-6 6H376.74a6 6 0 0 1-6-6z" stroke="#54c45e" stroke-width="4" fill="none"/><g><use xlink:href="#Z" transform="matrix(1,0,0,1,378.7334066315606,-564.2266543041977) translate(0 19.933333333333334)"/></g><path d="M447.55-507.95c-15.9 0-28.8 12.9-28.8 28.8v86.4c0 15.9 12.9 28.8 28.8 28.8h181.4c15.9 0 28.8-12.9 28.8-28.8v-86.4c0-15.9-12.9-28.8-28.8-28.8z" stroke="#54c45e" stroke-width="2" fill="#dfdddd" fill-opacity=".26"/><path d="M418.75-463.95h239" stroke="#54c45e" stroke-width="2" fill="none"/><g><use xlink:href="#aa" transform="matrix(1,0,0,1,466.54455140783233,-507.9512773541428) translate(23.26543209876543 26.444444444444443)"/></g><g><use xlink:href="#ab" transform="matrix(1,0,0,1,442.64500855730284,-447.9512773541428) translate(0 25.28888888888889)"/><use xlink:href="#g" transform="matrix(1,0,0,1,442.64500855730284,-447.9512773541428) translate(72.5320987654321 25.28888888888889)"/><use xlink:href="#ac" transform="matrix(1,0,0,1,442.64500855730284,-447.9512773541428) translate(114.87777777777778 25.28888888888889)"/><use xlink:href="#ad" transform="matrix(1,0,0,1,442.64500855730284,-447.9512773541428) translate(0 51.422222222222224)"/><use xlink:href="#ae" transform="matrix(1,0,0,1,442.64500855730284,-447.9512773541428) translate(27.706172839506177 51.422222222222224)"/><use xlink:href="#af" transform="matrix(1,0,0,1,442.64500855730284,-447.9512773541428) translate(109.91728395061727 51.422222222222224)"/></g><defs><path d="M24 0v-248h195v40H76v63h132v40H76v65h150V0H24" id="ag"/><path d="M135-194c87-1 58 113 63 194h-50c-7-57 23-157-34-157-59 0-34 97-39 157H25l-1-190h47c2 12-1 28 3 38 12-26 28-41 61-42" id="ah"/><path d="M128 0H69L1-190h53L99-40l48-150h52" id="ai"/><path d="M25-224v-37h50v37H25zM25 0v-190h50V0H25" id="aj"/><path d="M135-150c-39-12-60 13-60 57V0H25l-1-190h47c2 13-1 29 3 40 6-28 27-53 61-41v41" id="ak"/><path d="M110-194c64 0 96 36 96 99 0 64-35 99-97 99-61 0-95-36-95-99 0-62 34-99 96-99zm-1 164c35 0 45-28 45-65 0-40-10-65-43-65-34 0-45 26-45 65 0 36 10 65 43 65" id="al"/><path d="M220-157c-53 9-28 100-34 157h-49v-107c1-27-5-49-29-50C55-147 81-57 75 0H25l-1-190h47c2 12-1 28 3 38 10-53 101-56 108 0 13-22 24-43 59-42 82 1 51 116 57 194h-49v-107c-1-25-5-48-29-50" id="am"/><path d="M185-48c-13 30-37 53-82 52C43 2 14-33 14-96s30-98 90-98c62 0 83 45 84 108H66c0 31 8 55 39 56 18 0 30-7 34-22zm-45-69c5-46-57-63-70-21-2 6-4 13-4 21h74" id="an"/><path d="M115-3C79 11 28 4 28-45v-112H4v-33h27l15-45h31v45h36v33H77v99c-1 23 16 31 38 25v30" id="ao"/><g id="a"><use transform="matrix(0.0685185185185185,0,0,0.0685185185185185,0,0)" xlink:href="#ag"/><use transform="matrix(0.0685185185185185,0,0,0.0685185185185185,16.444444444444443,0)" xlink:href="#ah"/><use transform="matrix(0.0685185185185185,0,0,0.0685185185185185,31.449999999999996,0)" xlink:href="#ai"/><use transform="matrix(0.0685185185185185,0,0,0.0685185185185185,45.1537037037037,0)" xlink:href="#aj"/><use transform="matrix(0.0685185185185185,0,0,0.0685185185185185,52.005555555555546,0)" xlink:href="#ak"/><use transform="matrix(0.0685185185185185,0,0,0.0685185185185185,61.598148148148134,0)" xlink:href="#al"/><use transform="matrix(0.0685185185185185,0,0,0.0685185185185185,76.6037037037037,0)" xlink:href="#ah"/><use transform="matrix(0.0685185185185185,0,0,0.0685185185185185,91.60925925925926,0)" xlink:href="#am"/><use transform="matrix(0.0685185185185185,0,0,0.0685185185185185,113.53518518518518,0)" xlink:href="#an"/><use transform="matrix(0.0685185185185185,0,0,0.0685185185185185,127.23888888888888,0)" xlink:href="#ah"/><use transform="matrix(0.0685185185185185,0,0,0.0685185185185185,142.24444444444444,0)" xlink:href="#ao"/></g><path d="M169-182c-1-43-94-46-97-3 18 66 151 10 154 114 3 95-165 93-204 36-6-8-10-19-12-30l50-8c3 46 112 56 116 5-17-69-150-10-154-114-4-87 153-88 188-35 5 8 8 18 10 28" id="ap"/><path d="M137-138c1-29-70-34-71-4 15 46 118 7 119 86 1 83-164 76-172 9l43-7c4 19 20 25 44 25 33 8 57-30 24-41C81-84 22-81 20-136c-2-80 154-74 161-7" id="aq"/><g id="b"><use transform="matrix(0.06851851851851841,0,0,0.06851851851851841,0,0)" xlink:href="#ap"/><use transform="matrix(0.06851851851851841,0,0,0.06851851851851841,16.444444444444418,0)" xlink:href="#an"/><use transform="matrix(0.06851851851851841,0,0,0.06851851851851841,30.1481481481481,0)" xlink:href="#ah"/><use transform="matrix(0.06851851851851841,0,0,0.06851851851851841,45.15370370370363,0)" xlink:href="#aq"/><use transform="matrix(0.06851851851851841,0,0,0.06851851851851841,58.85740740740731,0)" xlink:href="#al"/><use transform="matrix(0.06851851851851841,0,0,0.06851851851851841,73.86296296296284,0)" xlink:href="#ak"/><use transform="matrix(0.06851851851851841,0,0,0.06851851851851841,83.45555555555542,0)" xlink:href="#aq"/></g><path fill="#282c33" d="M67-125c0 54 23 88 75 88 28 0 53-7 68-21v-34h-60v-39h108v91C232-14 192 4 140 4 58 4 20-42 15-125 8-236 126-280 215-234c19 10 29 26 37 47l-47 15c-11-23-29-39-63-39-53 1-75 33-75 86" id="ar"/><path fill="#282c33" d="M24-248c93 1 206-16 204 79-1 75-69 88-152 82V0H24v-248zm52 121c47 0 100 7 100-41 0-47-54-39-100-39v80" id="as"/><path fill="#282c33" d="M169-182c-1-43-94-46-97-3 18 66 151 10 154 114 3 95-165 93-204 36-6-8-10-19-12-30l50-8c3 46 112 56 116 5-17-69-150-10-154-114-4-87 153-88 188-35 5 8 8 18 10 28" id="at"/><g id="c"><use transform="matrix(0.06172839506172839,0,0,0.06172839506172839,0,0)" xlink:href="#ar"/><use transform="matrix(0.06172839506172839,0,0,0.06172839506172839,17.28395061728395,0)" xlink:href="#as"/><use transform="matrix(0.06172839506172839,0,0,0.06172839506172839,32.09876543209876,0)" xlink:href="#at"/></g><path d="M240 0l2-218c-23 76-54 145-80 218h-23L58-218 59 0H30v-248h44l77 211c21-75 51-140 76-211h43V0h-30" id="au"/><path d="M100-194c63 0 86 42 84 106H49c0 40 14 67 53 68 26 1 43-12 49-29l28 8c-11 28-37 45-77 45C44 4 14-33 15-96c1-61 26-98 85-98zm52 81c6-60-76-77-97-28-3 7-6 17-6 28h103" id="av"/><path d="M141-36C126-15 110 5 73 4 37 3 15-17 15-53c-1-64 63-63 125-63 3-35-9-54-41-54-24 1-41 7-42 31l-33-3c5-37 33-52 76-52 45 0 72 20 72 64v82c-1 20 7 32 28 27v20c-31 9-61-2-59-35zM48-53c0 20 12 33 32 33 41-3 63-29 60-74-43 2-92-5-92 41" id="aw"/><path d="M135-143c-3-34-86-38-87 0 15 53 115 12 119 90S17 21 10-45l28-5c4 36 97 45 98 0-10-56-113-15-118-90-4-57 82-63 122-42 12 7 21 19 24 35" id="ax"/><path d="M84 4C-5 8 30-112 23-190h32v120c0 31 7 50 39 49 72-2 45-101 50-169h31l1 190h-30c-1-10 1-25-2-33-11 22-28 36-60 37" id="ay"/><path d="M114-163C36-179 61-72 57 0H25l-1-190h30c1 12-1 29 2 39 6-27 23-49 58-41v29" id="az"/><g id="d"><use transform="matrix(0.06049382716049383,0,0,0.06049382716049383,0,0)" xlink:href="#au"/><use transform="matrix(0.06049382716049383,0,0,0.06049382716049383,18.087654320987653,0)" xlink:href="#av"/><use transform="matrix(0.06049382716049383,0,0,0.06049382716049383,30.18641975308642,0)" xlink:href="#aw"/><use transform="matrix(0.06049382716049383,0,0,0.06049382716049383,42.285185185185185,0)" xlink:href="#ax"/><use transform="matrix(0.06049382716049383,0,0,0.06049382716049383,53.17407407407407,0)" xlink:href="#ay"/><use transform="matrix(0.06049382716049383,0,0,0.06049382716049383,65.27283950617283,0)" xlink:href="#az"/><use transform="matrix(0.06049382716049383,0,0,0.06049382716049383,72.4716049382716,0)" xlink:href="#av"/></g><path d="M115-194c53 0 69 39 70 98 0 66-23 100-70 100C84 3 66-7 56-30L54 0H23l1-261h32v101c10-23 28-34 59-34zm-8 174c40 0 45-34 45-75 0-40-5-75-45-74-42 0-51 32-51 76 0 43 10 73 51 73" id="aA"/><path d="M100-194c62-1 85 37 85 99 1 63-27 99-86 99S16-35 15-95c0-66 28-99 85-99zM99-20c44 1 53-31 53-75 0-43-8-75-51-75s-53 32-53 75 10 74 51 75" id="aB"/><path d="M59-47c-2 24 18 29 38 22v24C64 9 27 4 27-40v-127H5v-23h24l9-43h21v43h35v23H59v120" id="aC"/><g id="e"><use transform="matrix(0.06049382716049383,0,0,0.06049382716049383,0,0)" xlink:href="#aA"/><use transform="matrix(0.06049382716049383,0,0,0.06049382716049383,12.098765432098766,0)" xlink:href="#aB"/><use transform="matrix(0.06049382716049383,0,0,0.06049382716049383,24.19753086419753,0)" xlink:href="#aw"/><use transform="matrix(0.06049382716049383,0,0,0.06049382716049383,36.2962962962963,0)" xlink:href="#aC"/></g><path d="M115-194c55 1 70 41 70 98S169 2 115 4C84 4 66-9 55-30l1 105H24l-1-265h31l2 30c10-21 28-34 59-34zm-8 174c40 0 45-34 45-75s-6-73-45-74c-42 0-51 32-51 76 0 43 10 73 51 73" id="aD"/><path d="M24-231v-30h32v30H24zM24 0v-190h32V0H24" id="aE"/><path d="M117-194c89-4 53 116 60 194h-32v-121c0-31-8-49-39-48C34-167 62-67 57 0H25l-1-190h30c1 10-1 24 2 32 11-22 29-35 61-36" id="aF"/><g id="f"><use transform="matrix(0.06049382716049383,0,0,0.06049382716049383,0,0)" xlink:href="#aD"/><use transform="matrix(0.06049382716049383,0,0,0.06049382716049383,12.098765432098766,0)" xlink:href="#aB"/><use transform="matrix(0.06049382716049383,0,0,0.06049382716049383,24.19753086419753,0)" xlink:href="#ax"/><use transform="matrix(0.06049382716049383,0,0,0.06049382716049383,35.08641975308642,0)" xlink:href="#aE"/><use transform="matrix(0.06049382716049383,0,0,0.06049382716049383,39.86543209876543,0)" xlink:href="#aC"/><use transform="matrix(0.06049382716049383,0,0,0.06049382716049383,45.91481481481482,0)" xlink:href="#aE"/><use transform="matrix(0.06049382716049383,0,0,0.06049382716049383,50.69382716049383,0)" xlink:href="#aB"/><use transform="matrix(0.06049382716049383,0,0,0.06049382716049383,62.79259259259259,0)" xlink:href="#aF"/></g><path d="M85-194c31 0 48 13 60 33l-1-100h32l1 261h-30c-2-10 0-23-3-31C134-8 116 4 85 4 32 4 16-35 15-94c0-66 23-100 70-100zm9 24c-40 0-46 34-46 75 0 40 6 74 45 74 42 0 51-32 51-76 0-42-9-74-50-73" id="aG"/><g id="g"><use transform="matrix(0.06049382716049383,0,0,0.06049382716049383,0,0)" xlink:href="#aw"/><use transform="matrix(0.06049382716049383,0,0,0.06049382716049383,12.098765432098766,0)" xlink:href="#aF"/><use transform="matrix(0.06049382716049383,0,0,0.06049382716049383,24.19753086419753,0)" xlink:href="#aG"/></g><g id="h"><use transform="matrix(0.06049382716049383,0,0,0.06049382716049383,0,0)" xlink:href="#ax"/><use transform="matrix(0.06049382716049383,0,0,0.06049382716049383,10.88888888888889,0)" xlink:href="#aD"/><use transform="matrix(0.06049382716049383,0,0,0.06049382716049383,22.987654320987655,0)" xlink:href="#av"/><use transform="matrix(0.06049382716049383,0,0,0.06049382716049383,35.08641975308642,0)" xlink:href="#av"/><use transform="matrix(0.06049382716049383,0,0,0.06049382716049383,47.18518518518518,0)" xlink:href="#aG"/></g><path fill="#282c33" d="M67-125c0 53 21 87 73 88 37 1 54-22 65-47l45 17C233-25 199 4 140 4 58 4 20-42 15-125 8-235 124-281 211-232c18 10 29 29 36 50l-46 12c-8-25-30-41-62-41-52 0-71 34-72 86" id="aH"/><path fill="#282c33" d="M230 0l2-204L168 0h-37L68-204 70 0H24v-248h70l56 185 57-185h69V0h-46" id="aI"/><g id="i"><use transform="matrix(0.06172839506172839,0,0,0.06172839506172839,0,0)" xlink:href="#aH"/><use transform="matrix(0.06172839506172839,0,0,0.06172839506172839,15.987654320987653,0)" xlink:href="#aI"/><use transform="matrix(0.06172839506172839,0,0,0.06172839506172839,34.44444444444444,0)" xlink:href="#as"/><use transform="matrix(0.06172839506172839,0,0,0.06172839506172839,49.25925925925925,0)" xlink:href="#at"/></g><path d="M106-169C34-169 62-67 57 0H25v-261h32l-1 103c12-21 28-36 61-36 89 0 53 116 60 194h-32v-121c2-32-8-49-39-48" id="aJ"/><path d="M177-190C167-65 218 103 67 71c-23-6-38-20-44-43l32-5c15 47 100 32 89-28v-30C133-14 115 1 83 1 29 1 15-40 15-95c0-56 16-97 71-98 29-1 48 16 59 35 1-10 0-23 2-32h30zM94-22c36 0 50-32 50-73 0-42-14-75-50-75-39 0-46 34-46 75s6 73 46 73" id="aK"/><g id="j"><use transform="matrix(0.06049382716049383,0,0,0.06049382716049383,0,0)" xlink:href="#aJ"/><use transform="matrix(0.06049382716049383,0,0,0.06049382716049383,12.098765432098766,0)" xlink:href="#av"/><use transform="matrix(0.06049382716049383,0,0,0.06049382716049383,24.19753086419753,0)" xlink:href="#aw"/><use transform="matrix(0.06049382716049383,0,0,0.06049382716049383,36.2962962962963,0)" xlink:href="#aG"/><use transform="matrix(0.06049382716049383,0,0,0.06049382716049383,48.39506172839506,0)" xlink:href="#aE"/><use transform="matrix(0.06049382716049383,0,0,0.06049382716049383,53.17407407407408,0)" xlink:href="#aF"/><use transform="matrix(0.06049382716049383,0,0,0.06049382716049383,65.27283950617284,0)" xlink:href="#aK"/></g><path fill="#282c33" d="M275 0h-61l-44-196L126 0H64L0-248h53L97-49l45-199h58l43 199 44-199h52" id="aL"/><path fill="#282c33" d="M25-224v-37h50v37H25zM25 0v-190h50V0H25" id="aM"/><path fill="#282c33" d="M135-194c87-1 58 113 63 194h-50c-7-57 23-157-34-157-59 0-34 97-39 157H25l-1-190h47c2 12-1 28 3 38 12-26 28-41 61-42" id="aN"/><path fill="#282c33" d="M88-194c31-1 46 15 58 34l-1-101h50l1 261h-48c-2-10 0-23-3-31C134-8 116 4 84 4 32 4 16-41 15-95c0-56 19-97 73-99zm17 164c33 0 40-30 41-66 1-37-9-64-41-64s-38 30-39 65c0 43 13 65 39 65" id="aO"/><path fill="#282c33" d="M24-248c120-7 223 5 221 122C244-46 201 0 124 0H24v-248zM76-40c74 7 117-18 117-86 0-67-45-88-117-82v168" id="aP"/><path fill="#282c33" d="M135-150c-39-12-60 13-60 57V0H25l-1-190h47c2 13-1 29 3 40 6-28 27-53 61-41v41" id="aQ"/><path fill="#282c33" d="M185-48c-13 30-37 53-82 52C43 2 14-33 14-96s30-98 90-98c62 0 83 45 84 108H66c0 31 8 55 39 56 18 0 30-7 34-22zm-45-69c5-46-57-63-70-21-2 6-4 13-4 21h74" id="aR"/><path fill="#282c33" d="M190-63c-7 42-38 67-86 67-59 0-84-38-90-98-12-110 154-137 174-36l-49 2c-2-19-15-32-35-32-30 0-35 28-38 64-6 74 65 87 74 30" id="aS"/><path fill="#282c33" d="M115-3C79 11 28 4 28-45v-112H4v-33h27l15-45h31v45h36v33H77v99c-1 23 16 31 38 25v30" id="aT"/><path fill="#282c33" d="M110-194c64 0 96 36 96 99 0 64-35 99-97 99-61 0-95-36-95-99 0-62 34-99 96-99zm-1 164c35 0 45-28 45-65 0-40-10-65-43-65-34 0-45 26-45 65 0 36 10 65 43 65" id="aU"/><g id="k"><use transform="matrix(0.06172839506172839,0,0,0.06172839506172839,0,0)" xlink:href="#aL"/><use transform="matrix(0.06172839506172839,0,0,0.06172839506172839,20.740740740740737,0)" xlink:href="#aM"/><use transform="matrix(0.06172839506172839,0,0,0.06172839506172839,26.913580246913575,0)" xlink:href="#aN"/><use transform="matrix(0.06172839506172839,0,0,0.06172839506172839,40.432098765432094,0)" xlink:href="#aO"/><use transform="matrix(0.06172839506172839,0,0,0.06172839506172839,53.95061728395061,0)" xlink:href="#aP"/><use transform="matrix(0.06172839506172839,0,0,0.06172839506172839,69.93827160493827,0)" xlink:href="#aM"/><use transform="matrix(0.06172839506172839,0,0,0.06172839506172839,76.1111111111111,0)" xlink:href="#aQ"/><use transform="matrix(0.06172839506172839,0,0,0.06172839506172839,84.75308641975307,0)" xlink:href="#aR"/><use transform="matrix(0.06172839506172839,0,0,0.06172839506172839,97.09876543209876,0)" xlink:href="#aS"/><use transform="matrix(0.06172839506172839,0,0,0.06172839506172839,109.44444444444444,0)" xlink:href="#aT"/><use transform="matrix(0.06172839506172839,0,0,0.06172839506172839,116.79012345679013,0)" xlink:href="#aM"/><use transform="matrix(0.06172839506172839,0,0,0.06172839506172839,122.96296296296296,0)" xlink:href="#aU"/><use transform="matrix(0.06172839506172839,0,0,0.06172839506172839,136.48148148148147,0)" xlink:href="#aN"/></g><path d="M206 0h-36l-40-164L89 0H53L-1-190h32L70-26l43-164h34l41 164 42-164h31" id="aV"/><g id="l"><use transform="matrix(0.06049382716049383,0,0,0.06049382716049383,0,0)" xlink:href="#aV"/><use transform="matrix(0.06049382716049383,0,0,0.06049382716049383,15.667901234567902,0)" xlink:href="#aE"/><use transform="matrix(0.06049382716049383,0,0,0.06049382716049383,20.446913580246914,0)" xlink:href="#aF"/><use transform="matrix(0.06049382716049383,0,0,0.06049382716049383,32.54567901234568,0)" xlink:href="#aG"/></g><path d="M96-169c-40 0-48 33-48 73s9 75 48 75c24 0 41-14 43-38l32 2c-6 37-31 61-74 61-59 0-76-41-82-99-10-93 101-131 147-64 4 7 5 14 7 22l-32 3c-4-21-16-35-41-35" id="aW"/><g id="m"><use transform="matrix(0.06049382716049383,0,0,0.06049382716049383,0,0)" xlink:href="#aG"/><use transform="matrix(0.06049382716049383,0,0,0.06049382716049383,12.098765432098766,0)" xlink:href="#aE"/><use transform="matrix(0.06049382716049383,0,0,0.06049382716049383,16.87777777777778,0)" xlink:href="#az"/><use transform="matrix(0.06049382716049383,0,0,0.06049382716049383,24.076543209876547,0)" xlink:href="#av"/><use transform="matrix(0.06049382716049383,0,0,0.06049382716049383,36.17530864197531,0)" xlink:href="#aW"/><use transform="matrix(0.06049382716049383,0,0,0.06049382716049383,47.064197530864206,0)" xlink:href="#aC"/><use transform="matrix(0.06049382716049383,0,0,0.06049382716049383,53.113580246913585,0)" xlink:href="#aE"/><use transform="matrix(0.06049382716049383,0,0,0.06049382716049383,57.8925925925926,0)" xlink:href="#aB"/><use transform="matrix(0.06049382716049383,0,0,0.06049382716049383,69.99135802469137,0)" xlink:href="#aF"/></g><path fill="#282c33" d="M135-194c53 0 70 44 70 98 0 56-19 98-73 100-31 1-45-17-59-34 3 33 2 69 2 105H25l-1-265h48c2 10 0 23 3 31 11-24 29-35 60-35zM114-30c33 0 39-31 40-66 0-38-9-64-40-64-56 0-55 130 0 130" id="aX"/><g id="n"><use transform="matrix(0.06172839506172839,0,0,0.06172839506172839,0,0)" xlink:href="#aL"/><use transform="matrix(0.06172839506172839,0,0,0.06172839506172839,20.740740740740737,0)" xlink:href="#aM"/><use transform="matrix(0.06172839506172839,0,0,0.06172839506172839,26.913580246913575,0)" xlink:href="#aN"/><use transform="matrix(0.06172839506172839,0,0,0.06172839506172839,40.432098765432094,0)" xlink:href="#aO"/><use transform="matrix(0.06172839506172839,0,0,0.06172839506172839,53.95061728395061,0)" xlink:href="#at"/><use transform="matrix(0.06172839506172839,0,0,0.06172839506172839,68.76543209876543,0)" xlink:href="#aX"/><use transform="matrix(0.06172839506172839,0,0,0.06172839506172839,82.28395061728395,0)" xlink:href="#aR"/><use transform="matrix(0.06172839506172839,0,0,0.06172839506172839,94.62962962962963,0)" xlink:href="#aR"/><use transform="matrix(0.06172839506172839,0,0,0.06172839506172839,106.97530864197532,0)" xlink:href="#aO"/></g><path fill="#282c33" d="M128 0H69L1-190h53L99-40l48-150h52" id="aY"/><g id="o"><use transform="matrix(0.06172839506172839,0,0,0.06172839506172839,0,0)" xlink:href="#at"/><use transform="matrix(0.06172839506172839,0,0,0.06172839506172839,14.814814814814813,0)" xlink:href="#aR"/><use transform="matrix(0.06172839506172839,0,0,0.06172839506172839,27.160493827160494,0)" xlink:href="#aQ"/><use transform="matrix(0.06172839506172839,0,0,0.06172839506172839,35.80246913580247,0)" xlink:href="#aY"/><use transform="matrix(0.06172839506172839,0,0,0.06172839506172839,48.148148148148145,0)" xlink:href="#aU"/><use transform="matrix(0.06172839506172839,0,0,0.06172839506172839,61.666666666666664,0)" xlink:href="#aI"/><use transform="matrix(0.06172839506172839,0,0,0.06172839506172839,80.12345679012346,0)" xlink:href="#aU"/><use transform="matrix(0.06172839506172839,0,0,0.06172839506172839,93.64197530864197,0)" xlink:href="#aT"/><use transform="matrix(0.06172839506172839,0,0,0.06172839506172839,100.98765432098766,0)" xlink:href="#aU"/><use transform="matrix(0.06172839506172839,0,0,0.06172839506172839,114.50617283950618,0)" xlink:href="#aQ"/></g><path d="M212-179c-10-28-35-45-73-45-59 0-87 40-87 99 0 60 29 101 89 101 43 0 62-24 78-52l27 14C228-24 195 4 139 4 59 4 22-46 18-125c-6-104 99-153 187-111 19 9 31 26 39 46" id="aZ"/><g id="p"><use transform="matrix(0.06049382716049383,0,0,0.06049382716049383,0,0)" xlink:href="#aZ"/><use transform="matrix(0.06049382716049383,0,0,0.06049382716049383,15.667901234567902,0)" xlink:href="#aB"/><use transform="matrix(0.06049382716049383,0,0,0.06049382716049383,27.766666666666666,0)" xlink:href="#aF"/><use transform="matrix(0.06049382716049383,0,0,0.06049382716049383,39.86543209876543,0)" xlink:href="#aC"/><use transform="matrix(0.06049382716049383,0,0,0.06049382716049383,45.91481481481482,0)" xlink:href="#aw"/><use transform="matrix(0.06049382716049383,0,0,0.06049382716049383,58.013580246913584,0)" xlink:href="#aE"/><use transform="matrix(0.06049382716049383,0,0,0.06049382716049383,62.79259259259259,0)" xlink:href="#aF"/></g><path d="M101-234c-31-9-42 10-38 44h38v23H63V0H32v-167H5v-23h27c-7-52 17-82 69-68v24" id="ba"/><g id="q"><use transform="matrix(0.06049382716049383,0,0,0.06049382716049383,0,0)" xlink:href="#ba"/><use transform="matrix(0.06049382716049383,0,0,0.06049382716049383,6.049382716049383,0)" xlink:href="#ay"/><use transform="matrix(0.06049382716049383,0,0,0.06049382716049383,18.14814814814815,0)" xlink:href="#aF"/><use transform="matrix(0.06049382716049383,0,0,0.06049382716049383,30.246913580246915,0)" xlink:href="#aW"/><use transform="matrix(0.06049382716049383,0,0,0.06049382716049383,41.135802469135804,0)" xlink:href="#aC"/><use transform="matrix(0.06049382716049383,0,0,0.06049382716049383,47.18518518518519,0)" xlink:href="#aE"/><use transform="matrix(0.06049382716049383,0,0,0.06049382716049383,51.964197530864205,0)" xlink:href="#aB"/><use transform="matrix(0.06049382716049383,0,0,0.06049382716049383,64.06296296296297,0)" xlink:href="#aF"/><use transform="matrix(0.06049382716049383,0,0,0.06049382716049383,76.16172839506174,0)" xlink:href="#ax"/></g><g id="r"><use transform="matrix(0.06049382716049383,0,0,0.06049382716049383,0,0)" xlink:href="#aC"/><use transform="matrix(0.06049382716049383,0,0,0.06049382716049383,6.049382716049383,0)" xlink:href="#aB"/></g><g id="s"><use transform="matrix(0.06049382716049383,0,0,0.06049382716049383,0,0)" xlink:href="#ax"/><use transform="matrix(0.06049382716049383,0,0,0.06049382716049383,10.88888888888889,0)" xlink:href="#av"/><use transform="matrix(0.06049382716049383,0,0,0.06049382716049383,22.987654320987655,0)" xlink:href="#aC"/></g><path d="M108 0H70L1-190h34L89-25l56-165h34" id="bb"/><path d="M210-169c-67 3-38 105-44 169h-31v-121c0-29-5-50-35-48C34-165 62-65 56 0H25l-1-190h30c1 10-1 24 2 32 10-44 99-50 107 0 11-21 27-35 58-36 85-2 47 119 55 194h-31v-121c0-29-5-49-35-48" id="bc"/><g id="t"><use transform="matrix(0.06049382716049383,0,0,0.06049382716049383,0,0)" xlink:href="#ax"/><use transform="matrix(0.06049382716049383,0,0,0.06049382716049383,10.88888888888889,0)" xlink:href="#av"/><use transform="matrix(0.06049382716049383,0,0,0.06049382716049383,22.987654320987655,0)" xlink:href="#az"/><use transform="matrix(0.06049382716049383,0,0,0.06049382716049383,30.18641975308642,0)" xlink:href="#bb"/><use transform="matrix(0.06049382716049383,0,0,0.06049382716049383,41.07530864197531,0)" xlink:href="#aB"/><use transform="matrix(0.06049382716049383,0,0,0.06049382716049383,53.17407407407408,0)" xlink:href="#bc"/><use transform="matrix(0.06049382716049383,0,0,0.06049382716049383,71.26172839506174,0)" xlink:href="#aB"/><use transform="matrix(0.06049382716049383,0,0,0.06049382716049383,83.3604938271605,0)" xlink:href="#aC"/><use transform="matrix(0.06049382716049383,0,0,0.06049382716049383,89.40987654320988,0)" xlink:href="#aB"/><use transform="matrix(0.06049382716049383,0,0,0.06049382716049383,101.50864197530865,0)" xlink:href="#az"/><use transform="matrix(0.06049382716049383,0,0,0.06049382716049383,108.70740740740742,0)" xlink:href="#ax"/></g><path d="M30-248c87 1 191-15 191 75 0 78-77 80-158 76V0H30v-248zm33 125c57 0 124 11 124-50 0-59-68-47-124-48v98" id="bd"/><path d="M266 0h-40l-56-210L115 0H75L2-248h35L96-30l15-64 43-154h32l59 218 59-218h35" id="be"/><g id="u"><use transform="matrix(0.06049382716049383,0,0,0.06049382716049383,0,0)" xlink:href="#bd"/><use transform="matrix(0.06049382716049383,0,0,0.06049382716049383,14.518518518518519,0)" xlink:href="#be"/><use transform="matrix(0.06049382716049383,0,0,0.06049382716049383,35.025925925925925,0)" xlink:href="#au"/></g><path d="M67-125c0 53 21 87 73 88 37 1 54-22 65-47l45 17C233-25 199 4 140 4 58 4 20-42 15-125 8-235 124-281 211-232c18 10 29 29 36 50l-46 12c-8-25-30-41-62-41-52 0-71 34-72 86" id="bf"/><path d="M133-34C117-15 103 5 69 4 32 3 11-16 11-54c-1-60 55-63 116-61 1-26-3-47-28-47-18 1-26 9-28 27l-52-2c7-38 36-58 82-57s74 22 75 68l1 82c-1 14 12 18 25 15v27c-30 8-71 5-69-32zm-48 3c29 0 43-24 42-57-32 0-66-3-65 30 0 17 8 27 23 27" id="bg"/><path d="M88-194c31-1 46 15 58 34l-1-101h50l1 261h-48c-2-10 0-23-3-31C134-8 116 4 84 4 32 4 16-41 15-95c0-56 19-97 73-99zm17 164c33 0 40-30 41-66 1-37-9-64-41-64s-38 30-39 65c0 43 13 65 39 65" id="bh"/><g id="v"><use transform="matrix(0.0685185185185185,0,0,0.0685185185185185,0,0)" xlink:href="#bf"/><use transform="matrix(0.0685185185185185,0,0,0.0685185185185185,17.746296296296293,0)" xlink:href="#al"/><use transform="matrix(0.0685185185185185,0,0,0.0685185185185185,32.751851851851846,0)" xlink:href="#am"/><use transform="matrix(0.0685185185185185,0,0,0.0685185185185185,54.67777777777777,0)" xlink:href="#am"/><use transform="matrix(0.0685185185185185,0,0,0.0685185185185185,76.6037037037037,0)" xlink:href="#bg"/><use transform="matrix(0.0685185185185185,0,0,0.0685185185185185,90.3074074074074,0)" xlink:href="#ah"/><use transform="matrix(0.0685185185185185,0,0,0.0685185185185185,105.31296296296296,0)" xlink:href="#bh"/></g><path fill="#282c33" d="M25 0v-261h50V0H25" id="bi"/><g id="w"><use transform="matrix(0.06172839506172839,0,0,0.06172839506172839,0,0)" xlink:href="#aH"/><use transform="matrix(0.06172839506172839,0,0,0.06172839506172839,15.987654320987653,0)" xlink:href="#aU"/><use transform="matrix(0.06172839506172839,0,0,0.06172839506172839,29.50617283950617,0)" xlink:href="#aN"/><use transform="matrix(0.06172839506172839,0,0,0.06172839506172839,43.02469135802469,0)" xlink:href="#aT"/><use transform="matrix(0.06172839506172839,0,0,0.06172839506172839,50.37037037037037,0)" xlink:href="#aQ"/><use transform="matrix(0.06172839506172839,0,0,0.06172839506172839,59.01234567901234,0)" xlink:href="#aU"/><use transform="matrix(0.06172839506172839,0,0,0.06172839506172839,72.53086419753086,0)" xlink:href="#bi"/><use transform="matrix(0.06172839506172839,0,0,0.06172839506172839,78.7037037037037,0)" xlink:href="#bi"/><use transform="matrix(0.06172839506172839,0,0,0.06172839506172839,84.87654320987653,0)" xlink:href="#aR"/><use transform="matrix(0.06172839506172839,0,0,0.06172839506172839,97.22222222222221,0)" xlink:href="#aQ"/></g><path d="M24 0v-261h32V0H24" id="bj"/><g id="x"><use transform="matrix(0.06049382716049383,0,0,0.06049382716049383,0,0)" xlink:href="#aZ"/><use transform="matrix(0.06049382716049383,0,0,0.06049382716049383,15.667901234567902,0)" xlink:href="#aB"/><use transform="matrix(0.06049382716049383,0,0,0.06049382716049383,27.766666666666666,0)" xlink:href="#aF"/><use transform="matrix(0.06049382716049383,0,0,0.06049382716049383,39.86543209876543,0)" xlink:href="#aC"/><use transform="matrix(0.06049382716049383,0,0,0.06049382716049383,45.91481481481482,0)" xlink:href="#az"/><use transform="matrix(0.06049382716049383,0,0,0.06049382716049383,53.113580246913585,0)" xlink:href="#aB"/><use transform="matrix(0.06049382716049383,0,0,0.06049382716049383,65.21234567901234,0)" xlink:href="#bj"/></g><g id="y"><use transform="matrix(0.06049382716049383,0,0,0.06049382716049383,0,0)" xlink:href="#aC"/><use transform="matrix(0.06049382716049383,0,0,0.06049382716049383,6.049382716049383,0)" xlink:href="#aJ"/><use transform="matrix(0.06049382716049383,0,0,0.06049382716049383,18.14814814814815,0)" xlink:href="#av"/></g><g id="z"><use transform="matrix(0.06049382716049383,0,0,0.06049382716049383,0,0)" xlink:href="#ax"/><use transform="matrix(0.06049382716049383,0,0,0.06049382716049383,10.88888888888889,0)" xlink:href="#av"/><use transform="matrix(0.06049382716049383,0,0,0.06049382716049383,22.987654320987655,0)" xlink:href="#az"/><use transform="matrix(0.06049382716049383,0,0,0.06049382716049383,30.18641975308642,0)" xlink:href="#bb"/><use transform="matrix(0.06049382716049383,0,0,0.06049382716049383,41.07530864197531,0)" xlink:href="#aB"/><use transform="matrix(0.06049382716049383,0,0,0.06049382716049383,53.17407407407408,0)" xlink:href="#bc"/><use transform="matrix(0.06049382716049383,0,0,0.06049382716049383,71.26172839506174,0)" xlink:href="#aB"/><use transform="matrix(0.06049382716049383,0,0,0.06049382716049383,83.3604938271605,0)" xlink:href="#aC"/><use transform="matrix(0.06049382716049383,0,0,0.06049382716049383,89.40987654320988,0)" xlink:href="#aB"/><use transform="matrix(0.06049382716049383,0,0,0.06049382716049383,101.50864197530865,0)" xlink:href="#az"/><use transform="matrix(0.06049382716049383,0,0,0.06049382716049383,108.70740740740742,0)" xlink:href="#ax"/></g><path fill="#282c33" d="M199 0l-22-63H83L61 0H9l90-248h61L250 0h-51zm-33-102l-36-108c-10 38-24 72-36 108h72" id="bk"/><path fill="#282c33" d="M195-6C206 82 75 100 31 46c-4-6-6-13-8-21l49-6c3 16 16 24 34 25 40 0 42-37 40-79-11 22-30 35-61 35-53 0-70-43-70-97 0-56 18-96 73-97 30 0 46 14 59 34l2-30h47zm-90-29c32 0 41-27 41-63 0-35-9-62-40-62-32 0-39 29-40 63 0 36 9 62 39 62" id="bl"/><path fill="#282c33" d="M114-157C55-157 80-60 75 0H25v-261h50l-1 109c12-26 28-41 61-42 86-1 58 113 63 194h-50c-7-57 23-157-34-157" id="bm"/><path fill="#282c33" d="M220-157c-53 9-28 100-34 157h-49v-107c1-27-5-49-29-50C55-147 81-57 75 0H25l-1-190h47c2 12-1 28 3 38 10-53 101-56 108 0 13-22 24-43 59-42 82 1 51 116 57 194h-49v-107c-1-25-5-48-29-50" id="bn"/><path fill="#282c33" d="M137-138c1-29-70-34-71-4 15 46 118 7 119 86 1 83-164 76-172 9l43-7c4 19 20 25 44 25 33 8 57-30 24-41C81-84 22-81 20-136c-2-80 154-74 161-7" id="bo"/><g id="A"><use transform="matrix(0.06172839506172839,0,0,0.06172839506172839,0,0)" xlink:href="#bk"/><use transform="matrix(0.06172839506172839,0,0,0.06172839506172839,15.987654320987653,0)" xlink:href="#bi"/><use transform="matrix(0.06172839506172839,0,0,0.06172839506172839,22.160493827160494,0)" xlink:href="#bl"/><use transform="matrix(0.06172839506172839,0,0,0.06172839506172839,35.67901234567901,0)" xlink:href="#aU"/><use transform="matrix(0.06172839506172839,0,0,0.06172839506172839,49.19753086419753,0)" xlink:href="#aQ"/><use transform="matrix(0.06172839506172839,0,0,0.06172839506172839,57.839506172839506,0)" xlink:href="#aM"/><use transform="matrix(0.06172839506172839,0,0,0.06172839506172839,64.01234567901234,0)" xlink:href="#aT"/><use transform="matrix(0.06172839506172839,0,0,0.06172839506172839,71.35802469135803,0)" xlink:href="#bm"/><use transform="matrix(0.06172839506172839,0,0,0.06172839506172839,84.87654320987654,0)" xlink:href="#bn"/><use transform="matrix(0.06172839506172839,0,0,0.06172839506172839,104.62962962962963,0)" xlink:href="#bo"/></g><g id="B"><use transform="matrix(0.06049382716049383,0,0,0.06049382716049383,0,0)" xlink:href="#aC"/><use transform="matrix(0.06049382716049383,0,0,0.06049382716049383,6.049382716049383,0)" xlink:href="#aJ"/><use transform="matrix(0.06049382716049383,0,0,0.06049382716049383,18.14814814814815,0)" xlink:href="#av"/></g><g id="C"><use transform="matrix(0.06049382716049383,0,0,0.06049382716049383,0,0)" xlink:href="#aw"/><use transform="matrix(0.06049382716049383,0,0,0.06049382716049383,12.098765432098766,0)" xlink:href="#bj"/><use transform="matrix(0.06049382716049383,0,0,0.06049382716049383,16.87777777777778,0)" xlink:href="#aK"/><use transform="matrix(0.06049382716049383,0,0,0.06049382716049383,28.976543209876546,0)" xlink:href="#aB"/><use transform="matrix(0.06049382716049383,0,0,0.06049382716049383,41.07530864197531,0)" xlink:href="#az"/><use transform="matrix(0.06049382716049383,0,0,0.06049382716049383,48.27407407407408,0)" xlink:href="#aE"/><use transform="matrix(0.06049382716049383,0,0,0.06049382716049383,53.05308641975309,0)" xlink:href="#aC"/><use transform="matrix(0.06049382716049383,0,0,0.06049382716049383,59.10246913580248,0)" xlink:href="#aJ"/><use transform="matrix(0.06049382716049383,0,0,0.06049382716049383,71.20123456790125,0)" xlink:href="#bc"/><use transform="matrix(0.06049382716049383,0,0,0.06049382716049383,89.2888888888889,0)" xlink:href="#ax"/></g><g id="D"><use transform="matrix(0.06049382716049383,0,0,0.06049382716049383,0,0)" xlink:href="#ay"/><use transform="matrix(0.06049382716049383,0,0,0.06049382716049383,12.098765432098766,0)" xlink:href="#ax"/><use transform="matrix(0.06049382716049383,0,0,0.06049382716049383,22.987654320987655,0)" xlink:href="#av"/><use transform="matrix(0.06049382716049383,0,0,0.06049382716049383,35.08641975308642,0)" xlink:href="#aG"/></g><g id="E"><use transform="matrix(0.06049382716049383,0,0,0.06049382716049383,0,0)" xlink:href="#aW"/><use transform="matrix(0.06049382716049383,0,0,0.06049382716049383,10.88888888888889,0)" xlink:href="#aB"/><use transform="matrix(0.06049382716049383,0,0,0.06049382716049383,22.987654320987655,0)" xlink:href="#bc"/><use transform="matrix(0.06049382716049383,0,0,0.06049382716049383,41.07530864197531,0)" xlink:href="#aD"/><use transform="matrix(0.06049382716049383,0,0,0.06049382716049383,53.17407407407408,0)" xlink:href="#ay"/><use transform="matrix(0.06049382716049383,0,0,0.06049382716049383,65.27283950617284,0)" xlink:href="#aC"/><use transform="matrix(0.06049382716049383,0,0,0.06049382716049383,71.32222222222222,0)" xlink:href="#av"/></g><g id="F"><use transform="matrix(0.06049382716049383,0,0,0.06049382716049383,0,0)" xlink:href="#ax"/><use transform="matrix(0.06049382716049383,0,0,0.06049382716049383,10.88888888888889,0)" xlink:href="#av"/><use transform="matrix(0.06049382716049383,0,0,0.06049382716049383,22.987654320987655,0)" xlink:href="#az"/><use transform="matrix(0.06049382716049383,0,0,0.06049382716049383,30.18641975308642,0)" xlink:href="#bb"/><use transform="matrix(0.06049382716049383,0,0,0.06049382716049383,41.07530864197531,0)" xlink:href="#aB"/><use transform="matrix(0.06049382716049383,0,0,0.06049382716049383,53.17407407407408,0)" xlink:href="#bc"/><use transform="matrix(0.06049382716049383,0,0,0.06049382716049383,71.26172839506174,0)" xlink:href="#aB"/><use transform="matrix(0.06049382716049383,0,0,0.06049382716049383,83.3604938271605,0)" xlink:href="#aC"/><use transform="matrix(0.06049382716049383,0,0,0.06049382716049383,89.40987654320988,0)" xlink:href="#aB"/><use transform="matrix(0.06049382716049383,0,0,0.06049382716049383,101.50864197530865,0)" xlink:href="#az"/><use transform="matrix(0.06049382716049383,0,0,0.06049382716049383,108.70740740740742,0)" xlink:href="#ax"/></g><g id="G"><use transform="matrix(0.06049382716049383,0,0,0.06049382716049383,0,0)" xlink:href="#aW"/><use transform="matrix(0.06049382716049383,0,0,0.06049382716049383,10.88888888888889,0)" xlink:href="#aB"/><use transform="matrix(0.06049382716049383,0,0,0.06049382716049383,22.987654320987655,0)" xlink:href="#bc"/><use transform="matrix(0.06049382716049383,0,0,0.06049382716049383,41.07530864197531,0)" xlink:href="#bc"/><use transform="matrix(0.06049382716049383,0,0,0.06049382716049383,59.162962962962965,0)" xlink:href="#aw"/><use transform="matrix(0.06049382716049383,0,0,0.06049382716049383,71.26172839506174,0)" xlink:href="#aF"/><use transform="matrix(0.06049382716049383,0,0,0.06049382716049383,83.3604938271605,0)" xlink:href="#aG"/><use transform="matrix(0.06049382716049383,0,0,0.06049382716049383,95.45925925925926,0)" xlink:href="#ax"/></g><path d="M240-174c0 40-23 61-54 70L253 0h-59l-57-94H76V0H24v-248c93 4 217-23 216 74zM76-134c48-2 112 12 112-38 0-48-66-32-112-35v73" id="bp"/><path d="M190-63c-7 42-38 67-86 67-59 0-84-38-90-98-12-110 154-137 174-36l-49 2c-2-19-15-32-35-32-30 0-35 28-38 64-6 74 65 87 74 30" id="bq"/><g id="H"><use transform="matrix(0.0685185185185185,0,0,0.0685185185185185,0,0)" xlink:href="#bp"/><use transform="matrix(0.0685185185185185,0,0,0.0685185185185185,17.746296296296293,0)" xlink:href="#an"/><use transform="matrix(0.0685185185185185,0,0,0.0685185185185185,31.449999999999996,0)" xlink:href="#bq"/><use transform="matrix(0.0685185185185185,0,0,0.0685185185185185,45.1537037037037,0)" xlink:href="#al"/><use transform="matrix(0.0685185185185185,0,0,0.0685185185185185,60.15925925925925,0)" xlink:href="#ak"/><use transform="matrix(0.0685185185185185,0,0,0.0685185185185185,69.75185185185184,0)" xlink:href="#bh"/><use transform="matrix(0.0685185185185185,0,0,0.0685185185185185,84.7574074074074,0)" xlink:href="#an"/><use transform="matrix(0.0685185185185185,0,0,0.0685185185185185,98.46111111111108,0)" xlink:href="#ak"/></g><path fill="#282c33" d="M24 0v-248h52v208h133V0H24" id="br"/><g id="I"><use transform="matrix(0.06172839506172839,0,0,0.06172839506172839,0,0)" xlink:href="#br"/><use transform="matrix(0.06172839506172839,0,0,0.06172839506172839,13.518518518518517,0)" xlink:href="#aU"/><use transform="matrix(0.06172839506172839,0,0,0.06172839506172839,27.037037037037035,0)" xlink:href="#bl"/><use transform="matrix(0.06172839506172839,0,0,0.06172839506172839,40.55555555555555,0)" xlink:href="#bl"/><use transform="matrix(0.06172839506172839,0,0,0.06172839506172839,54.07407407407407,0)" xlink:href="#aR"/><use transform="matrix(0.06172839506172839,0,0,0.06172839506172839,66.41975308641975,0)" xlink:href="#aQ"/></g><path d="M30 0v-248h33v221h125V0H30" id="bs"/><g id="J"><use transform="matrix(0.06049382716049383,0,0,0.06049382716049383,0,0)" xlink:href="#bs"/><use transform="matrix(0.06049382716049383,0,0,0.06049382716049383,12.098765432098766,0)" xlink:href="#aB"/><use transform="matrix(0.06049382716049383,0,0,0.06049382716049383,24.19753086419753,0)" xlink:href="#aK"/></g><g id="K"><use transform="matrix(0.06049382716049383,0,0,0.06049382716049383,0,0)" xlink:href="#aE"/><use transform="matrix(0.06049382716049383,0,0,0.06049382716049383,4.779012345679012,0)" xlink:href="#bc"/><use transform="matrix(0.06049382716049383,0,0,0.06049382716049383,22.866666666666667,0)" xlink:href="#aD"/><use transform="matrix(0.06049382716049383,0,0,0.06049382716049383,34.96543209876543,0)" xlink:href="#aB"/><use transform="matrix(0.06049382716049383,0,0,0.06049382716049383,47.0641975308642,0)" xlink:href="#az"/><use transform="matrix(0.06049382716049383,0,0,0.06049382716049383,54.262962962962966,0)" xlink:href="#aC"/><use transform="matrix(0.06049382716049383,0,0,0.06049382716049383,60.31234567901235,0)" xlink:href="#aw"/><use transform="matrix(0.06049382716049383,0,0,0.06049382716049383,72.41111111111113,0)" xlink:href="#aF"/><use transform="matrix(0.06049382716049383,0,0,0.06049382716049383,84.50987654320988,0)" xlink:href="#aC"/></g><g id="L"><use transform="matrix(0.06049382716049383,0,0,0.06049382716049383,0,0)" xlink:href="#aG"/><use transform="matrix(0.06049382716049383,0,0,0.06049382716049383,12.098765432098766,0)" xlink:href="#aw"/><use transform="matrix(0.06049382716049383,0,0,0.06049382716049383,24.19753086419753,0)" xlink:href="#aC"/><use transform="matrix(0.06049382716049383,0,0,0.06049382716049383,30.246913580246915,0)" xlink:href="#aw"/></g><g id="M"><use transform="matrix(0.06049382716049383,0,0,0.06049382716049383,0,0)" xlink:href="#aG"/><use transform="matrix(0.06049382716049383,0,0,0.06049382716049383,12.098765432098766,0)" xlink:href="#ay"/><use transform="matrix(0.06049382716049383,0,0,0.06049382716049383,24.19753086419753,0)" xlink:href="#az"/><use transform="matrix(0.06049382716049383,0,0,0.06049382716049383,31.396296296296295,0)" xlink:href="#aE"/><use transform="matrix(0.06049382716049383,0,0,0.06049382716049383,36.17530864197531,0)" xlink:href="#aF"/><use transform="matrix(0.06049382716049383,0,0,0.06049382716049383,48.27407407407408,0)" xlink:href="#aK"/></g><g id="N"><use transform="matrix(0.06049382716049383,0,0,0.06049382716049383,0,0)" xlink:href="#bc"/><use transform="matrix(0.06049382716049383,0,0,0.06049382716049383,18.087654320987653,0)" xlink:href="#aE"/><use transform="matrix(0.06049382716049383,0,0,0.06049382716049383,22.866666666666667,0)" xlink:href="#ax"/><use transform="matrix(0.06049382716049383,0,0,0.06049382716049383,33.75555555555556,0)" xlink:href="#ax"/><use transform="matrix(0.06049382716049383,0,0,0.06049382716049383,44.644444444444446,0)" xlink:href="#aE"/><use transform="matrix(0.06049382716049383,0,0,0.06049382716049383,49.42345679012346,0)" xlink:href="#aB"/><use transform="matrix(0.06049382716049383,0,0,0.06049382716049383,61.522222222222226,0)" xlink:href="#aF"/></g><path fill="#282c33" d="M240-174c0 40-23 61-54 70L253 0h-59l-57-94H76V0H24v-248c93 4 217-23 216 74zM76-134c48-2 112 12 112-38 0-48-66-32-112-35v73" id="bt"/><g id="O"><use transform="matrix(0.06172839506172839,0,0,0.06172839506172839,0,0)" xlink:href="#bt"/><use transform="matrix(0.06172839506172839,0,0,0.06172839506172839,15.987654320987653,0)" xlink:href="#aH"/><use transform="matrix(0.06172839506172839,0,0,0.06172839506172839,31.975308641975307,0)" xlink:href="#bt"/><use transform="matrix(0.06172839506172839,0,0,0.06172839506172839,47.96296296296296,0)" xlink:href="#aR"/><use transform="matrix(0.06172839506172839,0,0,0.06172839506172839,60.30864197530864,0)" xlink:href="#aS"/><use transform="matrix(0.06172839506172839,0,0,0.06172839506172839,72.65432098765432,0)" xlink:href="#aR"/><use transform="matrix(0.06172839506172839,0,0,0.06172839506172839,85,0)" xlink:href="#aM"/><use transform="matrix(0.06172839506172839,0,0,0.06172839506172839,91.17283950617283,0)" xlink:href="#aY"/><use transform="matrix(0.06172839506172839,0,0,0.06172839506172839,103.51851851851852,0)" xlink:href="#aR"/><use transform="matrix(0.06172839506172839,0,0,0.06172839506172839,115.8641975308642,0)" xlink:href="#aQ"/></g><path d="M233-177c-1 41-23 64-60 70L243 0h-38l-65-103H63V0H30v-248c88 3 205-21 203 71zM63-129c60-2 137 13 137-47 0-61-80-42-137-45v92" id="bu"/><g id="P"><use transform="matrix(0.06049382716049383,0,0,0.06049382716049383,0,0)" xlink:href="#bu"/><use transform="matrix(0.06049382716049383,0,0,0.06049382716049383,15.667901234567902,0)" xlink:href="#av"/><use transform="matrix(0.06049382716049383,0,0,0.06049382716049383,27.766666666666666,0)" xlink:href="#aW"/><use transform="matrix(0.06049382716049383,0,0,0.06049382716049383,38.65555555555555,0)" xlink:href="#av"/><use transform="matrix(0.06049382716049383,0,0,0.06049382716049383,50.75432098765432,0)" xlink:href="#aE"/><use transform="matrix(0.06049382716049383,0,0,0.06049382716049383,55.53333333333333,0)" xlink:href="#bb"/><use transform="matrix(0.06049382716049383,0,0,0.06049382716049383,66.42222222222222,0)" xlink:href="#av"/></g><g id="Q"><use transform="matrix(0.06049382716049383,0,0,0.06049382716049383,0,0)" xlink:href="#aW"/><use transform="matrix(0.06049382716049383,0,0,0.06049382716049383,10.88888888888889,0)" xlink:href="#aB"/><use transform="matrix(0.06049382716049383,0,0,0.06049382716049383,22.987654320987655,0)" xlink:href="#bc"/><use transform="matrix(0.06049382716049383,0,0,0.06049382716049383,41.07530864197531,0)" xlink:href="#bc"/><use transform="matrix(0.06049382716049383,0,0,0.06049382716049383,59.162962962962965,0)" xlink:href="#aw"/><use transform="matrix(0.06049382716049383,0,0,0.06049382716049383,71.26172839506174,0)" xlink:href="#aF"/><use transform="matrix(0.06049382716049383,0,0,0.06049382716049383,83.3604938271605,0)" xlink:href="#aG"/><use transform="matrix(0.06049382716049383,0,0,0.06049382716049383,95.45925925925926,0)" xlink:href="#ax"/></g><g id="R"><use transform="matrix(0.06049382716049383,0,0,0.06049382716049383,0,0)" xlink:href="#ba"/><use transform="matrix(0.06049382716049383,0,0,0.06049382716049383,6.049382716049383,0)" xlink:href="#az"/><use transform="matrix(0.06049382716049383,0,0,0.06049382716049383,13.248148148148148,0)" xlink:href="#aB"/><use transform="matrix(0.06049382716049383,0,0,0.06049382716049383,25.346913580246913,0)" xlink:href="#bc"/></g><g id="S"><use transform="matrix(0.06049382716049383,0,0,0.06049382716049383,0,0)" xlink:href="#az"/><use transform="matrix(0.06049382716049383,0,0,0.06049382716049383,7.1987654320987655,0)" xlink:href="#av"/><use transform="matrix(0.06049382716049383,0,0,0.06049382716049383,19.297530864197533,0)" xlink:href="#bc"/><use transform="matrix(0.06049382716049383,0,0,0.06049382716049383,37.385185185185186,0)" xlink:href="#aB"/><use transform="matrix(0.06049382716049383,0,0,0.06049382716049383,49.48395061728395,0)" xlink:href="#aC"/><use transform="matrix(0.06049382716049383,0,0,0.06049382716049383,55.53333333333333,0)" xlink:href="#av"/></g><g id="T"><use transform="matrix(0.06049382716049383,0,0,0.06049382716049383,0,0)" xlink:href="#aW"/><use transform="matrix(0.06049382716049383,0,0,0.06049382716049383,10.88888888888889,0)" xlink:href="#aB"/><use transform="matrix(0.06049382716049383,0,0,0.06049382716049383,22.987654320987655,0)" xlink:href="#aF"/><use transform="matrix(0.06049382716049383,0,0,0.06049382716049383,35.08641975308642,0)" xlink:href="#aC"/><use transform="matrix(0.06049382716049383,0,0,0.06049382716049383,41.1358024691358,0)" xlink:href="#az"/><use transform="matrix(0.06049382716049383,0,0,0.06049382716049383,48.334567901234564,0)" xlink:href="#aB"/><use transform="matrix(0.06049382716049383,0,0,0.06049382716049383,60.43333333333333,0)" xlink:href="#bj"/><use transform="matrix(0.06049382716049383,0,0,0.06049382716049383,65.21234567901234,0)" xlink:href="#bj"/><use transform="matrix(0.06049382716049383,0,0,0.06049382716049383,69.99135802469135,0)" xlink:href="#av"/><use transform="matrix(0.06049382716049383,0,0,0.06049382716049383,82.09012345679011,0)" xlink:href="#az"/></g><path d="M85 4C-2 5 27-109 22-190h50c7 57-23 150 33 157 60-5 35-97 40-157h50l1 190h-47c-2-12 1-28-3-38-12 25-28 42-61 42" id="bv"/><path d="M135-194c53 0 70 44 70 98 0 56-19 98-73 100-31 1-45-17-59-34 3 33 2 69 2 105H25l-1-265h48c2 10 0 23 3 31 11-24 29-35 60-35zM114-30c33 0 39-31 40-66 0-38-9-64-40-64-56 0-55 130 0 130" id="bw"/><g id="U"><use transform="matrix(0.0685185185185185,0,0,0.0685185185185185,0,0)" xlink:href="#ap"/><use transform="matrix(0.0685185185185185,0,0,0.0685185185185185,16.444444444444443,0)" xlink:href="#bv"/><use transform="matrix(0.0685185185185185,0,0,0.0685185185185185,31.449999999999996,0)" xlink:href="#bw"/><use transform="matrix(0.0685185185185185,0,0,0.0685185185185185,46.45555555555555,0)" xlink:href="#an"/><use transform="matrix(0.0685185185185185,0,0,0.0685185185185185,60.15925925925925,0)" xlink:href="#ak"/><use transform="matrix(0.0685185185185185,0,0,0.0685185185185185,69.75185185185184,0)" xlink:href="#ai"/><use transform="matrix(0.0685185185185185,0,0,0.0685185185185185,83.45555555555553,0)" xlink:href="#aj"/><use transform="matrix(0.0685185185185185,0,0,0.0685185185185185,90.30740740740738,0)" xlink:href="#aq"/><use transform="matrix(0.0685185185185185,0,0,0.0685185185185185,104.01111111111108,0)" xlink:href="#al"/><use transform="matrix(0.0685185185185185,0,0,0.0685185185185185,119.01666666666662,0)" xlink:href="#ak"/></g><path fill="#282c33" d="M85 4C-2 5 27-109 22-190h50c7 57-23 150 33 157 60-5 35-97 40-157h50l1 190h-47c-2-12 1-28-3-38-12 25-28 42-61 42" id="bx"/><g id="V"><use transform="matrix(0.06172839506172839,0,0,0.06172839506172839,0,0)" xlink:href="#at"/><use transform="matrix(0.06172839506172839,0,0,0.06172839506172839,14.814814814814813,0)" xlink:href="#bx"/><use transform="matrix(0.06172839506172839,0,0,0.06172839506172839,28.33333333333333,0)" xlink:href="#aX"/><use transform="matrix(0.06172839506172839,0,0,0.06172839506172839,41.85185185185185,0)" xlink:href="#aR"/><use transform="matrix(0.06172839506172839,0,0,0.06172839506172839,54.197530864197525,0)" xlink:href="#aQ"/><use transform="matrix(0.06172839506172839,0,0,0.06172839506172839,62.8395061728395,0)" xlink:href="#aY"/><use transform="matrix(0.06172839506172839,0,0,0.06172839506172839,75.18518518518518,0)" xlink:href="#aM"/><use transform="matrix(0.06172839506172839,0,0,0.06172839506172839,81.35802469135801,0)" xlink:href="#bo"/><use transform="matrix(0.06172839506172839,0,0,0.06172839506172839,93.7037037037037,0)" xlink:href="#aU"/><use transform="matrix(0.06172839506172839,0,0,0.06172839506172839,107.22222222222221,0)" xlink:href="#aQ"/></g><g id="W"><use transform="matrix(0.06049382716049383,0,0,0.06049382716049383,0,0)" xlink:href="#au"/><use transform="matrix(0.06049382716049383,0,0,0.06049382716049383,18.087654320987653,0)" xlink:href="#aw"/><use transform="matrix(0.06049382716049383,0,0,0.06049382716049383,30.18641975308642,0)" xlink:href="#aF"/><use transform="matrix(0.06049382716049383,0,0,0.06049382716049383,42.285185185185185,0)" xlink:href="#aw"/><use transform="matrix(0.06049382716049383,0,0,0.06049382716049383,54.38395061728395,0)" xlink:href="#aK"/><use transform="matrix(0.06049382716049383,0,0,0.06049382716049383,66.48271604938272,0)" xlink:href="#av"/></g><g id="X"><use transform="matrix(0.06049382716049383,0,0,0.06049382716049383,0,0)" xlink:href="#bc"/><use transform="matrix(0.06049382716049383,0,0,0.06049382716049383,18.087654320987653,0)" xlink:href="#aE"/><use transform="matrix(0.06049382716049383,0,0,0.06049382716049383,22.866666666666667,0)" xlink:href="#ax"/><use transform="matrix(0.06049382716049383,0,0,0.06049382716049383,33.75555555555556,0)" xlink:href="#ax"/><use transform="matrix(0.06049382716049383,0,0,0.06049382716049383,44.644444444444446,0)" xlink:href="#aE"/><use transform="matrix(0.06049382716049383,0,0,0.06049382716049383,49.42345679012346,0)" xlink:href="#aB"/><use transform="matrix(0.06049382716049383,0,0,0.06049382716049383,61.522222222222226,0)" xlink:href="#aF"/></g><path d="M141 0L90-78 38 0H4l68-98-65-92h35l48 74 47-74h35l-64 92 68 98h-35" id="by"/><g id="Y"><use transform="matrix(0.06049382716049383,0,0,0.06049382716049383,0,0)" xlink:href="#av"/><use transform="matrix(0.06049382716049383,0,0,0.06049382716049383,12.098765432098766,0)" xlink:href="#by"/><use transform="matrix(0.06049382716049383,0,0,0.06049382716049383,22.987654320987655,0)" xlink:href="#av"/><use transform="matrix(0.06049382716049383,0,0,0.06049382716049383,35.08641975308642,0)" xlink:href="#aW"/><use transform="matrix(0.06049382716049383,0,0,0.06049382716049383,45.9753086419753,0)" xlink:href="#ay"/><use transform="matrix(0.06049382716049383,0,0,0.06049382716049383,58.07407407407407,0)" xlink:href="#aC"/><use transform="matrix(0.06049382716049383,0,0,0.06049382716049383,64.12345679012346,0)" xlink:href="#aE"/><use transform="matrix(0.06049382716049383,0,0,0.06049382716049383,68.90246913580246,0)" xlink:href="#aB"/><use transform="matrix(0.06049382716049383,0,0,0.06049382716049383,81.00123456790124,0)" xlink:href="#aF"/></g><path d="M140-251c80 0 125 45 125 126S219 4 139 4C58 4 15-44 15-125s44-126 125-126zm-1 214c52 0 73-35 73-88 0-50-21-86-72-86-52 0-73 35-73 86s22 88 72 88" id="bz"/><path d="M135-194c52 0 70 43 70 98 0 56-19 99-73 100-30 1-46-15-58-35L72 0H24l1-261h50v104c11-23 29-37 60-37zM114-30c31 0 40-27 40-66 0-37-7-63-39-63s-41 28-41 65c0 36 8 64 40 64" id="bA"/><g id="Z"><use transform="matrix(0.0685185185185185,0,0,0.0685185185185185,0,0)" xlink:href="#bz"/><use transform="matrix(0.0685185185185185,0,0,0.0685185185185185,19.185185185185183,0)" xlink:href="#bA"/><use transform="matrix(0.0685185185185185,0,0,0.0685185185185185,34.190740740740736,0)" xlink:href="#aq"/><use transform="matrix(0.0685185185185185,0,0,0.0685185185185185,47.89444444444444,0)" xlink:href="#an"/><use transform="matrix(0.0685185185185185,0,0,0.0685185185185185,61.598148148148134,0)" xlink:href="#ak"/><use transform="matrix(0.0685185185185185,0,0,0.0685185185185185,71.19074074074075,0)" xlink:href="#ai"/><use transform="matrix(0.0685185185185185,0,0,0.0685185185185185,84.89444444444443,0)" xlink:href="#an"/><use transform="matrix(0.0685185185185185,0,0,0.0685185185185185,98.59814814814813,0)" xlink:href="#ak"/></g><path fill="#282c33" d="M140-251c80 0 125 45 125 126S219 4 139 4C58 4 15-44 15-125s44-126 125-126zm-1 214c52 0 73-35 73-88 0-50-21-86-72-86-52 0-73 35-73 86s22 88 72 88" id="bB"/><path fill="#282c33" d="M135-194c52 0 70 43 70 98 0 56-19 99-73 100-30 1-46-15-58-35L72 0H24l1-261h50v104c11-23 29-37 60-37zM114-30c31 0 40-27 40-66 0-37-7-63-39-63s-41 28-41 65c0 36 8 64 40 64" id="bC"/><g id="aa"><use transform="matrix(0.06172839506172839,0,0,0.06172839506172839,0,0)" xlink:href="#bB"/><use transform="matrix(0.06172839506172839,0,0,0.06172839506172839,17.28395061728395,0)" xlink:href="#bC"/><use transform="matrix(0.06172839506172839,0,0,0.06172839506172839,30.80246913580247,0)" xlink:href="#bo"/><use transform="matrix(0.06172839506172839,0,0,0.06172839506172839,43.148148148148145,0)" xlink:href="#aR"/><use transform="matrix(0.06172839506172839,0,0,0.06172839506172839,55.49382716049382,0)" xlink:href="#aQ"/><use transform="matrix(0.06172839506172839,0,0,0.06172839506172839,64.1358024691358,0)" xlink:href="#aY"/><use transform="matrix(0.06172839506172839,0,0,0.06172839506172839,76.48148148148148,0)" xlink:href="#aR"/><use transform="matrix(0.06172839506172839,0,0,0.06172839506172839,88.82716049382717,0)" xlink:href="#aQ"/></g><path d="M143 4C61 4 22-44 18-125c-5-107 100-154 193-111 17 8 29 25 37 43l-32 9c-13-25-37-40-76-40-61 0-88 39-88 99 0 61 29 100 91 101 35 0 62-11 79-27v-45h-74v-28h105v86C228-13 192 4 143 4" id="bD"/><g id="ab"><use transform="matrix(0.06049382716049383,0,0,0.06049382716049383,0,0)" xlink:href="#bD"/><use transform="matrix(0.06049382716049383,0,0,0.06049382716049383,16.938271604938272,0)" xlink:href="#aw"/><use transform="matrix(0.06049382716049383,0,0,0.06049382716049383,29.037037037037038,0)" xlink:href="#aC"/><use transform="matrix(0.06049382716049383,0,0,0.06049382716049383,35.08641975308642,0)" xlink:href="#aJ"/><use transform="matrix(0.06049382716049383,0,0,0.06049382716049383,47.18518518518518,0)" xlink:href="#av"/><use transform="matrix(0.06049382716049383,0,0,0.06049382716049383,59.28395061728395,0)" xlink:href="#az"/></g><g id="ac"><use transform="matrix(0.06049382716049383,0,0,0.06049382716049383,0,0)" xlink:href="#aD"/><use transform="matrix(0.06049382716049383,0,0,0.06049382716049383,12.098765432098766,0)" xlink:href="#az"/><use transform="matrix(0.06049382716049383,0,0,0.06049382716049383,19.297530864197533,0)" xlink:href="#aB"/><use transform="matrix(0.06049382716049383,0,0,0.06049382716049383,31.396296296296295,0)" xlink:href="#aW"/><use transform="matrix(0.06049382716049383,0,0,0.06049382716049383,42.285185185185185,0)" xlink:href="#av"/><use transform="matrix(0.06049382716049383,0,0,0.06049382716049383,54.38395061728395,0)" xlink:href="#ax"/><use transform="matrix(0.06049382716049383,0,0,0.06049382716049383,65.27283950617284,0)" xlink:href="#ax"/></g><g id="ad"><use transform="matrix(0.06049382716049383,0,0,0.06049382716049383,0,0)" xlink:href="#aw"/><use transform="matrix(0.06049382716049383,0,0,0.06049382716049383,12.098765432098766,0)" xlink:href="#bj"/><use transform="matrix(0.06049382716049383,0,0,0.06049382716049383,16.87777777777778,0)" xlink:href="#bj"/></g><g id="ae"><use transform="matrix(0.06049382716049383,0,0,0.06049382716049383,0,0)" xlink:href="#ax"/><use transform="matrix(0.06049382716049383,0,0,0.06049382716049383,10.88888888888889,0)" xlink:href="#av"/><use transform="matrix(0.06049382716049383,0,0,0.06049382716049383,22.987654320987655,0)" xlink:href="#aF"/><use transform="matrix(0.06049382716049383,0,0,0.06049382716049383,35.08641975308642,0)" xlink:href="#ax"/><use transform="matrix(0.06049382716049383,0,0,0.06049382716049383,45.9753086419753,0)" xlink:href="#aB"/><use transform="matrix(0.06049382716049383,0,0,0.06049382716049383,58.07407407407407,0)" xlink:href="#az"/><use transform="matrix(0.06049382716049383,0,0,0.06049382716049383,65.27283950617283,0)" xlink:href="#ax"/></g><g id="af"><use transform="matrix(0.06049382716049383,0,0,0.06049382716049383,0,0)" xlink:href="#aG"/><use transform="matrix(0.06049382716049383,0,0,0.06049382716049383,12.098765432098766,0)" xlink:href="#aw"/><use transform="matrix(0.06049382716049383,0,0,0.06049382716049383,24.19753086419753,0)" xlink:href="#aC"/><use transform="matrix(0.06049382716049383,0,0,0.06049382716049383,30.246913580246915,0)" xlink:href="#aw"/></g></defs></g></svg>