<?xml version="1.0" encoding="utf-8" standalone="no"?>
<!DOCTYPE svg PUBLIC "-//W3C//DTD SVG 1.1//EN"
  "http://www.w3.org/Graphics/SVG/1.1/DTD/svg11.dtd">
<svg xmlns:xlink="http://www.w3.org/1999/xlink" width="1152pt" height="648pt" viewBox="0 0 1152 648" xmlns="http://www.w3.org/2000/svg" version="1.1">
 <metadata>
  <rdf:RDF xmlns:dc="http://purl.org/dc/elements/1.1/" xmlns:cc="http://creativecommons.org/ns#" xmlns:rdf="http://www.w3.org/1999/02/22-rdf-syntax-ns#">
   <cc:Work>
    <dc:type rdf:resource="http://purl.org/dc/dcmitype/StillImage"/>
    <dc:date>2024-09-22T15:43:37.064182</dc:date>
    <dc:format>image/svg+xml</dc:format>
    <dc:creator>
     <cc:Agent>
      <dc:title>Matplotlib v3.5.1, https://matplotlib.org/</dc:title>
     </cc:Agent>
    </dc:creator>
   </cc:Work>
  </rdf:RDF>
 </metadata>
 <defs>
  <style type="text/css">*{stroke-linejoin: round; stroke-linecap: butt}</style>
 </defs>
 <g id="figure_1">
  <g id="patch_1">
   <path d="M 0 648 
L 1152 648 
L 1152 0 
L 0 0 
z
" style="fill: #ffffff"/>
  </g>
  <g id="axes_1">
   <g id="patch_2">
    <path d="M 144 576.72 
L 1036.8 576.72 
L 1036.8 77.76 
L 144 77.76 
z
" style="fill: #ffffff"/>
   </g>
   <g id="matplotlib.axis_1">
    <g id="xtick_1">
     <g id="line2d_1">
      <path d="M 184.581818 576.72 
L 184.581818 77.76 
" clip-path="url(#p0077bd044c)" style="fill: none; stroke: #b0b0b0; stroke-width: 0.8; stroke-linecap: square"/>
     </g>
     <g id="line2d_2">
      <defs>
       <path id="m60976d247c" d="M 0 0 
L 0 3.5 
" style="stroke: #000000; stroke-width: 0.8"/>
      </defs>
      <g>
       <use xlink:href="#m60976d247c" x="184.581818" y="576.72" style="stroke: #000000; stroke-width: 0.8"/>
      </g>
     </g>
     <g id="text_1">
      <!-- 0 -->
      <g transform="translate(181.400568 591.318438)scale(0.1 -0.1)">
       <defs>
        <path id="DejaVuSans-30" d="M 2034 4250 
Q 1547 4250 1301 3770 
Q 1056 3291 1056 2328 
Q 1056 1369 1301 889 
Q 1547 409 2034 409 
Q 2525 409 2770 889 
Q 3016 1369 3016 2328 
Q 3016 3291 2770 3770 
Q 2525 4250 2034 4250 
z
M 2034 4750 
Q 2819 4750 3233 4129 
Q 3647 3509 3647 2328 
Q 3647 1150 3233 529 
Q 2819 -91 2034 -91 
Q 1250 -91 836 529 
Q 422 1150 422 2328 
Q 422 3509 836 4129 
Q 1250 4750 2034 4750 
z
" transform="scale(0.015625)"/>
       </defs>
       <use xlink:href="#DejaVuSans-30"/>
      </g>
     </g>
    </g>
    <g id="xtick_2">
     <g id="line2d_3">
      <path d="M 289.226051 576.72 
L 289.226051 77.76 
" clip-path="url(#p0077bd044c)" style="fill: none; stroke: #b0b0b0; stroke-width: 0.8; stroke-linecap: square"/>
     </g>
     <g id="line2d_4">
      <g>
       <use xlink:href="#m60976d247c" x="289.226051" y="576.72" style="stroke: #000000; stroke-width: 0.8"/>
      </g>
     </g>
     <g id="text_2">
      <!-- 20 -->
      <g transform="translate(282.863551 591.318438)scale(0.1 -0.1)">
       <defs>
        <path id="DejaVuSans-32" d="M 1228 531 
L 3431 531 
L 3431 0 
L 469 0 
L 469 531 
Q 828 903 1448 1529 
Q 2069 2156 2228 2338 
Q 2531 2678 2651 2914 
Q 2772 3150 2772 3378 
Q 2772 3750 2511 3984 
Q 2250 4219 1831 4219 
Q 1534 4219 1204 4116 
Q 875 4013 500 3803 
L 500 4441 
Q 881 4594 1212 4672 
Q 1544 4750 1819 4750 
Q 2544 4750 2975 4387 
Q 3406 4025 3406 3419 
Q 3406 3131 3298 2873 
Q 3191 2616 2906 2266 
Q 2828 2175 2409 1742 
Q 1991 1309 1228 531 
z
" transform="scale(0.015625)"/>
       </defs>
       <use xlink:href="#DejaVuSans-32"/>
       <use xlink:href="#DejaVuSans-30" x="63.623047"/>
      </g>
     </g>
    </g>
    <g id="xtick_3">
     <g id="line2d_5">
      <path d="M 393.870283 576.72 
L 393.870283 77.76 
" clip-path="url(#p0077bd044c)" style="fill: none; stroke: #b0b0b0; stroke-width: 0.8; stroke-linecap: square"/>
     </g>
     <g id="line2d_6">
      <g>
       <use xlink:href="#m60976d247c" x="393.870283" y="576.72" style="stroke: #000000; stroke-width: 0.8"/>
      </g>
     </g>
     <g id="text_3">
      <!-- 40 -->
      <g transform="translate(387.507783 591.318438)scale(0.1 -0.1)">
       <defs>
        <path id="DejaVuSans-34" d="M 2419 4116 
L 825 1625 
L 2419 1625 
L 2419 4116 
z
M 2253 4666 
L 3047 4666 
L 3047 1625 
L 3713 1625 
L 3713 1100 
L 3047 1100 
L 3047 0 
L 2419 0 
L 2419 1100 
L 313 1100 
L 313 1709 
L 2253 4666 
z
" transform="scale(0.015625)"/>
       </defs>
       <use xlink:href="#DejaVuSans-34"/>
       <use xlink:href="#DejaVuSans-30" x="63.623047"/>
      </g>
     </g>
    </g>
    <g id="xtick_4">
     <g id="line2d_7">
      <path d="M 498.514516 576.72 
L 498.514516 77.76 
" clip-path="url(#p0077bd044c)" style="fill: none; stroke: #b0b0b0; stroke-width: 0.8; stroke-linecap: square"/>
     </g>
     <g id="line2d_8">
      <g>
       <use xlink:href="#m60976d247c" x="498.514516" y="576.72" style="stroke: #000000; stroke-width: 0.8"/>
      </g>
     </g>
     <g id="text_4">
      <!-- 60 -->
      <g transform="translate(492.152016 591.318438)scale(0.1 -0.1)">
       <defs>
        <path id="DejaVuSans-36" d="M 2113 2584 
Q 1688 2584 1439 2293 
Q 1191 2003 1191 1497 
Q 1191 994 1439 701 
Q 1688 409 2113 409 
Q 2538 409 2786 701 
Q 3034 994 3034 1497 
Q 3034 2003 2786 2293 
Q 2538 2584 2113 2584 
z
M 3366 4563 
L 3366 3988 
Q 3128 4100 2886 4159 
Q 2644 4219 2406 4219 
Q 1781 4219 1451 3797 
Q 1122 3375 1075 2522 
Q 1259 2794 1537 2939 
Q 1816 3084 2150 3084 
Q 2853 3084 3261 2657 
Q 3669 2231 3669 1497 
Q 3669 778 3244 343 
Q 2819 -91 2113 -91 
Q 1303 -91 875 529 
Q 447 1150 447 2328 
Q 447 3434 972 4092 
Q 1497 4750 2381 4750 
Q 2619 4750 2861 4703 
Q 3103 4656 3366 4563 
z
" transform="scale(0.015625)"/>
       </defs>
       <use xlink:href="#DejaVuSans-36"/>
       <use xlink:href="#DejaVuSans-30" x="63.623047"/>
      </g>
     </g>
    </g>
    <g id="xtick_5">
     <g id="line2d_9">
      <path d="M 603.158748 576.72 
L 603.158748 77.76 
" clip-path="url(#p0077bd044c)" style="fill: none; stroke: #b0b0b0; stroke-width: 0.8; stroke-linecap: square"/>
     </g>
     <g id="line2d_10">
      <g>
       <use xlink:href="#m60976d247c" x="603.158748" y="576.72" style="stroke: #000000; stroke-width: 0.8"/>
      </g>
     </g>
     <g id="text_5">
      <!-- 80 -->
      <g transform="translate(596.796248 591.318438)scale(0.1 -0.1)">
       <defs>
        <path id="DejaVuSans-38" d="M 2034 2216 
Q 1584 2216 1326 1975 
Q 1069 1734 1069 1313 
Q 1069 891 1326 650 
Q 1584 409 2034 409 
Q 2484 409 2743 651 
Q 3003 894 3003 1313 
Q 3003 1734 2745 1975 
Q 2488 2216 2034 2216 
z
M 1403 2484 
Q 997 2584 770 2862 
Q 544 3141 544 3541 
Q 544 4100 942 4425 
Q 1341 4750 2034 4750 
Q 2731 4750 3128 4425 
Q 3525 4100 3525 3541 
Q 3525 3141 3298 2862 
Q 3072 2584 2669 2484 
Q 3125 2378 3379 2068 
Q 3634 1759 3634 1313 
Q 3634 634 3220 271 
Q 2806 -91 2034 -91 
Q 1263 -91 848 271 
Q 434 634 434 1313 
Q 434 1759 690 2068 
Q 947 2378 1403 2484 
z
M 1172 3481 
Q 1172 3119 1398 2916 
Q 1625 2713 2034 2713 
Q 2441 2713 2670 2916 
Q 2900 3119 2900 3481 
Q 2900 3844 2670 4047 
Q 2441 4250 2034 4250 
Q 1625 4250 1398 4047 
Q 1172 3844 1172 3481 
z
" transform="scale(0.015625)"/>
       </defs>
       <use xlink:href="#DejaVuSans-38"/>
       <use xlink:href="#DejaVuSans-30" x="63.623047"/>
      </g>
     </g>
    </g>
    <g id="xtick_6">
     <g id="line2d_11">
      <path d="M 707.802981 576.72 
L 707.802981 77.76 
" clip-path="url(#p0077bd044c)" style="fill: none; stroke: #b0b0b0; stroke-width: 0.8; stroke-linecap: square"/>
     </g>
     <g id="line2d_12">
      <g>
       <use xlink:href="#m60976d247c" x="707.802981" y="576.72" style="stroke: #000000; stroke-width: 0.8"/>
      </g>
     </g>
     <g id="text_6">
      <!-- 100 -->
      <g transform="translate(698.259231 591.318438)scale(0.1 -0.1)">
       <defs>
        <path id="DejaVuSans-31" d="M 794 531 
L 1825 531 
L 1825 4091 
L 703 3866 
L 703 4441 
L 1819 4666 
L 2450 4666 
L 2450 531 
L 3481 531 
L 3481 0 
L 794 0 
L 794 531 
z
" transform="scale(0.015625)"/>
       </defs>
       <use xlink:href="#DejaVuSans-31"/>
       <use xlink:href="#DejaVuSans-30" x="63.623047"/>
       <use xlink:href="#DejaVuSans-30" x="127.246094"/>
      </g>
     </g>
    </g>
    <g id="xtick_7">
     <g id="line2d_13">
      <path d="M 812.447213 576.72 
L 812.447213 77.76 
" clip-path="url(#p0077bd044c)" style="fill: none; stroke: #b0b0b0; stroke-width: 0.8; stroke-linecap: square"/>
     </g>
     <g id="line2d_14">
      <g>
       <use xlink:href="#m60976d247c" x="812.447213" y="576.72" style="stroke: #000000; stroke-width: 0.8"/>
      </g>
     </g>
     <g id="text_7">
      <!-- 120 -->
      <g transform="translate(802.903463 591.318438)scale(0.1 -0.1)">
       <use xlink:href="#DejaVuSans-31"/>
       <use xlink:href="#DejaVuSans-32" x="63.623047"/>
       <use xlink:href="#DejaVuSans-30" x="127.246094"/>
      </g>
     </g>
    </g>
    <g id="xtick_8">
     <g id="line2d_15">
      <path d="M 917.091445 576.72 
L 917.091445 77.76 
" clip-path="url(#p0077bd044c)" style="fill: none; stroke: #b0b0b0; stroke-width: 0.8; stroke-linecap: square"/>
     </g>
     <g id="line2d_16">
      <g>
       <use xlink:href="#m60976d247c" x="917.091445" y="576.72" style="stroke: #000000; stroke-width: 0.8"/>
      </g>
     </g>
     <g id="text_8">
      <!-- 140 -->
      <g transform="translate(907.547695 591.318438)scale(0.1 -0.1)">
       <use xlink:href="#DejaVuSans-31"/>
       <use xlink:href="#DejaVuSans-34" x="63.623047"/>
       <use xlink:href="#DejaVuSans-30" x="127.246094"/>
      </g>
     </g>
    </g>
    <g id="xtick_9">
     <g id="line2d_17">
      <path d="M 1021.735678 576.72 
L 1021.735678 77.76 
" clip-path="url(#p0077bd044c)" style="fill: none; stroke: #b0b0b0; stroke-width: 0.8; stroke-linecap: square"/>
     </g>
     <g id="line2d_18">
      <g>
       <use xlink:href="#m60976d247c" x="1021.735678" y="576.72" style="stroke: #000000; stroke-width: 0.8"/>
      </g>
     </g>
     <g id="text_9">
      <!-- 160 -->
      <g transform="translate(1012.191928 591.318438)scale(0.1 -0.1)">
       <use xlink:href="#DejaVuSans-31"/>
       <use xlink:href="#DejaVuSans-36" x="63.623047"/>
       <use xlink:href="#DejaVuSans-30" x="127.246094"/>
      </g>
     </g>
    </g>
    <g id="text_10">
     <!-- Time (s) -->
     <g transform="translate(570.071094 604.996562)scale(0.1 -0.1)">
      <defs>
       <path id="DejaVuSans-54" d="M -19 4666 
L 3928 4666 
L 3928 4134 
L 2272 4134 
L 2272 0 
L 1638 0 
L 1638 4134 
L -19 4134 
L -19 4666 
z
" transform="scale(0.015625)"/>
       <path id="DejaVuSans-69" d="M 603 3500 
L 1178 3500 
L 1178 0 
L 603 0 
L 603 3500 
z
M 603 4863 
L 1178 4863 
L 1178 4134 
L 603 4134 
L 603 4863 
z
" transform="scale(0.015625)"/>
       <path id="DejaVuSans-6d" d="M 3328 2828 
Q 3544 3216 3844 3400 
Q 4144 3584 4550 3584 
Q 5097 3584 5394 3201 
Q 5691 2819 5691 2113 
L 5691 0 
L 5113 0 
L 5113 2094 
Q 5113 2597 4934 2840 
Q 4756 3084 4391 3084 
Q 3944 3084 3684 2787 
Q 3425 2491 3425 1978 
L 3425 0 
L 2847 0 
L 2847 2094 
Q 2847 2600 2669 2842 
Q 2491 3084 2119 3084 
Q 1678 3084 1418 2786 
Q 1159 2488 1159 1978 
L 1159 0 
L 581 0 
L 581 3500 
L 1159 3500 
L 1159 2956 
Q 1356 3278 1631 3431 
Q 1906 3584 2284 3584 
Q 2666 3584 2933 3390 
Q 3200 3197 3328 2828 
z
" transform="scale(0.015625)"/>
       <path id="DejaVuSans-65" d="M 3597 1894 
L 3597 1613 
L 953 1613 
Q 991 1019 1311 708 
Q 1631 397 2203 397 
Q 2534 397 2845 478 
Q 3156 559 3463 722 
L 3463 178 
Q 3153 47 2828 -22 
Q 2503 -91 2169 -91 
Q 1331 -91 842 396 
Q 353 884 353 1716 
Q 353 2575 817 3079 
Q 1281 3584 2069 3584 
Q 2775 3584 3186 3129 
Q 3597 2675 3597 1894 
z
M 3022 2063 
Q 3016 2534 2758 2815 
Q 2500 3097 2075 3097 
Q 1594 3097 1305 2825 
Q 1016 2553 972 2059 
L 3022 2063 
z
" transform="scale(0.015625)"/>
       <path id="DejaVuSans-20" transform="scale(0.015625)"/>
       <path id="DejaVuSans-28" d="M 1984 4856 
Q 1566 4138 1362 3434 
Q 1159 2731 1159 2009 
Q 1159 1288 1364 580 
Q 1569 -128 1984 -844 
L 1484 -844 
Q 1016 -109 783 600 
Q 550 1309 550 2009 
Q 550 2706 781 3412 
Q 1013 4119 1484 4856 
L 1984 4856 
z
" transform="scale(0.015625)"/>
       <path id="DejaVuSans-73" d="M 2834 3397 
L 2834 2853 
Q 2591 2978 2328 3040 
Q 2066 3103 1784 3103 
Q 1356 3103 1142 2972 
Q 928 2841 928 2578 
Q 928 2378 1081 2264 
Q 1234 2150 1697 2047 
L 1894 2003 
Q 2506 1872 2764 1633 
Q 3022 1394 3022 966 
Q 3022 478 2636 193 
Q 2250 -91 1575 -91 
Q 1294 -91 989 -36 
Q 684 19 347 128 
L 347 722 
Q 666 556 975 473 
Q 1284 391 1588 391 
Q 1994 391 2212 530 
Q 2431 669 2431 922 
Q 2431 1156 2273 1281 
Q 2116 1406 1581 1522 
L 1381 1569 
Q 847 1681 609 1914 
Q 372 2147 372 2553 
Q 372 3047 722 3315 
Q 1072 3584 1716 3584 
Q 2034 3584 2315 3537 
Q 2597 3491 2834 3397 
z
" transform="scale(0.015625)"/>
       <path id="DejaVuSans-29" d="M 513 4856 
L 1013 4856 
Q 1481 4119 1714 3412 
Q 1947 2706 1947 2009 
Q 1947 1309 1714 600 
Q 1481 -109 1013 -844 
L 513 -844 
Q 928 -128 1133 580 
Q 1338 1288 1338 2009 
Q 1338 2731 1133 3434 
Q 928 4138 513 4856 
z
" transform="scale(0.015625)"/>
      </defs>
      <use xlink:href="#DejaVuSans-54"/>
      <use xlink:href="#DejaVuSans-69" x="57.958984"/>
      <use xlink:href="#DejaVuSans-6d" x="85.742188"/>
      <use xlink:href="#DejaVuSans-65" x="183.154297"/>
      <use xlink:href="#DejaVuSans-20" x="244.677734"/>
      <use xlink:href="#DejaVuSans-28" x="276.464844"/>
      <use xlink:href="#DejaVuSans-73" x="315.478516"/>
      <use xlink:href="#DejaVuSans-29" x="367.578125"/>
     </g>
    </g>
   </g>
   <g id="matplotlib.axis_2">
    <g id="ytick_1">
     <g id="line2d_19">
      <path d="M 144 554.04 
L 1036.8 554.04 
" clip-path="url(#p0077bd044c)" style="fill: none; stroke: #b0b0b0; stroke-width: 0.8; stroke-linecap: square"/>
     </g>
     <g id="line2d_20">
      <defs>
       <path id="m39aee2ca7d" d="M 0 0 
L -3.5 0 
" style="stroke: #000000; stroke-width: 0.8"/>
      </defs>
      <g>
       <use xlink:href="#m39aee2ca7d" x="144" y="554.04" style="stroke: #000000; stroke-width: 0.8"/>
      </g>
     </g>
     <g id="text_11">
      <!-- 0.0 -->
      <g transform="translate(121.096875 557.839219)scale(0.1 -0.1)">
       <defs>
        <path id="DejaVuSans-2e" d="M 684 794 
L 1344 794 
L 1344 0 
L 684 0 
L 684 794 
z
" transform="scale(0.015625)"/>
       </defs>
       <use xlink:href="#DejaVuSans-30"/>
       <use xlink:href="#DejaVuSans-2e" x="63.623047"/>
       <use xlink:href="#DejaVuSans-30" x="95.410156"/>
      </g>
     </g>
    </g>
    <g id="ytick_2">
     <g id="line2d_21">
      <path d="M 144 463.32 
L 1036.8 463.32 
" clip-path="url(#p0077bd044c)" style="fill: none; stroke: #b0b0b0; stroke-width: 0.8; stroke-linecap: square"/>
     </g>
     <g id="line2d_22">
      <g>
       <use xlink:href="#m39aee2ca7d" x="144" y="463.32" style="stroke: #000000; stroke-width: 0.8"/>
      </g>
     </g>
     <g id="text_12">
      <!-- 0.2 -->
      <g transform="translate(121.096875 467.119219)scale(0.1 -0.1)">
       <use xlink:href="#DejaVuSans-30"/>
       <use xlink:href="#DejaVuSans-2e" x="63.623047"/>
       <use xlink:href="#DejaVuSans-32" x="95.410156"/>
      </g>
     </g>
    </g>
    <g id="ytick_3">
     <g id="line2d_23">
      <path d="M 144 372.6 
L 1036.8 372.6 
" clip-path="url(#p0077bd044c)" style="fill: none; stroke: #b0b0b0; stroke-width: 0.8; stroke-linecap: square"/>
     </g>
     <g id="line2d_24">
      <g>
       <use xlink:href="#m39aee2ca7d" x="144" y="372.6" style="stroke: #000000; stroke-width: 0.8"/>
      </g>
     </g>
     <g id="text_13">
      <!-- 0.4 -->
      <g transform="translate(121.096875 376.399219)scale(0.1 -0.1)">
       <use xlink:href="#DejaVuSans-30"/>
       <use xlink:href="#DejaVuSans-2e" x="63.623047"/>
       <use xlink:href="#DejaVuSans-34" x="95.410156"/>
      </g>
     </g>
    </g>
    <g id="ytick_4">
     <g id="line2d_25">
      <path d="M 144 281.88 
L 1036.8 281.88 
" clip-path="url(#p0077bd044c)" style="fill: none; stroke: #b0b0b0; stroke-width: 0.8; stroke-linecap: square"/>
     </g>
     <g id="line2d_26">
      <g>
       <use xlink:href="#m39aee2ca7d" x="144" y="281.88" style="stroke: #000000; stroke-width: 0.8"/>
      </g>
     </g>
     <g id="text_14">
      <!-- 0.6 -->
      <g transform="translate(121.096875 285.679219)scale(0.1 -0.1)">
       <use xlink:href="#DejaVuSans-30"/>
       <use xlink:href="#DejaVuSans-2e" x="63.623047"/>
       <use xlink:href="#DejaVuSans-36" x="95.410156"/>
      </g>
     </g>
    </g>
    <g id="ytick_5">
     <g id="line2d_27">
      <path d="M 144 191.16 
L 1036.8 191.16 
" clip-path="url(#p0077bd044c)" style="fill: none; stroke: #b0b0b0; stroke-width: 0.8; stroke-linecap: square"/>
     </g>
     <g id="line2d_28">
      <g>
       <use xlink:href="#m39aee2ca7d" x="144" y="191.16" style="stroke: #000000; stroke-width: 0.8"/>
      </g>
     </g>
     <g id="text_15">
      <!-- 0.8 -->
      <g transform="translate(121.096875 194.959219)scale(0.1 -0.1)">
       <use xlink:href="#DejaVuSans-30"/>
       <use xlink:href="#DejaVuSans-2e" x="63.623047"/>
       <use xlink:href="#DejaVuSans-38" x="95.410156"/>
      </g>
     </g>
    </g>
    <g id="ytick_6">
     <g id="line2d_29">
      <path d="M 144 100.44 
L 1036.8 100.44 
" clip-path="url(#p0077bd044c)" style="fill: none; stroke: #b0b0b0; stroke-width: 0.8; stroke-linecap: square"/>
     </g>
     <g id="line2d_30">
      <g>
       <use xlink:href="#m39aee2ca7d" x="144" y="100.44" style="stroke: #000000; stroke-width: 0.8"/>
      </g>
     </g>
     <g id="text_16">
      <!-- 1.0 -->
      <g transform="translate(121.096875 104.239219)scale(0.1 -0.1)">
       <use xlink:href="#DejaVuSans-31"/>
       <use xlink:href="#DejaVuSans-2e" x="63.623047"/>
       <use xlink:href="#DejaVuSans-30" x="95.410156"/>
      </g>
     </g>
    </g>
    <g id="text_17">
     <!-- Command (%) -->
     <g transform="translate(115.017187 363.179844)rotate(-90)scale(0.1 -0.1)">
      <defs>
       <path id="DejaVuSans-43" d="M 4122 4306 
L 4122 3641 
Q 3803 3938 3442 4084 
Q 3081 4231 2675 4231 
Q 1875 4231 1450 3742 
Q 1025 3253 1025 2328 
Q 1025 1406 1450 917 
Q 1875 428 2675 428 
Q 3081 428 3442 575 
Q 3803 722 4122 1019 
L 4122 359 
Q 3791 134 3420 21 
Q 3050 -91 2638 -91 
Q 1578 -91 968 557 
Q 359 1206 359 2328 
Q 359 3453 968 4101 
Q 1578 4750 2638 4750 
Q 3056 4750 3426 4639 
Q 3797 4528 4122 4306 
z
" transform="scale(0.015625)"/>
       <path id="DejaVuSans-6f" d="M 1959 3097 
Q 1497 3097 1228 2736 
Q 959 2375 959 1747 
Q 959 1119 1226 758 
Q 1494 397 1959 397 
Q 2419 397 2687 759 
Q 2956 1122 2956 1747 
Q 2956 2369 2687 2733 
Q 2419 3097 1959 3097 
z
M 1959 3584 
Q 2709 3584 3137 3096 
Q 3566 2609 3566 1747 
Q 3566 888 3137 398 
Q 2709 -91 1959 -91 
Q 1206 -91 779 398 
Q 353 888 353 1747 
Q 353 2609 779 3096 
Q 1206 3584 1959 3584 
z
" transform="scale(0.015625)"/>
       <path id="DejaVuSans-61" d="M 2194 1759 
Q 1497 1759 1228 1600 
Q 959 1441 959 1056 
Q 959 750 1161 570 
Q 1363 391 1709 391 
Q 2188 391 2477 730 
Q 2766 1069 2766 1631 
L 2766 1759 
L 2194 1759 
z
M 3341 1997 
L 3341 0 
L 2766 0 
L 2766 531 
Q 2569 213 2275 61 
Q 1981 -91 1556 -91 
Q 1019 -91 701 211 
Q 384 513 384 1019 
Q 384 1609 779 1909 
Q 1175 2209 1959 2209 
L 2766 2209 
L 2766 2266 
Q 2766 2663 2505 2880 
Q 2244 3097 1772 3097 
Q 1472 3097 1187 3025 
Q 903 2953 641 2809 
L 641 3341 
Q 956 3463 1253 3523 
Q 1550 3584 1831 3584 
Q 2591 3584 2966 3190 
Q 3341 2797 3341 1997 
z
" transform="scale(0.015625)"/>
       <path id="DejaVuSans-6e" d="M 3513 2113 
L 3513 0 
L 2938 0 
L 2938 2094 
Q 2938 2591 2744 2837 
Q 2550 3084 2163 3084 
Q 1697 3084 1428 2787 
Q 1159 2491 1159 1978 
L 1159 0 
L 581 0 
L 581 3500 
L 1159 3500 
L 1159 2956 
Q 1366 3272 1645 3428 
Q 1925 3584 2291 3584 
Q 2894 3584 3203 3211 
Q 3513 2838 3513 2113 
z
" transform="scale(0.015625)"/>
       <path id="DejaVuSans-64" d="M 2906 2969 
L 2906 4863 
L 3481 4863 
L 3481 0 
L 2906 0 
L 2906 525 
Q 2725 213 2448 61 
Q 2172 -91 1784 -91 
Q 1150 -91 751 415 
Q 353 922 353 1747 
Q 353 2572 751 3078 
Q 1150 3584 1784 3584 
Q 2172 3584 2448 3432 
Q 2725 3281 2906 2969 
z
M 947 1747 
Q 947 1113 1208 752 
Q 1469 391 1925 391 
Q 2381 391 2643 752 
Q 2906 1113 2906 1747 
Q 2906 2381 2643 2742 
Q 2381 3103 1925 3103 
Q 1469 3103 1208 2742 
Q 947 2381 947 1747 
z
" transform="scale(0.015625)"/>
       <path id="DejaVuSans-25" d="M 4653 2053 
Q 4381 2053 4226 1822 
Q 4072 1591 4072 1178 
Q 4072 772 4226 539 
Q 4381 306 4653 306 
Q 4919 306 5073 539 
Q 5228 772 5228 1178 
Q 5228 1588 5073 1820 
Q 4919 2053 4653 2053 
z
M 4653 2450 
Q 5147 2450 5437 2106 
Q 5728 1763 5728 1178 
Q 5728 594 5436 251 
Q 5144 -91 4653 -91 
Q 4153 -91 3862 251 
Q 3572 594 3572 1178 
Q 3572 1766 3864 2108 
Q 4156 2450 4653 2450 
z
M 1428 4353 
Q 1159 4353 1004 4120 
Q 850 3888 850 3481 
Q 850 3069 1003 2837 
Q 1156 2606 1428 2606 
Q 1700 2606 1854 2837 
Q 2009 3069 2009 3481 
Q 2009 3884 1853 4118 
Q 1697 4353 1428 4353 
z
M 4250 4750 
L 4750 4750 
L 1831 -91 
L 1331 -91 
L 4250 4750 
z
M 1428 4750 
Q 1922 4750 2215 4408 
Q 2509 4066 2509 3481 
Q 2509 2891 2217 2550 
Q 1925 2209 1428 2209 
Q 931 2209 642 2551 
Q 353 2894 353 3481 
Q 353 4063 643 4406 
Q 934 4750 1428 4750 
z
" transform="scale(0.015625)"/>
      </defs>
      <use xlink:href="#DejaVuSans-43"/>
      <use xlink:href="#DejaVuSans-6f" x="69.824219"/>
      <use xlink:href="#DejaVuSans-6d" x="131.005859"/>
      <use xlink:href="#DejaVuSans-6d" x="228.417969"/>
      <use xlink:href="#DejaVuSans-61" x="325.830078"/>
      <use xlink:href="#DejaVuSans-6e" x="387.109375"/>
      <use xlink:href="#DejaVuSans-64" x="450.488281"/>
      <use xlink:href="#DejaVuSans-20" x="513.964844"/>
      <use xlink:href="#DejaVuSans-28" x="545.751953"/>
      <use xlink:href="#DejaVuSans-25" x="584.765625"/>
      <use xlink:href="#DejaVuSans-29" x="679.785156"/>
     </g>
    </g>
   </g>
   <g id="line2d_31">
    <path d="M 144 100.44 
L 1036.8 100.44 
" clip-path="url(#p0077bd044c)" style="fill: none; stroke-dasharray: 10.5,4.5; stroke-dashoffset: 0; stroke: #808080; stroke-width: 1.5"/>
   </g>
   <g id="line2d_32">
    <path d="M 144 554.04 
L 1036.8 554.04 
" clip-path="url(#p0077bd044c)" style="fill: none; stroke-dasharray: 10.5,4.5; stroke-dashoffset: 0; stroke: #808080; stroke-width: 1.5"/>
   </g>
   <g id="line2d_33">
    <path d="M 184.581818 402.9912 
L 184.796339 422.9496 
L 185.021324 442.0008 
L 185.246309 341.7552 
L 185.471294 338.1264 
L 185.706744 335.4048 
L 185.926497 334.044 
L 186.146249 331.776 
L 186.371235 330.4152 
L 186.606684 330.4152 
L 186.826437 329.0544 
L 187.04619 328.1472 
L 187.265943 328.1472 
L 187.501392 328.1472 
L 187.721145 326.7864 
L 187.94613 326.7864 
L 188.165883 326.7864 
L 188.401333 326.7864 
L 188.626318 326.7864 
L 188.851303 326.7864 
L 189.076288 326.7864 
L 189.31697 326.7864 
L 189.536723 326.7864 
L 189.761708 326.7864 
L 189.986693 326.7864 
L 190.232607 325.4256 
L 190.462824 325.4256 
L 190.687809 325.4256 
L 190.907562 325.4256 
L 191.143012 325.4256 
L 191.362764 325.4256 
L 191.582517 325.4256 
L 191.80227 325.4256 
L 192.03772 325.4256 
L 192.257473 325.4256 
L 192.482458 325.4256 
L 192.702211 325.4256 
L 192.93766 325.4256 
L 193.157413 325.4256 
L 193.382398 325.4256 
L 193.602151 325.4256 
L 193.842833 325.4256 
L 194.067818 325.4256 
L 194.292803 325.4256 
L 194.517788 325.4256 
L 194.742773 325.4256 
L 194.983455 325.4256 
L 195.20844 325.4256 
L 195.433425 325.4256 
L 195.65841 325.4256 
L 195.925253 325.4256 
L 196.150238 325.4256 
L 196.369991 325.4256 
L 196.589744 325.4256 
L 196.835658 325.4256 
L 197.055411 325.4256 
L 197.280396 325.4256 
L 197.500149 325.4256 
L 197.74083 325.4256 
L 197.960583 325.4256 
L 198.180336 325.4256 
L 198.400089 325.4256 
L 198.860524 325.4256 
L 199.090741 325.4256 
L 199.315726 325.4256 
L 199.535479 325.4256 
L 199.781393 325.4256 
L 200.006378 325.4256 
L 200.231363 325.4256 
L 200.451116 325.4256 
L 200.69703 325.4256 
L 200.922015 325.4256 
L 201.147 325.4256 
L 201.371985 325.4256 
L 201.617899 325.4256 
L 201.837652 325.4256 
L 202.057405 325.4256 
L 202.28239 325.4256 
L 202.51784 325.4256 
L 202.742825 326.7864 
L 202.96781 326.7864 
L 203.187563 326.7864 
L 203.428244 326.7864 
L 203.65323 326.7864 
L 203.872982 326.7864 
L 204.092735 326.7864 
L 204.338649 326.7864 
L 204.568867 326.7864 
L 204.788619 326.7864 
L 205.013605 326.7864 
L 205.259519 326.7864 
L 205.484504 326.7864 
L 205.704257 326.7864 
L 205.929242 326.7864 
L 206.175156 326.7864 
L 206.400141 326.7864 
L 206.625126 326.7864 
L 206.844879 326.7864 
L 207.08556 326.7864 
L 207.305313 326.7864 
L 207.525066 326.7864 
L 207.750051 326.7864 
L 207.990733 326.7864 
L 208.210486 326.7864 
L 208.430239 326.7864 
L 208.655224 326.7864 
L 208.895906 326.7864 
L 209.115658 326.7864 
L 209.455752 326.7864 
" clip-path="url(#p0077bd044c)" style="fill: none; stroke: #0000ff; stroke-width: 1.5; stroke-linecap: square"/>
   </g>
   <g id="line2d_34">
    <path d="M 184.581818 549.504 
L 184.796339 549.504 
L 185.021324 549.504 
L 185.246309 548.5968 
L 185.471294 534.5352 
L 185.706744 508.2264 
L 185.926497 472.8456 
L 186.146249 425.2176 
L 186.371235 371.6928 
L 186.606684 318.168 
L 186.826437 262.8288 
L 187.04619 214.7472 
L 187.265943 176.6448 
L 187.501392 144.4392 
L 187.721145 122.6664 
L 187.94613 109.512 
L 188.165883 102.2544 
L 188.401333 100.44 
L 188.626318 102.2544 
L 188.851303 104.976 
L 189.076288 113.1408 
L 189.31697 119.4912 
L 189.536723 130.8312 
L 189.761708 133.5528 
L 189.986693 143.9856 
L 190.232607 158.9544 
L 190.462824 167.1192 
L 190.687809 175.7376 
L 190.907562 184.8096 
L 191.143012 189.7992 
L 191.362764 194.3352 
L 191.582517 203.8608 
L 191.80227 214.2936 
L 192.03772 219.2832 
L 192.257473 219.2832 
L 192.482458 224.2728 
L 192.702211 224.2728 
L 192.93766 234.7056 
L 193.157413 240.1488 
L 193.382398 240.1488 
L 193.602151 245.592 
L 193.842833 251.0352 
L 194.067818 251.0352 
L 194.292803 251.0352 
L 194.517788 251.0352 
L 194.742773 251.0352 
L 194.983455 251.0352 
L 195.20844 245.592 
L 195.433425 234.7056 
L 195.65841 219.2832 
L 195.925253 208.8504 
L 196.150238 194.3352 
L 196.369991 175.7376 
L 196.589744 167.1192 
L 196.835658 151.2432 
L 197.055411 143.9856 
L 197.280396 133.5528 
L 197.500149 130.8312 
L 197.74083 127.656 
L 197.960583 124.9344 
L 198.180336 124.9344 
L 198.400089 124.9344 
L 198.860524 127.656 
L 199.090741 130.8312 
L 199.315726 133.5528 
L 199.535479 140.3568 
L 199.781393 143.9856 
L 200.006378 154.872 
L 200.231363 163.0368 
L 200.451116 175.7376 
L 200.69703 194.3352 
L 200.922015 208.8504 
L 201.147 219.2832 
L 201.371985 240.1488 
L 201.617899 251.0352 
L 201.837652 272.808 
L 202.057405 283.6944 
L 202.28239 295.0344 
L 202.51784 305.9208 
L 202.742825 311.8176 
L 202.96781 317.2608 
L 203.187563 328.1472 
L 203.428244 328.1472 
L 203.65323 339.0336 
L 203.872982 344.4768 
L 204.092735 349.92 
L 204.338649 355.3632 
L 204.568867 355.3632 
L 204.788619 365.796 
L 205.013605 365.796 
L 205.259519 370.7856 
L 205.484504 370.7856 
L 205.704257 376.2288 
L 205.929242 376.2288 
L 206.175156 376.2288 
L 206.400141 376.2288 
L 206.625126 376.2288 
L 206.844879 376.2288 
L 207.08556 376.2288 
L 207.305313 381.2184 
L 207.525066 381.2184 
L 207.750051 386.208 
L 207.990733 386.208 
L 208.210486 386.208 
L 208.430239 386.208 
L 208.655224 391.1976 
L 208.895906 391.1976 
L 209.115658 391.1976 
L 209.455752 391.1976 
" clip-path="url(#p0077bd044c)" style="fill: none; stroke-dasharray: 15,4.5; stroke-dashoffset: 0; stroke: #ffa500; stroke-width: 1.5"/>
   </g>
   <g id="line2d_35">
    <path d="M 209.455752 326.7864 
L 455.490039 326.7864 
L 455.720257 333.1368 
L 455.720257 333.1368 
" clip-path="url(#p0077bd044c)" style="fill: none; stroke-dasharray: 9.6,2.4,1.5,2.4; stroke-dashoffset: 0; stroke: #ff00ff; stroke-width: 1.5"/>
   </g>
   <g id="line2d_36">
    <path d="M 209.455752 391.1976 
L 455.490039 391.1976 
L 455.720257 154.872 
L 455.720257 154.872 
" clip-path="url(#p0077bd044c)" style="fill: none; stroke-dasharray: 9.6,2.4,1.5,2.4; stroke-dashoffset: 0; stroke: #ff00ff; stroke-width: 1.5"/>
   </g>
   <g id="line2d_37">
    <path d="M 455.720257 333.1368 
L 458.66076 333.1368 
L 458.896209 334.044 
L 460.46064 334.044 
L 460.701322 335.4048 
L 461.836712 335.4048 
L 462.061697 336.7656 
L 462.527364 336.7656 
L 462.972102 339.4872 
L 463.197087 339.4872 
L 463.432537 340.3944 
L 463.65229 340.3944 
L 464.097028 343.116 
L 464.332477 343.116 
L 464.55223 344.4768 
L 467.32007 344.4768 
L 467.545055 345.384 
L 468.45546 345.384 
L 468.675213 346.7448 
L 468.910662 346.7448 
L 469.130415 345.384 
L 469.810603 345.384 
L 470.030356 344.4768 
L 470.705311 344.4768 
L 470.930296 343.116 
L 473.886495 343.116 
L 474.106248 344.4768 
L 474.341698 344.4768 
L 474.561451 345.384 
L 475.006189 345.384 
L 475.241638 346.7448 
L 475.681144 346.7448 
L 475.906129 348.1056 
L 476.591549 348.1056 
L 476.816534 349.4664 
L 477.051983 349.4664 
L 477.501954 351.7344 
L 477.726939 351.7344 
L 478.642576 356.724 
L 479.10301 360.8064 
L 479.322763 362.1672 
L 479.537284 364.4352 
L 479.777966 365.796 
L 480.442457 372.1464 
L 481.849922 379.404 
L 482.074907 379.404 
L 482.299892 380.7648 
L 482.540573 380.7648 
L 482.765559 382.1256 
L 483.215529 382.1256 
L 483.461443 383.4864 
L 483.906181 383.4864 
L 484.131166 384.8472 
L 485.041571 384.8472 
L 485.282252 385.7544 
L 485.502005 385.7544 
L 485.72699 384.8472 
L 486.187425 384.8472 
L 487.553032 377.136 
L 487.778017 374.4144 
L 488.018699 373.5072 
L 489.164553 367.1568 
L 489.389539 367.1568 
L 489.609291 365.796 
L 489.849973 365.796 
L 490.069726 364.4352 
L 490.514464 364.4352 
L 490.760378 363.0744 
L 491.199884 363.0744 
L 491.424869 362.1672 
L 491.660318 362.1672 
L 492.110289 359.4456 
L 492.335274 356.724 
L 492.806173 354.456 
L 493.031158 354.456 
L 493.256143 353.0952 
L 493.502057 353.0952 
L 493.957259 350.3736 
L 495.087417 350.3736 
L 495.359492 351.7344 
L 495.584477 351.7344 
L 495.80423 353.0952 
L 496.023983 353.0952 
L 496.264665 354.456 
L 496.48965 354.456 
L 496.714635 355.3632 
L 496.93962 355.3632 
L 497.185534 356.724 
L 497.410519 356.724 
L 497.640736 358.5384 
L 497.865721 358.5384 
L 498.106403 359.4456 
L 498.331388 359.4456 
L 498.781358 362.1672 
L 499.02204 362.1672 
L 499.702228 365.796 
L 499.937677 365.796 
L 500.387647 368.5176 
L 500.6074 368.5176 
L 500.853314 369.8784 
L 501.073067 369.8784 
L 501.298052 370.7856 
L 501.763719 370.7856 
L 501.983472 372.1464 
L 502.679356 372.1464 
L 502.909573 371.2392 
L 504.06066 371.2392 
L 504.285645 369.8784 
L 505.902398 369.8784 
L 506.122151 371.2392 
L 506.838964 371.2392 
L 507.058717 369.8784 
L 507.754601 369.8784 
L 507.979586 368.064 
L 508.2255 368.064 
L 508.455718 367.1568 
L 508.680703 367.1568 
L 508.905688 365.796 
L 510.334082 365.796 
L 510.559067 367.1568 
L 510.799748 367.1568 
L 511.024734 368.064 
L 511.244486 368.064 
L 512.374644 374.4144 
L 512.610094 374.4144 
L 513.290281 378.4968 
L 513.530963 378.4968 
L 515.367469 389.8368 
L 515.592454 392.5584 
L 515.817439 393.9192 
L 516.277874 399.816 
L 516.947597 408.888 
L 519.244538 443.3616 
L 519.469523 444.2688 
L 519.950887 449.2584 
L 520.175872 450.6192 
L 520.400857 453.3408 
L 520.625842 454.7016 
L 521.091509 458.3304 
L 522.007146 463.32 
L 522.697798 466.9488 
L 522.922783 466.9488 
L 523.142536 468.3096 
L 523.618667 468.3096 
L 523.843652 469.2168 
L 524.801147 469.2168 
L 525.026132 468.3096 
L 525.722016 468.3096 
L 525.947001 466.9488 
L 526.407436 466.9488 
L 526.632421 465.588 
L 526.852174 465.588 
L 527.323073 463.32 
L 527.542826 463.32 
L 528.233478 459.2376 
L 528.458463 459.2376 
L 529.384564 453.3408 
L 529.609549 453.3408 
L 530.776332 446.9904 
L 531.001318 446.9904 
L 531.446056 444.7224 
L 532.597142 438.372 
L 532.822127 435.6504 
L 533.047112 434.7432 
L 533.512779 432.0216 
L 533.732532 429.3 
L 534.669098 425.2176 
L 536.050402 417.5064 
L 536.741054 413.8776 
L 536.966039 413.8776 
L 537.876444 408.888 
L 538.117125 408.888 
L 538.567096 406.1664 
L 538.786848 406.1664 
L 539.07462 404.8056 
L 539.299605 405.2592 
L 539.529822 405.2592 
L 539.770504 403.8984 
L 539.995489 403.8984 
L 540.450692 401.6304 
L 540.696606 401.6304 
L 540.921591 400.2696 
L 541.151808 400.2696 
L 541.617475 397.548 
L 541.84246 397.548 
L 542.062213 396.6408 
L 542.287198 396.6408 
L 542.522648 395.28 
L 542.747633 395.28 
L 542.972618 393.9192 
L 543.192371 393.9192 
L 543.433052 392.5584 
L 543.87779 392.5584 
L 544.097543 391.1976 
L 544.338225 391.1976 
L 544.568442 390.2904 
L 544.79866 391.6512 
L 545.023645 390.2904 
L 545.269559 390.2904 
L 545.494544 388.9296 
L 545.719529 388.9296 
L 545.944514 388.0224 
L 546.420645 388.0224 
L 546.640398 386.6616 
L 546.865383 386.6616 
L 547.111297 385.3008 
L 547.556035 385.3008 
L 547.78102 383.94 
L 548.246687 383.94 
L 548.471672 383.0328 
L 548.691425 383.0328 
L 548.937339 381.672 
L 549.382077 381.672 
L 549.612294 380.3112 
L 549.858208 381.672 
L 550.088426 380.3112 
L 550.543628 380.3112 
L 550.789542 379.404 
L 551.244744 379.404 
L 551.469729 378.0432 
L 551.940628 378.0432 
L 552.160381 376.6824 
L 552.851033 376.6824 
L 553.070786 375.3216 
L 553.651562 375.3216 
L 553.876547 374.4144 
L 554.342214 374.4144 
L 554.561966 373.0536 
L 555.713053 373.0536 
L 555.938038 371.6928 
L 556.408937 371.6928 
L 556.633922 370.7856 
L 557.099589 370.7856 
L 557.324574 369.4248 
L 557.769312 369.4248 
L 558.004762 368.064 
L 558.229747 368.064 
L 558.454732 366.7032 
L 558.909934 366.7032 
L 559.134919 365.796 
L 559.579657 365.796 
L 559.815107 364.4352 
L 560.040092 364.4352 
L 560.270309 363.0744 
L 560.495294 365.3424 
L 560.735976 365.3424 
L 560.960961 363.9816 
L 561.410932 363.9816 
L 561.646381 362.6208 
L 562.101583 362.6208 
L 562.326569 361.26 
L 562.546321 361.26 
L 562.787003 360.3528 
L 563.231741 360.3528 
L 563.456726 358.992 
L 563.697408 358.992 
L 563.922393 357.6312 
L 564.367131 357.6312 
L 564.613045 356.2704 
L 565.057783 356.2704 
L 565.282768 354.9096 
L 565.533914 356.2704 
L 565.989117 356.2704 
L 566.214102 354.9096 
L 566.915218 354.9096 
L 567.140203 353.5488 
L 567.60587 353.5488 
L 567.830855 352.6416 
L 568.333147 352.6416 
L 568.5529 351.2808 
L 569.002871 351.2808 
L 569.243552 349.92 
L 569.913275 349.92 
L 570.153957 348.5592 
L 570.60916 348.5592 
L 570.834145 349.92 
L 571.085291 349.92 
L 571.310276 348.5592 
L 572.011392 348.5592 
L 572.236377 347.1984 
L 572.932261 347.1984 
L 573.152014 346.2912 
L 573.842666 346.2912 
L 574.062419 344.9304 
L 574.747839 344.9304 
L 574.967592 343.5696 
L 575.658244 343.5696 
L 575.883229 342.2088 
L 576.108214 343.116 
L 576.333199 343.116 
L 576.573881 342.2088 
L 577.023851 342.2088 
L 577.248836 340.848 
L 577.49475 340.848 
L 577.724967 339.4872 
L 578.169705 339.4872 
L 578.415619 338.1264 
L 578.635372 338.1264 
L 578.860357 336.7656 
L 579.08011 336.7656 
L 579.320792 335.8584 
L 579.76553 335.8584 
L 579.985283 334.4976 
L 580.45095 334.4976 
L 580.66547 333.1368 
L 580.895688 333.1368 
L 581.136369 331.776 
L 581.366587 237.8808 
L 581.591572 237.8808 
L 581.821789 236.9736 
L 582.282224 236.9736 
L 582.507209 235.6128 
L 582.732194 235.6128 
L 583.014733 236.9736 
L 583.459471 236.9736 
L 583.679224 237.8808 
L 583.914674 237.8808 
L 584.139659 239.2416 
L 584.359412 239.2416 
L 585.044831 242.8704 
L 585.269817 242.8704 
L 586.405206 249.2208 
L 586.870873 249.2208 
L 587.749885 254.2104 
L 587.980102 254.2104 
L 588.895739 259.2 
L 589.115492 259.2 
L 589.800912 263.2824 
L 590.025897 263.2824 
L 590.486331 265.5504 
L 590.706084 265.5504 
L 591.150822 268.272 
L 591.401969 268.272 
L 591.632186 267.3648 
L 591.857171 267.3648 
L 592.082156 268.7256 
L 592.32807 268.7256 
L 593.248939 272.3544 
L 593.473924 272.3544 
L 593.698909 273.7152 
L 593.918662 273.7152 
L 594.159344 275.076 
L 594.384329 275.076 
L 594.609314 275.9832 
L 594.829067 277.344 
L 595.069749 277.344 
L 595.294734 278.7048 
L 595.519719 278.7048 
L 595.985386 280.9728 
L 596.205139 280.9728 
L 596.430124 282.3336 
L 596.660341 282.3336 
L 596.906255 283.2408 
L 597.13124 284.6016 
L 597.361458 284.6016 
L 597.586443 285.9624 
L 597.879447 286.8696 
L 598.109664 288.2304 
L 598.334649 288.2304 
L 599.250286 293.22 
L 599.475271 293.22 
L 600.626358 299.5704 
L 600.851343 299.5704 
L 601.536762 303.1992 
L 601.761748 303.1992 
L 601.986733 304.56 
L 602.206486 284.6016 
L 602.452399 305.9208 
L 602.897137 308.6424 
L 603.122123 308.6424 
L 603.362804 309.5496 
L 603.587789 309.5496 
L 603.818007 310.9104 
L 604.048224 310.0032 
L 604.294138 291.8592 
L 604.519123 303.1992 
L 604.744108 301.8384 
L 604.969093 298.2096 
L 605.215007 291.8592 
L 605.439992 313.632 
L 605.664977 314.9928 
L 605.900427 314.9928 
L 606.141109 316.3536 
L 606.585847 316.3536 
L 606.810832 317.2608 
L 607.276499 317.2608 
L 607.501484 318.6216 
L 607.726469 299.5704 
L 608.192136 320.8896 
L 608.417121 324.5184 
L 608.636874 324.5184 
L 609.107773 319.5288 
L 609.83505 301.8384 
L 610.065267 320.436 
L 610.52047 320.436 
L 610.766384 321.7968 
L 611.221586 321.7968 
L 611.462268 323.1576 
L 611.907006 323.1576 
L 612.131991 324.5184 
L 612.41453 310.9104 
L 612.634283 337.2192 
L 612.859268 341.3016 
L 613.079021 337.2192 
L 613.764441 308.1888 
L 613.989426 328.1472 
L 614.23534 329.508 
L 614.460325 329.508 
L 614.690542 330.4152 
L 614.915528 330.4152 
L 615.156209 331.776 
L 615.381194 331.776 
L 615.611412 323.6112 
L 615.836397 334.9512 
L 616.087543 332.2296 
L 616.312528 323.6112 
L 616.532281 335.4048 
L 616.997948 338.1264 
L 617.222933 338.1264 
L 617.447918 339.4872 
L 617.667671 339.4872 
L 617.913585 340.848 
L 618.13857 327.24 
L 618.358323 338.58 
L 618.583308 343.5696 
L 619.048975 343.5696 
L 619.493713 338.58 
L 619.975076 327.24 
L 620.200061 343.5696 
L 620.67096 343.5696 
L 621.126163 346.2912 
L 621.351148 346.2912 
L 621.597062 347.652 
L 621.827279 339.9408 
L 622.047032 347.1984 
L 622.272017 346.2912 
L 622.517931 342.2088 
L 622.742916 334.9512 
L 622.967901 351.2808 
L 623.658553 351.2808 
L 623.878306 352.6416 
L 624.349205 352.6416 
L 624.579422 354.0024 
L 624.804408 353.5488 
L 627.83909 353.5488 
L 628.064075 354.9096 
L 629.895349 354.9096 
L 630.120335 355.3632 
L 630.34532 354.0024 
L 630.816219 354.0024 
L 631.041204 353.0952 
L 631.517335 353.0952 
L 631.747552 351.7344 
L 632.19229 351.7344 
L 632.438204 350.3736 
L 632.663189 332.2296 
L 632.882942 335.8584 
L 633.359074 338.58 
L 633.803812 335.8584 
L 634.028797 332.2296 
L 634.269478 347.652 
L 634.944434 347.652 
L 635.19558 348.5592 
L 637.497753 348.5592 
L 637.738435 349.92 
L 637.96342 330.8688 
L 638.183173 332.2296 
L 638.408158 330.8688 
L 638.648839 332.2296 
L 638.873825 350.8272 
L 639.318563 350.8272 
L 639.559244 352.188 
L 640.003982 352.188 
L 640.2342 353.5488 
L 640.474881 354.0024 
L 640.930084 354.0024 
L 641.155069 355.3632 
L 641.898043 355.3632 
L 642.12826 356.724 
L 643.043897 356.724 
L 643.284579 357.6312 
L 645.340838 357.6312 
L 645.571055 337.2192 
L 645.796041 358.992 
L 647.674405 358.992 
L 647.894157 358.0848 
L 648.579577 358.0848 
L 648.804562 358.992 
L 650.62014 358.992 
L 650.845125 360.3528 
L 651.075342 360.3528 
L 651.321256 360.8064 
L 651.776458 360.8064 
L 652.001444 362.1672 
L 652.932777 362.1672 
L 653.178691 363.528 
L 655.684921 363.528 
L 655.96746 362.1672 
L 656.192445 362.1672 
L 656.422662 363.9816 
L 656.856936 363.9816 
L 657.081921 362.6208 
L 657.777805 362.6208 
L 658.00279 361.26 
L 658.473689 361.26 
L 658.693442 359.8992 
L 659.143412 359.8992 
L 659.378862 358.5384 
L 659.828832 358.5384 
L 660.053817 357.6312 
L 660.294499 357.6312 
L 660.519484 356.2704 
L 660.964222 356.2704 
L 661.215368 354.9096 
L 661.445586 355.3632 
L 661.670571 332.2296 
L 661.895556 330.8688 
L 662.14147 330.8688 
L 662.371687 354.456 
L 662.601904 353.0952 
L 666.740584 353.0952 
L 666.965569 353.5488 
L 668.357337 353.5488 
L 668.587554 352.188 
L 670.44499 352.188 
L 670.669975 350.8272 
L 671.810597 350.8272 
L 672.061743 351.7344 
L 673.448279 351.7344 
L 673.673264 352.6416 
L 675.50977 352.6416 
L 675.750452 351.7344 
L 676.896306 351.7344 
L 677.121292 352.188 
L 677.361973 350.8272 
L 678.507828 350.8272 
L 678.738045 349.4664 
L 679.203712 349.4664 
L 679.428697 323.6112 
L 680.119349 330.8688 
L 680.339102 330.8688 
L 680.789072 325.8792 
L 681.029754 322.2504 
L 681.254739 346.7448 
L 682.400593 346.7448 
L 682.625578 347.1984 
L 683.802826 347.1984 
L 684.033043 346.2912 
L 684.990538 346.2912 
L 685.215523 344.9304 
L 686.13116 344.9304 
L 686.366609 343.5696 
L 687.277014 343.5696 
L 687.507232 342.2088 
L 687.732217 342.6624 
L 687.962434 319.5288 
L 688.428101 328.6008 
L 688.658318 329.9616 
L 689.354202 335.8584 
L 689.58442 334.9512 
L 689.809405 335.8584 
L 690.050086 334.9512 
L 690.500057 334.9512 
L 690.730274 333.5904 
L 691.420926 333.5904 
L 691.640679 332.2296 
L 691.891825 332.2296 
L 692.336563 329.9616 
L 692.56678 329.9616 
L 692.812694 328.6008 
L 693.042912 328.6008 
L 693.492882 325.8792 
L 693.969013 317.2608 
L 694.193998 338.1264 
L 695.585766 338.1264 
L 695.810751 336.7656 
L 696.496171 336.7656 
L 696.715924 335.4048 
L 697.401344 335.4048 
L 697.626329 334.044 
L 697.851314 313.1784 
L 698.782648 344.9304 
L 699.515157 357.6312 
L 699.740142 354.9096 
L 699.986056 348.5592 
L 700.211041 327.24 
L 700.436027 329.508 
L 700.896461 329.508 
L 701.121446 328.1472 
L 701.346431 328.1472 
L 701.566184 300.9312 
L 702.947488 338.58 
L 703.648604 348.5592 
L 703.878822 349.92 
L 704.334024 349.92 
L 704.58517 344.9304 
L 705.040373 309.5496 
L 705.27059 321.7968 
L 705.511272 321.7968 
L 705.736257 320.436 
L 706.421677 320.436 
L 706.64143 319.0752 
L 706.866415 293.22 
L 707.782052 307.2816 
L 708.007037 309.5496 
L 708.713385 313.1784 
L 708.93837 312.2712 
L 709.184284 312.2712 
L 709.414502 313.1784 
L 709.639487 312.2712 
L 709.869704 312.2712 
L 710.115618 310.9104 
L 710.340603 310.9104 
L 710.565588 309.5496 
L 710.80627 309.5496 
L 711.031255 308.1888 
L 711.25624 308.1888 
L 711.721907 305.9208 
L 711.946892 305.9208 
L 712.396862 303.1992 
L 712.857297 299.5704 
L 713.328196 299.5704 
L 713.610735 298.2096 
L 714.065938 294.5808 
L 714.290923 319.0752 
L 715.682691 319.0752 
L 715.907676 320.436 
L 717.958703 320.436 
L 718.204617 321.7968 
L 718.884805 321.7968 
L 719.130719 320.8896 
L 726.466279 320.8896 
L 726.691264 319.5288 
L 729.234119 319.5288 
L 729.459104 318.6216 
L 731.311307 318.6216 
L 731.53106 317.7144 
L 733.137349 317.7144 
L 733.362334 316.3536 
L 734.058218 316.3536 
L 734.288436 291.8592 
L 734.759335 296.8488 
L 735.209305 299.5704 
L 735.455219 299.5704 
L 735.685436 298.2096 
L 735.910421 298.2096 
L 736.386553 295.9416 
L 736.611538 293.22 
L 736.836523 291.8592 
L 737.056276 316.3536 
L 738.212594 316.3536 
L 738.43758 317.2608 
L 739.583434 317.2608 
L 739.808419 316.8072 
L 741.210652 316.8072 
L 741.440869 315.4464 
L 743.298304 315.4464 
L 743.533754 291.8592 
L 743.758739 293.22 
L 743.983724 295.9416 
L 744.444159 298.2096 
L 745.124346 301.8384 
L 745.365028 300.9312 
L 745.590013 300.9312 
L 745.82023 299.5704 
L 746.045215 299.5704 
L 746.521347 296.8488 
L 746.976549 293.22 
L 747.222463 314.9928 
L 747.897418 314.9928 
L 748.1381 316.3536 
L 750.194359 316.3536 
L 750.424576 314.9928 
L 753.412169 314.9928 
L 753.652851 314.0856 
L 755.269604 314.0856 
L 755.499822 110.8728 
L 756.645676 110.8728 
L 756.875893 111.78 
L 757.158433 221.5512 
L 757.603171 187.5312 
L 757.822924 206.1288 
L 758.063605 117.2232 
L 758.283358 118.1304 
L 758.508343 230.1696 
L 758.968778 186.1704 
L 759.193763 226.5408 
L 759.413516 125.8416 
L 759.638501 241.5096 
L 760.098936 191.16 
L 760.323921 210.2112 
L 760.548906 133.5528 
L 760.79482 134.46 
L 761.025037 231.5304 
L 761.250022 206.1288 
L 761.48024 201.1392 
L 761.731386 140.3568 
L 761.956371 142.6248 
L 762.181356 239.2416 
L 762.406341 213.84 
L 762.652255 226.5408 
L 762.882472 148.9752 
L 763.107457 150.336 
L 763.332442 245.1384 
L 763.573124 223.8192 
L 763.792877 242.8704 
L 764.017862 156.6864 
L 764.237615 157.5936 
L 764.478297 269.1792 
L 764.703282 247.86 
L 764.923035 237.8808 
L 765.14802 163.0368 
L 765.388702 163.944 
L 765.843904 166.6656 
L 766.068889 267.8184 
L 766.314803 256.4784 
L 766.539788 168.9336 
L 767.240905 172.5624 
L 767.471122 285.5088 
L 767.696107 273.2616 
L 767.926324 176.1912 
L 768.611744 180.2736 
L 768.836729 299.5704 
L 769.077411 283.2408 
L 769.302396 300.9312 
L 769.527381 185.2632 
L 770.218033 188.892 
L 770.443018 304.56 
L 770.678468 290.4984 
L 770.908685 290.4984 
L 771.13367 191.16 
L 771.641195 193.428 
L 771.86618 194.7888 
L 772.091165 194.7888 
L 772.321382 310.9104 
L 772.562064 295.9416 
L 772.787049 289.5912 
L 773.012034 198.4176 
L 773.702686 202.5 
L 773.927671 202.5 
L 774.147424 319.5288 
L 774.607859 291.8592 
L 774.832844 295.9416 
L 775.057829 207.4896 
L 775.293278 208.3968 
L 775.518263 208.3968 
L 775.743248 209.7576 
L 775.963001 209.7576 
L 776.208915 211.1184 
L 776.439133 322.2504 
L 777.140249 288.2304 
L 777.365234 285.5088 
L 777.595451 296.8488 
L 777.820436 322.2504 
L 778.06635 214.7472 
L 778.516321 214.7472 
L 778.741306 216.108 
L 779.20174 216.108 
L 779.426725 337.2192 
L 780.562115 291.8592 
L 780.802797 288.2304 
L 781.027782 289.5912 
L 781.252767 291.8592 
L 781.718434 314.5392 
L 782.398622 343.5696 
L 782.644536 221.0976 
L 782.874753 222.0048 
L 784.454881 222.0048 
L 784.674634 343.5696 
L 785.804791 298.2096 
L 786.312316 290.4984 
L 786.537301 291.8592 
L 787.002968 308.1888 
L 787.683155 339.9408 
L 787.923837 344.9304 
L 788.609257 351.2808 
L 789.069691 351.2808 
L 789.514429 348.5592 
L 789.974864 341.3016 
L 790.419602 323.6112 
L 791.110254 298.2096 
L 791.330007 293.22 
L 791.795674 290.4984 
L 792.020659 291.8592 
L 792.250876 290.4984 
L 792.502022 290.4984 
L 792.727007 291.8592 
L 792.951992 291.8592 
L 793.176978 294.5808 
L 793.428124 294.5808 
L 793.878094 296.8488 
L 794.103079 300.9312 
L 794.348993 330.8688 
L 794.793731 330.8688 
L 795.018716 333.5904 
L 795.259398 334.9512 
L 795.479151 334.9512 
L 795.923889 338.58 
L 796.169803 339.9408 
L 796.614541 343.5696 
L 796.834293 343.5696 
L 797.305193 349.92 
L 797.53541 351.2808 
L 797.760395 353.5488 
L 798.006309 229.2624 
L 798.456279 229.2624 
L 798.686496 341.3016 
L 799.162628 349.92 
L 799.387613 354.9096 
L 799.607366 230.6232 
L 800.528235 230.6232 
L 800.75322 231.984 
L 801.197958 231.984 
L 801.433408 232.8912 
L 801.872913 232.8912 
L 802.097898 234.252 
L 802.33858 234.252 
L 802.57403 234.7056 
L 802.799015 234.7056 
L 803.024 236.0664 
L 803.264682 236.0664 
L 803.489667 236.9736 
L 803.714652 236.9736 
L 804.180319 239.6952 
L 804.405304 239.6952 
L 804.630289 241.056 
L 804.855274 241.056 
L 805.315709 243.324 
L 805.540694 243.324 
L 805.765679 244.6848 
L 806.220881 244.6848 
L 806.445866 246.0456 
L 806.901069 246.0456 
L 807.126054 247.4064 
L 807.811473 247.4064 
L 808.036459 246.9528 
L 808.261444 248.3136 
L 809.64798 248.3136 
L 809.878197 249.6744 
L 812.128048 249.6744 
L 812.36873 250.5816 
L 813.038453 250.5816 
L 813.279135 249.6744 
L 813.729105 249.6744 
L 813.959322 251.0352 
L 814.649974 251.0352 
L 814.874959 252.396 
L 815.377251 252.396 
L 815.597004 253.7568 
L 816.052207 253.7568 
L 816.277192 254.664 
L 816.496945 256.0248 
L 816.742859 256.0248 
L 817.203293 258.7464 
L 817.423046 258.7464 
L 817.888713 261.0144 
L 818.11893 261.0144 
L 818.568901 263.2824 
L 818.809582 263.2824 
L 819.034567 264.6432 
L 819.484538 264.6432 
L 819.725219 266.004 
L 819.950204 266.004 
L 820.17519 267.3648 
L 820.635624 267.3648 
L 820.855377 268.272 
L 821.300115 268.272 
L 821.535565 269.6328 
L 821.980303 269.6328 
L 822.200055 270.9936 
L 822.655258 270.9936 
L 822.880243 272.3544 
L 823.570895 272.3544 
L 823.79588 273.7152 
L 824.491764 273.7152 
L 824.716749 274.6224 
L 825.182416 274.6224 
L 825.412633 275.9832 
L 825.857371 275.9832 
L 826.092821 277.344 
L 826.537559 277.344 
L 826.757312 278.7048 
L 826.992761 278.7048 
L 827.217746 279.612 
L 827.897934 279.612 
L 828.117687 280.9728 
L 828.808339 280.9728 
L 829.028092 280.5192 
L 829.985586 280.5192 
L 830.210571 281.88 
L 831.126208 281.88 
L 831.345961 283.2408 
L 832.031381 283.2408 
L 832.251134 284.6016 
L 832.716801 284.6016 
L 832.941786 285.5088 
L 833.627206 285.5088 
L 833.852191 286.416 
L 834.77306 286.416 
L 834.998045 287.7768 
L 835.918914 287.7768 
L 836.154364 288.684 
L 837.284522 288.684 
L 837.504274 290.0448 
L 838.869882 290.0448 
L 839.094867 291.4056 
L 839.325084 291.4056 
L 839.550069 290.952 
L 840.245953 290.952 
L 840.470938 292.3128 
L 841.391808 292.3128 
L 841.627257 293.6736 
L 842.537662 293.6736 
L 842.767879 295.0344 
L 844.123022 295.0344 
L 844.400329 294.5808 
L 844.630547 295.9416 
L 846.686806 295.9416 
L 846.906559 296.8488 
L 849.412788 296.8488 
L 849.637773 296.3952 
L 849.878455 314.5392 
L 850.108672 313.1784 
L 850.558642 309.5496 
L 851.254527 305.9208 
L 851.720193 305.9208 
L 851.939946 304.56 
L 852.164931 304.56 
L 852.384684 303.1992 
L 852.620134 303.1992 
L 852.845119 304.56 
L 853.070104 303.1992 
L 853.289857 304.56 
L 853.750292 304.56 
L 853.975277 307.2816 
L 854.200262 307.2816 
L 854.435711 309.5496 
L 854.890914 317.2608 
L 855.121131 298.6632 
L 855.586798 298.6632 
L 855.811783 300.024 
L 856.507667 300.024 
L 856.732652 301.3848 
L 857.193087 301.3848 
L 857.418072 318.6216 
L 857.86281 312.2712 
L 858.542997 301.8384 
L 859.484795 293.22 
L 859.709781 305.9208 
L 859.934766 304.56 
L 860.144054 304.56 
L 860.839938 300.9312 
L 861.070156 300.9312 
L 861.295141 299.5704 
L 861.525358 299.5704 
L 861.76604 295.9416 
L 861.991025 294.5808 
L 862.671212 276.8904 
L 863.340935 254.2104 
L 863.80137 246.4992 
L 864.246108 241.5096 
L 864.481558 241.5096 
L 864.706543 240.1488 
L 864.926296 240.1488 
L 865.156513 239.2416 
L 865.847165 246.4992 
L 866.07215 250.5816 
L 866.762802 270.54 
L 866.987787 274.1688 
L 867.228469 257.8392 
L 867.453454 256.4784 
L 867.903424 256.4784 
L 868.144106 255.5712 
L 869.049278 255.5712 
L 869.274263 256.4784 
L 869.494016 255.5712 
L 869.719001 255.5712 
L 869.959683 254.2104 
L 870.179436 254.2104 
L 870.404421 252.8496 
L 870.624174 252.8496 
L 870.87532 251.4888 
L 871.100305 251.4888 
L 872.722291 235.1592 
L 872.947276 231.5304 
L 873.167029 230.1696 
L 873.889074 220.1904 
L 874.119291 218.8296 
L 874.339044 213.84 
L 874.804711 208.8504 
L 875.249449 206.1288 
L 875.715116 202.5 
L 876.170318 199.7784 
L 876.416232 199.7784 
L 876.641217 198.8712 
L 877.106884 201.1392 
L 877.331869 202.5 
L 877.787072 202.5 
L 878.022521 217.4688 
L 878.252739 220.1904 
L 878.477724 207.4896 
L 878.692244 319.5288 
L 879.157911 321.7968 
L 879.382896 220.1904 
L 879.607881 218.8296 
L 879.843331 325.8792 
L 880.293301 328.1472 
L 880.518286 329.508 
L 880.758968 217.4688 
L 880.983953 227.9016 
L 881.208938 227.9016 
L 881.433923 225.18 
L 881.674605 333.5904 
L 882.129807 335.8584 
L 882.354792 337.2192 
L 882.595474 337.2192 
L 882.825692 338.58 
L 883.050677 338.58 
L 883.27043 228.8088 
L 883.730864 231.5304 
L 883.955849 231.5304 
L 884.175602 230.1696 
L 884.641269 230.1696 
L 884.866254 340.848 
L 885.086007 340.848 
L 885.331921 342.2088 
L 885.551674 342.2088 
L 885.776659 343.5696 
L 886.707993 343.5696 
L 886.932978 344.9304 
L 887.184124 344.9304 
L 887.409109 343.5696 
L 890.642616 343.5696 
L 890.883297 344.9304 
L 892.254137 344.9304 
L 892.484354 344.0232 
L 892.730268 344.0232 
L 892.960485 231.5304 
L 893.185471 235.1592 
L 893.886587 252.8496 
L 894.111572 257.8392 
L 894.336557 256.4784 
L 894.577239 257.8392 
L 895.021977 255.5712 
L 895.24173 255.5712 
L 895.707397 251.4888 
L 896.398048 245.1384 
L 896.628266 244.2312 
L 896.853251 242.8704 
L 897.093933 244.2312 
L 897.543903 241.5096 
L 897.77412 241.5096 
L 898.239787 237.8808 
L 898.470004 236.52 
L 898.689757 233.7984 
L 898.930439 233.7984 
L 899.150192 235.1592 
L 899.375177 240.1488 
L 899.600162 270.54 
L 899.835612 276.8904 
L 900.060597 278.2512 
L 900.505335 271.9008 
L 901.656421 249.2208 
L 901.876174 251.4888 
L 902.106391 257.8392 
L 902.331376 285.5088 
L 902.619148 290.4984 
L 902.844133 290.4984 
L 903.294103 283.2408 
L 903.534785 276.8904 
L 903.75977 290.4984 
L 903.989988 286.8696 
L 904.214973 280.5192 
L 904.455654 278.2512 
L 904.680639 278.2512 
L 904.900392 279.1584 
L 905.366059 289.5912 
L 905.810797 293.22 
L 906.035782 290.4984 
L 906.501449 280.5192 
L 906.721202 279.1584 
L 906.946187 283.2408 
L 907.642071 303.1992 
L 907.867056 301.8384 
L 908.11297 299.5704 
L 908.787926 285.5088 
L 909.03384 284.6016 
L 909.264057 281.88 
L 909.48381 294.5808 
L 909.708795 296.8488 
L 910.169229 296.8488 
L 910.388982 298.2096 
L 910.854649 298.2096 
L 911.079634 295.9416 
L 911.299387 295.9416 
L 911.524372 294.5808 
L 911.990039 290.4984 
L 912.220256 290.4984 
L 912.445242 289.5912 
L 912.685923 289.5912 
L 913.135893 291.8592 
L 913.360879 293.22 
L 913.831778 299.5704 
L 914.281748 303.1992 
L 914.52243 303.1992 
L 914.747415 305.9208 
L 915.18692 301.8384 
L 915.427602 300.9312 
L 915.652587 300.9312 
L 916.092093 296.8488 
L 916.332775 294.5808 
L 916.777513 294.5808 
L 916.997266 293.22 
L 917.274573 293.22 
L 917.499558 295.9416 
L 917.724543 295.9416 
L 918.420427 303.1992 
L 918.645412 303.1992 
L 918.870397 307.2816 
L 919.121544 308.1888 
L 919.571514 310.9104 
L 919.796499 310.9104 
L 920.058109 312.2712 
L 920.283095 312.2712 
L 920.7226 314.5392 
L 920.963282 314.5392 
L 921.188267 315.9 
L 921.627773 315.9 
L 921.868455 317.2608 
L 922.313193 317.2608 
L 922.538178 318.6216 
L 923.22883 318.6216 
L 923.453815 319.5288 
L 923.699729 318.6216 
L 924.149699 318.6216 
L 924.374684 317.2608 
L 924.845583 317.2608 
L 925.290321 314.5392 
L 925.531003 314.5392 
L 925.750756 313.1784 
L 925.970509 313.1784 
L 926.436175 309.5496 
L 926.655928 310.9104 
L 927.100666 308.1888 
L 927.341348 309.5496 
L 927.561101 308.1888 
L 927.791318 308.1888 
L 928.267449 305.9208 
L 928.71742 308.1888 
L 928.942405 307.2816 
L 929.188319 308.1888 
L 929.638289 308.1888 
L 929.863274 300.024 
L 930.109188 299.1168 
L 930.328941 297.756 
L 930.553926 305.9208 
L 930.778911 300.9312 
L 931.019593 301.8384 
L 931.244578 292.7664 
L 931.464331 292.7664 
L 931.971855 290.0448 
L 932.191608 290.0448 
L 932.411361 288.684 
L 932.636346 288.684 
L 932.877028 287.7768 
L 933.326998 287.7768 
L 933.557215 288.2304 
L 936.319823 288.2304 
L 936.560505 289.5912 
L 937.230228 289.5912 
L 937.47091 290.952 
L 938.381315 290.952 
L 938.6063 292.3128 
L 938.831285 292.3128 
L 939.05627 291.8592 
L 939.521937 291.8592 
L 939.746922 293.22 
L 943.629223 293.22 
L 943.875137 292.7664 
L 946.166845 292.7664 
L 946.444153 294.1272 
L 947.108644 294.1272 
L 947.344093 295.488 
L 948.008584 295.488 
L 948.244033 296.3952 
L 948.913757 296.3952 
L 949.149206 297.756 
L 954.166897 297.756 
L 954.391882 297.3024 
L 954.632564 295.9416 
L 956.238853 295.9416 
L 956.474302 294.5808 
L 956.699287 307.2816 
L 956.91904 307.2816 
L 957.144025 305.9208 
L 957.60446 305.9208 
L 957.824213 304.56 
L 958.049198 304.56 
L 958.28988 303.1992 
L 958.514865 305.9208 
L 958.73985 304.56 
L 958.959603 293.6736 
L 959.210749 292.3128 
L 960.131618 292.3128 
L 960.356603 290.952 
L 962.679705 290.952 
L 962.920387 292.3128 
L 964.505747 292.3128 
L 964.751661 291.8592 
L 965.67253 291.8592 
L 965.897515 290.4984 
L 967.04337 290.4984 
L 967.268355 289.1376 
L 967.72879 289.1376 
L 967.953775 299.5704 
L 969.324614 270.54 
L 969.774584 270.54 
L 970.250716 276.8904 
L 970.705918 286.8696 
L 970.930903 291.8592 
L 971.401802 295.9416 
L 971.626787 298.2096 
L 972.542424 298.2096 
L 972.762177 296.8488 
L 973.008091 298.2096 
L 973.227844 296.8488 
L 973.918496 296.8488 
L 974.138249 298.2096 
L 974.593451 298.2096 
L 975.289335 301.8384 
L 975.51432 301.8384 
L 975.802092 303.1992 
L 976.48228 303.1992 
L 976.728194 289.1376 
L 976.958411 301.8384 
L 977.403149 301.8384 
L 977.643831 300.9312 
L 977.868816 300.9312 
L 978.093801 299.5704 
L 978.313554 296.8488 
L 978.554235 296.8488 
L 978.77922 294.5808 
L 979.46464 280.5192 
L 979.909378 269.1792 
L 980.129131 265.5504 
L 980.375045 259.2 
L 980.60003 257.8392 
L 980.830247 257.8392 
L 981.055233 259.2 
L 981.301146 259.2 
L 981.526132 261.9216 
L 981.976102 264.1896 
L 982.222016 264.1896 
L 982.671986 266.9112 
L 982.891739 266.9112 
L 983.352173 264.1896 
L 983.571926 264.1896 
L 983.796911 262.8288 
L 984.037593 262.8288 
L 984.257346 261.9216 
L 984.477099 261.9216 
L 984.942766 259.2 
L 985.162519 259.2 
L 985.863635 295.9416 
L 986.08862 284.6016 
L 987.469924 284.6016 
L 987.72107 285.9624 
L 989.076213 285.9624 
L 989.301198 287.3232 
L 989.986618 287.3232 
L 990.211603 288.684 
L 990.719127 288.684 
L 990.944113 289.5912 
L 991.17433 289.1376 
L 991.415012 289.1376 
L 991.639997 290.0448 
L 991.870214 305.9208 
L 992.346345 294.5808 
L 992.796315 286.8696 
L 993.021301 285.5088 
L 993.267214 295.9416 
L 993.486967 291.4056 
L 993.711952 303.1992 
L 994.84211 280.5192 
L 995.52753 274.1688 
L 995.752515 273.2616 
L 995.993197 273.2616 
L 996.218182 271.9008 
L 996.218182 271.9008 
" clip-path="url(#p0077bd044c)" style="fill: none; stroke: #0000ff; stroke-width: 1.5; stroke-linecap: square"/>
   </g>
   <g id="line2d_38">
    <path d="M 455.720257 154.872 
L 456.180691 154.872 
L 456.405676 158.9544 
L 458.441007 158.9544 
L 458.66076 154.872 
L 460.235655 154.872 
L 460.46064 151.2432 
L 461.836712 151.2432 
L 462.061697 143.9856 
L 462.752349 143.9856 
L 462.972102 140.3568 
L 463.197087 140.3568 
L 463.432537 133.5528 
L 463.872042 133.5528 
L 464.097028 130.8312 
L 464.332477 130.8312 
L 464.55223 127.656 
L 464.771983 127.656 
L 464.991736 124.9344 
L 465.446938 124.9344 
L 465.677155 122.2128 
L 467.095085 122.2128 
L 467.32007 119.4912 
L 467.775272 119.4912 
L 468.010722 117.2232 
L 468.45546 117.2232 
L 468.675213 114.9552 
L 470.705311 114.9552 
L 470.930296 117.2232 
L 473.441757 117.2232 
L 473.666743 114.9552 
L 474.106248 114.9552 
L 474.341698 113.1408 
L 474.781204 113.1408 
L 475.006189 110.8728 
L 476.141579 110.8728 
L 476.366564 109.512 
L 477.276969 109.512 
L 477.501954 107.6976 
L 477.726939 107.6976 
L 477.962388 104.976 
L 478.417591 104.976 
L 478.642576 103.6152 
L 479.537284 103.6152 
L 479.777966 102.708 
L 481.624936 102.708 
L 481.849922 103.6152 
L 482.540573 103.6152 
L 482.765559 104.976 
L 482.990544 104.976 
L 483.461443 109.512 
L 483.686428 110.8728 
L 484.816586 122.2128 
L 485.282252 130.8312 
L 485.502005 133.5528 
L 486.187425 151.2432 
L 486.41241 154.872 
L 486.86238 171.6552 
L 487.103062 175.7376 
L 487.328047 189.7992 
L 487.553032 194.3352 
L 488.243684 219.2832 
L 488.473901 224.2728 
L 488.698887 240.1488 
L 489.164553 251.0352 
L 489.609291 251.0352 
L 490.069726 267.3648 
L 490.294711 267.3648 
L 490.514464 272.808 
L 490.760378 272.808 
L 490.980131 278.2512 
L 491.199884 278.2512 
L 491.424869 283.6944 
L 491.660318 283.6944 
L 492.110289 295.0344 
L 492.335274 312.2712 
L 492.581188 312.2712 
L 493.031158 323.6112 
L 493.256143 323.6112 
L 493.727042 334.4976 
L 493.957259 334.4976 
L 494.177012 376.6824 
L 494.417694 392.1048 
L 494.642679 392.1048 
L 494.862432 382.1256 
L 495.359492 323.6112 
L 495.80423 246.4992 
L 496.023983 214.7472 
L 496.264665 199.7784 
L 496.48965 214.7472 
L 496.714635 273.7152 
L 496.93962 371.6928 
L 497.185534 425.2176 
L 497.410519 433.836 
L 497.640736 423.8568 
L 497.865721 390.744 
L 498.556373 223.8192 
L 498.781358 316.8072 
L 499.252257 184.356 
L 499.477243 162.5832 
L 499.702228 198.8712 
L 500.162662 375.7752 
L 500.387647 365.3424 
L 501.073067 250.5816 
L 501.523037 189.3456 
L 501.983472 158.5008 
L 502.433442 143.532 
L 502.679356 139.9032 
L 502.909573 138.996 
L 503.139791 142.1712 
L 503.364776 142.1712 
L 503.835675 149.4288 
L 504.06066 149.4288 
L 504.536791 157.14 
L 504.761776 165.3048 
L 505.452428 153.5112 
L 506.122151 132.6456 
L 507.299399 118.584 
L 507.524384 126.2952 
L 507.754601 142.1712 
L 508.455718 240.6024 
L 508.680703 245.592 
L 509.612036 124.9344 
L 510.114329 124.9344 
L 510.799748 117.2232 
L 511.244486 113.1408 
L 511.469472 109.512 
L 511.704921 107.6976 
L 511.924674 107.6976 
L 512.835079 102.708 
L 513.065296 102.2544 
L 513.290281 100.8936 
L 513.755948 100.8936 
L 513.980933 100.44 
L 514.4466 100.44 
L 514.671585 100.8936 
L 514.901802 100.8936 
L 515.126787 101.8008 
L 515.367469 102.2544 
L 515.592454 104.0688 
L 516.037192 109.9656 
L 516.277874 115.8624 
L 516.502859 118.1304 
L 517.183047 134.9136 
L 518.323669 168.48 
L 518.548654 182.9952 
L 518.773639 187.5312 
L 519.244538 202.0464 
L 520.175872 222.0048 
L 520.625842 452.4336 
L 520.866524 100.44 
L 521.091509 121.3056 
L 521.782161 467.4024 
L 522.007146 153.5112 
L 522.232131 101.8008 
L 522.457116 126.2952 
L 523.618667 378.9504 
L 524.068637 407.9808 
L 524.576162 407.9808 
L 525.026132 383.4864 
L 525.497031 324.972 
L 526.182451 206.1288 
L 526.632421 138.0888 
L 526.852174 114.048 
L 527.098088 106.7904 
L 527.323073 164.8512 
L 527.542826 398.0016 
L 528.008492 324.972 
L 528.68868 134.9136 
L 528.929362 112.6872 
L 529.154347 126.7488 
L 529.384564 266.004 
L 529.609549 332.2296 
L 529.850231 287.7768 
L 530.305433 150.336 
L 530.535651 110.4192 
L 530.776332 104.5224 
L 531.001318 126.7488 
L 531.22107 228.3552 
L 531.446056 249.6744 
L 532.131475 102.708 
L 532.35646 100.44 
L 532.822127 202.9536 
L 533.266865 100.8936 
L 533.512779 106.7904 
L 533.732532 121.3056 
L 533.962749 174.8304 
L 534.187734 128.5632 
L 534.433648 100.8936 
L 534.669098 114.9552 
L 534.894083 109.0584 
L 535.119068 123.12 
L 535.370214 148.5216 
L 535.825417 100.8936 
L 536.050402 112.6872 
L 536.296316 139.9032 
L 536.741054 104.0688 
L 536.966039 125.388 
L 537.431706 100.8936 
L 537.656691 109.0584 
L 538.117125 166.6656 
L 538.34211 162.5832 
L 538.567096 110.8728 
L 538.786848 103.1616 
L 539.07462 109.9656 
L 539.299605 106.7904 
L 539.529822 100.44 
L 539.770504 108.6048 
L 539.995489 129.4704 
L 540.450692 192.9744 
L 540.696606 192.9744 
L 541.151808 101.8008 
L 541.382025 105.4296 
L 541.617475 104.5224 
L 541.84246 100.8936 
L 542.062213 102.708 
L 542.287198 116.7696 
L 542.522648 138.996 
L 543.192371 238.3344 
L 543.433052 243.7776 
L 543.652805 217.4688 
L 544.097543 104.5224 
L 544.338225 100.44 
L 544.568442 100.44 
L 545.023645 102.2544 
L 545.269559 116.316 
L 545.719529 178.0056 
L 546.420645 297.756 
L 546.640398 319.5288 
L 546.865383 308.6424 
L 547.111297 247.86 
L 547.336282 138.5424 
L 547.556035 101.3472 
L 547.78102 101.3472 
L 548.021702 101.8008 
L 548.246687 100.44 
L 548.471672 102.2544 
L 548.691425 109.9656 
L 548.937339 129.0168 
L 549.382077 191.6136 
L 550.088426 307.7352 
L 550.318643 335.4048 
L 550.543628 346.2912 
L 550.789542 346.2912 
L 551.014527 296.8488 
L 551.469729 128.5632 
L 551.940628 105.4296 
L 552.160381 105.4296 
L 552.385366 106.7904 
L 552.626048 111.78 
L 552.851033 120.3984 
L 553.651562 181.6344 
L 554.561966 307.7352 
L 555.017169 346.2912 
L 555.257851 345.384 
L 555.488068 323.1576 
L 556.408937 119.9448 
L 556.633922 113.1408 
L 556.86414 115.4088 
L 557.099589 119.9448 
L 557.769312 176.6448 
L 558.229747 246.0456 
L 558.454732 137.1816 
L 558.909934 185.7168 
L 560.270309 382.1256 
L 560.495294 378.4968 
L 560.735976 363.0744 
L 560.960961 325.4256 
L 561.410932 169.3872 
L 561.646381 138.5424 
L 561.871366 129.0168 
L 562.101583 132.192 
L 562.326569 145.3464 
L 562.546321 164.8512 
L 563.011988 231.984 
L 563.922393 383.4864 
L 564.142146 403.4448 
L 564.367131 412.9704 
L 564.613045 408.4344 
L 564.83803 373.5072 
L 565.758899 161.2224 
L 565.989117 149.4288 
L 566.214102 145.8 
L 566.685001 169.3872 
L 566.915218 187.5312 
L 568.777885 422.496 
L 569.002871 439.7328 
L 569.468537 456.0624 
L 569.68829 447.8976 
L 569.913275 427.032 
L 570.153957 383.94 
L 570.834145 192.5208 
L 571.310276 149.4288 
L 571.535261 145.8 
L 572.011392 153.5112 
L 572.69158 187.5312 
L 573.601985 270.54 
L 574.062419 303.6528 
L 574.287404 309.096 
L 574.507157 320.436 
L 574.747839 320.436 
L 574.967592 309.096 
L 575.192577 287.3232 
L 575.658244 116.316 
L 575.883229 108.6048 
L 576.108214 152.1504 
L 576.333199 164.3976 
L 576.573881 164.3976 
L 577.49475 102.2544 
L 577.724967 101.3472 
L 577.94472 116.7696 
L 578.635372 213.3864 
L 578.860357 218.376 
L 579.08011 112.6872 
L 579.320792 296.8488 
L 579.540545 351.2808 
L 579.76553 329.9616 
L 580.895688 118.1304 
L 581.136369 106.7904 
L 581.366587 388.0224 
L 581.821789 434.7432 
L 582.057239 447.444 
L 582.282224 443.3616 
L 583.014733 443.3616 
L 583.234486 451.5264 
L 583.459471 434.7432 
L 583.679224 407.9808 
L 584.825079 168.9336 
L 585.044831 231.5304 
L 585.269817 393.012 
L 585.489569 434.7432 
L 585.730251 388.0224 
L 586.405206 168.9336 
L 586.645888 173.4696 
L 587.095858 426.5784 
L 587.320843 398.4552 
L 587.749885 253.7568 
L 587.980102 182.5416 
L 588.205087 149.4288 
L 588.430072 160.7688 
L 588.670754 336.312 
L 588.895739 408.4344 
L 589.115492 378.4968 
L 590.025897 135.3672 
L 590.24565 126.2952 
L 590.486331 182.5416 
L 590.706084 319.9824 
L 590.931069 378.4968 
L 591.150822 363.0744 
L 591.632186 273.7152 
L 592.082156 167.5728 
L 592.32807 130.8312 
L 592.553055 117.6768 
L 592.77804 115.4088 
L 593.003025 159.408 
L 593.473924 366.7032 
L 593.698909 361.26 
L 593.918662 329.0544 
L 594.384329 214.7472 
L 594.609314 329.0544 
L 595.519719 122.6664 
L 595.739472 106.3368 
L 595.985386 103.1616 
L 596.205139 128.1096 
L 596.660341 361.26 
L 596.906255 352.6416 
L 597.879447 138.5424 
L 598.109664 123.5736 
L 598.334649 192.0672 
L 598.559634 408.4344 
L 598.805548 412.9704 
L 599.030533 388.9296 
L 599.475271 286.8696 
L 599.715953 253.7568 
L 599.940938 314.5392 
L 600.160691 470.5776 
L 600.385676 506.8656 
L 600.626358 493.2576 
L 601.076328 412.9704 
L 601.296081 373.5072 
L 601.536762 383.94 
L 601.986733 529.092 
L 602.206486 549.504 
L 603.587789 422.0424 
L 603.818007 443.8152 
L 604.294138 549.504 
L 605.215007 549.504 
L 605.439992 525.4632 
L 605.900427 495.9792 
L 606.585847 451.5264 
L 606.810832 447.444 
L 607.056746 459.2376 
L 607.501484 517.752 
L 607.726469 549.504 
L 609.83505 549.504 
L 610.065267 530.9064 
L 610.996601 494.1648 
L 611.221586 475.1136 
L 611.687253 464.6808 
L 611.907006 471.9384 
L 612.131991 499.608 
L 612.41453 549.504 
L 613.764441 549.504 
L 614.23534 514.5768 
L 614.690542 488.7216 
L 614.915528 482.3712 
L 615.156209 491.4432 
L 615.611412 549.504 
L 616.312528 549.504 
L 617.222933 461.5056 
L 617.447918 465.1344 
L 618.13857 549.504 
L 619.975076 549.504 
L 620.67096 504.144 
L 620.895945 477.3816 
L 621.126163 463.32 
L 621.351148 477.3816 
L 621.827279 549.504 
L 622.742916 549.504 
L 623.192886 527.2776 
L 623.433568 518.2056 
L 624.349205 466.9488 
L 624.804408 449.2584 
L 625.034625 449.2584 
L 625.280539 452.8872 
L 625.505524 452.8872 
L 625.730509 456.9696 
L 625.971191 452.8872 
L 626.436858 452.8872 
L 626.651378 440.64 
L 626.933918 445.176 
L 627.158903 445.176 
L 627.603641 436.5576 
L 627.83909 436.5576 
L 628.064075 449.2584 
L 628.28906 468.3096 
L 628.754727 516.3912 
L 628.97448 520.4736 
L 629.199465 518.6592 
L 629.895349 499.608 
L 630.34532 476.4744 
L 630.591234 469.6704 
L 631.517335 498.2472 
L 632.19229 526.824 
L 632.438204 533.1744 
L 632.663189 549.504 
L 634.028797 549.504 
L 634.269478 535.896 
L 634.494463 531.8136 
L 634.714216 525.0096 
L 634.944434 523.1952 
L 635.19558 518.6592 
L 635.420565 518.6592 
L 635.650782 520.4736 
L 635.875767 520.4736 
L 636.121681 522.288 
L 636.351899 520.4736 
L 636.576884 524.1024 
L 636.807101 525.9168 
L 637.053015 529.5456 
L 637.278 530.9064 
L 637.497753 534.0816 
L 637.738435 534.9888 
L 637.96342 549.504 
L 638.648839 549.504 
L 638.873825 534.9888 
L 639.093577 532.2672 
L 639.318563 527.7312 
L 640.003982 504.5976 
L 640.705099 476.928 
L 641.155069 466.4952 
L 641.448073 466.4952 
L 641.673058 470.124 
L 642.12826 483.2784 
L 642.593927 506.412 
L 643.043897 521.8344 
L 643.509564 527.2776 
L 644.200216 531.8136 
L 644.869939 531.8136 
L 645.115853 533.1744 
L 645.340838 531.8136 
L 645.571055 549.504 
L 645.796041 533.1744 
L 646.041955 533.1744 
L 646.722142 528.6384 
L 646.968056 526.824 
L 647.433723 517.752 
L 647.674405 515.484 
L 647.894157 510.948 
L 648.579577 510.948 
L 649.024315 517.752 
L 649.48475 523.6488 
L 649.709735 526.824 
L 649.93472 526.824 
L 650.159705 530.4528 
L 650.395155 531.8136 
L 650.62014 530.4528 
L 650.845125 531.8136 
L 651.546241 522.7416 
L 652.932777 481.9176 
L 654.09956 436.5576 
L 654.319313 432.4752 
L 654.544298 432.4752 
L 655.240183 445.176 
L 657.306906 515.9376 
L 657.547588 520.02 
L 657.777805 520.02 
L 658.00279 522.288 
L 658.473689 501.876 
L 659.378862 394.3728 
L 659.603847 398.9088 
L 659.828832 408.888 
L 660.744469 493.2576 
L 661.215368 520.02 
L 661.445586 528.1848 
L 661.670571 549.504 
L 662.14147 549.504 
L 662.371687 526.824 
L 662.601904 517.2984 
L 662.826889 515.0304 
L 663.747759 479.6496 
L 663.98844 479.6496 
L 664.904077 465.588 
L 665.129063 461.9592 
L 665.348815 461.9592 
L 665.5738 458.3304 
L 665.814482 465.588 
L 666.039467 465.588 
L 666.505134 489.1752 
L 666.740584 495.072 
L 667.195786 499.608 
L 667.436468 496.8864 
L 667.661453 490.9896 
L 668.116655 471.4848 
L 668.357337 467.856 
L 668.587554 456.9696 
L 668.812539 436.5576 
L 669.037525 427.9392 
L 669.272974 423.4032 
L 669.497959 423.4032 
L 669.717712 418.8672 
L 669.942697 418.8672 
L 670.669975 432.0216 
L 670.89496 436.5576 
L 671.135641 436.5576 
L 671.360627 444.7224 
L 671.810597 444.7224 
L 672.061743 442.908 
L 672.286728 442.908 
L 672.74193 434.7432 
L 673.448279 412.0632 
L 673.673264 407.5272 
L 673.92441 407.5272 
L 675.0598 382.5792 
L 675.284785 388.0224 
L 675.750452 388.0224 
L 675.975437 393.012 
L 677.121292 445.6296 
L 678.27761 500.0616 
L 678.738045 512.3088 
L 679.203712 526.3704 
L 679.428697 549.504 
L 681.029754 549.504 
L 681.254739 528.1848 
L 681.704709 520.9272 
L 681.945391 520.9272 
L 682.170376 519.1128 
L 682.400593 519.1128 
L 682.876724 511.8552 
L 683.101709 504.5976 
L 683.556912 481.0104 
L 684.26326 427.032 
L 684.488246 399.3624 
L 684.765553 389.3832 
L 684.990538 389.3832 
L 685.68119 417.96 
L 686.366609 463.7736 
L 686.81658 490.536 
L 687.507232 520.4736 
L 687.732217 527.2776 
L 687.962434 549.504 
L 693.969013 549.504 
L 694.193998 528.1848 
L 695.810751 461.5056 
L 696.030504 461.5056 
L 696.271186 442.0008 
L 696.940909 479.196 
L 697.851314 549.504 
L 700.211041 549.504 
L 700.661012 504.5976 
L 700.896461 499.608 
L 701.121446 504.5976 
L 701.346431 518.6592 
L 701.566184 549.504 
L 705.040373 549.504 
L 705.27059 523.1952 
L 705.511272 519.1128 
L 705.736257 512.7624 
L 706.421677 520.9272 
L 706.64143 526.3704 
L 706.866415 549.504 
L 714.065938 549.504 
L 714.290923 528.1848 
L 715.211792 512.7624 
L 715.457706 507.7728 
L 715.682691 512.7624 
L 715.907676 507.7728 
L 716.368111 502.7832 
L 716.593096 497.34 
L 717.043066 491.8968 
L 717.508733 482.3712 
L 718.204617 472.392 
L 718.429602 476.0208 
L 718.654587 476.0208 
L 718.884805 479.196 
L 719.130719 487.8144 
L 719.360936 490.9896 
L 719.585921 496.8864 
L 719.810906 499.608 
L 720.05682 504.5976 
L 720.512023 504.5976 
L 720.737008 499.608 
L 720.982922 499.608 
L 721.202674 496.8864 
L 721.42766 490.9896 
L 721.647412 481.464 
L 721.893326 478.2888 
L 722.338064 467.856 
L 722.808963 460.5984 
L 723.253701 460.5984 
L 723.483919 452.8872 
L 723.729833 456.9696 
L 724.185035 456.9696 
L 724.41002 449.2584 
L 725.116369 449.2584 
L 725.54541 440.64 
L 725.78086 440.64 
L 726.005845 414.3312 
L 726.241294 409.7952 
L 726.466279 414.3312 
L 726.911017 414.3312 
L 727.151699 418.8672 
L 727.596437 418.8672 
L 728.093497 427.9392 
L 728.318482 427.9392 
L 728.543467 432.4752 
L 728.76322 432.4752 
L 729.689322 446.9904 
L 729.930003 446.9904 
L 730.160221 451.0728 
L 730.610191 451.0728 
L 730.850873 455.1552 
L 731.08109 455.1552 
L 731.53106 462.8664 
L 733.608248 521.8344 
L 734.058218 528.6384 
L 734.288436 549.504 
L 736.836523 549.504 
L 737.056276 528.6384 
L 737.527175 521.8344 
L 737.971913 515.484 
L 738.88755 506.412 
L 739.353217 506.412 
L 739.583434 503.6904 
L 739.808419 507.7728 
L 740.514768 507.7728 
L 741.210652 515.0304 
L 741.676319 519.1128 
L 741.901304 519.1128 
L 742.121057 520.9272 
L 742.351274 524.556 
L 743.298304 531.36 
L 743.533754 549.504 
L 746.976549 549.504 
L 747.222463 530.4528 
L 747.897418 515.484 
L 748.363085 500.9688 
L 749.053737 486.4536 
L 749.278722 483.2784 
L 749.498475 483.2784 
L 749.72346 480.1032 
L 749.969374 483.2784 
L 750.194359 480.1032 
L 750.424576 486 
L 751.120461 486 
L 751.570431 479.6496 
L 751.816345 479.6496 
L 752.271547 469.2168 
L 752.496532 469.2168 
L 753.187184 450.6192 
L 753.412169 458.3304 
L 753.652851 461.9592 
L 753.877836 469.2168 
L 754.102821 472.8456 
L 754.322574 472.8456 
L 754.568488 476.4744 
L 755.269604 476.4744 
L 755.499822 516.3912 
L 755.724807 516.3912 
L 756.195706 520.4736 
L 756.420691 525.9168 
L 757.158433 549.504 
L 757.822924 549.504 
L 758.063605 524.556 
L 758.508343 549.504 
L 759.193763 549.504 
L 759.413516 534.0816 
L 759.638501 549.504 
L 760.323921 549.504 
L 760.548906 534.9888 
L 760.79482 545.4216 
L 761.025037 549.504 
L 761.48024 549.504 
L 761.731386 536.8032 
L 762.181356 549.504 
L 762.652255 549.504 
L 762.882472 528.1848 
L 763.107457 544.968 
L 763.332442 549.504 
L 763.792877 549.504 
L 764.017862 521.3808 
L 764.478297 549.504 
L 764.923035 549.504 
L 765.14802 545.4216 
L 765.388702 505.9584 
L 765.843904 545.4216 
L 766.068889 549.504 
L 766.314803 549.504 
L 766.539788 540.8856 
L 766.764773 475.5672 
L 767.240905 536.8032 
L 767.471122 549.504 
L 767.696107 549.504 
L 767.926324 544.0608 
L 768.167006 461.052 
L 768.391991 485.0928 
L 768.836729 549.504 
L 769.302396 549.504 
L 769.527381 471.9384 
L 769.768063 475.5672 
L 770.218033 537.7104 
L 770.443018 549.504 
L 770.908685 549.504 
L 771.13367 525.4632 
L 771.358655 466.9488 
L 771.641195 483.732 
L 772.091165 535.896 
L 772.321382 549.504 
L 772.787049 549.504 
L 773.012034 544.968 
L 773.237019 492.804 
L 773.472469 492.804 
L 774.147424 549.504 
L 774.832844 549.504 
L 775.057829 543.6072 
L 775.293278 511.4016 
L 775.518263 509.1336 
L 776.439133 549.504 
L 777.820436 549.504 
L 778.291335 527.2776 
L 778.981987 535.896 
L 779.426725 549.504 
L 782.398622 549.504 
L 782.644536 542.2464 
L 782.874753 540.432 
L 783.324723 540.432 
L 783.575869 539.5248 
L 783.800854 541.3392 
L 784.250825 541.3392 
L 784.454881 543.1536 
L 784.674634 549.504 
L 797.760395 549.504 
L 798.006309 542.2464 
L 798.456279 537.7104 
L 798.686496 549.504 
L 799.387613 549.504 
L 799.607366 539.9784 
L 800.25616 528.1848 
L 800.972973 507.7728 
L 801.197958 500.0616 
L 801.433408 496.8864 
L 801.872913 481.9176 
L 802.097898 475.5672 
L 802.33858 471.9384 
L 802.799015 461.9592 
L 803.024 458.3304 
L 803.489667 458.3304 
L 803.714652 450.1656 
L 804.405304 450.1656 
L 804.630289 371.6928 
L 804.855274 381.672 
L 805.765679 491.8968 
L 806.001128 508.2264 
L 806.445866 519.1128 
L 806.665619 519.1128 
L 806.901069 515.0304 
L 807.126054 508.2264 
L 808.727111 432.9288 
L 808.957328 432.9288 
L 809.182313 428.3928 
L 809.407298 432.9288 
L 809.878197 432.9288 
L 810.09795 494.1648 
L 810.322935 497.34 
L 811.222875 497.34 
L 811.463557 494.1648 
L 812.588483 494.1648 
L 812.813468 488.268 
L 813.038453 488.268 
L 813.279135 486 
L 815.377251 486 
L 815.597004 482.8248 
L 816.052207 482.8248 
L 816.978308 458.3304 
L 817.203293 454.7016 
L 817.423046 446.5368 
L 817.888713 438.372 
L 818.11893 438.372 
L 818.343915 437.4648 
L 818.568901 428.8464 
L 818.809582 424.3104 
L 819.034567 424.3104 
L 819.259553 419.7744 
L 819.950204 419.7744 
L 820.17519 415.2384 
L 821.980303 415.2384 
L 822.200055 419.7744 
L 823.79588 419.7744 
L 824.026097 415.2384 
L 828.808339 415.2384 
L 829.028092 408.888 
L 829.478062 408.888 
L 829.760601 404.352 
L 830.68147 404.352 
L 830.901223 448.3512 
L 831.126208 436.104 
L 831.345961 431.568 
L 831.586643 422.9496 
L 832.497048 353.0952 
L 832.716801 342.6624 
L 833.161539 342.6624 
L 833.396988 348.1056 
L 833.852191 366.7032 
L 834.082408 371.6928 
L 835.693929 438.372 
L 835.918914 446.5368 
L 836.379349 454.7016 
L 837.059536 454.7016 
L 837.284522 458.3304 
L 837.964709 446.5368 
L 839.094867 406.62 
L 839.550069 395.7336 
L 839.790751 395.7336 
L 840.020968 380.7648 
L 840.245953 380.7648 
L 840.470938 375.3216 
L 840.71162 375.3216 
L 840.936605 380.7648 
L 841.166823 380.7648 
L 841.391808 390.744 
L 841.627257 395.7336 
L 841.852242 409.7952 
L 842.071995 414.7848 
L 842.29698 428.3928 
L 842.537662 432.4752 
L 843.448067 464.6808 
L 843.673052 468.3096 
L 843.892805 478.7424 
L 844.123022 481.9176 
L 844.400329 484.1856 
L 844.630547 490.536 
L 845.546184 501.876 
L 845.771169 506.8656 
L 845.996154 509.1336 
L 846.461821 509.1336 
L 846.686806 514.1232 
L 847.142008 514.1232 
L 847.366993 515.9376 
L 847.591978 515.9376 
L 849.412788 534.9888 
L 849.637773 535.4424 
L 849.878455 549.504 
L 854.890914 549.504 
L 855.121131 534.0816 
L 855.361813 531.36 
L 855.811783 522.7416 
L 856.282682 522.7416 
L 856.507667 526.3704 
L 856.732652 526.3704 
L 857.193087 534.0816 
L 857.418072 549.504 
L 878.477724 549.504 
L 878.938158 539.0712 
L 879.157911 547.236 
L 879.382896 549.504 
L 879.607881 549.504 
L 879.843331 547.236 
L 880.293301 535.4424 
L 880.518286 540.8856 
L 880.758968 549.504 
L 881.433923 549.504 
L 881.674605 548.5968 
L 882.354792 532.2672 
L 882.595474 536.3496 
L 883.050677 548.5968 
L 883.27043 549.504 
L 884.641269 549.504 
L 884.866254 549.0504 
L 885.086007 548.1432 
L 885.551674 541.7928 
L 886.001644 532.2672 
L 886.472543 527.7312 
L 886.707993 529.092 
L 886.932978 529.092 
L 887.859079 540.8856 
L 888.591589 545.4216 
L 888.816574 545.8752 
L 889.057256 546.7824 
L 890.192645 546.7824 
L 890.642616 547.6896 
L 890.883297 548.5968 
L 891.10305 548.5968 
L 891.328035 549.0504 
L 891.553021 549.0504 
L 891.804167 548.5968 
L 892.254137 547.236 
L 892.484354 547.236 
L 892.730268 548.1432 
L 892.960485 549.504 
L 929.638289 549.504 
L 929.863274 542.2464 
L 930.109188 539.5248 
L 930.328941 540.432 
L 930.553926 549.504 
L 931.019593 549.504 
L 931.464331 535.896 
L 931.689316 529.9992 
L 931.971855 526.824 
L 932.191608 529.9992 
L 932.411361 531.36 
L 932.636346 536.8032 
L 932.877028 538.164 
L 933.096781 540.432 
L 933.326998 540.432 
L 933.557215 540.8856 
L 935.179201 540.8856 
L 935.6501 538.6176 
L 935.875085 539.9784 
L 936.094838 538.6176 
L 936.560505 538.6176 
L 937.010475 536.3496 
L 937.230228 533.628 
L 937.915648 529.5456 
L 938.140633 527.7312 
L 938.831285 527.7312 
L 939.05627 529.092 
L 939.296952 529.092 
L 939.746922 531.8136 
L 939.971907 530.4528 
L 940.217821 531.8136 
L 943.404238 531.8136 
L 943.629223 530.4528 
L 943.875137 529.9992 
L 944.555324 529.9992 
L 944.801238 528.6384 
L 947.563846 528.6384 
L 947.788831 529.9992 
L 948.913757 529.9992 
L 949.149206 531.8136 
L 949.384656 531.8136 
L 949.609641 531.36 
L 950.075308 534.0816 
L 950.300293 538.164 
L 950.525278 538.164 
L 951.221162 541.3392 
L 951.440915 534.0816 
L 951.6659 535.4424 
L 952.571072 535.4424 
L 952.816986 534.0816 
L 953.031507 535.4424 
L 953.476245 532.7208 
L 953.716927 532.7208 
L 953.93668 534.0816 
L 954.166897 532.7208 
L 954.391882 534.0816 
L 954.632564 534.0816 
L 954.857549 535.4424 
L 955.082534 535.4424 
L 955.312751 536.8032 
L 955.553433 536.8032 
L 955.78365 539.0712 
L 956.474302 542.2464 
L 956.699287 549.504 
L 958.73985 549.504 
L 958.959603 542.2464 
L 959.435734 537.7104 
L 959.660719 534.0816 
L 959.885704 532.7208 
L 960.131618 529.5456 
L 960.581588 526.3704 
L 961.094345 526.3704 
L 961.31933 524.556 
L 962.009982 524.556 
L 963.14014 534.0816 
L 963.365125 534.0816 
L 963.59011 536.8032 
L 963.830792 535.4424 
L 964.050545 536.8032 
L 964.27553 536.8032 
L 964.505747 537.7104 
L 964.751661 537.2568 
L 964.976646 537.2568 
L 965.201631 538.6176 
L 965.426616 537.2568 
L 965.67253 537.2568 
L 965.897515 535.896 
L 966.352718 535.896 
L 966.598632 534.9888 
L 967.04337 534.9888 
L 967.268355 535.896 
L 967.72879 541.7928 
L 967.953775 549.504 
L 976.48228 549.504 
L 976.728194 540.432 
L 976.958411 549.504 
L 985.863635 549.504 
L 986.543823 499.608 
L 987.014722 437.0112 
L 987.72107 338.1264 
L 988.165808 288.684 
L 988.631475 250.128 
L 989.301198 390.2904 
L 989.986618 475.1136 
L 990.494142 510.0408 
L 990.944113 485.0928 
L 991.415012 525.0096 
L 991.639997 533.1744 
L 991.870214 549.504 
L 993.267214 549.504 
L 993.486967 539.5248 
L 993.711952 549.504 
L 996.218182 549.504 
L 996.218182 549.504 
" clip-path="url(#p0077bd044c)" style="fill: none; stroke-dasharray: 15,4.5; stroke-dashoffset: 0; stroke: #ffa500; stroke-width: 1.5"/>
   </g>
   <g id="patch_3">
    <path d="M 144 576.72 
L 144 77.76 
" style="fill: none; stroke: #000000; stroke-width: 0.8; stroke-linejoin: miter; stroke-linecap: square"/>
   </g>
   <g id="patch_4">
    <path d="M 1036.8 576.72 
L 1036.8 77.76 
" style="fill: none; stroke: #000000; stroke-width: 0.8; stroke-linejoin: miter; stroke-linecap: square"/>
   </g>
   <g id="patch_5">
    <path d="M 144 576.72 
L 1036.8 576.72 
" style="fill: none; stroke: #000000; stroke-width: 0.8; stroke-linejoin: miter; stroke-linecap: square"/>
   </g>
   <g id="patch_6">
    <path d="M 144 77.76 
L 1036.8 77.76 
" style="fill: none; stroke: #000000; stroke-width: 0.8; stroke-linejoin: miter; stroke-linecap: square"/>
   </g>
   <g id="text_18">
    <!-- Servomotors Commands -->
    <g transform="translate(516.208125 71.76)scale(0.12 -0.12)">
     <defs>
      <path id="DejaVuSans-53" d="M 3425 4513 
L 3425 3897 
Q 3066 4069 2747 4153 
Q 2428 4238 2131 4238 
Q 1616 4238 1336 4038 
Q 1056 3838 1056 3469 
Q 1056 3159 1242 3001 
Q 1428 2844 1947 2747 
L 2328 2669 
Q 3034 2534 3370 2195 
Q 3706 1856 3706 1288 
Q 3706 609 3251 259 
Q 2797 -91 1919 -91 
Q 1588 -91 1214 -16 
Q 841 59 441 206 
L 441 856 
Q 825 641 1194 531 
Q 1563 422 1919 422 
Q 2459 422 2753 634 
Q 3047 847 3047 1241 
Q 3047 1584 2836 1778 
Q 2625 1972 2144 2069 
L 1759 2144 
Q 1053 2284 737 2584 
Q 422 2884 422 3419 
Q 422 4038 858 4394 
Q 1294 4750 2059 4750 
Q 2388 4750 2728 4690 
Q 3069 4631 3425 4513 
z
" transform="scale(0.015625)"/>
      <path id="DejaVuSans-72" d="M 2631 2963 
Q 2534 3019 2420 3045 
Q 2306 3072 2169 3072 
Q 1681 3072 1420 2755 
Q 1159 2438 1159 1844 
L 1159 0 
L 581 0 
L 581 3500 
L 1159 3500 
L 1159 2956 
Q 1341 3275 1631 3429 
Q 1922 3584 2338 3584 
Q 2397 3584 2469 3576 
Q 2541 3569 2628 3553 
L 2631 2963 
z
" transform="scale(0.015625)"/>
      <path id="DejaVuSans-76" d="M 191 3500 
L 800 3500 
L 1894 563 
L 2988 3500 
L 3597 3500 
L 2284 0 
L 1503 0 
L 191 3500 
z
" transform="scale(0.015625)"/>
      <path id="DejaVuSans-74" d="M 1172 4494 
L 1172 3500 
L 2356 3500 
L 2356 3053 
L 1172 3053 
L 1172 1153 
Q 1172 725 1289 603 
Q 1406 481 1766 481 
L 2356 481 
L 2356 0 
L 1766 0 
Q 1100 0 847 248 
Q 594 497 594 1153 
L 594 3053 
L 172 3053 
L 172 3500 
L 594 3500 
L 594 4494 
L 1172 4494 
z
" transform="scale(0.015625)"/>
     </defs>
     <use xlink:href="#DejaVuSans-53"/>
     <use xlink:href="#DejaVuSans-65" x="63.476562"/>
     <use xlink:href="#DejaVuSans-72" x="125"/>
     <use xlink:href="#DejaVuSans-76" x="166.113281"/>
     <use xlink:href="#DejaVuSans-6f" x="225.292969"/>
     <use xlink:href="#DejaVuSans-6d" x="286.474609"/>
     <use xlink:href="#DejaVuSans-6f" x="383.886719"/>
     <use xlink:href="#DejaVuSans-74" x="445.068359"/>
     <use xlink:href="#DejaVuSans-6f" x="484.277344"/>
     <use xlink:href="#DejaVuSans-72" x="545.458984"/>
     <use xlink:href="#DejaVuSans-73" x="586.572266"/>
     <use xlink:href="#DejaVuSans-20" x="638.671875"/>
     <use xlink:href="#DejaVuSans-43" x="670.458984"/>
     <use xlink:href="#DejaVuSans-6f" x="740.283203"/>
     <use xlink:href="#DejaVuSans-6d" x="801.464844"/>
     <use xlink:href="#DejaVuSans-6d" x="898.876953"/>
     <use xlink:href="#DejaVuSans-61" x="996.289062"/>
     <use xlink:href="#DejaVuSans-6e" x="1057.568359"/>
     <use xlink:href="#DejaVuSans-64" x="1120.947266"/>
     <use xlink:href="#DejaVuSans-73" x="1184.423828"/>
    </g>
   </g>
   <g id="legend_1">
    <g id="patch_7">
     <path d="M 907.428125 129.794375 
L 1029.8 129.794375 
Q 1031.8 129.794375 1031.8 127.794375 
L 1031.8 84.76 
Q 1031.8 82.76 1029.8 82.76 
L 907.428125 82.76 
Q 905.428125 82.76 905.428125 84.76 
L 905.428125 127.794375 
Q 905.428125 129.794375 907.428125 129.794375 
z
" style="fill: #ffffff; opacity: 0.8; stroke: #cccccc; stroke-linejoin: miter"/>
    </g>
    <g id="line2d_39">
     <path d="M 909.428125 90.858437 
L 919.428125 90.858437 
L 929.428125 90.858437 
" style="fill: none; stroke: #0000ff; stroke-width: 1.5; stroke-linecap: square"/>
    </g>
    <g id="text_19">
     <!-- Rudder Command -->
     <g transform="translate(937.428125 94.358437)scale(0.1 -0.1)">
      <defs>
       <path id="DejaVuSans-52" d="M 2841 2188 
Q 3044 2119 3236 1894 
Q 3428 1669 3622 1275 
L 4263 0 
L 3584 0 
L 2988 1197 
Q 2756 1666 2539 1819 
Q 2322 1972 1947 1972 
L 1259 1972 
L 1259 0 
L 628 0 
L 628 4666 
L 2053 4666 
Q 2853 4666 3247 4331 
Q 3641 3997 3641 3322 
Q 3641 2881 3436 2590 
Q 3231 2300 2841 2188 
z
M 1259 4147 
L 1259 2491 
L 2053 2491 
Q 2509 2491 2742 2702 
Q 2975 2913 2975 3322 
Q 2975 3731 2742 3939 
Q 2509 4147 2053 4147 
L 1259 4147 
z
" transform="scale(0.015625)"/>
       <path id="DejaVuSans-75" d="M 544 1381 
L 544 3500 
L 1119 3500 
L 1119 1403 
Q 1119 906 1312 657 
Q 1506 409 1894 409 
Q 2359 409 2629 706 
Q 2900 1003 2900 1516 
L 2900 3500 
L 3475 3500 
L 3475 0 
L 2900 0 
L 2900 538 
Q 2691 219 2414 64 
Q 2138 -91 1772 -91 
Q 1169 -91 856 284 
Q 544 659 544 1381 
z
M 1991 3584 
L 1991 3584 
z
" transform="scale(0.015625)"/>
      </defs>
      <use xlink:href="#DejaVuSans-52"/>
      <use xlink:href="#DejaVuSans-75" x="64.982422"/>
      <use xlink:href="#DejaVuSans-64" x="128.361328"/>
      <use xlink:href="#DejaVuSans-64" x="191.837891"/>
      <use xlink:href="#DejaVuSans-65" x="255.314453"/>
      <use xlink:href="#DejaVuSans-72" x="316.837891"/>
      <use xlink:href="#DejaVuSans-20" x="357.951172"/>
      <use xlink:href="#DejaVuSans-43" x="389.738281"/>
      <use xlink:href="#DejaVuSans-6f" x="459.5625"/>
      <use xlink:href="#DejaVuSans-6d" x="520.744141"/>
      <use xlink:href="#DejaVuSans-6d" x="618.15625"/>
      <use xlink:href="#DejaVuSans-61" x="715.568359"/>
      <use xlink:href="#DejaVuSans-6e" x="776.847656"/>
      <use xlink:href="#DejaVuSans-64" x="840.226562"/>
     </g>
    </g>
    <g id="line2d_40">
     <path d="M 909.428125 105.536562 
L 919.428125 105.536562 
L 929.428125 105.536562 
" style="fill: none; stroke-dasharray: 15,4.5; stroke-dashoffset: 0; stroke: #ffa500; stroke-width: 1.5"/>
    </g>
    <g id="text_20">
     <!-- Sail Command -->
     <g transform="translate(937.428125 109.036562)scale(0.1 -0.1)">
      <defs>
       <path id="DejaVuSans-6c" d="M 603 4863 
L 1178 4863 
L 1178 0 
L 603 0 
L 603 4863 
z
" transform="scale(0.015625)"/>
      </defs>
      <use xlink:href="#DejaVuSans-53"/>
      <use xlink:href="#DejaVuSans-61" x="63.476562"/>
      <use xlink:href="#DejaVuSans-69" x="124.755859"/>
      <use xlink:href="#DejaVuSans-6c" x="152.539062"/>
      <use xlink:href="#DejaVuSans-20" x="180.322266"/>
      <use xlink:href="#DejaVuSans-43" x="212.109375"/>
      <use xlink:href="#DejaVuSans-6f" x="281.933594"/>
      <use xlink:href="#DejaVuSans-6d" x="343.115234"/>
      <use xlink:href="#DejaVuSans-6d" x="440.527344"/>
      <use xlink:href="#DejaVuSans-61" x="537.939453"/>
      <use xlink:href="#DejaVuSans-6e" x="599.21875"/>
      <use xlink:href="#DejaVuSans-64" x="662.597656"/>
     </g>
    </g>
    <g id="line2d_41">
     <path d="M 909.428125 120.214687 
L 919.428125 120.214687 
L 929.428125 120.214687 
" style="fill: none; stroke-dasharray: 9.6,2.4,1.5,2.4; stroke-dashoffset: 0; stroke: #ff00ff; stroke-width: 1.5"/>
    </g>
    <g id="text_21">
     <!-- RC Mode -->
     <g transform="translate(937.428125 123.714687)scale(0.1 -0.1)">
      <defs>
       <path id="DejaVuSans-4d" d="M 628 4666 
L 1569 4666 
L 2759 1491 
L 3956 4666 
L 4897 4666 
L 4897 0 
L 4281 0 
L 4281 4097 
L 3078 897 
L 2444 897 
L 1241 4097 
L 1241 0 
L 628 0 
L 628 4666 
z
" transform="scale(0.015625)"/>
      </defs>
      <use xlink:href="#DejaVuSans-52"/>
      <use xlink:href="#DejaVuSans-43" x="64.482422"/>
      <use xlink:href="#DejaVuSans-20" x="134.306641"/>
      <use xlink:href="#DejaVuSans-4d" x="166.09375"/>
      <use xlink:href="#DejaVuSans-6f" x="252.373047"/>
      <use xlink:href="#DejaVuSans-64" x="313.554688"/>
      <use xlink:href="#DejaVuSans-65" x="377.03125"/>
     </g>
    </g>
   </g>
  </g>
 </g>
 <defs>
  <clipPath id="p0077bd044c">
   <rect x="144" y="77.76" width="892.8" height="498.96"/>
  </clipPath>
 </defs>
</svg>
