<?xml version="1.0" encoding="utf-8" standalone="no"?>
<!DOCTYPE svg PUBLIC "-//W3C//DTD SVG 1.1//EN"
  "http://www.w3.org/Graphics/SVG/1.1/DTD/svg11.dtd">
<svg xmlns:xlink="http://www.w3.org/1999/xlink" width="1152pt" height="648pt" viewBox="0 0 1152 648" xmlns="http://www.w3.org/2000/svg" version="1.1">
 <metadata>
  <rdf:RDF xmlns:dc="http://purl.org/dc/elements/1.1/" xmlns:cc="http://creativecommons.org/ns#" xmlns:rdf="http://www.w3.org/1999/02/22-rdf-syntax-ns#">
   <cc:Work>
    <dc:type rdf:resource="http://purl.org/dc/dcmitype/StillImage"/>
    <dc:date>2024-09-22T15:43:36.237155</dc:date>
    <dc:format>image/svg+xml</dc:format>
    <dc:creator>
     <cc:Agent>
      <dc:title>Matplotlib v3.5.1, https://matplotlib.org/</dc:title>
     </cc:Agent>
    </dc:creator>
   </cc:Work>
  </rdf:RDF>
 </metadata>
 <defs>
  <style type="text/css">*{stroke-linejoin: round; stroke-linecap: butt}</style>
 </defs>
 <g id="figure_1">
  <g id="patch_1">
   <path d="M 0 648 
L 1152 648 
L 1152 0 
L 0 0 
z
" style="fill: #ffffff"/>
  </g>
  <g id="axes_1">
   <g id="patch_2">
    <path d="M 144 576.72 
L 1036.8 576.72 
L 1036.8 77.76 
L 144 77.76 
z
" style="fill: #ffffff"/>
   </g>
   <g id="matplotlib.axis_1">
    <g id="xtick_1">
     <g id="line2d_1">
      <path d="M 184.581818 576.72 
L 184.581818 77.76 
" clip-path="url(#p52b82b5e04)" style="fill: none; stroke: #b0b0b0; stroke-width: 0.8; stroke-linecap: square"/>
     </g>
     <g id="line2d_2">
      <defs>
       <path id="m5ffba0092a" d="M 0 0 
L 0 3.5 
" style="stroke: #000000; stroke-width: 0.8"/>
      </defs>
      <g>
       <use xlink:href="#m5ffba0092a" x="184.581818" y="576.72" style="stroke: #000000; stroke-width: 0.8"/>
      </g>
     </g>
     <g id="text_1">
      <!-- 0 -->
      <g transform="translate(181.400568 591.318438)scale(0.1 -0.1)">
       <defs>
        <path id="DejaVuSans-30" d="M 2034 4250 
Q 1547 4250 1301 3770 
Q 1056 3291 1056 2328 
Q 1056 1369 1301 889 
Q 1547 409 2034 409 
Q 2525 409 2770 889 
Q 3016 1369 3016 2328 
Q 3016 3291 2770 3770 
Q 2525 4250 2034 4250 
z
M 2034 4750 
Q 2819 4750 3233 4129 
Q 3647 3509 3647 2328 
Q 3647 1150 3233 529 
Q 2819 -91 2034 -91 
Q 1250 -91 836 529 
Q 422 1150 422 2328 
Q 422 3509 836 4129 
Q 1250 4750 2034 4750 
z
" transform="scale(0.015625)"/>
       </defs>
       <use xlink:href="#DejaVuSans-30"/>
      </g>
     </g>
    </g>
    <g id="xtick_2">
     <g id="line2d_3">
      <path d="M 289.226051 576.72 
L 289.226051 77.76 
" clip-path="url(#p52b82b5e04)" style="fill: none; stroke: #b0b0b0; stroke-width: 0.8; stroke-linecap: square"/>
     </g>
     <g id="line2d_4">
      <g>
       <use xlink:href="#m5ffba0092a" x="289.226051" y="576.72" style="stroke: #000000; stroke-width: 0.8"/>
      </g>
     </g>
     <g id="text_2">
      <!-- 20 -->
      <g transform="translate(282.863551 591.318438)scale(0.1 -0.1)">
       <defs>
        <path id="DejaVuSans-32" d="M 1228 531 
L 3431 531 
L 3431 0 
L 469 0 
L 469 531 
Q 828 903 1448 1529 
Q 2069 2156 2228 2338 
Q 2531 2678 2651 2914 
Q 2772 3150 2772 3378 
Q 2772 3750 2511 3984 
Q 2250 4219 1831 4219 
Q 1534 4219 1204 4116 
Q 875 4013 500 3803 
L 500 4441 
Q 881 4594 1212 4672 
Q 1544 4750 1819 4750 
Q 2544 4750 2975 4387 
Q 3406 4025 3406 3419 
Q 3406 3131 3298 2873 
Q 3191 2616 2906 2266 
Q 2828 2175 2409 1742 
Q 1991 1309 1228 531 
z
" transform="scale(0.015625)"/>
       </defs>
       <use xlink:href="#DejaVuSans-32"/>
       <use xlink:href="#DejaVuSans-30" x="63.623047"/>
      </g>
     </g>
    </g>
    <g id="xtick_3">
     <g id="line2d_5">
      <path d="M 393.870283 576.72 
L 393.870283 77.76 
" clip-path="url(#p52b82b5e04)" style="fill: none; stroke: #b0b0b0; stroke-width: 0.8; stroke-linecap: square"/>
     </g>
     <g id="line2d_6">
      <g>
       <use xlink:href="#m5ffba0092a" x="393.870283" y="576.72" style="stroke: #000000; stroke-width: 0.8"/>
      </g>
     </g>
     <g id="text_3">
      <!-- 40 -->
      <g transform="translate(387.507783 591.318438)scale(0.1 -0.1)">
       <defs>
        <path id="DejaVuSans-34" d="M 2419 4116 
L 825 1625 
L 2419 1625 
L 2419 4116 
z
M 2253 4666 
L 3047 4666 
L 3047 1625 
L 3713 1625 
L 3713 1100 
L 3047 1100 
L 3047 0 
L 2419 0 
L 2419 1100 
L 313 1100 
L 313 1709 
L 2253 4666 
z
" transform="scale(0.015625)"/>
       </defs>
       <use xlink:href="#DejaVuSans-34"/>
       <use xlink:href="#DejaVuSans-30" x="63.623047"/>
      </g>
     </g>
    </g>
    <g id="xtick_4">
     <g id="line2d_7">
      <path d="M 498.514516 576.72 
L 498.514516 77.76 
" clip-path="url(#p52b82b5e04)" style="fill: none; stroke: #b0b0b0; stroke-width: 0.8; stroke-linecap: square"/>
     </g>
     <g id="line2d_8">
      <g>
       <use xlink:href="#m5ffba0092a" x="498.514516" y="576.72" style="stroke: #000000; stroke-width: 0.8"/>
      </g>
     </g>
     <g id="text_4">
      <!-- 60 -->
      <g transform="translate(492.152016 591.318438)scale(0.1 -0.1)">
       <defs>
        <path id="DejaVuSans-36" d="M 2113 2584 
Q 1688 2584 1439 2293 
Q 1191 2003 1191 1497 
Q 1191 994 1439 701 
Q 1688 409 2113 409 
Q 2538 409 2786 701 
Q 3034 994 3034 1497 
Q 3034 2003 2786 2293 
Q 2538 2584 2113 2584 
z
M 3366 4563 
L 3366 3988 
Q 3128 4100 2886 4159 
Q 2644 4219 2406 4219 
Q 1781 4219 1451 3797 
Q 1122 3375 1075 2522 
Q 1259 2794 1537 2939 
Q 1816 3084 2150 3084 
Q 2853 3084 3261 2657 
Q 3669 2231 3669 1497 
Q 3669 778 3244 343 
Q 2819 -91 2113 -91 
Q 1303 -91 875 529 
Q 447 1150 447 2328 
Q 447 3434 972 4092 
Q 1497 4750 2381 4750 
Q 2619 4750 2861 4703 
Q 3103 4656 3366 4563 
z
" transform="scale(0.015625)"/>
       </defs>
       <use xlink:href="#DejaVuSans-36"/>
       <use xlink:href="#DejaVuSans-30" x="63.623047"/>
      </g>
     </g>
    </g>
    <g id="xtick_5">
     <g id="line2d_9">
      <path d="M 603.158748 576.72 
L 603.158748 77.76 
" clip-path="url(#p52b82b5e04)" style="fill: none; stroke: #b0b0b0; stroke-width: 0.8; stroke-linecap: square"/>
     </g>
     <g id="line2d_10">
      <g>
       <use xlink:href="#m5ffba0092a" x="603.158748" y="576.72" style="stroke: #000000; stroke-width: 0.8"/>
      </g>
     </g>
     <g id="text_5">
      <!-- 80 -->
      <g transform="translate(596.796248 591.318438)scale(0.1 -0.1)">
       <defs>
        <path id="DejaVuSans-38" d="M 2034 2216 
Q 1584 2216 1326 1975 
Q 1069 1734 1069 1313 
Q 1069 891 1326 650 
Q 1584 409 2034 409 
Q 2484 409 2743 651 
Q 3003 894 3003 1313 
Q 3003 1734 2745 1975 
Q 2488 2216 2034 2216 
z
M 1403 2484 
Q 997 2584 770 2862 
Q 544 3141 544 3541 
Q 544 4100 942 4425 
Q 1341 4750 2034 4750 
Q 2731 4750 3128 4425 
Q 3525 4100 3525 3541 
Q 3525 3141 3298 2862 
Q 3072 2584 2669 2484 
Q 3125 2378 3379 2068 
Q 3634 1759 3634 1313 
Q 3634 634 3220 271 
Q 2806 -91 2034 -91 
Q 1263 -91 848 271 
Q 434 634 434 1313 
Q 434 1759 690 2068 
Q 947 2378 1403 2484 
z
M 1172 3481 
Q 1172 3119 1398 2916 
Q 1625 2713 2034 2713 
Q 2441 2713 2670 2916 
Q 2900 3119 2900 3481 
Q 2900 3844 2670 4047 
Q 2441 4250 2034 4250 
Q 1625 4250 1398 4047 
Q 1172 3844 1172 3481 
z
" transform="scale(0.015625)"/>
       </defs>
       <use xlink:href="#DejaVuSans-38"/>
       <use xlink:href="#DejaVuSans-30" x="63.623047"/>
      </g>
     </g>
    </g>
    <g id="xtick_6">
     <g id="line2d_11">
      <path d="M 707.802981 576.72 
L 707.802981 77.76 
" clip-path="url(#p52b82b5e04)" style="fill: none; stroke: #b0b0b0; stroke-width: 0.8; stroke-linecap: square"/>
     </g>
     <g id="line2d_12">
      <g>
       <use xlink:href="#m5ffba0092a" x="707.802981" y="576.72" style="stroke: #000000; stroke-width: 0.8"/>
      </g>
     </g>
     <g id="text_6">
      <!-- 100 -->
      <g transform="translate(698.259231 591.318438)scale(0.1 -0.1)">
       <defs>
        <path id="DejaVuSans-31" d="M 794 531 
L 1825 531 
L 1825 4091 
L 703 3866 
L 703 4441 
L 1819 4666 
L 2450 4666 
L 2450 531 
L 3481 531 
L 3481 0 
L 794 0 
L 794 531 
z
" transform="scale(0.015625)"/>
       </defs>
       <use xlink:href="#DejaVuSans-31"/>
       <use xlink:href="#DejaVuSans-30" x="63.623047"/>
       <use xlink:href="#DejaVuSans-30" x="127.246094"/>
      </g>
     </g>
    </g>
    <g id="xtick_7">
     <g id="line2d_13">
      <path d="M 812.447213 576.72 
L 812.447213 77.76 
" clip-path="url(#p52b82b5e04)" style="fill: none; stroke: #b0b0b0; stroke-width: 0.8; stroke-linecap: square"/>
     </g>
     <g id="line2d_14">
      <g>
       <use xlink:href="#m5ffba0092a" x="812.447213" y="576.72" style="stroke: #000000; stroke-width: 0.8"/>
      </g>
     </g>
     <g id="text_7">
      <!-- 120 -->
      <g transform="translate(802.903463 591.318438)scale(0.1 -0.1)">
       <use xlink:href="#DejaVuSans-31"/>
       <use xlink:href="#DejaVuSans-32" x="63.623047"/>
       <use xlink:href="#DejaVuSans-30" x="127.246094"/>
      </g>
     </g>
    </g>
    <g id="xtick_8">
     <g id="line2d_15">
      <path d="M 917.091445 576.72 
L 917.091445 77.76 
" clip-path="url(#p52b82b5e04)" style="fill: none; stroke: #b0b0b0; stroke-width: 0.8; stroke-linecap: square"/>
     </g>
     <g id="line2d_16">
      <g>
       <use xlink:href="#m5ffba0092a" x="917.091445" y="576.72" style="stroke: #000000; stroke-width: 0.8"/>
      </g>
     </g>
     <g id="text_8">
      <!-- 140 -->
      <g transform="translate(907.547695 591.318438)scale(0.1 -0.1)">
       <use xlink:href="#DejaVuSans-31"/>
       <use xlink:href="#DejaVuSans-34" x="63.623047"/>
       <use xlink:href="#DejaVuSans-30" x="127.246094"/>
      </g>
     </g>
    </g>
    <g id="xtick_9">
     <g id="line2d_17">
      <path d="M 1021.735678 576.72 
L 1021.735678 77.76 
" clip-path="url(#p52b82b5e04)" style="fill: none; stroke: #b0b0b0; stroke-width: 0.8; stroke-linecap: square"/>
     </g>
     <g id="line2d_18">
      <g>
       <use xlink:href="#m5ffba0092a" x="1021.735678" y="576.72" style="stroke: #000000; stroke-width: 0.8"/>
      </g>
     </g>
     <g id="text_9">
      <!-- 160 -->
      <g transform="translate(1012.191928 591.318438)scale(0.1 -0.1)">
       <use xlink:href="#DejaVuSans-31"/>
       <use xlink:href="#DejaVuSans-36" x="63.623047"/>
       <use xlink:href="#DejaVuSans-30" x="127.246094"/>
      </g>
     </g>
    </g>
    <g id="text_10">
     <!-- Time (s) -->
     <g transform="translate(570.071094 604.996562)scale(0.1 -0.1)">
      <defs>
       <path id="DejaVuSans-54" d="M -19 4666 
L 3928 4666 
L 3928 4134 
L 2272 4134 
L 2272 0 
L 1638 0 
L 1638 4134 
L -19 4134 
L -19 4666 
z
" transform="scale(0.015625)"/>
       <path id="DejaVuSans-69" d="M 603 3500 
L 1178 3500 
L 1178 0 
L 603 0 
L 603 3500 
z
M 603 4863 
L 1178 4863 
L 1178 4134 
L 603 4134 
L 603 4863 
z
" transform="scale(0.015625)"/>
       <path id="DejaVuSans-6d" d="M 3328 2828 
Q 3544 3216 3844 3400 
Q 4144 3584 4550 3584 
Q 5097 3584 5394 3201 
Q 5691 2819 5691 2113 
L 5691 0 
L 5113 0 
L 5113 2094 
Q 5113 2597 4934 2840 
Q 4756 3084 4391 3084 
Q 3944 3084 3684 2787 
Q 3425 2491 3425 1978 
L 3425 0 
L 2847 0 
L 2847 2094 
Q 2847 2600 2669 2842 
Q 2491 3084 2119 3084 
Q 1678 3084 1418 2786 
Q 1159 2488 1159 1978 
L 1159 0 
L 581 0 
L 581 3500 
L 1159 3500 
L 1159 2956 
Q 1356 3278 1631 3431 
Q 1906 3584 2284 3584 
Q 2666 3584 2933 3390 
Q 3200 3197 3328 2828 
z
" transform="scale(0.015625)"/>
       <path id="DejaVuSans-65" d="M 3597 1894 
L 3597 1613 
L 953 1613 
Q 991 1019 1311 708 
Q 1631 397 2203 397 
Q 2534 397 2845 478 
Q 3156 559 3463 722 
L 3463 178 
Q 3153 47 2828 -22 
Q 2503 -91 2169 -91 
Q 1331 -91 842 396 
Q 353 884 353 1716 
Q 353 2575 817 3079 
Q 1281 3584 2069 3584 
Q 2775 3584 3186 3129 
Q 3597 2675 3597 1894 
z
M 3022 2063 
Q 3016 2534 2758 2815 
Q 2500 3097 2075 3097 
Q 1594 3097 1305 2825 
Q 1016 2553 972 2059 
L 3022 2063 
z
" transform="scale(0.015625)"/>
       <path id="DejaVuSans-20" transform="scale(0.015625)"/>
       <path id="DejaVuSans-28" d="M 1984 4856 
Q 1566 4138 1362 3434 
Q 1159 2731 1159 2009 
Q 1159 1288 1364 580 
Q 1569 -128 1984 -844 
L 1484 -844 
Q 1016 -109 783 600 
Q 550 1309 550 2009 
Q 550 2706 781 3412 
Q 1013 4119 1484 4856 
L 1984 4856 
z
" transform="scale(0.015625)"/>
       <path id="DejaVuSans-73" d="M 2834 3397 
L 2834 2853 
Q 2591 2978 2328 3040 
Q 2066 3103 1784 3103 
Q 1356 3103 1142 2972 
Q 928 2841 928 2578 
Q 928 2378 1081 2264 
Q 1234 2150 1697 2047 
L 1894 2003 
Q 2506 1872 2764 1633 
Q 3022 1394 3022 966 
Q 3022 478 2636 193 
Q 2250 -91 1575 -91 
Q 1294 -91 989 -36 
Q 684 19 347 128 
L 347 722 
Q 666 556 975 473 
Q 1284 391 1588 391 
Q 1994 391 2212 530 
Q 2431 669 2431 922 
Q 2431 1156 2273 1281 
Q 2116 1406 1581 1522 
L 1381 1569 
Q 847 1681 609 1914 
Q 372 2147 372 2553 
Q 372 3047 722 3315 
Q 1072 3584 1716 3584 
Q 2034 3584 2315 3537 
Q 2597 3491 2834 3397 
z
" transform="scale(0.015625)"/>
       <path id="DejaVuSans-29" d="M 513 4856 
L 1013 4856 
Q 1481 4119 1714 3412 
Q 1947 2706 1947 2009 
Q 1947 1309 1714 600 
Q 1481 -109 1013 -844 
L 513 -844 
Q 928 -128 1133 580 
Q 1338 1288 1338 2009 
Q 1338 2731 1133 3434 
Q 928 4138 513 4856 
z
" transform="scale(0.015625)"/>
      </defs>
      <use xlink:href="#DejaVuSans-54"/>
      <use xlink:href="#DejaVuSans-69" x="57.958984"/>
      <use xlink:href="#DejaVuSans-6d" x="85.742188"/>
      <use xlink:href="#DejaVuSans-65" x="183.154297"/>
      <use xlink:href="#DejaVuSans-20" x="244.677734"/>
      <use xlink:href="#DejaVuSans-28" x="276.464844"/>
      <use xlink:href="#DejaVuSans-73" x="315.478516"/>
      <use xlink:href="#DejaVuSans-29" x="367.578125"/>
     </g>
    </g>
   </g>
   <g id="matplotlib.axis_2">
    <g id="ytick_1">
     <g id="line2d_19">
      <path d="M 144 554.04 
L 1036.8 554.04 
" clip-path="url(#p52b82b5e04)" style="fill: none; stroke: #b0b0b0; stroke-width: 0.8; stroke-linecap: square"/>
     </g>
     <g id="line2d_20">
      <defs>
       <path id="m9a5ea9f7fd" d="M 0 0 
L -3.5 0 
" style="stroke: #000000; stroke-width: 0.8"/>
      </defs>
      <g>
       <use xlink:href="#m9a5ea9f7fd" x="144" y="554.04" style="stroke: #000000; stroke-width: 0.8"/>
      </g>
     </g>
     <g id="text_11">
      <!-- 0 -->
      <g transform="translate(130.6375 557.839219)scale(0.1 -0.1)">
       <use xlink:href="#DejaVuSans-30"/>
      </g>
     </g>
    </g>
    <g id="ytick_2">
     <g id="line2d_21">
      <path d="M 144 491.04 
L 1036.8 491.04 
" clip-path="url(#p52b82b5e04)" style="fill: none; stroke: #b0b0b0; stroke-width: 0.8; stroke-linecap: square"/>
     </g>
     <g id="line2d_22">
      <g>
       <use xlink:href="#m9a5ea9f7fd" x="144" y="491.04" style="stroke: #000000; stroke-width: 0.8"/>
      </g>
     </g>
     <g id="text_12">
      <!-- 50 -->
      <g transform="translate(124.275 494.839219)scale(0.1 -0.1)">
       <defs>
        <path id="DejaVuSans-35" d="M 691 4666 
L 3169 4666 
L 3169 4134 
L 1269 4134 
L 1269 2991 
Q 1406 3038 1543 3061 
Q 1681 3084 1819 3084 
Q 2600 3084 3056 2656 
Q 3513 2228 3513 1497 
Q 3513 744 3044 326 
Q 2575 -91 1722 -91 
Q 1428 -91 1123 -41 
Q 819 9 494 109 
L 494 744 
Q 775 591 1075 516 
Q 1375 441 1709 441 
Q 2250 441 2565 725 
Q 2881 1009 2881 1497 
Q 2881 1984 2565 2268 
Q 2250 2553 1709 2553 
Q 1456 2553 1204 2497 
Q 953 2441 691 2322 
L 691 4666 
z
" transform="scale(0.015625)"/>
       </defs>
       <use xlink:href="#DejaVuSans-35"/>
       <use xlink:href="#DejaVuSans-30" x="63.623047"/>
      </g>
     </g>
    </g>
    <g id="ytick_3">
     <g id="line2d_23">
      <path d="M 144 428.04 
L 1036.8 428.04 
" clip-path="url(#p52b82b5e04)" style="fill: none; stroke: #b0b0b0; stroke-width: 0.8; stroke-linecap: square"/>
     </g>
     <g id="line2d_24">
      <g>
       <use xlink:href="#m9a5ea9f7fd" x="144" y="428.04" style="stroke: #000000; stroke-width: 0.8"/>
      </g>
     </g>
     <g id="text_13">
      <!-- 100 -->
      <g transform="translate(117.9125 431.839219)scale(0.1 -0.1)">
       <use xlink:href="#DejaVuSans-31"/>
       <use xlink:href="#DejaVuSans-30" x="63.623047"/>
       <use xlink:href="#DejaVuSans-30" x="127.246094"/>
      </g>
     </g>
    </g>
    <g id="ytick_4">
     <g id="line2d_25">
      <path d="M 144 365.04 
L 1036.8 365.04 
" clip-path="url(#p52b82b5e04)" style="fill: none; stroke: #b0b0b0; stroke-width: 0.8; stroke-linecap: square"/>
     </g>
     <g id="line2d_26">
      <g>
       <use xlink:href="#m9a5ea9f7fd" x="144" y="365.04" style="stroke: #000000; stroke-width: 0.8"/>
      </g>
     </g>
     <g id="text_14">
      <!-- 150 -->
      <g transform="translate(117.9125 368.839219)scale(0.1 -0.1)">
       <use xlink:href="#DejaVuSans-31"/>
       <use xlink:href="#DejaVuSans-35" x="63.623047"/>
       <use xlink:href="#DejaVuSans-30" x="127.246094"/>
      </g>
     </g>
    </g>
    <g id="ytick_5">
     <g id="line2d_27">
      <path d="M 144 302.04 
L 1036.8 302.04 
" clip-path="url(#p52b82b5e04)" style="fill: none; stroke: #b0b0b0; stroke-width: 0.8; stroke-linecap: square"/>
     </g>
     <g id="line2d_28">
      <g>
       <use xlink:href="#m9a5ea9f7fd" x="144" y="302.04" style="stroke: #000000; stroke-width: 0.8"/>
      </g>
     </g>
     <g id="text_15">
      <!-- 200 -->
      <g transform="translate(117.9125 305.839219)scale(0.1 -0.1)">
       <use xlink:href="#DejaVuSans-32"/>
       <use xlink:href="#DejaVuSans-30" x="63.623047"/>
       <use xlink:href="#DejaVuSans-30" x="127.246094"/>
      </g>
     </g>
    </g>
    <g id="ytick_6">
     <g id="line2d_29">
      <path d="M 144 239.04 
L 1036.8 239.04 
" clip-path="url(#p52b82b5e04)" style="fill: none; stroke: #b0b0b0; stroke-width: 0.8; stroke-linecap: square"/>
     </g>
     <g id="line2d_30">
      <g>
       <use xlink:href="#m9a5ea9f7fd" x="144" y="239.04" style="stroke: #000000; stroke-width: 0.8"/>
      </g>
     </g>
     <g id="text_16">
      <!-- 250 -->
      <g transform="translate(117.9125 242.839219)scale(0.1 -0.1)">
       <use xlink:href="#DejaVuSans-32"/>
       <use xlink:href="#DejaVuSans-35" x="63.623047"/>
       <use xlink:href="#DejaVuSans-30" x="127.246094"/>
      </g>
     </g>
    </g>
    <g id="ytick_7">
     <g id="line2d_31">
      <path d="M 144 176.04 
L 1036.8 176.04 
" clip-path="url(#p52b82b5e04)" style="fill: none; stroke: #b0b0b0; stroke-width: 0.8; stroke-linecap: square"/>
     </g>
     <g id="line2d_32">
      <g>
       <use xlink:href="#m9a5ea9f7fd" x="144" y="176.04" style="stroke: #000000; stroke-width: 0.8"/>
      </g>
     </g>
     <g id="text_17">
      <!-- 300 -->
      <g transform="translate(117.9125 179.839219)scale(0.1 -0.1)">
       <defs>
        <path id="DejaVuSans-33" d="M 2597 2516 
Q 3050 2419 3304 2112 
Q 3559 1806 3559 1356 
Q 3559 666 3084 287 
Q 2609 -91 1734 -91 
Q 1441 -91 1130 -33 
Q 819 25 488 141 
L 488 750 
Q 750 597 1062 519 
Q 1375 441 1716 441 
Q 2309 441 2620 675 
Q 2931 909 2931 1356 
Q 2931 1769 2642 2001 
Q 2353 2234 1838 2234 
L 1294 2234 
L 1294 2753 
L 1863 2753 
Q 2328 2753 2575 2939 
Q 2822 3125 2822 3475 
Q 2822 3834 2567 4026 
Q 2313 4219 1838 4219 
Q 1578 4219 1281 4162 
Q 984 4106 628 3988 
L 628 4550 
Q 988 4650 1302 4700 
Q 1616 4750 1894 4750 
Q 2613 4750 3031 4423 
Q 3450 4097 3450 3541 
Q 3450 3153 3228 2886 
Q 3006 2619 2597 2516 
z
" transform="scale(0.015625)"/>
       </defs>
       <use xlink:href="#DejaVuSans-33"/>
       <use xlink:href="#DejaVuSans-30" x="63.623047"/>
       <use xlink:href="#DejaVuSans-30" x="127.246094"/>
      </g>
     </g>
    </g>
    <g id="ytick_8">
     <g id="line2d_33">
      <path d="M 144 113.04 
L 1036.8 113.04 
" clip-path="url(#p52b82b5e04)" style="fill: none; stroke: #b0b0b0; stroke-width: 0.8; stroke-linecap: square"/>
     </g>
     <g id="line2d_34">
      <g>
       <use xlink:href="#m9a5ea9f7fd" x="144" y="113.04" style="stroke: #000000; stroke-width: 0.8"/>
      </g>
     </g>
     <g id="text_18">
      <!-- 350 -->
      <g transform="translate(117.9125 116.839219)scale(0.1 -0.1)">
       <use xlink:href="#DejaVuSans-33"/>
       <use xlink:href="#DejaVuSans-35" x="63.623047"/>
       <use xlink:href="#DejaVuSans-30" x="127.246094"/>
      </g>
     </g>
    </g>
    <g id="text_19">
     <!-- Yaw (°) -->
     <g transform="translate(111.832812 344.750156)rotate(-90)scale(0.1 -0.1)">
      <defs>
       <path id="DejaVuSans-59" d="M -13 4666 
L 666 4666 
L 1959 2747 
L 3244 4666 
L 3922 4666 
L 2272 2222 
L 2272 0 
L 1638 0 
L 1638 2222 
L -13 4666 
z
" transform="scale(0.015625)"/>
       <path id="DejaVuSans-61" d="M 2194 1759 
Q 1497 1759 1228 1600 
Q 959 1441 959 1056 
Q 959 750 1161 570 
Q 1363 391 1709 391 
Q 2188 391 2477 730 
Q 2766 1069 2766 1631 
L 2766 1759 
L 2194 1759 
z
M 3341 1997 
L 3341 0 
L 2766 0 
L 2766 531 
Q 2569 213 2275 61 
Q 1981 -91 1556 -91 
Q 1019 -91 701 211 
Q 384 513 384 1019 
Q 384 1609 779 1909 
Q 1175 2209 1959 2209 
L 2766 2209 
L 2766 2266 
Q 2766 2663 2505 2880 
Q 2244 3097 1772 3097 
Q 1472 3097 1187 3025 
Q 903 2953 641 2809 
L 641 3341 
Q 956 3463 1253 3523 
Q 1550 3584 1831 3584 
Q 2591 3584 2966 3190 
Q 3341 2797 3341 1997 
z
" transform="scale(0.015625)"/>
       <path id="DejaVuSans-77" d="M 269 3500 
L 844 3500 
L 1563 769 
L 2278 3500 
L 2956 3500 
L 3675 769 
L 4391 3500 
L 4966 3500 
L 4050 0 
L 3372 0 
L 2619 2869 
L 1863 0 
L 1184 0 
L 269 3500 
z
" transform="scale(0.015625)"/>
       <path id="DejaVuSans-b0" d="M 1600 4347 
Q 1350 4347 1178 4173 
Q 1006 4000 1006 3750 
Q 1006 3503 1178 3333 
Q 1350 3163 1600 3163 
Q 1850 3163 2022 3333 
Q 2194 3503 2194 3750 
Q 2194 3997 2020 4172 
Q 1847 4347 1600 4347 
z
M 1600 4750 
Q 1800 4750 1984 4673 
Q 2169 4597 2303 4453 
Q 2447 4313 2519 4134 
Q 2591 3956 2591 3750 
Q 2591 3338 2302 3052 
Q 2013 2766 1594 2766 
Q 1172 2766 890 3047 
Q 609 3328 609 3750 
Q 609 4169 896 4459 
Q 1184 4750 1600 4750 
z
" transform="scale(0.015625)"/>
      </defs>
      <use xlink:href="#DejaVuSans-59"/>
      <use xlink:href="#DejaVuSans-61" x="47.333984"/>
      <use xlink:href="#DejaVuSans-77" x="108.613281"/>
      <use xlink:href="#DejaVuSans-20" x="190.400391"/>
      <use xlink:href="#DejaVuSans-28" x="222.1875"/>
      <use xlink:href="#DejaVuSans-b0" x="261.201172"/>
      <use xlink:href="#DejaVuSans-29" x="311.201172"/>
     </g>
    </g>
   </g>
   <g id="line2d_35">
    <path d="M 144 100.44 
L 1036.8 100.44 
" clip-path="url(#p52b82b5e04)" style="fill: none; stroke-dasharray: 10.5,4.5; stroke-dashoffset: 0; stroke: #808080; stroke-width: 1.5"/>
   </g>
   <g id="line2d_36">
    <path d="M 144 554.04 
L 1036.8 554.04 
" clip-path="url(#p52b82b5e04)" style="fill: none; stroke-dasharray: 10.5,4.5; stroke-dashoffset: 0; stroke: #808080; stroke-width: 1.5"/>
   </g>
   <g id="line2d_37">
    <path d="M 184.581818 516.114 
L 202.057405 516.114 
L 203.187563 516.744 
L 203.872982 516.744 
L 204.092735 516.87 
L 206.844879 516.87 
L 207.305313 516.996 
L 210.23012 516.996 
L 210.617303 517.122 
L 211.009719 516.996 
L 213.332821 516.996 
L 213.720005 517.122 
L 214.112421 516.996 
L 214.494372 517.122 
L 214.886788 516.618 
L 215.273972 516.744 
L 216.048339 517.374 
L 216.529702 517.878 
L 216.922118 517.626 
L 217.309302 516.618 
L 218.083669 513.468 
L 219.250452 507.798 
L 219.632404 506.538 
L 220.02482 505.656 
L 220.412003 506.034 
L 221.186371 509.688 
L 221.960738 510.066 
L 222.347922 509.94 
L 222.735105 509.562 
L 223.127521 509.436 
L 223.514705 509.562 
L 224.289072 510.696 
L 225.06344 512.082 
L 225.450623 512.334 
L 225.837807 512.334 
L 227.391774 511.452 
L 227.778957 511.452 
L 228.166141 511.578 
L 228.940508 512.082 
L 229.332924 512.082 
L 229.714876 511.956 
L 230.494475 511.956 
L 230.881659 512.082 
L 231.268842 512.334 
L 232.04321 513.216 
L 232.817577 513.846 
L 234.371544 514.35 
L 234.758728 514.35 
L 236.307462 514.854 
L 236.699878 514.854 
L 237.08183 514.98 
L 240.184531 514.98 
L 243.386645 513.972 
L 243.773828 514.098 
L 245.322563 514.98 
L 246.489346 514.602 
L 247.263713 514.602 
L 247.650897 514.854 
L 248.81768 516.24 
L 249.204864 516.366 
L 249.586815 516.366 
L 250.366415 516.87 
L 251.140782 517.626 
L 251.920382 517.878 
L 252.307565 517.878 
L 252.689517 517.752 
L 254.243484 516.366 
L 254.630667 516.366 
L 255.023083 516.492 
L 256.184634 517.878 
L 256.571818 518.13 
L 256.953769 518.13 
L 257.733369 517.752 
L 258.125785 517.626 
L 258.507736 517.626 
L 259.287336 518.13 
L 259.674519 518.13 
L 260.448887 518.382 
L 260.83607 518.382 
L 261.228486 518.256 
L 261.997621 517.752 
L 262.777221 517.5 
L 263.159172 517.752 
L 263.551588 517.752 
L 266.65429 519.642 
L 267.428657 519.894 
L 267.815841 519.894 
L 268.203024 520.02 
L 268.59544 519.768 
L 268.977392 519.768 
L 269.364575 519.894 
L 270.144175 519.894 
L 270.531359 520.02 
L 272.080093 520.02 
L 272.859693 520.65 
L 273.241644 520.776 
L 273.63406 520.776 
L 274.408427 520.524 
L 274.795611 520.524 
L 275.182795 520.65 
L 275.569978 520.524 
L 275.962394 520.524 
L 276.344346 520.398 
L 276.736762 520.524 
L 277.898312 521.406 
L 278.285496 521.784 
L 278.67268 522.54 
L 279.059863 523.044 
L 279.447047 523.044 
L 279.839463 522.666 
L 280.608598 521.28 
L 281.388198 520.146 
L 281.775381 519.768 
L 282.162565 519.768 
L 283.329348 520.776 
L 283.7113 520.65 
L 284.490899 520.02 
L 284.878083 519.768 
L 285.265266 519.768 
L 286.426817 520.524 
L 287.206417 521.91 
L 287.975552 523.17 
L 288.367968 523.044 
L 288.755152 522.792 
L 289.916703 521.28 
L 290.696302 520.65 
L 291.078254 520.398 
L 291.952033 520.272 
L 292.344449 520.272 
L 292.731632 520.146 
L 300.098586 520.146 
L 300.48577 520.02 
L 300.872954 520.146 
L 301.260137 520.02 
L 304.755255 520.02 
L 305.137206 519.894 
L 305.52439 519.894 
L 305.916806 519.768 
L 306.298757 519.768 
L 306.691173 520.02 
L 307.852724 520.02 
L 308.239908 519.894 
L 308.627091 519.894 
L 309.019507 520.02 
L 312.896576 520.02 
L 313.28376 520.146 
L 315.219678 520.146 
L 317.642192 520.902 
L 318.803743 520.902 
L 319.196159 520.776 
L 319.583342 520.902 
L 320.35771 520.902 
L 320.744893 521.028 
L 321.524493 521.784 
L 321.906444 521.784 
L 322.29886 521.658 
L 322.686044 521.658 
L 323.073228 521.532 
L 323.847595 521.532 
L 324.234779 521.406 
L 325.009146 520.524 
L 325.401562 520.65 
L 326.563113 520.65 
L 326.950296 520.524 
L 327.724664 520.146 
L 328.111847 520.02 
L 328.504263 520.02 
L 329.273398 520.272 
L 329.665814 520.272 
L 330.052998 520.146 
L 332.3761 520.146 
L 332.768516 520.272 
L 333.155699 520.146 
L 345.948457 520.146 
L 346.340873 520.02 
L 346.728056 520.146 
L 347.110008 520.02 
L 350.992309 520.02 
L 351.379493 520.146 
L 352.15386 520.146 
L 352.546276 520.02 
L 354.869378 520.02 
L 355.648977 520.272 
L 356.030929 520.272 
L 356.418112 520.398 
L 356.810528 520.902 
L 357.972079 523.17 
L 358.746446 523.548 
L 359.520814 523.548 
L 359.91323 523.674 
L 363.785066 523.674 
L 364.559434 523.422 
L 385.498745 523.422 
L 385.89116 523.296 
L 405.7631 523.296 
L 406.150284 523.17 
L 406.924651 523.17 
L 407.311835 523.296 
L 407.704251 523.17 
L 420.884192 523.17 
L 421.266143 523.044 
L 445.308156 523.044 
L 445.700571 523.8 
L 455.490039 523.8 
L 455.945242 523.296 
L 456.180691 522.792 
L 456.855647 522.54 
L 457.091096 522.54 
L 457.321313 522.666 
L 458.441007 524.43 
L 458.896209 524.682 
L 459.115962 525.06 
L 459.5607 525.312 
L 459.79615 525.312 
L 460.015902 525.438 
L 460.235655 525.312 
L 460.46064 525.438 
L 460.701322 525.438 
L 461.376277 526.32 
L 461.611727 526.698 
L 462.752349 530.856 
L 463.872042 535.266 
L 464.332477 535.896 
L 464.55223 536.148 
L 464.991736 535.896 
L 465.227185 535.518 
L 466.63465 534.762 
L 467.32007 535.644 
L 467.775272 536.526 
L 468.010722 537.03 
L 468.45546 537.282 
L 468.675213 536.904 
L 469.810603 534.132 
L 470.469861 533.124 
L 470.705311 532.872 
L 471.160513 532.872 
L 472.07615 532.368 
L 472.301135 532.494 
L 472.536585 532.494 
L 472.986555 532.872 
L 473.21154 533.25 
L 474.106248 536.274 
L 474.341698 536.526 
L 474.781204 537.786 
L 476.141579 539.424 
L 477.051983 542.196 
L 477.276969 543.204 
L 478.417591 551.52 
L 478.642576 553.032 
L 478.642576 553.032 
" clip-path="url(#p52b82b5e04)" style="fill: none; stroke: #1f77b4; stroke-width: 1.5; stroke-linecap: square"/>
   </g>
   <g id="line2d_38">
    <path d="M 478.642576 553.032 
L 478.883258 102.078 
" clip-path="url(#p52b82b5e04)" style="fill: none; stroke: #1f77b4; stroke-opacity: 0.2; stroke-width: 1.5; stroke-linecap: square"/>
   </g>
   <g id="line2d_39">
    <path d="M 478.883258 102.078 
L 479.10301 103.968 
L 479.322763 106.362 
L 479.537284 108 
L 479.777966 109.764 
L 480.002951 111.654 
L 480.222704 113.292 
L 480.442457 115.182 
L 480.719764 116.568 
L 480.939517 117.576 
L 481.15927 118.206 
L 481.384255 118.458 
L 481.624936 118.962 
L 481.849922 119.466 
L 482.074907 119.592 
L 482.299892 119.718 
L 482.540573 119.844 
L 482.765559 119.97 
L 482.990544 120.096 
L 483.215529 120.474 
L 483.461443 121.104 
L 483.686428 121.482 
L 483.906181 121.86 
L 484.131166 122.238 
L 484.37708 122.616 
L 484.596833 122.742 
L 484.816586 122.742 
L 485.041571 122.742 
L 485.282252 122.49 
L 485.502005 121.986 
L 485.72699 121.23 
L 485.946743 120.096 
L 486.187425 118.332 
L 486.41241 116.568 
L 486.632163 114.3 
L 486.86238 112.536 
L 487.103062 110.394 
L 487.328047 108.756 
L 487.553032 106.866 
L 487.778017 105.102 
L 488.018699 103.464 
L 488.243684 102.33 
L 488.473901 101.322 
L 488.698887 100.692 
" clip-path="url(#p52b82b5e04)" style="fill: none; stroke: #1f77b4; stroke-width: 1.5; stroke-linecap: square"/>
   </g>
   <g id="line2d_40">
    <path d="M 488.698887 100.692 
L 488.944801 554.04 
" clip-path="url(#p52b82b5e04)" style="fill: none; stroke: #1f77b4; stroke-opacity: 0.2; stroke-width: 1.5; stroke-linecap: square"/>
   </g>
   <g id="line2d_41">
    <path d="M 488.944801 554.04 
L 489.164553 553.914 
L 489.389539 553.788 
L 489.609291 553.662 
L 489.849973 553.41 
L 490.069726 553.284 
L 490.294711 553.032 
L 490.514464 553.032 
L 490.760378 552.276 
L 490.980131 551.898 
L 491.199884 551.268 
L 491.424869 549.882 
L 491.660318 548.874 
L 491.885303 547.866 
L 492.110289 546.858 
L 492.335274 545.724 
L 492.581188 545.346 
L 492.806173 544.464 
L 493.031158 543.456 
L 493.256143 542.7 
L 493.502057 542.196 
L 493.727042 541.818 
L 493.957259 541.566 
L 494.177012 541.818 
L 494.417694 542.448 
L 494.642679 543.456 
L 494.862432 544.212 
L 495.087417 545.22 
L 495.359492 546.228 
L 495.584477 547.11 
L 495.80423 547.74 
L 496.023983 548.244 
L 496.264665 549 
L 496.48965 549.756 
L 496.714635 550.512 
L 496.93962 550.89 
L 497.185534 551.268 
L 497.410519 552.024 
L 497.640736 552.78 
L 497.865721 553.662 
" clip-path="url(#p52b82b5e04)" style="fill: none; stroke: #1f77b4; stroke-width: 1.5; stroke-linecap: square"/>
   </g>
   <g id="line2d_42">
    <path d="M 497.865721 553.662 
L 498.106403 101.07 
" clip-path="url(#p52b82b5e04)" style="fill: none; stroke: #1f77b4; stroke-opacity: 0.2; stroke-width: 1.5; stroke-linecap: square"/>
   </g>
   <g id="line2d_43">
    <path d="M 498.106403 101.07 
L 498.331388 101.826 
L 499.252257 106.488 
L 499.937677 109.134 
L 500.387647 110.394 
L 501.523037 111.654 
L 502.208457 111.654 
L 502.679356 111.402 
L 502.909573 111.024 
L 503.139791 110.898 
L 503.605457 110.268 
L 504.285645 109.89 
L 504.536791 109.89 
L 504.761776 109.764 
L 504.981529 110.142 
L 505.677413 110.646 
L 506.122151 111.024 
L 506.368065 110.646 
L 506.613979 110.646 
L 507.299399 109.764 
L 508.455718 104.724 
L 508.905688 104.346 
L 509.381819 104.85 
L 510.114329 106.992 
L 510.334082 107.874 
L 510.799748 110.268 
L 511.024734 111.276 
L 511.704921 115.434 
L 512.374644 118.458 
L 513.530963 122.994 
L 514.205918 125.892 
L 514.671585 129.546 
L 515.817439 143.784 
L 517.627785 174.276 
L 518.773639 187.632 
L 519.69974 194.436 
L 520.175872 197.082 
L 520.625842 200.358 
L 521.536247 205.65 
L 522.232131 208.044 
L 522.457116 208.548 
L 522.697798 208.8 
L 523.142536 208.8 
L 523.367521 208.674 
L 523.618667 208.674 
L 523.843652 208.548 
L 524.351177 207.792 
L 524.801147 207.162 
L 526.182451 203.886 
L 526.852174 201.492 
L 528.458463 193.68 
L 530.535651 184.23 
L 531.911722 176.67 
L 533.266865 166.212 
L 535.119068 156.132 
L 537.431706 146.178 
L 538.34211 142.902 
L 539.529822 139.248 
L 540.450692 136.224 
L 541.617475 132.948 
L 542.287198 131.31 
L 542.972618 129.42 
L 544.097543 126.396 
L 545.494544 123.246 
L 546.190428 121.608 
L 547.336282 119.214 
L 547.78102 118.584 
L 551.014527 112.032 
L 551.244744 111.78 
L 551.715643 110.898 
L 552.160381 110.268 
L 554.0963 106.866 
L 555.257851 104.724 
L 556.408937 102.708 
L 557.324574 100.818 
L 557.324574 100.818 
" clip-path="url(#p52b82b5e04)" style="fill: none; stroke: #1f77b4; stroke-width: 1.5; stroke-linecap: square"/>
   </g>
   <g id="line2d_44">
    <path d="M 557.324574 100.818 
L 557.549559 554.04 
" clip-path="url(#p52b82b5e04)" style="fill: none; stroke: #1f77b4; stroke-opacity: 0.2; stroke-width: 1.5; stroke-linecap: square"/>
   </g>
   <g id="line2d_45">
    <path d="M 557.549559 554.04 
L 557.769312 553.662 
L 558.454732 552.024 
L 558.674485 551.646 
L 559.134919 550.638 
L 559.815107 549.252 
L 560.735976 547.362 
L 561.410932 546.102 
L 564.367131 539.928 
L 565.282768 538.668 
L 565.989117 537.912 
L 566.685001 536.526 
L 567.140203 535.644 
L 567.60587 534.762 
L 567.830855 534.51 
L 568.050608 534.006 
L 568.333147 533.754 
L 569.002871 532.746 
L 569.468537 532.116 
L 571.760246 529.47 
L 572.236377 528.714 
L 573.376999 526.95 
L 573.601985 526.824 
L 574.062419 526.194 
L 574.287404 526.068 
L 574.747839 525.438 
L 576.108214 522.918 
L 577.248836 520.272 
L 577.724967 519.012 
L 577.94472 518.634 
L 578.169705 517.878 
L 578.635372 516.996 
L 581.821789 510.066 
L 582.057239 509.814 
L 582.282224 509.94 
L 582.732194 511.2 
L 583.459471 513.972 
L 584.139659 517.122 
L 584.825079 520.272 
L 585.950004 525.942 
L 586.645888 529.596 
L 587.545829 533.376 
L 588.670754 538.416 
L 589.581159 542.07 
L 591.150822 547.11 
L 593.473924 553.914 
L 593.473924 553.914 
" clip-path="url(#p52b82b5e04)" style="fill: none; stroke: #1f77b4; stroke-width: 1.5; stroke-linecap: square"/>
   </g>
   <g id="line2d_46">
    <path d="M 593.473924 553.914 
L 593.698909 100.818 
" clip-path="url(#p52b82b5e04)" style="fill: none; stroke: #1f77b4; stroke-opacity: 0.2; stroke-width: 1.5; stroke-linecap: square"/>
   </g>
   <g id="line2d_47">
    <path d="M 593.698909 100.818 
L 594.609314 104.094 
L 597.586443 114.552 
L 598.559634 119.088 
L 599.475271 123.12 
L 600.626358 128.664 
L 602.206486 134.46 
L 603.587789 138.366 
L 604.744108 141.264 
L 605.439992 142.776 
L 605.664977 143.028 
L 606.585847 144.792 
L 607.501484 146.178 
L 608.417121 147.312 
L 609.33799 149.076 
L 609.83505 149.958 
L 610.996601 151.722 
L 611.221586 151.848 
L 611.687253 152.604 
L 613.079021 157.14 
L 613.764441 158.526 
L 613.989426 158.778 
L 614.915528 161.424 
L 615.611412 163.944 
L 616.997948 169.236 
L 617.667671 170.496 
L 618.13857 170.874 
L 618.583308 171.252 
L 619.048975 171.882 
L 619.493713 172.512 
L 619.975076 173.394 
L 620.425046 174.78 
L 621.351148 179.064 
L 622.272017 180.702 
L 622.742916 181.332 
L 623.433568 182.088 
L 623.658553 182.844 
L 624.103291 183.222 
L 624.349205 183.348 
L 625.034625 183.978 
L 625.280539 183.978 
L 625.505524 183.852 
L 625.971191 183.222 
L 626.933918 182.214 
L 627.158903 182.97 
L 627.383888 182.97 
L 628.28906 185.238 
L 628.514046 185.49 
L 628.97448 184.86 
L 629.895349 183.096 
L 630.591234 181.458 
L 631.271421 180.198 
L 631.972537 178.938 
L 632.438204 178.056 
L 633.573594 176.292 
L 634.494463 175.914 
L 634.714216 175.914 
L 635.420565 176.544 
L 635.875767 176.796 
L 636.121681 176.796 
L 637.053015 177.426 
L 637.497753 177.93 
L 638.183173 179.19 
L 638.408158 179.442 
L 639.318563 181.206 
L 640.705099 183.348 
L 641.155069 183.726 
L 642.12826 184.86 
L 642.818912 185.49 
L 643.043897 185.616 
L 643.284579 185.616 
L 643.734549 185.49 
L 643.954302 185.49 
L 644.425201 185.364 
L 644.644954 185.364 
L 644.869939 185.49 
L 645.115853 185.49 
L 645.340838 185.616 
L 646.041955 185.616 
L 646.497157 185.238 
L 647.203505 184.608 
L 647.433723 184.482 
L 647.894157 184.482 
L 648.579577 184.986 
L 649.2493 185.616 
L 649.48475 185.742 
L 649.93472 186.12 
L 650.62014 186.624 
L 651.546241 188.01 
L 652.70256 189.144 
L 652.932777 189.27 
L 653.178691 189.648 
L 653.628661 189.774 
L 654.09956 189.774 
L 655.015197 188.892 
L 655.96746 187.758 
L 656.856936 186.372 
L 657.547588 185.49 
L 658.00279 184.734 
L 658.473689 183.726 
L 661.215368 177.678 
L 662.14147 176.04 
L 662.826889 176.04 
L 663.303021 176.166 
L 663.747759 176.166 
L 664.213425 176.292 
L 664.663396 176.166 
L 665.348815 175.914 
L 665.5738 175.914 
L 665.814482 176.544 
L 666.039467 176.418 
L 666.264452 176.922 
L 666.505134 177.048 
L 666.965569 176.796 
L 667.886438 175.914 
L 669.497959 174.906 
L 670.225237 174.402 
L 670.669975 174.024 
L 671.135641 174.276 
L 671.360627 174.15 
L 671.810597 174.402 
L 672.061743 174.276 
L 672.516945 174.654 
L 672.74193 174.906 
L 672.993077 174.906 
L 673.218062 175.032 
L 673.448279 175.032 
L 674.149395 175.41 
L 675.50977 174.528 
L 676.200422 173.646 
L 676.435872 173.268 
L 677.121292 172.89 
L 677.811943 172.008 
L 678.27761 171.63 
L 678.738045 171.252 
L 680.119349 168.984 
L 680.339102 168.858 
L 680.564087 168.858 
L 680.789072 168.984 
L 681.029754 168.984 
L 681.704709 169.236 
L 682.170376 169.362 
L 682.625578 169.236 
L 682.876724 169.11 
L 683.101709 168.606 
L 683.326695 168.48 
L 683.556912 167.976 
L 683.802826 167.85 
L 684.033043 167.472 
L 684.488246 167.22 
L 684.765553 166.464 
L 684.990538 166.338 
L 685.215523 165.96 
L 685.440508 165.834 
L 685.68119 165.456 
L 686.366609 164.952 
L 686.591595 164.7 
L 686.81658 164.07 
L 687.507232 163.566 
L 687.962434 162.81 
L 688.203116 162.684 
L 688.658318 162.306 
L 690.050086 162.306 
L 690.275072 162.432 
L 690.500057 162.306 
L 690.730274 162.306 
L 691.195941 162.18 
L 691.420926 161.802 
L 691.640679 161.802 
L 692.336563 161.55 
L 692.56678 161.55 
L 692.812694 161.424 
L 694.193998 160.038 
L 695.1201 159.408 
L 695.585766 158.778 
L 697.626329 155.376 
L 698.10246 154.368 
L 699.986056 151.218 
L 700.661012 149.202 
L 701.566184 147.438 
L 702.481821 146.178 
L 703.402691 145.674 
L 704.103807 144.54 
L 705.27059 142.146 
L 705.736257 141.516 
L 706.421677 141.012 
L 707.557067 139.878 
L 707.782052 139.752 
L 708.258183 140.004 
L 708.483168 140.004 
L 708.93837 140.13 
L 710.340603 140.13 
L 710.565588 140.256 
L 710.80627 140.256 
L 711.25624 140.382 
L 711.481225 140.382 
L 712.857297 141.012 
L 713.082282 141.012 
L 713.328196 141.138 
L 713.610735 141.138 
L 714.75659 141.894 
L 715.211792 142.272 
L 716.132661 142.65 
L 716.368111 142.65 
L 717.508733 143.406 
L 718.429602 144.288 
L 719.360936 144.792 
L 720.05682 144.792 
L 722.118312 143.658 
L 723.028716 143.658 
L 723.253701 143.784 
L 723.483919 143.784 
L 723.96005 143.91 
L 724.41002 143.784 
L 724.891384 143.658 
L 725.116369 143.658 
L 727.371452 142.524 
L 727.821422 142.524 
L 728.318482 142.398 
L 728.543467 142.398 
L 728.76322 142.272 
L 729.003902 142.272 
L 729.459104 142.146 
L 729.689322 142.146 
L 729.930003 142.02 
L 730.385206 142.146 
L 730.610191 142.02 
L 730.850873 142.02 
L 731.311307 141.768 
L 732.221712 140.886 
L 732.912364 140.382 
L 733.362334 140.004 
L 734.759335 139.374 
L 735.209305 139.5 
L 735.455219 139.626 
L 735.910421 140.004 
L 736.836523 140.508 
L 737.30219 140.886 
L 737.746928 141.012 
L 739.583434 141.012 
L 739.808419 140.886 
L 740.289782 140.886 
L 740.755449 140.634 
L 741.210652 140.634 
L 742.351274 140.13 
L 743.073319 139.878 
L 743.298304 139.878 
L 744.444159 139.374 
L 744.894129 139.374 
L 745.365028 139.626 
L 745.590013 139.626 
L 746.976549 140.508 
L 747.447448 141.138 
L 747.897418 141.516 
L 748.58807 141.768 
L 748.813055 141.642 
L 749.053737 141.642 
L 750.649561 140.76 
L 751.816345 140.76 
L 752.271547 140.886 
L 752.496532 140.886 
L 752.962199 141.012 
L 753.187184 141.012 
L 753.412169 140.256 
L 753.652851 140.13 
L 753.877836 139.752 
L 754.102821 140.004 
L 754.322574 139.878 
L 755.02369 139.878 
L 756.195706 140.508 
L 756.420691 141.012 
L 756.875893 143.406 
L 758.508343 154.998 
L 760.323921 167.472 
L 762.406341 182.088 
L 763.332442 188.388 
L 764.478297 194.94 
L 764.703282 195.948 
L 765.388702 199.98 
L 765.843904 201.996 
L 766.539788 206.28 
L 766.994991 208.674 
L 767.696107 212.076 
L 768.167006 215.352 
L 769.993048 224.046 
L 770.443018 225.558 
L 771.13367 229.212 
L 772.091165 232.11 
L 773.012034 236.772 
L 774.147424 240.678 
L 774.832844 243.828 
L 775.293278 244.836 
L 775.963001 246.096 
L 777.595451 250.884 
L 778.291335 251.892 
L 778.741306 252.27 
L 779.20174 253.152 
L 780.33713 256.68 
L 780.562115 257.058 
L 780.802797 257.184 
L 782.173637 258.57 
L 782.398622 258.57 
L 783.324723 258.066 
L 783.575869 258.192 
L 784.025839 259.326 
L 785.579806 264.366 
L 785.804791 264.87 
L 786.312316 265.374 
L 786.767518 266.004 
L 787.45817 266.634 
L 787.683155 266.76 
L 788.148822 266.76 
L 789.069691 266.13 
L 789.974864 264.744 
L 791.330007 263.358 
L 791.795674 263.232 
L 792.020659 263.358 
L 792.250876 263.358 
L 793.428124 263.988 
L 793.878094 264.366 
L 794.103079 264.492 
L 794.573978 266.004 
L 795.018716 266.886 
L 795.259398 266.886 
L 795.923889 268.146 
L 796.389556 268.902 
L 798.686496 268.902 
L 799.162628 269.784 
L 799.607366 270.54 
L 800.031175 270.54 
L 800.25616 270.792 
L 800.75322 271.926 
L 803.489667 279.864 
L 803.939637 281.628 
L 805.765679 287.046 
L 806.901069 288.18 
L 808.036459 288.936 
L 808.727111 289.566 
L 810.558385 290.448 
L 810.778137 290.448 
L 811.222875 290.574 
L 812.588483 291.33 
L 813.279135 292.212 
L 814.200004 293.598 
L 814.649974 294.228 
L 815.152266 295.11 
L 815.816757 297.252 
L 817.888713 306.072 
L 819.034567 308.34 
L 821.080362 311.868 
L 821.755317 313.254 
L 822.435505 314.262 
L 823.570895 315.648 
L 824.941734 318.168 
L 827.217746 322.704 
L 829.028092 324.72 
L 829.985586 325.35 
L 830.901223 326.484 
L 831.126208 326.862 
L 831.345961 326.988 
L 832.716801 329.76 
L 835.468944 332.784 
L 836.154364 333.288 
L 836.604334 333.666 
L 837.504274 334.296 
L 838.634432 335.43 
L 839.790751 335.934 
L 840.020968 336.69 
L 840.71162 337.068 
L 840.936605 337.95 
L 841.166823 338.076 
L 841.391808 338.454 
L 841.627257 338.58 
L 842.537662 339.462 
L 843.892805 340.092 
L 844.123022 340.092 
L 845.546184 340.848 
L 845.771169 341.1 
L 845.996154 341.1 
L 846.236836 341.352 
L 846.461821 341.352 
L 846.906559 341.73 
L 847.142008 341.73 
L 847.591978 341.856 
L 848.272166 341.856 
L 848.716904 341.982 
L 849.182571 341.856 
L 849.637773 341.982 
L 849.878455 341.982 
L 850.558642 342.36 
L 850.804556 342.36 
L 851.254527 342.486 
L 851.484744 342.612 
L 851.720193 342.612 
L 852.845119 343.242 
L 853.289857 343.242 
L 853.975277 343.62 
L 854.890914 344.754 
L 856.282682 346.896 
L 857.86281 348.534 
L 858.323244 348.66 
L 858.76275 348.534 
L 859.040057 348.408 
L 860.594024 346.518 
L 861.525358 345.258 
L 861.991025 344.628 
L 862.435763 343.998 
L 863.11595 343.116 
L 863.340935 342.99 
L 863.576385 342.99 
L 864.021123 342.864 
L 864.246108 342.864 
L 865.156513 343.998 
L 866.312832 346.014 
L 866.987787 347.274 
L 867.453454 348.156 
L 868.363859 349.038 
L 868.808597 349.164 
L 869.494016 349.542 
L 869.959683 349.92 
L 871.32529 350.676 
L 872.476377 350.676 
L 873.392014 351.054 
L 873.889074 351.558 
L 874.579726 352.44 
L 875.490131 354.582 
L 876.170318 356.976 
L 877.106884 362.016 
L 879.382896 377.01 
L 880.758968 382.05 
L 881.208938 382.806 
L 881.433923 383.562 
L 882.354792 387.846 
L 882.595474 388.602 
L 883.050677 388.98 
L 883.505879 388.602 
L 883.955849 387.972 
L 884.175602 388.098 
L 884.641269 388.98 
L 885.331921 391.122 
L 885.776659 392.382 
L 886.001644 392.508 
L 886.472543 392.256 
L 887.184124 391.5 
L 887.409109 390.996 
L 887.634094 390.87 
L 887.859079 390.492 
L 888.141619 390.366 
L 888.371836 390.114 
L 888.591589 390.114 
L 888.816574 390.24 
L 889.057256 390.744 
L 889.282241 390.87 
L 889.726979 391.248 
L 890.192645 391.5 
L 891.10305 392.382 
L 891.328035 392.508 
L 891.553021 392.382 
L 892.254137 390.744 
L 893.410456 387.594 
L 893.666834 387.216 
L 894.111572 387.216 
L 895.24173 386.46 
L 895.482411 386.082 
L 895.707397 386.082 
L 897.093933 387.72 
L 897.77412 389.358 
L 898.014802 389.862 
L 898.930439 393.894 
L 899.375177 395.658 
L 899.835612 396.54 
L 900.060597 396.792 
L 901.415739 400.824 
L 902.106391 403.596 
L 902.844133 405.864 
L 903.069118 406.116 
L 903.294103 406.746 
L 903.534785 406.62 
L 903.75977 406.746 
L 905.125377 411.408 
L 905.366059 412.794 
L 905.591044 413.298 
L 906.721202 418.59 
L 908.56294 423.63 
L 909.48381 425.142 
L 909.708795 425.142 
L 910.388982 425.394 
L 910.608735 425.268 
L 911.299387 423.882 
L 911.524372 423.756 
L 912.445242 422.496 
L 912.910908 423.252 
L 913.135893 423.252 
L 913.360879 423 
L 913.606792 423.252 
L 913.831778 423.252 
L 914.061995 423 
L 915.87234 418.086 
L 916.552528 416.448 
L 917.274573 413.676 
L 917.724543 411.03 
L 918.870397 402.21 
L 919.571514 399.186 
L 920.502847 396.414 
L 920.7226 395.532 
L 921.627773 388.35 
L 922.313193 381.42 
L 923.453815 370.71 
L 926.195494 352.944 
L 927.791318 345.006 
L 929.188319 337.698 
L 931.019593 328.878 
L 931.464331 327.366 
L 931.971855 326.106 
L 932.411361 325.476 
L 932.877028 325.224 
L 933.096781 325.224 
L 934.2531 325.98 
L 934.723999 326.358 
L 934.948984 326.358 
L 935.409418 326.736 
L 935.6501 326.988 
L 936.094838 327.744 
L 936.560505 328.374 
L 937.47091 329.76 
L 939.05627 331.398 
L 940.217821 331.902 
L 940.898008 331.902 
L 942.043863 332.406 
L 942.488601 332.406 
L 942.954267 332.028 
L 943.179253 331.776 
L 943.404238 331.776 
L 943.629223 331.524 
L 944.555324 331.524 
L 945.026223 331.776 
L 946.444153 333.288 
L 946.883658 334.17 
L 947.108644 334.422 
L 947.788831 335.808 
L 948.008584 336.06 
L 948.469019 336.816 
L 948.913757 337.194 
L 949.384656 337.32 
L 949.609641 337.32 
L 949.834626 337.446 
L 950.075308 337.446 
L 950.750263 337.194 
L 951.901349 337.194 
L 952.571072 336.942 
L 952.816986 336.816 
L 953.476245 336.186 
L 953.93668 335.808 
L 954.391882 335.556 
L 954.632564 335.556 
L 956.008635 334.17 
L 957.60446 333.288 
L 958.73985 331.524 
L 959.660719 330.516 
L 960.131618 330.264 
L 960.806574 330.264 
L 962.009982 330.894 
L 962.234967 331.02 
L 962.679705 331.398 
L 963.14014 331.65 
L 963.830792 331.272 
L 964.050545 331.272 
L 964.27553 331.398 
L 964.751661 331.398 
L 965.426616 330.894 
L 966.127733 329.886 
L 966.598632 329.508 
L 968.419441 327.618 
L 968.639194 327.492 
L 969.083932 327.492 
L 969.324614 327.618 
L 969.774584 328.248 
L 970.250716 329.13 
L 970.930903 330.39 
L 971.626787 331.02 
L 971.851772 331.02 
L 972.317439 331.146 
L 973.677814 331.146 
L 974.363234 330.768 
L 974.834133 330.39 
L 975.06435 330.39 
L 975.51432 330.138 
L 975.802092 330.138 
L 976.257294 330.012 
L 976.958411 330.012 
L 977.868816 329.382 
L 979.223958 327.744 
L 981.301146 324.594 
L 981.976102 324.342 
L 982.447001 324.72 
L 984.037593 325.602 
L 984.257346 325.602 
L 985.863635 326.61 
L 986.318837 326.988 
L 986.543823 327.114 
L 986.789736 327.492 
L 988.390793 328.5 
L 988.85646 329.004 
L 989.986618 331.146 
L 990.944113 333.036 
L 991.415012 333.666 
L 993.267214 334.8 
L 993.486967 335.052 
L 993.936938 335.052 
L 994.397372 334.548 
L 995.993197 332.028 
L 996.218182 332.028 
L 996.218182 332.028 
" clip-path="url(#p52b82b5e04)" style="fill: none; stroke: #1f77b4; stroke-width: 1.5; stroke-linecap: square"/>
   </g>
   <g id="line2d_48">
    <path d="M 184.581818 546.4548 
L 185.021324 535.53186 
L 185.471294 528.54138 
L 186.146249 522.477 
L 186.606684 520.18632 
L 187.04619 518.71968 
L 187.501392 517.78224 
L 188.165883 516.96828 
L 188.851303 516.55122 
L 189.761708 516.29292 
L 191.362764 516.1518 
L 195.65841 516.114 
L 202.51784 516.18456 
L 205.013605 516.77172 
L 208.655224 516.97206 
L 214.494372 517.03884 
L 215.273972 516.91284 
L 216.048339 517.01868 
L 216.922118 517.27698 
L 217.309302 517.14594 
L 217.696486 516.7629 
L 218.083669 516.10392 
L 218.858037 514.04634 
L 220.02482 510.36714 
L 220.412003 509.50026 
L 220.793955 509.13486 
L 222.735105 509.59602 
L 223.514705 509.56326 
L 224.289072 509.8707 
L 226.230223 511.37892 
L 226.999358 511.49106 
L 228.553325 511.56414 
L 229.714876 511.79094 
L 231.268842 511.98372 
L 232.435626 512.61246 
L 233.597177 513.2853 
L 235.145911 513.92664 
L 237.474245 514.62972 
L 239.410164 514.86534 
L 240.964131 514.86282 
L 242.219861 514.665 
L 243.773828 514.2933 
L 244.548196 514.36386 
L 246.102162 514.64484 
L 247.650897 514.67004 
L 248.425264 515.0178 
L 249.586815 515.6604 
L 250.753599 516.29418 
L 251.920382 517.0149 
L 252.689517 517.29966 
L 253.469116 517.25052 
L 255.023083 516.77928 
L 255.792218 516.9582 
L 257.346185 517.57434 
L 260.056471 517.91832 
L 261.228486 518.11992 
L 262.390037 517.9473 
L 263.159172 517.83642 
L 263.938772 517.85658 
L 264.713139 518.03046 
L 266.65429 518.85954 
L 268.203024 519.48198 
L 271.692909 519.90408 
L 272.467277 520.02126 
L 274.021244 520.42824 
L 277.511129 520.64622 
L 278.285496 520.99524 
L 279.447047 521.93016 
L 279.839463 522.07758 
L 280.226647 522.04356 
L 281.001014 521.64288 
L 282.162565 520.776 
L 282.942164 520.6248 
L 283.7113 520.65378 
L 284.878083 520.32618 
L 285.65245 520.17624 
L 286.426817 520.26066 
L 287.206417 520.73316 
L 288.367968 521.83314 
L 288.755152 522.02466 
L 289.529519 522.01836 
L 290.696302 521.49168 
L 291.564849 521.07336 
L 292.731632 520.6563 
L 294.285599 520.35516 
L 296.608701 520.20144 
L 308.627091 519.9444 
L 317.260241 520.35642 
L 318.803743 520.67898 
L 320.744893 520.84404 
L 323.073228 521.42616 
L 324.234779 521.45262 
L 328.111847 520.47108 
L 328.891447 520.33374 
L 337.812368 520.14852 
L 349.825526 520.03764 
L 355.256561 520.05654 
L 356.810528 520.32996 
L 357.584896 520.9587 
L 358.746446 522.15444 
L 359.91323 522.86004 
L 361.074781 523.25694 
L 362.623515 523.50264 
L 364.177482 523.57824 
L 366.887768 523.45476 
L 375.808689 523.422 
L 388.993862 523.31238 
L 445.308156 523.044 
L 446.474939 523.41318 
L 448.023673 523.64124 
L 455.945242 523.57824 
L 457.091096 522.92934 
L 457.546299 522.91044 
L 458.001501 523.14984 
L 460.46064 525.04362 
L 461.151292 525.37752 
L 461.611727 525.79206 
L 462.286682 526.91094 
L 462.752349 528.16968 
L 464.55223 533.89638 
L 464.991736 534.636 
L 465.446938 534.92832 
L 466.189912 534.96108 
L 466.859635 534.91446 
L 467.32007 535.11606 
L 467.775272 535.5432 
L 468.45546 536.33952 
L 468.675213 536.45292 
L 469.130415 536.28786 
L 469.810603 535.40838 
L 470.930296 533.85984 
L 472.07615 532.9728 
L 472.76157 532.7649 
L 473.21154 532.8783 
L 473.666743 533.41002 
L 474.561451 535.22694 
L 475.461391 537.04764 
L 477.051983 539.92044 
L 477.501954 541.45512 
L 478.192606 544.88106 
L 479.10301 550.86858 
L 479.322763 552.68802 
L 479.322763 552.68802 
" clip-path="url(#p52b82b5e04)" style="fill: none; stroke: #ff7f0e; stroke-width: 1.5; stroke-linecap: square"/>
   </g>
   <g id="line2d_49">
    <path d="M 479.322763 552.68802 
L 479.537284 100.86966 
" clip-path="url(#p52b82b5e04)" style="fill: none; stroke: #ff7f0e; stroke-opacity: 0.2; stroke-width: 1.5; stroke-linecap: square"/>
   </g>
   <g id="line2d_50">
    <path d="M 479.537284 100.86966 
L 479.777966 102.64878 
L 480.002951 104.45058 
L 480.222704 106.21836 
L 480.442457 108.01134 
L 480.719764 109.72242 
L 480.939517 111.29364 
L 481.15927 112.67586 
L 481.384255 113.83254 
L 481.624936 114.85818 
L 481.849922 115.77924 
L 482.074907 116.5428 
L 482.299892 117.17784 
L 482.540573 117.71082 
L 482.765559 118.16316 
L 482.990544 118.54872 
L 483.215529 118.93428 
L 483.461443 119.36772 
L 483.686428 119.79108 
L 483.906181 120.20436 
L 484.131166 120.61134 
L 484.37708 121.01202 
L 484.596833 121.35852 
L 484.816586 121.63446 
L 485.041571 121.85622 
L 485.282252 121.98348 
L 485.502005 121.98348 
L 485.72699 121.83354 
L 485.946743 121.48578 
L 486.187425 120.85452 
L 486.41241 119.99772 
L 486.632163 118.85742 
L 486.86238 117.59364 
L 487.103062 116.15346 
L 487.328047 114.67422 
L 487.553032 113.11308 
L 487.778017 111.51036 
L 488.018699 109.90134 
L 488.243684 108.38682 
L 488.473901 106.97436 
L 488.698887 105.71814 
L 488.944801 104.66226 
L 489.164553 103.79286 
L 489.389539 103.07214 
L 489.609291 102.46986 
L 489.849973 101.93814 
L 490.069726 101.48706 
L 490.294711 101.0763 
L 490.514464 100.74744 
" clip-path="url(#p52b82b5e04)" style="fill: none; stroke: #ff7f0e; stroke-width: 1.5; stroke-linecap: square"/>
   </g>
   <g id="line2d_51">
    <path d="M 490.514464 100.74744 
L 490.760378 553.9329 
" clip-path="url(#p52b82b5e04)" style="fill: none; stroke: #ff7f0e; stroke-opacity: 0.2; stroke-width: 1.5; stroke-linecap: square"/>
   </g>
   <g id="line2d_52">
    <path d="M 490.760378 553.9329 
L 490.980131 553.52592 
L 491.199884 553.07484 
L 491.424869 552.43602 
L 491.660318 551.72412 
L 491.885303 550.95174 
L 492.110289 550.13274 
L 492.335274 549.25074 
L 492.581188 548.4708 
L 492.806173 547.66944 
L 493.031158 546.8265 
L 493.256143 546.0012 
L 493.502057 545.24016 
L 493.727042 544.55598 
L 493.957259 543.95748 
L 494.177012 543.53034 
L 494.417694 543.31362 
L 494.642679 543.34134 
L 494.862432 543.51648 
L 495.087417 543.85668 
L 495.359492 544.33044 
L 495.584477 544.88736 
L 495.80423 545.45688 
L 496.023983 546.01506 
L 496.264665 546.6123 
L 496.48965 547.24104 
L 496.714635 547.89498 
L 496.93962 548.49348 
L 497.185534 549.04914 
L 497.410519 549.64386 
L 497.640736 550.27134 
L 497.865721 550.94922 
L 498.106403 551.69388 
L 498.331388 552.4398 
L 498.556373 553.28904 
" clip-path="url(#p52b82b5e04)" style="fill: none; stroke: #ff7f0e; stroke-width: 1.5; stroke-linecap: square"/>
   </g>
   <g id="line2d_53">
    <path d="M 498.556373 553.28904 
L 498.781358 100.59498 
" clip-path="url(#p52b82b5e04)" style="fill: none; stroke: #ff7f0e; stroke-opacity: 0.2; stroke-width: 1.5; stroke-linecap: square"/>
   </g>
   <g id="line2d_54">
    <path d="M 498.781358 100.59498 
L 500.853314 108.46494 
L 501.523037 109.93284 
L 502.208457 110.77326 
L 502.679356 111.01896 
L 503.139791 110.99628 
L 505.206514 110.19618 
L 505.677413 110.3184 
L 506.368065 110.5704 
L 506.838964 110.54772 
L 507.299399 110.34612 
L 507.754601 109.59768 
L 509.151602 106.05078 
L 509.381819 105.81012 
L 509.612036 105.7446 
L 509.894576 105.84288 
L 510.334082 106.43256 
L 511.024734 108.37674 
L 511.924674 112.30542 
L 513.290281 118.2249 
L 514.4466 123.16032 
L 514.901802 125.98776 
L 515.592454 131.94252 
L 516.277874 139.83264 
L 517.183047 153.13572 
L 518.548654 173.06262 
L 519.469523 183.56598 
L 520.400857 191.49138 
L 521.536247 199.68642 
L 522.457116 204.49836 
L 523.142536 206.59752 
L 523.618667 207.3447 
L 524.068637 207.70254 
L 524.576162 207.6849 
L 525.026132 207.3951 
L 525.497031 206.82306 
L 526.407436 205.12206 
L 527.098088 203.22702 
L 530.075216 190.51866 
L 531.911722 181.6218 
L 533.266865 172.6632 
L 535.370214 159.89688 
L 536.966039 152.17938 
L 538.567096 145.60848 
L 540.220474 140.03424 
L 541.84246 135.02196 
L 543.87779 129.42 
L 545.023645 126.49932 
L 549.612294 116.52012 
L 551.715643 112.52592 
L 555.257851 106.39476 
L 558.004762 101.28672 
L 558.229747 100.81548 
L 558.229747 100.81548 
" clip-path="url(#p52b82b5e04)" style="fill: none; stroke: #ff7f0e; stroke-width: 1.5; stroke-linecap: square"/>
   </g>
   <g id="line2d_55">
    <path d="M 558.229747 100.81548 
L 558.454732 553.93668 
" clip-path="url(#p52b82b5e04)" style="fill: none; stroke: #ff7f0e; stroke-opacity: 0.2; stroke-width: 1.5; stroke-linecap: square"/>
   </g>
   <g id="line2d_56">
    <path d="M 558.454732 553.93668 
L 562.546321 545.64714 
L 565.533914 539.77554 
L 566.915218 537.66252 
L 568.777885 534.5289 
L 569.913275 532.85562 
L 572.932261 528.95592 
L 574.287404 527.1264 
L 575.192577 525.95586 
L 576.573881 523.61352 
L 578.415619 519.56388 
L 580.895688 514.00728 
L 582.282224 511.25418 
L 582.507209 511.09164 
L 582.732194 511.11306 
L 583.014733 511.3323 
L 583.459471 512.16138 
L 584.139659 514.18368 
L 585.044831 517.58568 
L 586.174989 522.82728 
L 588.895739 535.35546 
L 590.24565 540.89568 
L 592.553055 548.38008 
L 594.384329 553.96314 
L 594.384329 553.96314 
" clip-path="url(#p52b82b5e04)" style="fill: none; stroke: #ff7f0e; stroke-width: 1.5; stroke-linecap: square"/>
   </g>
   <g id="line2d_57">
    <path d="M 594.384329 553.96314 
L 594.609314 101.10906 
" clip-path="url(#p52b82b5e04)" style="fill: none; stroke: #ff7f0e; stroke-opacity: 0.2; stroke-width: 1.5; stroke-linecap: square"/>
   </g>
   <g id="line2d_58">
    <path d="M 594.609314 101.10906 
L 598.334649 114.14502 
L 602.452399 131.8833 
L 603.587789 135.6003 
L 604.969093 139.42944 
L 606.366094 142.52526 
L 607.501484 144.62316 
L 612.131991 152.11008 
L 612.634283 153.3915 
L 613.764441 156.35376 
L 614.915528 159.07662 
L 615.611412 161.0649 
L 617.913585 168.59592 
L 618.583308 169.803 
L 619.975076 171.882 
L 620.425046 172.80432 
L 620.895945 174.19662 
L 622.047032 177.87456 
L 622.742916 179.42058 
L 624.103291 181.81962 
L 625.280539 183.14766 
L 625.730509 183.32658 
L 626.201408 183.23838 
L 627.158903 182.8692 
L 627.383888 182.88936 
L 627.83909 183.29634 
L 628.754727 184.4442 
L 629.199465 184.51854 
L 629.665132 184.2678 
L 630.120335 183.72096 
L 631.041204 182.21778 
L 634.028797 177.1488 
L 634.714216 176.54652 
L 635.19558 176.43438 
L 636.121681 176.60574 
L 637.053015 176.94972 
L 637.738435 177.49656 
L 638.873825 178.98462 
L 640.930084 182.25054 
L 642.593927 184.26276 
L 643.284579 184.90662 
L 643.954302 185.19138 
L 646.497157 185.45094 
L 648.344128 184.75794 
L 648.804562 184.89024 
L 650.62014 186.00282 
L 651.546241 186.9642 
L 653.178691 188.66394 
L 653.848414 189.20574 
L 654.319313 189.35946 
L 654.769283 189.32292 
L 655.459935 188.97138 
L 656.192445 188.35146 
L 657.777805 186.3531 
L 658.693442 184.85244 
L 660.519484 180.94392 
L 662.14147 177.76116 
L 662.826889 176.92074 
L 663.747759 176.47596 
L 665.814482 176.19624 
L 666.264452 176.37768 
L 666.740584 176.59314 
L 667.195786 176.61582 
L 667.886438 176.36256 
L 669.497959 175.44024 
L 671.360627 174.44358 
L 672.286728 174.38562 
L 673.448279 174.75984 
L 674.594133 175.10634 
L 675.284785 174.99924 
L 675.975437 174.6036 
L 677.811943 172.91016 
L 679.653682 170.92692 
L 680.564087 169.76016 
L 681.254739 169.4061 
L 683.326695 169.00542 
L 684.990538 167.41152 
L 686.13116 166.08096 
L 686.81658 165.31362 
L 688.658318 163.21698 
L 689.354202 162.7722 
L 690.050086 162.54414 
L 691.195941 162.34884 
L 692.336563 161.89524 
L 693.267897 161.51346 
L 694.193998 160.80912 
L 695.810751 159.42816 
L 696.940909 157.94892 
L 698.10246 156.01734 
L 700.661012 151.3755 
L 702.037083 148.4397 
L 702.727735 147.32712 
L 705.040373 144.23004 
L 706.180995 142.38666 
L 708.007037 140.4576 
L 708.93837 140.23584 
L 710.565588 140.17788 
L 711.946892 140.36562 
L 714.986807 141.52986 
L 716.132661 142.1901 
L 717.283748 142.73064 
L 718.204617 143.3682 
L 719.360936 144.22878 
L 720.05682 144.50346 
L 720.737008 144.51228 
L 721.647412 144.24768 
L 723.028716 143.82054 
L 725.54541 143.64162 
L 726.466279 143.37072 
L 728.543467 142.6059 
L 729.930003 142.2594 
L 731.311307 142.03134 
L 732.221712 141.50844 
L 734.98432 139.77342 
L 735.455219 139.70034 
L 736.386553 139.93722 
L 737.527175 140.50422 
L 738.212594 140.75244 
L 739.353217 140.92632 
L 740.289782 140.91624 
L 741.901304 140.59242 
L 744.203477 139.77846 
L 745.124346 139.56552 
L 746.045215 139.67136 
L 746.976549 140.02542 
L 747.447448 140.36562 
L 748.363085 141.10272 
L 749.053737 141.38244 
L 749.72346 141.37614 
L 751.816345 140.86836 
L 753.412169 140.80536 
L 754.788241 140.14008 
L 755.499822 140.05818 
L 756.195706 140.18922 
L 756.420691 140.35302 
L 756.875893 141.25014 
L 757.378186 143.12502 
L 758.063605 146.934 
L 760.323921 161.61426 
L 762.882472 178.94178 
L 764.017862 186.68826 
L 765.14802 193.40658 
L 770.443018 221.76666 
L 773.927671 236.2554 
L 775.518263 242.3979 
L 778.516321 250.37622 
L 779.426725 252.0117 
L 781.47252 256.49982 
L 782.398622 257.66784 
L 783.099738 257.99544 
L 783.575869 258.04584 
L 784.025839 258.4062 
L 784.454881 259.13574 
L 785.135068 260.70192 
L 786.082099 263.04552 
L 787.002968 264.74526 
L 787.923837 265.88052 
L 788.37904 266.17158 
L 788.844706 266.24214 
L 789.289444 266.12622 
L 789.749879 265.82508 
L 792.020659 263.75238 
L 792.502022 263.6352 
L 793.176978 263.69316 
L 793.878094 263.95272 
L 794.103079 264.06108 
L 794.573978 264.65958 
L 795.923889 266.75496 
L 796.834293 267.98346 
L 797.53541 268.43202 
L 798.456279 268.70922 
L 798.93241 268.85412 
L 799.607366 269.53956 
L 800.972973 271.0251 
L 801.872913 272.98692 
L 803.264682 276.60816 
L 804.405304 280.18404 
L 805.540694 283.89222 
L 806.220881 285.59826 
L 806.901069 286.7688 
L 807.811473 287.8335 
L 809.182313 289.08468 
L 810.778137 290.02338 
L 813.038453 291.17376 
L 813.729105 291.86676 
L 815.152266 293.68998 
L 815.816757 295.07346 
L 816.496945 297.14742 
L 817.203293 299.7594 
L 818.568901 304.66458 
L 819.725219 307.46556 
L 821.300115 310.58028 
L 822.880243 313.41528 
L 824.941734 316.54008 
L 826.312574 319.15206 
L 827.657252 321.75522 
L 829.028092 323.6427 
L 830.210571 324.7452 
L 831.345961 325.98504 
L 831.806396 326.6541 
L 833.627206 329.50296 
L 835.918914 332.16912 
L 838.634432 334.59714 
L 839.550069 335.24982 
L 839.790751 335.38716 
L 843.212617 339.10416 
L 844.630547 339.87654 
L 848.272166 341.66826 
L 849.182571 341.80812 
L 851.029541 342.19872 
L 852.164931 342.5616 
L 853.289857 343.0089 
L 854.200262 343.3617 
L 854.890914 343.91988 
L 856.042 345.27942 
L 857.86281 347.59656 
L 858.542997 348.09048 
L 859.040057 348.2253 
L 859.484795 348.1497 
L 860.144054 347.7654 
L 861.295141 346.62132 
L 862.896197 344.5839 
L 863.576385 343.82286 
L 864.246108 343.35414 
L 864.706543 343.31886 
L 865.156513 343.50282 
L 865.62218 343.89342 
L 866.537817 345.12066 
L 868.588844 348.16104 
L 869.719001 349.06698 
L 871.555508 350.28288 
L 874.119291 351.18126 
L 874.804711 351.8478 
L 875.490131 352.8999 
L 876.170318 354.5379 
L 876.641217 356.14692 
L 877.556854 360.27972 
L 878.477724 365.47218 
L 879.843331 373.83102 
L 880.758968 378.14652 
L 882.825692 385.77204 
L 883.27043 386.90226 
L 883.730864 387.46296 
L 884.416284 387.83214 
L 884.866254 388.37142 
L 885.551674 389.75238 
L 886.001644 390.72384 
L 886.472543 391.29588 
L 886.932978 391.5 
L 887.409109 391.3992 
L 888.141619 390.97962 
L 888.816574 390.58272 
L 889.501994 390.7566 
L 890.642616 391.36392 
L 891.553021 391.9725 
L 891.804167 391.9536 
L 892.254137 391.59828 
L 892.730268 390.88764 
L 894.111572 388.40922 
L 895.021977 387.47808 
L 895.932382 386.7435 
L 896.398048 386.69184 
L 896.853251 386.84052 
L 897.318918 387.28278 
L 898.014802 388.31598 
L 898.470004 389.36682 
L 903.534785 404.64432 
L 904.214973 406.09332 
L 905.125377 408.59568 
L 906.276464 412.95024 
L 907.642071 418.12254 
L 908.787926 421.53714 
L 909.708795 423.56826 
L 910.388982 424.4427 
L 910.608735 424.60776 
L 911.079634 424.56366 
L 911.990039 423.8883 
L 912.445242 423.38682 
L 912.910908 423.29736 
L 914.061995 423.19026 
L 914.52243 422.79462 
L 915.18692 421.6455 
L 916.332775 419.08896 
L 917.274573 416.61684 
L 917.95476 413.68986 
L 919.121544 406.72206 
L 919.796499 403.01514 
L 920.963282 398.09736 
L 921.627773 394.14726 
L 922.538178 386.89596 
L 925.970509 360.12222 
L 927.100666 353.3409 
L 931.689316 330.28794 
L 932.877028 327.05982 
L 933.326998 326.42352 
L 933.797897 326.10852 
L 934.2531 326.02158 
L 935.409418 326.3328 
L 935.875085 326.66922 
L 937.010475 327.93678 
L 939.05627 330.44292 
L 940.217821 331.35138 
L 941.13869 331.70166 
L 942.954267 332.15526 
L 944.555324 331.68654 
L 945.251208 331.76466 
L 945.947093 332.09604 
L 946.663906 332.72982 
L 948.008584 334.67526 
L 948.913757 336.02976 
L 949.609641 336.65976 
L 950.300293 337.0176 
L 951.901349 337.15746 
L 952.816986 337.03398 
L 953.716927 336.55392 
L 957.824213 333.6534 
L 958.73985 332.6202 
L 959.885704 331.32618 
L 960.581588 330.80832 
L 961.094345 330.63696 
L 961.764068 330.6483 
L 962.45472 330.86376 
L 963.59011 331.31358 
L 965.426616 331.2153 
L 966.127733 330.70752 
L 967.509037 329.4261 
L 968.864179 328.13208 
L 969.324614 327.9267 
L 969.774584 327.98214 
L 970.250716 328.31478 
L 972.097686 330.39504 
L 972.762177 330.7617 
L 973.677814 330.9885 
L 974.363234 330.93306 
L 976.728194 330.18462 
L 977.643831 329.95026 
L 978.554235 329.39586 
L 979.223958 328.74696 
L 979.909378 327.84102 
L 981.751117 325.32732 
L 982.222016 325.02366 
L 982.891739 324.94554 
L 983.571926 325.1106 
L 985.387504 325.80486 
L 987.014722 326.90106 
L 989.301198 328.7079 
L 989.766865 329.34924 
L 992.095199 333.02088 
L 993.021301 333.84492 
L 993.936938 334.53162 
L 994.397372 334.57824 
L 994.84211 334.38042 
L 995.307777 333.95706 
L 996.218182 332.90244 
L 996.218182 332.90244 
" clip-path="url(#p52b82b5e04)" style="fill: none; stroke: #ff7f0e; stroke-width: 1.5; stroke-linecap: square"/>
   </g>
   <g id="line2d_59">
    <path d="M 184.581818 351.507594 
L 493.957259 351.507594 
L 494.177012 119.188806 
L 499.252257 119.188806 
L 499.477243 110.822389 
L 504.536791 110.822389 
L 504.761776 110.457016 
L 509.612036 110.457016 
L 509.894576 114.413396 
L 514.901802 114.413396 
L 515.126787 143.872203 
L 520.175872 143.872203 
L 520.400857 119.012389 
L 525.497031 119.012389 
L 525.722016 120.650411 
L 530.535651 120.650411 
L 530.776332 106.551009 
L 535.825417 106.551009 
L 536.050402 120.146419 
L 540.921591 120.146419 
L 541.151808 142.511419 
L 546.420645 142.511419 
L 546.640398 146.341791 
L 551.469729 146.341791 
L 551.715643 151.293582 
L 556.86414 151.293582 
L 557.099589 143.922613 
L 562.101583 143.922613 
L 562.326569 138.895187 
L 567.140203 138.895187 
L 567.386117 116.467203 
L 572.466595 116.467203 
L 572.466595 116.467203 
" clip-path="url(#p52b82b5e04)" style="fill: none; stroke-dasharray: 12.8,3.2,2,3.2; stroke-dashoffset: 0; stroke: #2ca02c; stroke-width: 2"/>
   </g>
   <g id="line2d_60">
    <path d="M 572.466595 116.467203 
L 572.69158 552.4398 
" clip-path="url(#p52b82b5e04)" style="fill: none; stroke-dasharray: 12.8,3.2,2,3.2; stroke-dashoffset: 0; stroke: #2ca02c; stroke-opacity: 0.2; stroke-width: 2"/>
   </g>
   <g id="line2d_61">
    <path d="M 572.69158 552.4398 
L 577.724967 552.4398 
L 577.94472 547.4502 
L 583.014733 547.4502 
L 583.234486 538.1892 
L 588.205087 538.1892 
L 588.430072 534.321 
L 593.248939 534.321 
L 593.473924 535.5054 
L 598.559634 535.5054 
L 598.805548 547.6896 
L 605.664977 547.6896 
L 605.664977 547.6896 
" clip-path="url(#p52b82b5e04)" style="fill: none; stroke-dasharray: 12.8,3.2,2,3.2; stroke-dashoffset: 0; stroke: #2ca02c; stroke-width: 2"/>
   </g>
   <g id="line2d_62">
    <path d="M 605.664977 547.6896 
L 605.900427 115.837203 
" clip-path="url(#p52b82b5e04)" style="fill: none; stroke-dasharray: 12.8,3.2,2,3.2; stroke-dashoffset: 0; stroke: #2ca02c; stroke-opacity: 0.2; stroke-width: 2"/>
   </g>
   <g id="line2d_63">
    <path d="M 605.900427 115.837203 
L 610.996601 115.837203 
L 611.221586 132.431419 
L 616.087543 132.431419 
L 616.312528 141.931791 
L 621.597062 141.931791 
L 621.827279 147.173396 
L 626.436858 147.173396 
L 626.651378 184.444218 
L 631.747552 184.444218 
L 631.972537 193.856419 
L 636.807101 193.856419 
L 637.053015 187.002016 
L 642.12826 187.002016 
L 642.374174 175.913992 
L 647.433723 175.913992 
L 647.674405 190.769404 
L 652.932777 190.769404 
L 653.178691 191.311195 
L 658.233008 191.311195 
L 658.473689 196.892985 
L 663.072803 196.892985 
L 663.303021 196.741791 
L 668.587554 196.741791 
L 668.812539 180.22321 
L 673.673264 180.22321 
L 673.92441 186.800411 
L 678.738045 186.800411 
L 678.96303 176.279404 
L 684.26326 176.279404 
L 684.488246 178.900187 
L 689.354202 178.900187 
L 689.58442 178.307985 
L 694.424215 178.307985 
L 694.670129 160.55459 
L 699.986056 160.55459 
L 700.211041 165.619814 
L 705.27059 165.619814 
L 705.511272 159.533992 
L 709.869704 159.533992 
L 710.115618 154.191605 
L 715.457706 154.191605 
L 715.682691 151.230597 
L 720.737008 151.230597 
L 720.982922 134.384404 
L 725.78086 134.384404 
L 726.005845 144.867613 
L 731.08109 144.867613 
L 731.311307 150.260411 
L 736.145871 150.260411 
L 736.386553 148.987799 
L 741.440869 148.987799 
L 741.676319 141.730187 
L 746.976549 141.730187 
L 747.222463 143.532016 
L 752.046562 143.532016 
L 752.271547 143.393396 
L 757.158433 143.393396 
L 757.378186 144.300597 
L 762.882472 144.300597 
L 763.107457 149.265 
L 767.696107 149.265 
L 767.926324 168.013806 
L 772.787049 168.013806 
L 773.012034 190.517389 
L 778.291335 190.517389 
L 778.516321 201.101419 
L 783.575869 201.101419 
L 783.800854 214.066791 
L 788.37904 214.066791 
L 788.609257 219.14459 
L 794.103079 219.14459 
L 794.348993 229.99321 
L 799.162628 229.99321 
L 799.387613 245.718005 
L 804.405304 245.718005 
L 804.630289 266.407203 
L 809.878197 266.407203 
L 810.09795 269.809199 
L 814.874959 269.809199 
L 815.152266 274.874404 
L 819.950204 274.874404 
L 820.17519 290.763005 
L 830.68147 290.763005 
L 830.901223 303.93 
L 835.468944 303.93 
L 835.693929 307.470597 
L 841.166823 307.470597 
L 841.391808 316.403992 
L 845.996154 316.403992 
L 846.236836 328.248005 
L 851.254527 328.248005 
L 851.484744 332.418601 
L 856.507667 332.418601 
L 856.732652 333.288005 
L 861.76604 333.288005 
L 861.991025 330.503396 
L 866.987787 330.503396 
L 867.228469 342.813601 
L 872.722291 342.813601 
L 872.947276 336.652203 
L 877.787072 336.652203 
L 878.022521 332.242203 
L 882.595474 332.242203 
L 882.825692 337.383005 
L 888.141619 337.383005 
L 888.371836 348.496195 
L 893.666834 348.496195 
L 893.886587 363.389404 
L 898.470004 363.389404 
L 898.689757 365.329795 
L 903.989988 365.329795 
L 904.214973 365.657408 
L 909.264057 365.657408 
L 909.48381 388.161009 
L 914.061995 388.161009 
L 914.281748 468.586801 
L 919.571514 468.586801 
L 919.796499 496.1682 
L 929.638289 496.1682 
L 929.863274 457.297203 
L 935.179201 457.297203 
L 935.409418 431.82 
L 940.673023 431.82 
L 940.898008 354.41821 
L 945.481426 354.41821 
L 945.722107 354.720597 
L 951.221162 354.720597 
L 951.440915 344.665803 
L 956.008635 344.665803 
L 956.238853 343.1664 
L 961.094345 343.1664 
L 961.31933 351.6714 
L 966.352718 351.6714 
L 966.598632 338.35321 
L 971.626787 338.35321 
L 971.851772 333.829795 
L 976.728194 333.829795 
L 976.958411 327.265206 
L 982.447001 327.265206 
L 982.671986 332.607594 
L 987.72107 332.607594 
L 987.946055 316.000803 
L 992.796315 316.000803 
L 993.021301 316.53 
L 996.218182 316.53 
L 996.218182 316.53 
" clip-path="url(#p52b82b5e04)" style="fill: none; stroke-dasharray: 12.8,3.2,2,3.2; stroke-dashoffset: 0; stroke: #2ca02c; stroke-width: 2"/>
   </g>
   <g id="patch_3">
    <path d="M 144 576.72 
L 144 77.76 
" style="fill: none; stroke: #000000; stroke-width: 0.8; stroke-linejoin: miter; stroke-linecap: square"/>
   </g>
   <g id="patch_4">
    <path d="M 1036.8 576.72 
L 1036.8 77.76 
" style="fill: none; stroke: #000000; stroke-width: 0.8; stroke-linejoin: miter; stroke-linecap: square"/>
   </g>
   <g id="patch_5">
    <path d="M 144 576.72 
L 1036.8 576.72 
" style="fill: none; stroke: #000000; stroke-width: 0.8; stroke-linejoin: miter; stroke-linecap: square"/>
   </g>
   <g id="patch_6">
    <path d="M 144 77.76 
L 1036.8 77.76 
" style="fill: none; stroke: #000000; stroke-width: 0.8; stroke-linejoin: miter; stroke-linecap: square"/>
   </g>
   <g id="text_20">
    <!-- Yaw vs Time -->
    <g transform="translate(553.805625 71.76)scale(0.12 -0.12)">
     <defs>
      <path id="DejaVuSans-76" d="M 191 3500 
L 800 3500 
L 1894 563 
L 2988 3500 
L 3597 3500 
L 2284 0 
L 1503 0 
L 191 3500 
z
" transform="scale(0.015625)"/>
     </defs>
     <use xlink:href="#DejaVuSans-59"/>
     <use xlink:href="#DejaVuSans-61" x="47.333984"/>
     <use xlink:href="#DejaVuSans-77" x="108.613281"/>
     <use xlink:href="#DejaVuSans-20" x="190.400391"/>
     <use xlink:href="#DejaVuSans-76" x="222.1875"/>
     <use xlink:href="#DejaVuSans-73" x="281.367188"/>
     <use xlink:href="#DejaVuSans-20" x="333.466797"/>
     <use xlink:href="#DejaVuSans-54" x="365.253906"/>
     <use xlink:href="#DejaVuSans-69" x="423.212891"/>
     <use xlink:href="#DejaVuSans-6d" x="450.996094"/>
     <use xlink:href="#DejaVuSans-65" x="548.408203"/>
    </g>
   </g>
   <g id="legend_1">
    <g id="patch_7">
     <path d="M 151 350.757187 
L 241.217187 350.757187 
Q 243.217187 350.757187 243.217187 348.757187 
L 243.217187 305.722812 
Q 243.217187 303.722812 241.217187 303.722812 
L 151 303.722812 
Q 149 303.722812 149 305.722812 
L 149 348.757187 
Q 149 350.757187 151 350.757187 
z
" style="fill: #ffffff; opacity: 0.8; stroke: #cccccc; stroke-linejoin: miter"/>
    </g>
    <g id="line2d_64">
     <path d="M 153 311.82125 
L 163 311.82125 
L 173 311.82125 
" style="fill: none; stroke: #1f77b4; stroke-width: 1.5; stroke-linecap: square"/>
    </g>
    <g id="text_21">
     <!-- Yaw raw -->
     <g transform="translate(181 315.32125)scale(0.1 -0.1)">
      <defs>
       <path id="DejaVuSans-72" d="M 2631 2963 
Q 2534 3019 2420 3045 
Q 2306 3072 2169 3072 
Q 1681 3072 1420 2755 
Q 1159 2438 1159 1844 
L 1159 0 
L 581 0 
L 581 3500 
L 1159 3500 
L 1159 2956 
Q 1341 3275 1631 3429 
Q 1922 3584 2338 3584 
Q 2397 3584 2469 3576 
Q 2541 3569 2628 3553 
L 2631 2963 
z
" transform="scale(0.015625)"/>
      </defs>
      <use xlink:href="#DejaVuSans-59"/>
      <use xlink:href="#DejaVuSans-61" x="47.333984"/>
      <use xlink:href="#DejaVuSans-77" x="108.613281"/>
      <use xlink:href="#DejaVuSans-20" x="190.400391"/>
      <use xlink:href="#DejaVuSans-72" x="222.1875"/>
      <use xlink:href="#DejaVuSans-61" x="263.300781"/>
      <use xlink:href="#DejaVuSans-77" x="324.580078"/>
     </g>
    </g>
    <g id="line2d_65">
     <path d="M 153 326.499375 
L 163 326.499375 
L 173 326.499375 
" style="fill: none; stroke: #ff7f0e; stroke-width: 1.5; stroke-linecap: square"/>
    </g>
    <g id="text_22">
     <!-- Yaw filtered -->
     <g transform="translate(181 329.999375)scale(0.1 -0.1)">
      <defs>
       <path id="DejaVuSans-66" d="M 2375 4863 
L 2375 4384 
L 1825 4384 
Q 1516 4384 1395 4259 
Q 1275 4134 1275 3809 
L 1275 3500 
L 2222 3500 
L 2222 3053 
L 1275 3053 
L 1275 0 
L 697 0 
L 697 3053 
L 147 3053 
L 147 3500 
L 697 3500 
L 697 3744 
Q 697 4328 969 4595 
Q 1241 4863 1831 4863 
L 2375 4863 
z
" transform="scale(0.015625)"/>
       <path id="DejaVuSans-6c" d="M 603 4863 
L 1178 4863 
L 1178 0 
L 603 0 
L 603 4863 
z
" transform="scale(0.015625)"/>
       <path id="DejaVuSans-74" d="M 1172 4494 
L 1172 3500 
L 2356 3500 
L 2356 3053 
L 1172 3053 
L 1172 1153 
Q 1172 725 1289 603 
Q 1406 481 1766 481 
L 2356 481 
L 2356 0 
L 1766 0 
Q 1100 0 847 248 
Q 594 497 594 1153 
L 594 3053 
L 172 3053 
L 172 3500 
L 594 3500 
L 594 4494 
L 1172 4494 
z
" transform="scale(0.015625)"/>
       <path id="DejaVuSans-64" d="M 2906 2969 
L 2906 4863 
L 3481 4863 
L 3481 0 
L 2906 0 
L 2906 525 
Q 2725 213 2448 61 
Q 2172 -91 1784 -91 
Q 1150 -91 751 415 
Q 353 922 353 1747 
Q 353 2572 751 3078 
Q 1150 3584 1784 3584 
Q 2172 3584 2448 3432 
Q 2725 3281 2906 2969 
z
M 947 1747 
Q 947 1113 1208 752 
Q 1469 391 1925 391 
Q 2381 391 2643 752 
Q 2906 1113 2906 1747 
Q 2906 2381 2643 2742 
Q 2381 3103 1925 3103 
Q 1469 3103 1208 2742 
Q 947 2381 947 1747 
z
" transform="scale(0.015625)"/>
      </defs>
      <use xlink:href="#DejaVuSans-59"/>
      <use xlink:href="#DejaVuSans-61" x="47.333984"/>
      <use xlink:href="#DejaVuSans-77" x="108.613281"/>
      <use xlink:href="#DejaVuSans-20" x="190.400391"/>
      <use xlink:href="#DejaVuSans-66" x="222.1875"/>
      <use xlink:href="#DejaVuSans-69" x="257.392578"/>
      <use xlink:href="#DejaVuSans-6c" x="285.175781"/>
      <use xlink:href="#DejaVuSans-74" x="312.958984"/>
      <use xlink:href="#DejaVuSans-65" x="352.167969"/>
      <use xlink:href="#DejaVuSans-72" x="413.691406"/>
      <use xlink:href="#DejaVuSans-65" x="452.554688"/>
      <use xlink:href="#DejaVuSans-64" x="514.078125"/>
     </g>
    </g>
    <g id="line2d_66">
     <path d="M 153 341.1775 
L 163 341.1775 
L 173 341.1775 
" style="fill: none; stroke-dasharray: 12.8,3.2,2,3.2; stroke-dashoffset: 0; stroke: #2ca02c; stroke-width: 2"/>
    </g>
    <g id="text_23">
     <!-- GPS Course -->
     <g transform="translate(181 344.6775)scale(0.1 -0.1)">
      <defs>
       <path id="DejaVuSans-47" d="M 3809 666 
L 3809 1919 
L 2778 1919 
L 2778 2438 
L 4434 2438 
L 4434 434 
Q 4069 175 3628 42 
Q 3188 -91 2688 -91 
Q 1594 -91 976 548 
Q 359 1188 359 2328 
Q 359 3472 976 4111 
Q 1594 4750 2688 4750 
Q 3144 4750 3555 4637 
Q 3966 4525 4313 4306 
L 4313 3634 
Q 3963 3931 3569 4081 
Q 3175 4231 2741 4231 
Q 1884 4231 1454 3753 
Q 1025 3275 1025 2328 
Q 1025 1384 1454 906 
Q 1884 428 2741 428 
Q 3075 428 3337 486 
Q 3600 544 3809 666 
z
" transform="scale(0.015625)"/>
       <path id="DejaVuSans-50" d="M 1259 4147 
L 1259 2394 
L 2053 2394 
Q 2494 2394 2734 2622 
Q 2975 2850 2975 3272 
Q 2975 3691 2734 3919 
Q 2494 4147 2053 4147 
L 1259 4147 
z
M 628 4666 
L 2053 4666 
Q 2838 4666 3239 4311 
Q 3641 3956 3641 3272 
Q 3641 2581 3239 2228 
Q 2838 1875 2053 1875 
L 1259 1875 
L 1259 0 
L 628 0 
L 628 4666 
z
" transform="scale(0.015625)"/>
       <path id="DejaVuSans-53" d="M 3425 4513 
L 3425 3897 
Q 3066 4069 2747 4153 
Q 2428 4238 2131 4238 
Q 1616 4238 1336 4038 
Q 1056 3838 1056 3469 
Q 1056 3159 1242 3001 
Q 1428 2844 1947 2747 
L 2328 2669 
Q 3034 2534 3370 2195 
Q 3706 1856 3706 1288 
Q 3706 609 3251 259 
Q 2797 -91 1919 -91 
Q 1588 -91 1214 -16 
Q 841 59 441 206 
L 441 856 
Q 825 641 1194 531 
Q 1563 422 1919 422 
Q 2459 422 2753 634 
Q 3047 847 3047 1241 
Q 3047 1584 2836 1778 
Q 2625 1972 2144 2069 
L 1759 2144 
Q 1053 2284 737 2584 
Q 422 2884 422 3419 
Q 422 4038 858 4394 
Q 1294 4750 2059 4750 
Q 2388 4750 2728 4690 
Q 3069 4631 3425 4513 
z
" transform="scale(0.015625)"/>
       <path id="DejaVuSans-43" d="M 4122 4306 
L 4122 3641 
Q 3803 3938 3442 4084 
Q 3081 4231 2675 4231 
Q 1875 4231 1450 3742 
Q 1025 3253 1025 2328 
Q 1025 1406 1450 917 
Q 1875 428 2675 428 
Q 3081 428 3442 575 
Q 3803 722 4122 1019 
L 4122 359 
Q 3791 134 3420 21 
Q 3050 -91 2638 -91 
Q 1578 -91 968 557 
Q 359 1206 359 2328 
Q 359 3453 968 4101 
Q 1578 4750 2638 4750 
Q 3056 4750 3426 4639 
Q 3797 4528 4122 4306 
z
" transform="scale(0.015625)"/>
       <path id="DejaVuSans-6f" d="M 1959 3097 
Q 1497 3097 1228 2736 
Q 959 2375 959 1747 
Q 959 1119 1226 758 
Q 1494 397 1959 397 
Q 2419 397 2687 759 
Q 2956 1122 2956 1747 
Q 2956 2369 2687 2733 
Q 2419 3097 1959 3097 
z
M 1959 3584 
Q 2709 3584 3137 3096 
Q 3566 2609 3566 1747 
Q 3566 888 3137 398 
Q 2709 -91 1959 -91 
Q 1206 -91 779 398 
Q 353 888 353 1747 
Q 353 2609 779 3096 
Q 1206 3584 1959 3584 
z
" transform="scale(0.015625)"/>
       <path id="DejaVuSans-75" d="M 544 1381 
L 544 3500 
L 1119 3500 
L 1119 1403 
Q 1119 906 1312 657 
Q 1506 409 1894 409 
Q 2359 409 2629 706 
Q 2900 1003 2900 1516 
L 2900 3500 
L 3475 3500 
L 3475 0 
L 2900 0 
L 2900 538 
Q 2691 219 2414 64 
Q 2138 -91 1772 -91 
Q 1169 -91 856 284 
Q 544 659 544 1381 
z
M 1991 3584 
L 1991 3584 
z
" transform="scale(0.015625)"/>
      </defs>
      <use xlink:href="#DejaVuSans-47"/>
      <use xlink:href="#DejaVuSans-50" x="77.490234"/>
      <use xlink:href="#DejaVuSans-53" x="137.792969"/>
      <use xlink:href="#DejaVuSans-20" x="201.269531"/>
      <use xlink:href="#DejaVuSans-43" x="233.056641"/>
      <use xlink:href="#DejaVuSans-6f" x="302.880859"/>
      <use xlink:href="#DejaVuSans-75" x="364.0625"/>
      <use xlink:href="#DejaVuSans-72" x="427.441406"/>
      <use xlink:href="#DejaVuSans-73" x="468.554688"/>
      <use xlink:href="#DejaVuSans-65" x="520.654297"/>
     </g>
    </g>
   </g>
  </g>
 </g>
 <defs>
  <clipPath id="p52b82b5e04">
   <rect x="144" y="77.76" width="892.8" height="498.96"/>
  </clipPath>
 </defs>
</svg>
