<?xml version="1.0" encoding="utf-8" standalone="no"?>
<!DOCTYPE svg PUBLIC "-//W3C//DTD SVG 1.1//EN"
  "http://www.w3.org/Graphics/SVG/1.1/DTD/svg11.dtd">
<svg xmlns:xlink="http://www.w3.org/1999/xlink" width="1152pt" height="648pt" viewBox="0 0 1152 648" xmlns="http://www.w3.org/2000/svg" version="1.1">
 <metadata>
  <rdf:RDF xmlns:dc="http://purl.org/dc/elements/1.1/" xmlns:cc="http://creativecommons.org/ns#" xmlns:rdf="http://www.w3.org/1999/02/22-rdf-syntax-ns#">
   <cc:Work>
    <dc:type rdf:resource="http://purl.org/dc/dcmitype/StillImage"/>
    <dc:date>2024-09-30T10:57:51.110652</dc:date>
    <dc:format>image/svg+xml</dc:format>
    <dc:creator>
     <cc:Agent>
      <dc:title>Matplotlib v3.5.1, https://matplotlib.org/</dc:title>
     </cc:Agent>
    </dc:creator>
   </cc:Work>
  </rdf:RDF>
 </metadata>
 <defs>
  <style type="text/css">*{stroke-linejoin: round; stroke-linecap: butt}</style>
 </defs>
 <g id="figure_1">
  <g id="patch_1">
   <path d="M 0 648 
L 1152 648 
L 1152 0 
L 0 0 
z
" style="fill: #ffffff"/>
  </g>
  <g id="axes_1">
   <g id="patch_2">
    <path d="M 266.697319 576.72 
L 914.102681 576.72 
L 914.102681 77.76 
L 266.697319 77.76 
z
" style="fill: #ffffff"/>
   </g>
   <g id="patch_3">
    <path d="M 822.502488 341.344404 
C 838.990875 341.344404 854.806159 334.793498 866.465209 323.134448 
C 878.124259 311.475399 884.675164 295.660114 884.675164 279.171728 
C 884.675164 262.683341 878.124259 246.868057 866.465209 235.209007 
C 854.806159 223.549957 838.990875 216.999052 822.502488 216.999052 
C 806.014102 216.999052 790.198817 223.549957 778.539767 235.209007 
C 766.880718 246.868057 760.329812 262.683341 760.329812 279.171728 
C 760.329812 295.660114 766.880718 311.475399 778.539767 323.134448 
C 790.198817 334.793498 806.014102 341.344404 822.502488 341.344404 
L 822.502488 341.344404 
z
" clip-path="url(#p3fd57cbb29)" style="fill: none; stroke: #000000; stroke-linejoin: miter"/>
   </g>
   <g id="patch_4">
    <path d="M 509.306445 346.875033 
C 525.794831 346.875033 541.610116 340.324127 553.269166 328.665077 
C 564.928215 317.006028 571.479121 301.190743 571.479121 284.702357 
C 571.479121 268.21397 564.928215 252.398686 553.269166 240.739636 
C 541.610116 229.080586 525.794831 222.529681 509.306445 222.529681 
C 492.818058 222.529681 477.002774 229.080586 465.343724 240.739636 
C 453.684674 252.398686 447.133769 268.21397 447.133769 284.702357 
C 447.133769 301.190743 453.684674 317.006028 465.343724 328.665077 
C 477.002774 340.324127 492.818058 346.875033 509.306445 346.875033 
L 509.306445 346.875033 
z
" clip-path="url(#p3fd57cbb29)" style="fill: none; stroke: #000000; stroke-linejoin: miter"/>
   </g>
   <g id="patch_5">
    <path d="M 636.610044 552.89096 
C 653.098431 552.89096 668.913715 546.340054 680.572765 534.681004 
C 692.231815 523.021955 698.78272 507.20667 698.78272 490.718284 
C 698.78272 474.229897 692.231815 458.414613 680.572765 446.755563 
C 668.913715 435.096513 653.098431 428.545608 636.610044 428.545608 
C 620.121658 428.545608 604.306374 435.096513 592.647324 446.755563 
C 580.988274 458.414613 574.437368 474.229897 574.437368 490.718284 
C 574.437368 507.20667 580.988274 523.021955 592.647324 534.681004 
C 604.306374 546.340054 620.121658 552.89096 636.610044 552.89096 
L 636.610044 552.89096 
z
" clip-path="url(#p3fd57cbb29)" style="fill: none; stroke: #000000; stroke-linejoin: miter"/>
   </g>
   <g id="matplotlib.axis_1">
    <g id="xtick_1">
     <g id="line2d_1">
      <defs>
       <path id="m99d39893c1" d="M 0 0 
L 0 3.5 
" style="stroke: #000000; stroke-width: 0.8"/>
      </defs>
      <g>
       <use xlink:href="#m99d39893c1" x="368.937252" y="576.72" style="stroke: #000000; stroke-width: 0.8"/>
      </g>
     </g>
     <g id="text_1">
      <!-- 0 -->
      <g transform="translate(365.756002 591.318438)scale(0.1 -0.1)">
       <defs>
        <path id="DejaVuSans-30" d="M 2034 4250 
Q 1547 4250 1301 3770 
Q 1056 3291 1056 2328 
Q 1056 1369 1301 889 
Q 1547 409 2034 409 
Q 2525 409 2770 889 
Q 3016 1369 3016 2328 
Q 3016 3291 2770 3770 
Q 2525 4250 2034 4250 
z
M 2034 4750 
Q 2819 4750 3233 4129 
Q 3647 3509 3647 2328 
Q 3647 1150 3233 529 
Q 2819 -91 2034 -91 
Q 1250 -91 836 529 
Q 422 1150 422 2328 
Q 422 3509 836 4129 
Q 1250 4750 2034 4750 
z
" transform="scale(0.015625)"/>
       </defs>
       <use xlink:href="#DejaVuSans-30"/>
      </g>
     </g>
    </g>
    <g id="xtick_2">
     <g id="line2d_2">
      <g>
       <use xlink:href="#m99d39893c1" x="493.282604" y="576.72" style="stroke: #000000; stroke-width: 0.8"/>
      </g>
     </g>
     <g id="text_2">
      <!-- 20 -->
      <g transform="translate(486.920104 591.318438)scale(0.1 -0.1)">
       <defs>
        <path id="DejaVuSans-32" d="M 1228 531 
L 3431 531 
L 3431 0 
L 469 0 
L 469 531 
Q 828 903 1448 1529 
Q 2069 2156 2228 2338 
Q 2531 2678 2651 2914 
Q 2772 3150 2772 3378 
Q 2772 3750 2511 3984 
Q 2250 4219 1831 4219 
Q 1534 4219 1204 4116 
Q 875 4013 500 3803 
L 500 4441 
Q 881 4594 1212 4672 
Q 1544 4750 1819 4750 
Q 2544 4750 2975 4387 
Q 3406 4025 3406 3419 
Q 3406 3131 3298 2873 
Q 3191 2616 2906 2266 
Q 2828 2175 2409 1742 
Q 1991 1309 1228 531 
z
" transform="scale(0.015625)"/>
       </defs>
       <use xlink:href="#DejaVuSans-32"/>
       <use xlink:href="#DejaVuSans-30" x="63.623047"/>
      </g>
     </g>
    </g>
    <g id="xtick_3">
     <g id="line2d_3">
      <g>
       <use xlink:href="#m99d39893c1" x="617.627956" y="576.72" style="stroke: #000000; stroke-width: 0.8"/>
      </g>
     </g>
     <g id="text_3">
      <!-- 40 -->
      <g transform="translate(611.265456 591.318438)scale(0.1 -0.1)">
       <defs>
        <path id="DejaVuSans-34" d="M 2419 4116 
L 825 1625 
L 2419 1625 
L 2419 4116 
z
M 2253 4666 
L 3047 4666 
L 3047 1625 
L 3713 1625 
L 3713 1100 
L 3047 1100 
L 3047 0 
L 2419 0 
L 2419 1100 
L 313 1100 
L 313 1709 
L 2253 4666 
z
" transform="scale(0.015625)"/>
       </defs>
       <use xlink:href="#DejaVuSans-34"/>
       <use xlink:href="#DejaVuSans-30" x="63.623047"/>
      </g>
     </g>
    </g>
    <g id="xtick_4">
     <g id="line2d_4">
      <g>
       <use xlink:href="#m99d39893c1" x="741.973308" y="576.72" style="stroke: #000000; stroke-width: 0.8"/>
      </g>
     </g>
     <g id="text_4">
      <!-- 60 -->
      <g transform="translate(735.610808 591.318438)scale(0.1 -0.1)">
       <defs>
        <path id="DejaVuSans-36" d="M 2113 2584 
Q 1688 2584 1439 2293 
Q 1191 2003 1191 1497 
Q 1191 994 1439 701 
Q 1688 409 2113 409 
Q 2538 409 2786 701 
Q 3034 994 3034 1497 
Q 3034 2003 2786 2293 
Q 2538 2584 2113 2584 
z
M 3366 4563 
L 3366 3988 
Q 3128 4100 2886 4159 
Q 2644 4219 2406 4219 
Q 1781 4219 1451 3797 
Q 1122 3375 1075 2522 
Q 1259 2794 1537 2939 
Q 1816 3084 2150 3084 
Q 2853 3084 3261 2657 
Q 3669 2231 3669 1497 
Q 3669 778 3244 343 
Q 2819 -91 2113 -91 
Q 1303 -91 875 529 
Q 447 1150 447 2328 
Q 447 3434 972 4092 
Q 1497 4750 2381 4750 
Q 2619 4750 2861 4703 
Q 3103 4656 3366 4563 
z
" transform="scale(0.015625)"/>
       </defs>
       <use xlink:href="#DejaVuSans-36"/>
       <use xlink:href="#DejaVuSans-30" x="63.623047"/>
      </g>
     </g>
    </g>
    <g id="xtick_5">
     <g id="line2d_5">
      <g>
       <use xlink:href="#m99d39893c1" x="866.31866" y="576.72" style="stroke: #000000; stroke-width: 0.8"/>
      </g>
     </g>
     <g id="text_5">
      <!-- 80 -->
      <g transform="translate(859.95616 591.318438)scale(0.1 -0.1)">
       <defs>
        <path id="DejaVuSans-38" d="M 2034 2216 
Q 1584 2216 1326 1975 
Q 1069 1734 1069 1313 
Q 1069 891 1326 650 
Q 1584 409 2034 409 
Q 2484 409 2743 651 
Q 3003 894 3003 1313 
Q 3003 1734 2745 1975 
Q 2488 2216 2034 2216 
z
M 1403 2484 
Q 997 2584 770 2862 
Q 544 3141 544 3541 
Q 544 4100 942 4425 
Q 1341 4750 2034 4750 
Q 2731 4750 3128 4425 
Q 3525 4100 3525 3541 
Q 3525 3141 3298 2862 
Q 3072 2584 2669 2484 
Q 3125 2378 3379 2068 
Q 3634 1759 3634 1313 
Q 3634 634 3220 271 
Q 2806 -91 2034 -91 
Q 1263 -91 848 271 
Q 434 634 434 1313 
Q 434 1759 690 2068 
Q 947 2378 1403 2484 
z
M 1172 3481 
Q 1172 3119 1398 2916 
Q 1625 2713 2034 2713 
Q 2441 2713 2670 2916 
Q 2900 3119 2900 3481 
Q 2900 3844 2670 4047 
Q 2441 4250 2034 4250 
Q 1625 4250 1398 4047 
Q 1172 3844 1172 3481 
z
" transform="scale(0.015625)"/>
       </defs>
       <use xlink:href="#DejaVuSans-38"/>
       <use xlink:href="#DejaVuSans-30" x="63.623047"/>
      </g>
     </g>
    </g>
    <g id="text_6">
     <!-- X (m) -->
     <g transform="translate(576.614063 604.996562)scale(0.1 -0.1)">
      <defs>
       <path id="DejaVuSans-58" d="M 403 4666 
L 1081 4666 
L 2241 2931 
L 3406 4666 
L 4084 4666 
L 2584 2425 
L 4184 0 
L 3506 0 
L 2194 1984 
L 872 0 
L 191 0 
L 1856 2491 
L 403 4666 
z
" transform="scale(0.015625)"/>
       <path id="DejaVuSans-20" transform="scale(0.015625)"/>
       <path id="DejaVuSans-28" d="M 1984 4856 
Q 1566 4138 1362 3434 
Q 1159 2731 1159 2009 
Q 1159 1288 1364 580 
Q 1569 -128 1984 -844 
L 1484 -844 
Q 1016 -109 783 600 
Q 550 1309 550 2009 
Q 550 2706 781 3412 
Q 1013 4119 1484 4856 
L 1984 4856 
z
" transform="scale(0.015625)"/>
       <path id="DejaVuSans-6d" d="M 3328 2828 
Q 3544 3216 3844 3400 
Q 4144 3584 4550 3584 
Q 5097 3584 5394 3201 
Q 5691 2819 5691 2113 
L 5691 0 
L 5113 0 
L 5113 2094 
Q 5113 2597 4934 2840 
Q 4756 3084 4391 3084 
Q 3944 3084 3684 2787 
Q 3425 2491 3425 1978 
L 3425 0 
L 2847 0 
L 2847 2094 
Q 2847 2600 2669 2842 
Q 2491 3084 2119 3084 
Q 1678 3084 1418 2786 
Q 1159 2488 1159 1978 
L 1159 0 
L 581 0 
L 581 3500 
L 1159 3500 
L 1159 2956 
Q 1356 3278 1631 3431 
Q 1906 3584 2284 3584 
Q 2666 3584 2933 3390 
Q 3200 3197 3328 2828 
z
" transform="scale(0.015625)"/>
       <path id="DejaVuSans-29" d="M 513 4856 
L 1013 4856 
Q 1481 4119 1714 3412 
Q 1947 2706 1947 2009 
Q 1947 1309 1714 600 
Q 1481 -109 1013 -844 
L 513 -844 
Q 928 -128 1133 580 
Q 1338 1288 1338 2009 
Q 1338 2731 1133 3434 
Q 928 4138 513 4856 
z
" transform="scale(0.015625)"/>
      </defs>
      <use xlink:href="#DejaVuSans-58"/>
      <use xlink:href="#DejaVuSans-20" x="68.505859"/>
      <use xlink:href="#DejaVuSans-28" x="100.292969"/>
      <use xlink:href="#DejaVuSans-6d" x="139.306641"/>
      <use xlink:href="#DejaVuSans-29" x="236.71875"/>
     </g>
    </g>
   </g>
   <g id="matplotlib.axis_2">
    <g id="ytick_1">
     <g id="line2d_6">
      <defs>
       <path id="m77fc97dd2d" d="M 0 0 
L -3.5 0 
" style="stroke: #000000; stroke-width: 0.8"/>
      </defs>
      <g>
       <use xlink:href="#m77fc97dd2d" x="266.697319" y="528.788257" style="stroke: #000000; stroke-width: 0.8"/>
      </g>
     </g>
     <g id="text_7">
      <!-- 10 -->
      <g transform="translate(246.972319 532.587476)scale(0.1 -0.1)">
       <defs>
        <path id="DejaVuSans-31" d="M 794 531 
L 1825 531 
L 1825 4091 
L 703 3866 
L 703 4441 
L 1819 4666 
L 2450 4666 
L 2450 531 
L 3481 531 
L 3481 0 
L 794 0 
L 794 531 
z
" transform="scale(0.015625)"/>
       </defs>
       <use xlink:href="#DejaVuSans-31"/>
       <use xlink:href="#DejaVuSans-30" x="63.623047"/>
      </g>
     </g>
    </g>
    <g id="ytick_2">
     <g id="line2d_7">
      <g>
       <use xlink:href="#m77fc97dd2d" x="266.697319" y="466.615581" style="stroke: #000000; stroke-width: 0.8"/>
      </g>
     </g>
     <g id="text_8">
      <!-- 20 -->
      <g transform="translate(246.972319 470.4148)scale(0.1 -0.1)">
       <use xlink:href="#DejaVuSans-32"/>
       <use xlink:href="#DejaVuSans-30" x="63.623047"/>
      </g>
     </g>
    </g>
    <g id="ytick_3">
     <g id="line2d_8">
      <g>
       <use xlink:href="#m77fc97dd2d" x="266.697319" y="404.442905" style="stroke: #000000; stroke-width: 0.8"/>
      </g>
     </g>
     <g id="text_9">
      <!-- 30 -->
      <g transform="translate(246.972319 408.242124)scale(0.1 -0.1)">
       <defs>
        <path id="DejaVuSans-33" d="M 2597 2516 
Q 3050 2419 3304 2112 
Q 3559 1806 3559 1356 
Q 3559 666 3084 287 
Q 2609 -91 1734 -91 
Q 1441 -91 1130 -33 
Q 819 25 488 141 
L 488 750 
Q 750 597 1062 519 
Q 1375 441 1716 441 
Q 2309 441 2620 675 
Q 2931 909 2931 1356 
Q 2931 1769 2642 2001 
Q 2353 2234 1838 2234 
L 1294 2234 
L 1294 2753 
L 1863 2753 
Q 2328 2753 2575 2939 
Q 2822 3125 2822 3475 
Q 2822 3834 2567 4026 
Q 2313 4219 1838 4219 
Q 1578 4219 1281 4162 
Q 984 4106 628 3988 
L 628 4550 
Q 988 4650 1302 4700 
Q 1616 4750 1894 4750 
Q 2613 4750 3031 4423 
Q 3450 4097 3450 3541 
Q 3450 3153 3228 2886 
Q 3006 2619 2597 2516 
z
" transform="scale(0.015625)"/>
       </defs>
       <use xlink:href="#DejaVuSans-33"/>
       <use xlink:href="#DejaVuSans-30" x="63.623047"/>
      </g>
     </g>
    </g>
    <g id="ytick_4">
     <g id="line2d_9">
      <g>
       <use xlink:href="#m77fc97dd2d" x="266.697319" y="342.270229" style="stroke: #000000; stroke-width: 0.8"/>
      </g>
     </g>
     <g id="text_10">
      <!-- 40 -->
      <g transform="translate(246.972319 346.069448)scale(0.1 -0.1)">
       <use xlink:href="#DejaVuSans-34"/>
       <use xlink:href="#DejaVuSans-30" x="63.623047"/>
      </g>
     </g>
    </g>
    <g id="ytick_5">
     <g id="line2d_10">
      <g>
       <use xlink:href="#m77fc97dd2d" x="266.697319" y="280.097553" style="stroke: #000000; stroke-width: 0.8"/>
      </g>
     </g>
     <g id="text_11">
      <!-- 50 -->
      <g transform="translate(246.972319 283.896772)scale(0.1 -0.1)">
       <defs>
        <path id="DejaVuSans-35" d="M 691 4666 
L 3169 4666 
L 3169 4134 
L 1269 4134 
L 1269 2991 
Q 1406 3038 1543 3061 
Q 1681 3084 1819 3084 
Q 2600 3084 3056 2656 
Q 3513 2228 3513 1497 
Q 3513 744 3044 326 
Q 2575 -91 1722 -91 
Q 1428 -91 1123 -41 
Q 819 9 494 109 
L 494 744 
Q 775 591 1075 516 
Q 1375 441 1709 441 
Q 2250 441 2565 725 
Q 2881 1009 2881 1497 
Q 2881 1984 2565 2268 
Q 2250 2553 1709 2553 
Q 1456 2553 1204 2497 
Q 953 2441 691 2322 
L 691 4666 
z
" transform="scale(0.015625)"/>
       </defs>
       <use xlink:href="#DejaVuSans-35"/>
       <use xlink:href="#DejaVuSans-30" x="63.623047"/>
      </g>
     </g>
    </g>
    <g id="ytick_6">
     <g id="line2d_11">
      <g>
       <use xlink:href="#m77fc97dd2d" x="266.697319" y="217.924877" style="stroke: #000000; stroke-width: 0.8"/>
      </g>
     </g>
     <g id="text_12">
      <!-- 60 -->
      <g transform="translate(246.972319 221.724096)scale(0.1 -0.1)">
       <use xlink:href="#DejaVuSans-36"/>
       <use xlink:href="#DejaVuSans-30" x="63.623047"/>
      </g>
     </g>
    </g>
    <g id="ytick_7">
     <g id="line2d_12">
      <g>
       <use xlink:href="#m77fc97dd2d" x="266.697319" y="155.752201" style="stroke: #000000; stroke-width: 0.8"/>
      </g>
     </g>
     <g id="text_13">
      <!-- 70 -->
      <g transform="translate(246.972319 159.55142)scale(0.1 -0.1)">
       <defs>
        <path id="DejaVuSans-37" d="M 525 4666 
L 3525 4666 
L 3525 4397 
L 1831 0 
L 1172 0 
L 2766 4134 
L 525 4134 
L 525 4666 
z
" transform="scale(0.015625)"/>
       </defs>
       <use xlink:href="#DejaVuSans-37"/>
       <use xlink:href="#DejaVuSans-30" x="63.623047"/>
      </g>
     </g>
    </g>
    <g id="ytick_8">
     <g id="line2d_13">
      <g>
       <use xlink:href="#m77fc97dd2d" x="266.697319" y="93.579525" style="stroke: #000000; stroke-width: 0.8"/>
      </g>
     </g>
     <g id="text_14">
      <!-- 80 -->
      <g transform="translate(246.972319 97.378744)scale(0.1 -0.1)">
       <use xlink:href="#DejaVuSans-38"/>
       <use xlink:href="#DejaVuSans-30" x="63.623047"/>
      </g>
     </g>
    </g>
    <g id="text_15">
     <!-- Y (m) -->
     <g transform="translate(240.892632 340.654844)rotate(-90)scale(0.1 -0.1)">
      <defs>
       <path id="DejaVuSans-59" d="M -13 4666 
L 666 4666 
L 1959 2747 
L 3244 4666 
L 3922 4666 
L 2272 2222 
L 2272 0 
L 1638 0 
L 1638 2222 
L -13 4666 
z
" transform="scale(0.015625)"/>
      </defs>
      <use xlink:href="#DejaVuSans-59"/>
      <use xlink:href="#DejaVuSans-20" x="61.083984"/>
      <use xlink:href="#DejaVuSans-28" x="92.871094"/>
      <use xlink:href="#DejaVuSans-6d" x="131.884766"/>
      <use xlink:href="#DejaVuSans-29" x="229.296875"/>
     </g>
    </g>
   </g>
   <g id="line2d_14">
    <path d="M 697.977877 509.207439 
L 697.977877 509.207439 
" clip-path="url(#p3fd57cbb29)" style="fill: none; stroke: #0000ff; stroke-width: 1.5; stroke-linecap: square"/>
   </g>
   <g id="line2d_15">
    <path d="M 697.977877 509.207439 
L 697.977877 509.207439 
" clip-path="url(#p3fd57cbb29)" style="fill: none; stroke-dasharray: 5.55,2.4; stroke-dashoffset: 0; stroke: #ff00ff; stroke-width: 1.5"/>
   </g>
   <g id="line2d_16">
    <path d="M 697.977877 509.207439 
L 721.897583 551.402791 
L 721.897583 551.402791 
L 719.083561 546.128372 
L 719.083561 546.128372 
L 714.862384 540.853946 
L 714.862384 540.853946 
L 709.234246 535.579534 
L 709.234246 535.579534 
L 704.30963 530.305115 
L 704.30963 530.305115 
L 700.088546 527.667899 
L 700.088546 527.667899 
L 697.977995 527.667899 
L 697.977995 527.667899 
L 695.867494 525.030689 
L 695.867494 525.030689 
L 686.068484 511.844648 
L 686.068484 511.844648 
L 685.364944 506.570229 
L 685.364944 506.570229 
L 683.907629 498.658601 
L 683.907629 498.658601 
L 685.364801 493.384176 
L 685.364801 493.384176 
L 686.771744 485.472553 
L 686.771744 485.472553 
L 688.831916 477.560944 
L 688.831916 477.560944 
L 690.238834 469.649309 
L 690.238834 469.649309 
L 692.349316 461.737662 
L 692.349316 461.737662 
L 695.163239 453.826052 
L 695.163239 453.826052 
L 700.791166 443.277195 
L 700.791166 443.277195 
L 703.605114 435.365586 
L 703.605114 435.365586 
L 707.825955 419.54231 
L 707.825955 419.54231 
L 709.936387 414.26791 
L 709.936387 414.26791 
L 712.046802 403.719066 
L 712.046802 403.719066 
L 712.750149 393.170234 
L 712.750149 393.170234 
L 711.343119 385.258612 
L 711.343119 385.258612 
L 712.04654 377.346952 
L 712.04654 377.346952 
L 717.674392 361.523733 
L 717.674392 361.523733 
L 720.488315 356.249289 
L 720.488315 356.249289 
L 724.70928 350.97487 
L 724.70928 350.97487 
L 728.226675 343.06326 
L 728.226675 343.06326 
L 732.397448 337.78881 
L 732.397448 337.78881 
L 737.372163 329.877175 
L 737.372163 329.877175 
L 740.889558 324.602806 
L 740.889558 324.602806 
L 744.356723 314.053937 
L 744.356723 314.053937 
L 746.467106 306.142327 
L 746.467106 306.142327 
L 749.281053 298.230668 
L 749.281053 298.230668 
L 761.893514 274.495813 
L 761.893514 274.495813 
L 766.817945 269.221394 
L 766.817945 269.221394 
L 768.928378 258.67255 
L 768.928378 258.67255 
L 766.114262 253.398125 
L 766.114262 253.398125 
L 760.486174 248.123681 
L 760.486174 248.123681 
L 753.501403 245.486472 
L 753.501403 245.486472 
L 714.155549 245.486472 
L 714.155549 245.486472 
L 707.824083 248.123681 
L 707.824083 248.123681 
L 700.789077 250.760916 
L 700.789077 250.760916 
L 695.161082 253.398125 
L 695.161082 253.398125 
L 688.82964 258.67255 
L 688.82964 258.67255 
L 682.498155 261.30976 
L 682.498155 261.30976 
L 676.920458 266.584185 
L 676.920458 266.584185 
L 670.639159 269.221394 
L 670.639159 269.221394 
L 664.960904 271.858604 
L 664.960904 271.858604 
L 658.679698 274.495813 
L 658.679698 274.495813 
L 653.051703 277.133029 
L 653.051703 277.133029 
L 648.127179 277.133029 
L 648.127179 277.133029 
L 642.499203 279.770239 
L 642.499203 279.770239 
L 636.871189 279.770239 
L 636.871189 279.770239 
L 630.539723 285.044614 
L 630.539723 285.044614 
L 624.911678 287.681824 
L 624.911678 287.681824 
L 618.580212 290.319033 
L 618.580212 290.319033 
L 613.655713 292.956249 
L 613.655713 292.956249 
L 608.077929 295.593458 
L 608.077929 295.593458 
L 602.449977 300.867902 
L 602.449977 300.867902 
L 597.525478 306.142327 
L 597.525478 306.142327 
L 593.30447 311.416721 
L 593.30447 311.416721 
L 587.726779 316.691171 
L 587.726779 316.691171 
L 581.395263 321.96559 
L 581.395263 321.96559 
L 570.139298 332.514391 
L 570.139298 332.514391 
L 563.104304 337.78881 
L 563.104304 337.78881 
L 556.772769 340.426044 
L 556.772769 340.426044 
L 533.607441 348.337679 
L 533.607441 348.337679 
L 527.275907 350.97487 
L 527.275907 350.97487 
L 520.291148 353.612079 
L 520.291148 353.612079 
L 500.593023 353.612079 
L 500.593023 353.612079 
L 494.261476 356.249289 
L 494.261476 356.249289 
L 488.633456 356.249289 
L 488.633456 356.249289 
L 484.412435 353.612079 
L 484.412435 353.612079 
L 440.192175 353.612079 
L 440.192175 353.612079 
L 433.157132 356.249289 
L 433.157132 356.249289 
L 419.79056 356.249289 
L 419.79056 356.249289 
L 405.720479 361.523733 
L 405.720479 361.523733 
L 399.388944 361.523733 
L 399.388944 361.523733 
L 386.776104 353.612079 
L 386.776104 353.612079 
L 381.851574 350.97487 
L 381.851574 350.97487 
L 386.776104 356.249289 
L 386.776104 356.249289 
L 391.650386 350.97487 
L 391.650386 350.97487 
L 397.981914 345.700469 
L 397.981914 345.700469 
L 402.202929 340.426044 
L 402.202929 340.426044 
L 405.720442 335.1516 
L 405.720442 335.1516 
L 409.941463 332.514391 
L 409.941463 332.514391 
L 414.162484 327.239966 
L 414.162484 327.239966 
L 417.67999 321.96559 
L 417.67999 321.96559 
L 414.865974 316.691171 
L 414.865974 316.691171 
" clip-path="url(#p3fd57cbb29)" style="fill: none; stroke: #0000ff; stroke-width: 1.5; stroke-linecap: square"/>
   </g>
   <g id="line2d_17">
    <path d="M 414.865974 316.691171 
L 414.865974 316.691171 
" clip-path="url(#p3fd57cbb29)" style="fill: none; stroke-dasharray: 5.55,2.4; stroke-dashoffset: 0; stroke: #ff00ff; stroke-width: 1.5"/>
   </g>
   <g id="line2d_18">
    <path d="M 414.865974 316.691171 
L 414.865974 316.691171 
" clip-path="url(#p3fd57cbb29)" style="fill: none; stroke: #0000ff; stroke-width: 1.5; stroke-linecap: square"/>
   </g>
   <g id="line2d_19">
    <path d="M 414.865974 316.691171 
L 414.865974 316.691171 
" clip-path="url(#p3fd57cbb29)" style="fill: none; stroke-dasharray: 5.55,2.4; stroke-dashoffset: 0; stroke: #ff00ff; stroke-width: 1.5"/>
   </g>
   <g id="line2d_20">
    <path d="M 414.865974 316.691171 
L 414.865974 316.691171 
" clip-path="url(#p3fd57cbb29)" style="fill: none; stroke: #0000ff; stroke-width: 1.5; stroke-linecap: square"/>
   </g>
   <g id="line2d_21">
    <path d="M 414.865974 316.691171 
L 414.865974 316.691171 
" clip-path="url(#p3fd57cbb29)" style="fill: none; stroke-dasharray: 5.55,2.4; stroke-dashoffset: 0; stroke: #ff00ff; stroke-width: 1.5"/>
   </g>
   <g id="line2d_22">
    <path d="M 414.865974 316.691171 
L 402.906307 224.388827 
L 402.906307 224.388827 
L 404.3133 216.477192 
L 404.3133 216.477192 
L 397.981778 208.565564 
L 397.981778 208.565564 
L 390.243275 205.928348 
L 390.243275 205.928348 
L 381.851512 205.928348 
L 381.851512 205.928348 
" clip-path="url(#p3fd57cbb29)" style="fill: none; stroke: #0000ff; stroke-width: 1.5; stroke-linecap: square"/>
   </g>
   <g id="line2d_23">
    <path d="M 381.851512 205.928348 
L 377.630491 124.174879 
L 377.630491 124.174879 
L 375.51999 118.900454 
L 375.51999 118.900454 
L 374.112991 116.26322 
L 374.112991 116.26322 
L 372.002496 110.988801 
L 372.002496 110.988801 
L 370.645751 105.714425 
L 370.645751 105.714425 
L 368.535256 100.44 
L 368.535256 100.44 
L 392.353814 258.67255 
L 392.353814 258.67255 
L 400.092335 253.398125 
L 400.092335 253.398125 
L 406.423845 253.398125 
L 406.423845 253.398125 
L 409.941369 258.67255 
L 409.941369 258.67255 
L 413.458882 261.30976 
L 413.458882 261.30976 
L 383.962032 240.212096 
L 383.962032 240.212096 
L 355.87223 227.026037 
L 355.87223 227.026037 
L 353.761723 232.300462 
L 353.761723 232.300462 
L 353.05822 234.937671 
L 353.05822 234.937671 
L 348.837212 237.574881 
L 348.837212 237.574881 
L 339.691692 237.574881 
L 339.691692 237.574881 
L 331.249668 242.849256 
L 331.249668 242.849256 
L 296.124836 248.123681 
L 296.124836 248.123681 
L 834.960335 472.286506 
L 834.960335 472.286506 
L 807.624315 493.384176 
L 807.624315 493.384176 
" clip-path="url(#p3fd57cbb29)" style="fill: none; stroke-dasharray: 5.55,2.4; stroke-dashoffset: 0; stroke: #ff00ff; stroke-width: 1.5"/>
   </g>
   <g id="line2d_24">
    <path d="M 807.624315 493.384176 
L 807.624315 493.384176 
L 807.624315 493.384176 
L 807.624315 493.384176 
L 807.624315 493.384176 
L 792.147267 503.933014 
L 792.147267 503.933014 
L 792.147267 503.933014 
L 792.147267 503.933014 
L 792.147267 503.933014 
L 792.147267 503.933014 
L 792.147267 503.933014 
L 792.147267 503.933014 
L 792.147267 503.933014 
L 792.147267 503.933014 
L 792.147267 503.933014 
L 792.147267 503.933014 
L 792.147267 503.933014 
L 792.147267 503.933014 
L 792.147267 503.933014 
L 775.966921 522.393486 
L 775.966921 522.393486 
L 775.966921 522.393486 
L 775.966921 522.393486 
L 775.966921 522.393486 
L 775.966921 522.393486 
L 775.966921 522.393486 
L 775.966921 522.393486 
L 775.966921 522.393486 
L 775.966921 522.393486 
L 775.966921 522.393486 
L 775.966921 522.393486 
L 775.966921 522.393486 
L 775.966921 522.393486 
L 775.966921 522.393486 
L 775.966921 522.393486 
L 775.966921 522.393486 
L 775.966921 522.393486 
L 775.966921 522.393486 
L 775.966921 522.393486 
L 775.966921 522.393486 
L 775.966921 522.393486 
L 775.966921 522.393486 
L 775.966921 522.393486 
L 764.007199 519.756277 
L 764.007199 519.756277 
L 764.007199 519.756277 
L 764.007199 519.756277 
L 764.007199 519.756277 
L 764.007199 519.756277 
L 764.007199 519.756277 
L 764.007199 519.756277 
L 764.007199 519.756277 
L 764.007199 519.756277 
L 764.007199 519.756277 
L 764.007199 519.756277 
L 764.007199 519.756277 
L 764.007199 519.756277 
L 764.007199 519.756277 
L 764.007199 519.756277 
L 764.007199 519.756277 
L 764.007199 519.756277 
L 764.007199 519.756277 
L 764.007199 519.756277 
L 763.303752 522.393486 
L 763.303752 522.393486 
L 763.303752 522.393486 
L 763.303752 522.393486 
L 763.303752 522.393486 
L 763.303752 522.393486 
L 763.303752 522.393486 
L 763.303752 522.393486 
L 763.303752 522.393486 
L 763.303752 522.393486 
L 763.303752 522.393486 
L 763.303752 522.393486 
L 763.303752 522.393486 
L 763.303752 522.393486 
L 763.303752 522.393486 
L 763.303752 522.393486 
L 763.303752 522.393486 
L 763.303752 522.393486 
L 763.303752 522.393486 
L 763.303752 522.393486 
L 763.303752 522.393486 
L 763.303752 522.393486 
L 763.303752 522.393486 
" clip-path="url(#p3fd57cbb29)" style="fill: none; stroke: #0000ff; stroke-width: 1.5; stroke-linecap: square"/>
   </g>
   <g id="line2d_25">
    <path d="M 763.303752 522.393486 
L 764.00746 540.853946 
L 764.00746 540.853946 
L 764.711025 543.491162 
L 764.711025 543.491162 
L 764.711093 546.128372 
L 764.711093 546.128372 
L 765.414614 551.402791 
L 765.414614 551.402791 
L 766.118204 554.04 
L 766.118204 554.04 
" clip-path="url(#p3fd57cbb29)" style="fill: none; stroke-dasharray: 5.55,2.4; stroke-dashoffset: 0; stroke: #ff00ff; stroke-width: 1.5"/>
   </g>
   <g id="line2d_26">
    <defs>
     <path id="m50ca262222" d="M 0 3 
C 0.795609 3 1.55874 2.683901 2.12132 2.12132 
C 2.683901 1.55874 3 0.795609 3 0 
C 3 -0.795609 2.683901 -1.55874 2.12132 -2.12132 
C 1.55874 -2.683901 0.795609 -3 0 -3 
C -0.795609 -3 -1.55874 -2.683901 -2.12132 -2.12132 
C -2.683901 -1.55874 -3 -0.795609 -3 0 
C -3 0.795609 -2.683901 1.55874 -2.12132 2.12132 
C -1.55874 2.683901 -0.795609 3 0 3 
z
" style="stroke: #008000"/>
    </defs>
    <g clip-path="url(#p3fd57cbb29)">
     <use xlink:href="#m50ca262222" x="697.977877" y="509.207439" style="fill: #008000; stroke: #008000"/>
    </g>
   </g>
   <g id="line2d_27">
    <defs>
     <path id="m39470fbcf7" d="M 0 3 
C 0.795609 3 1.55874 2.683901 2.12132 2.12132 
C 2.683901 1.55874 3 0.795609 3 0 
C 3 -0.795609 2.683901 -1.55874 2.12132 -2.12132 
C 1.55874 -2.683901 0.795609 -3 0 -3 
C -0.795609 -3 -1.55874 -2.683901 -2.12132 -2.12132 
C -2.683901 -1.55874 -3 -0.795609 -3 0 
C -3 0.795609 -2.683901 1.55874 -2.12132 2.12132 
C -1.55874 2.683901 -0.795609 3 0 3 
z
" style="stroke: #bfbf00"/>
    </defs>
    <g clip-path="url(#p3fd57cbb29)">
     <use xlink:href="#m39470fbcf7" x="822.502488" y="279.171728" style="fill: #bfbf00; stroke: #bfbf00"/>
    </g>
   </g>
   <g id="line2d_28">
    <path d="M 697.977877 509.207439 
L 822.502488 279.171728 
" clip-path="url(#p3fd57cbb29)" style="fill: none; stroke: #008000; stroke-width: 1.5; stroke-linecap: square"/>
   </g>
   <g id="line2d_29">
    <g clip-path="url(#p3fd57cbb29)">
     <use xlink:href="#m39470fbcf7" x="509.306445" y="284.702357" style="fill: #bfbf00; stroke: #bfbf00"/>
    </g>
   </g>
   <g id="line2d_30">
    <path d="M 822.502488 279.171728 
L 509.306445 284.702357 
" clip-path="url(#p3fd57cbb29)" style="fill: none; stroke: #008000; stroke-width: 1.5; stroke-linecap: square"/>
   </g>
   <g id="line2d_31">
    <g clip-path="url(#p3fd57cbb29)">
     <use xlink:href="#m39470fbcf7" x="636.610044" y="490.718284" style="fill: #bfbf00; stroke: #bfbf00"/>
    </g>
   </g>
   <g id="line2d_32">
    <path d="M 509.306445 284.702357 
L 636.610044 490.718284 
" clip-path="url(#p3fd57cbb29)" style="fill: none; stroke: #008000; stroke-width: 1.5; stroke-linecap: square"/>
   </g>
   <g id="line2d_33">
    <defs>
     <path id="me3dc51def2" d="M -3 3 
L 3 -3 
M -3 -3 
L 3 3 
" style="stroke: #ff0000"/>
    </defs>
    <g clip-path="url(#p3fd57cbb29)">
     <use xlink:href="#me3dc51def2" x="405.720442" y="335.1516" style="fill: #ff0000; stroke: #ff0000"/>
    </g>
   </g>
   <g id="line2d_34">
    <g clip-path="url(#p3fd57cbb29)">
     <use xlink:href="#me3dc51def2" x="414.865974" y="316.691171" style="fill: #ff0000; stroke: #ff0000"/>
    </g>
   </g>
   <g id="line2d_35">
    <path d="M 405.720442 335.1516 
L 409.941463 332.514391 
L 409.941463 332.514391 
L 414.162484 327.239966 
L 414.162484 327.239966 
L 417.67999 321.96559 
L 417.67999 321.96559 
L 414.865974 316.691171 
L 414.865974 316.691171 
" clip-path="url(#p3fd57cbb29)" style="fill: none; stroke: #ff0000; stroke-width: 2; stroke-linecap: square"/>
   </g>
   <g id="line2d_36">
    <g clip-path="url(#p3fd57cbb29)">
     <use xlink:href="#me3dc51def2" x="388.836276" y="205.928348" style="fill: #ff0000; stroke: #ff0000"/>
    </g>
   </g>
   <g id="line2d_37">
    <g clip-path="url(#p3fd57cbb29)">
     <use xlink:href="#me3dc51def2" x="381.851512" y="205.928348" style="fill: #ff0000; stroke: #ff0000"/>
    </g>
   </g>
   <g id="line2d_38">
    <path d="M 388.836276 205.928348 
L 388.836276 205.928348 
L 388.836276 205.928348 
L 388.836276 205.928348 
L 388.836276 205.928348 
L 388.836276 205.928348 
L 388.836276 205.928348 
L 388.836276 205.928348 
L 388.836276 205.928348 
L 388.836276 205.928348 
L 388.836276 205.928348 
L 388.836276 205.928348 
L 388.836276 205.928348 
L 388.836276 205.928348 
L 388.836276 205.928348 
L 388.836276 205.928348 
L 388.836276 205.928348 
L 388.836276 205.928348 
L 388.836276 205.928348 
L 388.836276 205.928348 
L 388.836276 205.928348 
L 388.836276 205.928348 
L 388.836276 205.928348 
L 381.851512 205.928348 
L 381.851512 205.928348 
L 381.851512 205.928348 
L 381.851512 205.928348 
L 381.851512 205.928348 
L 381.851512 205.928348 
L 381.851512 205.928348 
L 381.851512 205.928348 
L 381.851512 205.928348 
L 381.851512 205.928348 
L 381.851512 205.928348 
L 381.851512 205.928348 
L 381.851512 205.928348 
L 381.851512 205.928348 
L 381.851512 205.928348 
L 381.851512 205.928348 
L 381.851512 205.928348 
L 381.851512 205.928348 
L 381.851512 205.928348 
L 381.851512 205.928348 
" clip-path="url(#p3fd57cbb29)" style="fill: none; stroke: #ff0000; stroke-width: 2; stroke-linecap: square"/>
   </g>
   <g id="line2d_39">
    <g clip-path="url(#p3fd57cbb29)">
     <use xlink:href="#me3dc51def2" x="375.51999" y="118.900454" style="fill: #ff0000; stroke: #ff0000"/>
    </g>
   </g>
   <g id="line2d_40">
    <g clip-path="url(#p3fd57cbb29)">
     <use xlink:href="#me3dc51def2" x="368.535256" y="100.44" style="fill: #ff0000; stroke: #ff0000"/>
    </g>
   </g>
   <g id="line2d_41">
    <path d="M 375.51999 118.900454 
L 374.112991 116.26322 
L 374.112991 116.26322 
L 372.002496 110.988801 
L 372.002496 110.988801 
L 370.645751 105.714425 
L 370.645751 105.714425 
L 368.535256 100.44 
L 368.535256 100.44 
" clip-path="url(#p3fd57cbb29)" style="fill: none; stroke: #ff0000; stroke-width: 2; stroke-linecap: square"/>
   </g>
   <g id="line2d_42">
    <g clip-path="url(#p3fd57cbb29)">
     <use xlink:href="#me3dc51def2" x="331.249668" y="242.849256" style="fill: #ff0000; stroke: #ff0000"/>
    </g>
   </g>
   <g id="line2d_43">
    <g clip-path="url(#p3fd57cbb29)">
     <use xlink:href="#me3dc51def2" x="296.124836" y="248.123681" style="fill: #ff0000; stroke: #ff0000"/>
    </g>
   </g>
   <g id="line2d_44">
    <path d="M 331.249668 242.849256 
L 296.124836 248.123681 
L 296.124836 248.123681 
" clip-path="url(#p3fd57cbb29)" style="fill: none; stroke: #ff0000; stroke-width: 2; stroke-linecap: square"/>
   </g>
   <g id="line2d_45">
    <g clip-path="url(#p3fd57cbb29)">
     <use xlink:href="#me3dc51def2" x="764.00746" y="540.853946" style="fill: #ff0000; stroke: #ff0000"/>
    </g>
   </g>
   <g id="line2d_46">
    <g clip-path="url(#p3fd57cbb29)">
     <use xlink:href="#me3dc51def2" x="766.118204" y="554.04" style="fill: #ff0000; stroke: #ff0000"/>
    </g>
   </g>
   <g id="line2d_47">
    <path d="M 764.00746 540.853946 
L 764.711025 543.491162 
L 764.711025 543.491162 
L 764.711093 546.128372 
L 764.711093 546.128372 
L 765.414614 551.402791 
L 765.414614 551.402791 
L 766.118204 554.04 
L 766.118204 554.04 
" clip-path="url(#p3fd57cbb29)" style="fill: none; stroke: #ff0000; stroke-width: 2; stroke-linecap: square"/>
   </g>
   <g id="patch_6">
    <path d="M 266.697319 576.72 
L 266.697319 77.76 
" style="fill: none; stroke: #000000; stroke-width: 0.8; stroke-linejoin: miter; stroke-linecap: square"/>
   </g>
   <g id="patch_7">
    <path d="M 914.102681 576.72 
L 914.102681 77.76 
" style="fill: none; stroke: #000000; stroke-width: 0.8; stroke-linejoin: miter; stroke-linecap: square"/>
   </g>
   <g id="patch_8">
    <path d="M 266.697319 576.72 
L 914.102681 576.72 
" style="fill: none; stroke: #000000; stroke-width: 0.8; stroke-linejoin: miter; stroke-linecap: square"/>
   </g>
   <g id="patch_9">
    <path d="M 266.697319 77.76 
L 914.102681 77.76 
" style="fill: none; stroke: #000000; stroke-width: 0.8; stroke-linejoin: miter; stroke-linecap: square"/>
   </g>
   <g id="text_16">
    <!-- Boat Path -->
    <g transform="translate(561.496875 71.76)scale(0.12 -0.12)">
     <defs>
      <path id="DejaVuSans-42" d="M 1259 2228 
L 1259 519 
L 2272 519 
Q 2781 519 3026 730 
Q 3272 941 3272 1375 
Q 3272 1813 3026 2020 
Q 2781 2228 2272 2228 
L 1259 2228 
z
M 1259 4147 
L 1259 2741 
L 2194 2741 
Q 2656 2741 2882 2914 
Q 3109 3088 3109 3444 
Q 3109 3797 2882 3972 
Q 2656 4147 2194 4147 
L 1259 4147 
z
M 628 4666 
L 2241 4666 
Q 2963 4666 3353 4366 
Q 3744 4066 3744 3513 
Q 3744 3084 3544 2831 
Q 3344 2578 2956 2516 
Q 3422 2416 3680 2098 
Q 3938 1781 3938 1306 
Q 3938 681 3513 340 
Q 3088 0 2303 0 
L 628 0 
L 628 4666 
z
" transform="scale(0.015625)"/>
      <path id="DejaVuSans-6f" d="M 1959 3097 
Q 1497 3097 1228 2736 
Q 959 2375 959 1747 
Q 959 1119 1226 758 
Q 1494 397 1959 397 
Q 2419 397 2687 759 
Q 2956 1122 2956 1747 
Q 2956 2369 2687 2733 
Q 2419 3097 1959 3097 
z
M 1959 3584 
Q 2709 3584 3137 3096 
Q 3566 2609 3566 1747 
Q 3566 888 3137 398 
Q 2709 -91 1959 -91 
Q 1206 -91 779 398 
Q 353 888 353 1747 
Q 353 2609 779 3096 
Q 1206 3584 1959 3584 
z
" transform="scale(0.015625)"/>
      <path id="DejaVuSans-61" d="M 2194 1759 
Q 1497 1759 1228 1600 
Q 959 1441 959 1056 
Q 959 750 1161 570 
Q 1363 391 1709 391 
Q 2188 391 2477 730 
Q 2766 1069 2766 1631 
L 2766 1759 
L 2194 1759 
z
M 3341 1997 
L 3341 0 
L 2766 0 
L 2766 531 
Q 2569 213 2275 61 
Q 1981 -91 1556 -91 
Q 1019 -91 701 211 
Q 384 513 384 1019 
Q 384 1609 779 1909 
Q 1175 2209 1959 2209 
L 2766 2209 
L 2766 2266 
Q 2766 2663 2505 2880 
Q 2244 3097 1772 3097 
Q 1472 3097 1187 3025 
Q 903 2953 641 2809 
L 641 3341 
Q 956 3463 1253 3523 
Q 1550 3584 1831 3584 
Q 2591 3584 2966 3190 
Q 3341 2797 3341 1997 
z
" transform="scale(0.015625)"/>
      <path id="DejaVuSans-74" d="M 1172 4494 
L 1172 3500 
L 2356 3500 
L 2356 3053 
L 1172 3053 
L 1172 1153 
Q 1172 725 1289 603 
Q 1406 481 1766 481 
L 2356 481 
L 2356 0 
L 1766 0 
Q 1100 0 847 248 
Q 594 497 594 1153 
L 594 3053 
L 172 3053 
L 172 3500 
L 594 3500 
L 594 4494 
L 1172 4494 
z
" transform="scale(0.015625)"/>
      <path id="DejaVuSans-50" d="M 1259 4147 
L 1259 2394 
L 2053 2394 
Q 2494 2394 2734 2622 
Q 2975 2850 2975 3272 
Q 2975 3691 2734 3919 
Q 2494 4147 2053 4147 
L 1259 4147 
z
M 628 4666 
L 2053 4666 
Q 2838 4666 3239 4311 
Q 3641 3956 3641 3272 
Q 3641 2581 3239 2228 
Q 2838 1875 2053 1875 
L 1259 1875 
L 1259 0 
L 628 0 
L 628 4666 
z
" transform="scale(0.015625)"/>
      <path id="DejaVuSans-68" d="M 3513 2113 
L 3513 0 
L 2938 0 
L 2938 2094 
Q 2938 2591 2744 2837 
Q 2550 3084 2163 3084 
Q 1697 3084 1428 2787 
Q 1159 2491 1159 1978 
L 1159 0 
L 581 0 
L 581 4863 
L 1159 4863 
L 1159 2956 
Q 1366 3272 1645 3428 
Q 1925 3584 2291 3584 
Q 2894 3584 3203 3211 
Q 3513 2838 3513 2113 
z
" transform="scale(0.015625)"/>
     </defs>
     <use xlink:href="#DejaVuSans-42"/>
     <use xlink:href="#DejaVuSans-6f" x="68.603516"/>
     <use xlink:href="#DejaVuSans-61" x="129.785156"/>
     <use xlink:href="#DejaVuSans-74" x="191.064453"/>
     <use xlink:href="#DejaVuSans-20" x="230.273438"/>
     <use xlink:href="#DejaVuSans-50" x="262.060547"/>
     <use xlink:href="#DejaVuSans-61" x="317.863281"/>
     <use xlink:href="#DejaVuSans-74" x="379.142578"/>
     <use xlink:href="#DejaVuSans-68" x="418.351562"/>
    </g>
   </g>
   <g id="legend_1">
    <g id="patch_10">
     <path d="M 792.422993 144.4725 
L 907.102681 144.4725 
Q 909.102681 144.4725 909.102681 142.4725 
L 909.102681 84.76 
Q 909.102681 82.76 907.102681 82.76 
L 792.422993 82.76 
Q 790.422993 82.76 790.422993 84.76 
L 790.422993 142.4725 
Q 790.422993 144.4725 792.422993 144.4725 
z
" style="fill: #ffffff; opacity: 0.8; stroke: #cccccc; stroke-linejoin: miter"/>
    </g>
    <g id="line2d_48">
     <path d="M 794.422993 90.858437 
L 804.422993 90.858437 
L 814.422993 90.858437 
" style="fill: none; stroke: #0000ff; stroke-width: 1.5; stroke-linecap: square"/>
    </g>
    <g id="text_17">
     <!-- Boat Path -->
     <g transform="translate(822.422993 94.358437)scale(0.1 -0.1)">
      <use xlink:href="#DejaVuSans-42"/>
      <use xlink:href="#DejaVuSans-6f" x="68.603516"/>
      <use xlink:href="#DejaVuSans-61" x="129.785156"/>
      <use xlink:href="#DejaVuSans-74" x="191.064453"/>
      <use xlink:href="#DejaVuSans-20" x="230.273438"/>
      <use xlink:href="#DejaVuSans-50" x="262.060547"/>
      <use xlink:href="#DejaVuSans-61" x="317.863281"/>
      <use xlink:href="#DejaVuSans-74" x="379.142578"/>
      <use xlink:href="#DejaVuSans-68" x="418.351562"/>
     </g>
    </g>
    <g id="line2d_49">
     <path d="M 794.422993 105.536562 
L 804.422993 105.536562 
L 814.422993 105.536562 
" style="fill: none; stroke-dasharray: 5.55,2.4; stroke-dashoffset: 0; stroke: #ff00ff; stroke-width: 1.5"/>
    </g>
    <g id="text_18">
     <!-- RC Mode -->
     <g transform="translate(822.422993 109.036562)scale(0.1 -0.1)">
      <defs>
       <path id="DejaVuSans-52" d="M 2841 2188 
Q 3044 2119 3236 1894 
Q 3428 1669 3622 1275 
L 4263 0 
L 3584 0 
L 2988 1197 
Q 2756 1666 2539 1819 
Q 2322 1972 1947 1972 
L 1259 1972 
L 1259 0 
L 628 0 
L 628 4666 
L 2053 4666 
Q 2853 4666 3247 4331 
Q 3641 3997 3641 3322 
Q 3641 2881 3436 2590 
Q 3231 2300 2841 2188 
z
M 1259 4147 
L 1259 2491 
L 2053 2491 
Q 2509 2491 2742 2702 
Q 2975 2913 2975 3322 
Q 2975 3731 2742 3939 
Q 2509 4147 2053 4147 
L 1259 4147 
z
" transform="scale(0.015625)"/>
       <path id="DejaVuSans-43" d="M 4122 4306 
L 4122 3641 
Q 3803 3938 3442 4084 
Q 3081 4231 2675 4231 
Q 1875 4231 1450 3742 
Q 1025 3253 1025 2328 
Q 1025 1406 1450 917 
Q 1875 428 2675 428 
Q 3081 428 3442 575 
Q 3803 722 4122 1019 
L 4122 359 
Q 3791 134 3420 21 
Q 3050 -91 2638 -91 
Q 1578 -91 968 557 
Q 359 1206 359 2328 
Q 359 3453 968 4101 
Q 1578 4750 2638 4750 
Q 3056 4750 3426 4639 
Q 3797 4528 4122 4306 
z
" transform="scale(0.015625)"/>
       <path id="DejaVuSans-4d" d="M 628 4666 
L 1569 4666 
L 2759 1491 
L 3956 4666 
L 4897 4666 
L 4897 0 
L 4281 0 
L 4281 4097 
L 3078 897 
L 2444 897 
L 1241 4097 
L 1241 0 
L 628 0 
L 628 4666 
z
" transform="scale(0.015625)"/>
       <path id="DejaVuSans-64" d="M 2906 2969 
L 2906 4863 
L 3481 4863 
L 3481 0 
L 2906 0 
L 2906 525 
Q 2725 213 2448 61 
Q 2172 -91 1784 -91 
Q 1150 -91 751 415 
Q 353 922 353 1747 
Q 353 2572 751 3078 
Q 1150 3584 1784 3584 
Q 2172 3584 2448 3432 
Q 2725 3281 2906 2969 
z
M 947 1747 
Q 947 1113 1208 752 
Q 1469 391 1925 391 
Q 2381 391 2643 752 
Q 2906 1113 2906 1747 
Q 2906 2381 2643 2742 
Q 2381 3103 1925 3103 
Q 1469 3103 1208 2742 
Q 947 2381 947 1747 
z
" transform="scale(0.015625)"/>
       <path id="DejaVuSans-65" d="M 3597 1894 
L 3597 1613 
L 953 1613 
Q 991 1019 1311 708 
Q 1631 397 2203 397 
Q 2534 397 2845 478 
Q 3156 559 3463 722 
L 3463 178 
Q 3153 47 2828 -22 
Q 2503 -91 2169 -91 
Q 1331 -91 842 396 
Q 353 884 353 1716 
Q 353 2575 817 3079 
Q 1281 3584 2069 3584 
Q 2775 3584 3186 3129 
Q 3597 2675 3597 1894 
z
M 3022 2063 
Q 3016 2534 2758 2815 
Q 2500 3097 2075 3097 
Q 1594 3097 1305 2825 
Q 1016 2553 972 2059 
L 3022 2063 
z
" transform="scale(0.015625)"/>
      </defs>
      <use xlink:href="#DejaVuSans-52"/>
      <use xlink:href="#DejaVuSans-43" x="64.482422"/>
      <use xlink:href="#DejaVuSans-20" x="134.306641"/>
      <use xlink:href="#DejaVuSans-4d" x="166.09375"/>
      <use xlink:href="#DejaVuSans-6f" x="252.373047"/>
      <use xlink:href="#DejaVuSans-64" x="313.554688"/>
      <use xlink:href="#DejaVuSans-65" x="377.03125"/>
     </g>
    </g>
    <g id="line2d_50">
     <g>
      <use xlink:href="#m50ca262222" x="804.422993" y="120.214687" style="fill: #008000; stroke: #008000"/>
     </g>
    </g>
    <g id="text_19">
     <!-- Starting position -->
     <g transform="translate(822.422993 123.714687)scale(0.1 -0.1)">
      <defs>
       <path id="DejaVuSans-53" d="M 3425 4513 
L 3425 3897 
Q 3066 4069 2747 4153 
Q 2428 4238 2131 4238 
Q 1616 4238 1336 4038 
Q 1056 3838 1056 3469 
Q 1056 3159 1242 3001 
Q 1428 2844 1947 2747 
L 2328 2669 
Q 3034 2534 3370 2195 
Q 3706 1856 3706 1288 
Q 3706 609 3251 259 
Q 2797 -91 1919 -91 
Q 1588 -91 1214 -16 
Q 841 59 441 206 
L 441 856 
Q 825 641 1194 531 
Q 1563 422 1919 422 
Q 2459 422 2753 634 
Q 3047 847 3047 1241 
Q 3047 1584 2836 1778 
Q 2625 1972 2144 2069 
L 1759 2144 
Q 1053 2284 737 2584 
Q 422 2884 422 3419 
Q 422 4038 858 4394 
Q 1294 4750 2059 4750 
Q 2388 4750 2728 4690 
Q 3069 4631 3425 4513 
z
" transform="scale(0.015625)"/>
       <path id="DejaVuSans-72" d="M 2631 2963 
Q 2534 3019 2420 3045 
Q 2306 3072 2169 3072 
Q 1681 3072 1420 2755 
Q 1159 2438 1159 1844 
L 1159 0 
L 581 0 
L 581 3500 
L 1159 3500 
L 1159 2956 
Q 1341 3275 1631 3429 
Q 1922 3584 2338 3584 
Q 2397 3584 2469 3576 
Q 2541 3569 2628 3553 
L 2631 2963 
z
" transform="scale(0.015625)"/>
       <path id="DejaVuSans-69" d="M 603 3500 
L 1178 3500 
L 1178 0 
L 603 0 
L 603 3500 
z
M 603 4863 
L 1178 4863 
L 1178 4134 
L 603 4134 
L 603 4863 
z
" transform="scale(0.015625)"/>
       <path id="DejaVuSans-6e" d="M 3513 2113 
L 3513 0 
L 2938 0 
L 2938 2094 
Q 2938 2591 2744 2837 
Q 2550 3084 2163 3084 
Q 1697 3084 1428 2787 
Q 1159 2491 1159 1978 
L 1159 0 
L 581 0 
L 581 3500 
L 1159 3500 
L 1159 2956 
Q 1366 3272 1645 3428 
Q 1925 3584 2291 3584 
Q 2894 3584 3203 3211 
Q 3513 2838 3513 2113 
z
" transform="scale(0.015625)"/>
       <path id="DejaVuSans-67" d="M 2906 1791 
Q 2906 2416 2648 2759 
Q 2391 3103 1925 3103 
Q 1463 3103 1205 2759 
Q 947 2416 947 1791 
Q 947 1169 1205 825 
Q 1463 481 1925 481 
Q 2391 481 2648 825 
Q 2906 1169 2906 1791 
z
M 3481 434 
Q 3481 -459 3084 -895 
Q 2688 -1331 1869 -1331 
Q 1566 -1331 1297 -1286 
Q 1028 -1241 775 -1147 
L 775 -588 
Q 1028 -725 1275 -790 
Q 1522 -856 1778 -856 
Q 2344 -856 2625 -561 
Q 2906 -266 2906 331 
L 2906 616 
Q 2728 306 2450 153 
Q 2172 0 1784 0 
Q 1141 0 747 490 
Q 353 981 353 1791 
Q 353 2603 747 3093 
Q 1141 3584 1784 3584 
Q 2172 3584 2450 3431 
Q 2728 3278 2906 2969 
L 2906 3500 
L 3481 3500 
L 3481 434 
z
" transform="scale(0.015625)"/>
       <path id="DejaVuSans-70" d="M 1159 525 
L 1159 -1331 
L 581 -1331 
L 581 3500 
L 1159 3500 
L 1159 2969 
Q 1341 3281 1617 3432 
Q 1894 3584 2278 3584 
Q 2916 3584 3314 3078 
Q 3713 2572 3713 1747 
Q 3713 922 3314 415 
Q 2916 -91 2278 -91 
Q 1894 -91 1617 61 
Q 1341 213 1159 525 
z
M 3116 1747 
Q 3116 2381 2855 2742 
Q 2594 3103 2138 3103 
Q 1681 3103 1420 2742 
Q 1159 2381 1159 1747 
Q 1159 1113 1420 752 
Q 1681 391 2138 391 
Q 2594 391 2855 752 
Q 3116 1113 3116 1747 
z
" transform="scale(0.015625)"/>
       <path id="DejaVuSans-73" d="M 2834 3397 
L 2834 2853 
Q 2591 2978 2328 3040 
Q 2066 3103 1784 3103 
Q 1356 3103 1142 2972 
Q 928 2841 928 2578 
Q 928 2378 1081 2264 
Q 1234 2150 1697 2047 
L 1894 2003 
Q 2506 1872 2764 1633 
Q 3022 1394 3022 966 
Q 3022 478 2636 193 
Q 2250 -91 1575 -91 
Q 1294 -91 989 -36 
Q 684 19 347 128 
L 347 722 
Q 666 556 975 473 
Q 1284 391 1588 391 
Q 1994 391 2212 530 
Q 2431 669 2431 922 
Q 2431 1156 2273 1281 
Q 2116 1406 1581 1522 
L 1381 1569 
Q 847 1681 609 1914 
Q 372 2147 372 2553 
Q 372 3047 722 3315 
Q 1072 3584 1716 3584 
Q 2034 3584 2315 3537 
Q 2597 3491 2834 3397 
z
" transform="scale(0.015625)"/>
      </defs>
      <use xlink:href="#DejaVuSans-53"/>
      <use xlink:href="#DejaVuSans-74" x="63.476562"/>
      <use xlink:href="#DejaVuSans-61" x="102.685547"/>
      <use xlink:href="#DejaVuSans-72" x="163.964844"/>
      <use xlink:href="#DejaVuSans-74" x="205.078125"/>
      <use xlink:href="#DejaVuSans-69" x="244.287109"/>
      <use xlink:href="#DejaVuSans-6e" x="272.070312"/>
      <use xlink:href="#DejaVuSans-67" x="335.449219"/>
      <use xlink:href="#DejaVuSans-20" x="398.925781"/>
      <use xlink:href="#DejaVuSans-70" x="430.712891"/>
      <use xlink:href="#DejaVuSans-6f" x="494.189453"/>
      <use xlink:href="#DejaVuSans-73" x="555.371094"/>
      <use xlink:href="#DejaVuSans-69" x="607.470703"/>
      <use xlink:href="#DejaVuSans-74" x="635.253906"/>
      <use xlink:href="#DejaVuSans-69" x="674.462891"/>
      <use xlink:href="#DejaVuSans-6f" x="702.246094"/>
      <use xlink:href="#DejaVuSans-6e" x="763.427734"/>
     </g>
    </g>
    <g id="line2d_51">
     <path d="M 794.422993 134.892812 
L 804.422993 134.892812 
L 814.422993 134.892812 
" style="fill: none; stroke: #ff0000; stroke-width: 2; stroke-linecap: square"/>
    </g>
    <g id="text_20">
     <!-- GNSS lost -->
     <g transform="translate(822.422993 138.392812)scale(0.1 -0.1)">
      <defs>
       <path id="DejaVuSans-47" d="M 3809 666 
L 3809 1919 
L 2778 1919 
L 2778 2438 
L 4434 2438 
L 4434 434 
Q 4069 175 3628 42 
Q 3188 -91 2688 -91 
Q 1594 -91 976 548 
Q 359 1188 359 2328 
Q 359 3472 976 4111 
Q 1594 4750 2688 4750 
Q 3144 4750 3555 4637 
Q 3966 4525 4313 4306 
L 4313 3634 
Q 3963 3931 3569 4081 
Q 3175 4231 2741 4231 
Q 1884 4231 1454 3753 
Q 1025 3275 1025 2328 
Q 1025 1384 1454 906 
Q 1884 428 2741 428 
Q 3075 428 3337 486 
Q 3600 544 3809 666 
z
" transform="scale(0.015625)"/>
       <path id="DejaVuSans-4e" d="M 628 4666 
L 1478 4666 
L 3547 763 
L 3547 4666 
L 4159 4666 
L 4159 0 
L 3309 0 
L 1241 3903 
L 1241 0 
L 628 0 
L 628 4666 
z
" transform="scale(0.015625)"/>
       <path id="DejaVuSans-6c" d="M 603 4863 
L 1178 4863 
L 1178 0 
L 603 0 
L 603 4863 
z
" transform="scale(0.015625)"/>
      </defs>
      <use xlink:href="#DejaVuSans-47"/>
      <use xlink:href="#DejaVuSans-4e" x="77.490234"/>
      <use xlink:href="#DejaVuSans-53" x="152.294922"/>
      <use xlink:href="#DejaVuSans-53" x="215.771484"/>
      <use xlink:href="#DejaVuSans-20" x="279.248047"/>
      <use xlink:href="#DejaVuSans-6c" x="311.035156"/>
      <use xlink:href="#DejaVuSans-6f" x="338.818359"/>
      <use xlink:href="#DejaVuSans-73" x="400"/>
      <use xlink:href="#DejaVuSans-74" x="452.099609"/>
     </g>
    </g>
   </g>
  </g>
 </g>
 <defs>
  <clipPath id="p3fd57cbb29">
   <rect x="266.697319" y="77.76" width="647.405361" height="498.96"/>
  </clipPath>
 </defs>
</svg>
