<?xml version="1.0" encoding="utf-8" standalone="no"?>
<!DOCTYPE svg PUBLIC "-//W3C//DTD SVG 1.1//EN"
  "http://www.w3.org/Graphics/SVG/1.1/DTD/svg11.dtd">
<svg xmlns:xlink="http://www.w3.org/1999/xlink" width="1152pt" height="648pt" viewBox="0 0 1152 648" xmlns="http://www.w3.org/2000/svg" version="1.1">
 <metadata>
  <rdf:RDF xmlns:dc="http://purl.org/dc/elements/1.1/" xmlns:cc="http://creativecommons.org/ns#" xmlns:rdf="http://www.w3.org/1999/02/22-rdf-syntax-ns#">
   <cc:Work>
    <dc:type rdf:resource="http://purl.org/dc/dcmitype/StillImage"/>
    <dc:date>2024-09-22T15:44:17.655265</dc:date>
    <dc:format>image/svg+xml</dc:format>
    <dc:creator>
     <cc:Agent>
      <dc:title>Matplotlib v3.5.1, https://matplotlib.org/</dc:title>
     </cc:Agent>
    </dc:creator>
   </cc:Work>
  </rdf:RDF>
 </metadata>
 <defs>
  <style type="text/css">*{stroke-linejoin: round; stroke-linecap: butt}</style>
 </defs>
 <g id="figure_1">
  <g id="patch_1">
   <path d="M 0 648 
L 1152 648 
L 1152 0 
L 0 0 
z
" style="fill: #ffffff"/>
  </g>
  <g id="axes_1">
   <g id="patch_2">
    <path d="M 144 576.72 
L 1036.8 576.72 
L 1036.8 77.76 
L 144 77.76 
z
" style="fill: #ffffff"/>
   </g>
   <g id="matplotlib.axis_1">
    <g id="xtick_1">
     <g id="line2d_1">
      <path d="M 184.581818 576.72 
L 184.581818 77.76 
" clip-path="url(#pa2a07b66a5)" style="fill: none; stroke: #b0b0b0; stroke-width: 0.8; stroke-linecap: square"/>
     </g>
     <g id="line2d_2">
      <defs>
       <path id="mb95473d7ca" d="M 0 0 
L 0 3.5 
" style="stroke: #000000; stroke-width: 0.8"/>
      </defs>
      <g>
       <use xlink:href="#mb95473d7ca" x="184.581818" y="576.72" style="stroke: #000000; stroke-width: 0.8"/>
      </g>
     </g>
     <g id="text_1">
      <!-- 0 -->
      <g transform="translate(181.400568 591.318438)scale(0.1 -0.1)">
       <defs>
        <path id="DejaVuSans-30" d="M 2034 4250 
Q 1547 4250 1301 3770 
Q 1056 3291 1056 2328 
Q 1056 1369 1301 889 
Q 1547 409 2034 409 
Q 2525 409 2770 889 
Q 3016 1369 3016 2328 
Q 3016 3291 2770 3770 
Q 2525 4250 2034 4250 
z
M 2034 4750 
Q 2819 4750 3233 4129 
Q 3647 3509 3647 2328 
Q 3647 1150 3233 529 
Q 2819 -91 2034 -91 
Q 1250 -91 836 529 
Q 422 1150 422 2328 
Q 422 3509 836 4129 
Q 1250 4750 2034 4750 
z
" transform="scale(0.015625)"/>
       </defs>
       <use xlink:href="#DejaVuSans-30"/>
      </g>
     </g>
    </g>
    <g id="xtick_2">
     <g id="line2d_3">
      <path d="M 361.385801 576.72 
L 361.385801 77.76 
" clip-path="url(#pa2a07b66a5)" style="fill: none; stroke: #b0b0b0; stroke-width: 0.8; stroke-linecap: square"/>
     </g>
     <g id="line2d_4">
      <g>
       <use xlink:href="#mb95473d7ca" x="361.385801" y="576.72" style="stroke: #000000; stroke-width: 0.8"/>
      </g>
     </g>
     <g id="text_2">
      <!-- 100 -->
      <g transform="translate(351.842051 591.318438)scale(0.1 -0.1)">
       <defs>
        <path id="DejaVuSans-31" d="M 794 531 
L 1825 531 
L 1825 4091 
L 703 3866 
L 703 4441 
L 1819 4666 
L 2450 4666 
L 2450 531 
L 3481 531 
L 3481 0 
L 794 0 
L 794 531 
z
" transform="scale(0.015625)"/>
       </defs>
       <use xlink:href="#DejaVuSans-31"/>
       <use xlink:href="#DejaVuSans-30" x="63.623047"/>
       <use xlink:href="#DejaVuSans-30" x="127.246094"/>
      </g>
     </g>
    </g>
    <g id="xtick_3">
     <g id="line2d_5">
      <path d="M 538.189784 576.72 
L 538.189784 77.76 
" clip-path="url(#pa2a07b66a5)" style="fill: none; stroke: #b0b0b0; stroke-width: 0.8; stroke-linecap: square"/>
     </g>
     <g id="line2d_6">
      <g>
       <use xlink:href="#mb95473d7ca" x="538.189784" y="576.72" style="stroke: #000000; stroke-width: 0.8"/>
      </g>
     </g>
     <g id="text_3">
      <!-- 200 -->
      <g transform="translate(528.646034 591.318438)scale(0.1 -0.1)">
       <defs>
        <path id="DejaVuSans-32" d="M 1228 531 
L 3431 531 
L 3431 0 
L 469 0 
L 469 531 
Q 828 903 1448 1529 
Q 2069 2156 2228 2338 
Q 2531 2678 2651 2914 
Q 2772 3150 2772 3378 
Q 2772 3750 2511 3984 
Q 2250 4219 1831 4219 
Q 1534 4219 1204 4116 
Q 875 4013 500 3803 
L 500 4441 
Q 881 4594 1212 4672 
Q 1544 4750 1819 4750 
Q 2544 4750 2975 4387 
Q 3406 4025 3406 3419 
Q 3406 3131 3298 2873 
Q 3191 2616 2906 2266 
Q 2828 2175 2409 1742 
Q 1991 1309 1228 531 
z
" transform="scale(0.015625)"/>
       </defs>
       <use xlink:href="#DejaVuSans-32"/>
       <use xlink:href="#DejaVuSans-30" x="63.623047"/>
       <use xlink:href="#DejaVuSans-30" x="127.246094"/>
      </g>
     </g>
    </g>
    <g id="xtick_4">
     <g id="line2d_7">
      <path d="M 714.993767 576.72 
L 714.993767 77.76 
" clip-path="url(#pa2a07b66a5)" style="fill: none; stroke: #b0b0b0; stroke-width: 0.8; stroke-linecap: square"/>
     </g>
     <g id="line2d_8">
      <g>
       <use xlink:href="#mb95473d7ca" x="714.993767" y="576.72" style="stroke: #000000; stroke-width: 0.8"/>
      </g>
     </g>
     <g id="text_4">
      <!-- 300 -->
      <g transform="translate(705.450017 591.318438)scale(0.1 -0.1)">
       <defs>
        <path id="DejaVuSans-33" d="M 2597 2516 
Q 3050 2419 3304 2112 
Q 3559 1806 3559 1356 
Q 3559 666 3084 287 
Q 2609 -91 1734 -91 
Q 1441 -91 1130 -33 
Q 819 25 488 141 
L 488 750 
Q 750 597 1062 519 
Q 1375 441 1716 441 
Q 2309 441 2620 675 
Q 2931 909 2931 1356 
Q 2931 1769 2642 2001 
Q 2353 2234 1838 2234 
L 1294 2234 
L 1294 2753 
L 1863 2753 
Q 2328 2753 2575 2939 
Q 2822 3125 2822 3475 
Q 2822 3834 2567 4026 
Q 2313 4219 1838 4219 
Q 1578 4219 1281 4162 
Q 984 4106 628 3988 
L 628 4550 
Q 988 4650 1302 4700 
Q 1616 4750 1894 4750 
Q 2613 4750 3031 4423 
Q 3450 4097 3450 3541 
Q 3450 3153 3228 2886 
Q 3006 2619 2597 2516 
z
" transform="scale(0.015625)"/>
       </defs>
       <use xlink:href="#DejaVuSans-33"/>
       <use xlink:href="#DejaVuSans-30" x="63.623047"/>
       <use xlink:href="#DejaVuSans-30" x="127.246094"/>
      </g>
     </g>
    </g>
    <g id="xtick_5">
     <g id="line2d_9">
      <path d="M 891.79775 576.72 
L 891.79775 77.76 
" clip-path="url(#pa2a07b66a5)" style="fill: none; stroke: #b0b0b0; stroke-width: 0.8; stroke-linecap: square"/>
     </g>
     <g id="line2d_10">
      <g>
       <use xlink:href="#mb95473d7ca" x="891.79775" y="576.72" style="stroke: #000000; stroke-width: 0.8"/>
      </g>
     </g>
     <g id="text_5">
      <!-- 400 -->
      <g transform="translate(882.254 591.318438)scale(0.1 -0.1)">
       <defs>
        <path id="DejaVuSans-34" d="M 2419 4116 
L 825 1625 
L 2419 1625 
L 2419 4116 
z
M 2253 4666 
L 3047 4666 
L 3047 1625 
L 3713 1625 
L 3713 1100 
L 3047 1100 
L 3047 0 
L 2419 0 
L 2419 1100 
L 313 1100 
L 313 1709 
L 2253 4666 
z
" transform="scale(0.015625)"/>
       </defs>
       <use xlink:href="#DejaVuSans-34"/>
       <use xlink:href="#DejaVuSans-30" x="63.623047"/>
       <use xlink:href="#DejaVuSans-30" x="127.246094"/>
      </g>
     </g>
    </g>
    <g id="text_6">
     <!-- Time (s) -->
     <g transform="translate(570.071094 604.996562)scale(0.1 -0.1)">
      <defs>
       <path id="DejaVuSans-54" d="M -19 4666 
L 3928 4666 
L 3928 4134 
L 2272 4134 
L 2272 0 
L 1638 0 
L 1638 4134 
L -19 4134 
L -19 4666 
z
" transform="scale(0.015625)"/>
       <path id="DejaVuSans-69" d="M 603 3500 
L 1178 3500 
L 1178 0 
L 603 0 
L 603 3500 
z
M 603 4863 
L 1178 4863 
L 1178 4134 
L 603 4134 
L 603 4863 
z
" transform="scale(0.015625)"/>
       <path id="DejaVuSans-6d" d="M 3328 2828 
Q 3544 3216 3844 3400 
Q 4144 3584 4550 3584 
Q 5097 3584 5394 3201 
Q 5691 2819 5691 2113 
L 5691 0 
L 5113 0 
L 5113 2094 
Q 5113 2597 4934 2840 
Q 4756 3084 4391 3084 
Q 3944 3084 3684 2787 
Q 3425 2491 3425 1978 
L 3425 0 
L 2847 0 
L 2847 2094 
Q 2847 2600 2669 2842 
Q 2491 3084 2119 3084 
Q 1678 3084 1418 2786 
Q 1159 2488 1159 1978 
L 1159 0 
L 581 0 
L 581 3500 
L 1159 3500 
L 1159 2956 
Q 1356 3278 1631 3431 
Q 1906 3584 2284 3584 
Q 2666 3584 2933 3390 
Q 3200 3197 3328 2828 
z
" transform="scale(0.015625)"/>
       <path id="DejaVuSans-65" d="M 3597 1894 
L 3597 1613 
L 953 1613 
Q 991 1019 1311 708 
Q 1631 397 2203 397 
Q 2534 397 2845 478 
Q 3156 559 3463 722 
L 3463 178 
Q 3153 47 2828 -22 
Q 2503 -91 2169 -91 
Q 1331 -91 842 396 
Q 353 884 353 1716 
Q 353 2575 817 3079 
Q 1281 3584 2069 3584 
Q 2775 3584 3186 3129 
Q 3597 2675 3597 1894 
z
M 3022 2063 
Q 3016 2534 2758 2815 
Q 2500 3097 2075 3097 
Q 1594 3097 1305 2825 
Q 1016 2553 972 2059 
L 3022 2063 
z
" transform="scale(0.015625)"/>
       <path id="DejaVuSans-20" transform="scale(0.015625)"/>
       <path id="DejaVuSans-28" d="M 1984 4856 
Q 1566 4138 1362 3434 
Q 1159 2731 1159 2009 
Q 1159 1288 1364 580 
Q 1569 -128 1984 -844 
L 1484 -844 
Q 1016 -109 783 600 
Q 550 1309 550 2009 
Q 550 2706 781 3412 
Q 1013 4119 1484 4856 
L 1984 4856 
z
" transform="scale(0.015625)"/>
       <path id="DejaVuSans-73" d="M 2834 3397 
L 2834 2853 
Q 2591 2978 2328 3040 
Q 2066 3103 1784 3103 
Q 1356 3103 1142 2972 
Q 928 2841 928 2578 
Q 928 2378 1081 2264 
Q 1234 2150 1697 2047 
L 1894 2003 
Q 2506 1872 2764 1633 
Q 3022 1394 3022 966 
Q 3022 478 2636 193 
Q 2250 -91 1575 -91 
Q 1294 -91 989 -36 
Q 684 19 347 128 
L 347 722 
Q 666 556 975 473 
Q 1284 391 1588 391 
Q 1994 391 2212 530 
Q 2431 669 2431 922 
Q 2431 1156 2273 1281 
Q 2116 1406 1581 1522 
L 1381 1569 
Q 847 1681 609 1914 
Q 372 2147 372 2553 
Q 372 3047 722 3315 
Q 1072 3584 1716 3584 
Q 2034 3584 2315 3537 
Q 2597 3491 2834 3397 
z
" transform="scale(0.015625)"/>
       <path id="DejaVuSans-29" d="M 513 4856 
L 1013 4856 
Q 1481 4119 1714 3412 
Q 1947 2706 1947 2009 
Q 1947 1309 1714 600 
Q 1481 -109 1013 -844 
L 513 -844 
Q 928 -128 1133 580 
Q 1338 1288 1338 2009 
Q 1338 2731 1133 3434 
Q 928 4138 513 4856 
z
" transform="scale(0.015625)"/>
      </defs>
      <use xlink:href="#DejaVuSans-54"/>
      <use xlink:href="#DejaVuSans-69" x="57.958984"/>
      <use xlink:href="#DejaVuSans-6d" x="85.742188"/>
      <use xlink:href="#DejaVuSans-65" x="183.154297"/>
      <use xlink:href="#DejaVuSans-20" x="244.677734"/>
      <use xlink:href="#DejaVuSans-28" x="276.464844"/>
      <use xlink:href="#DejaVuSans-73" x="315.478516"/>
      <use xlink:href="#DejaVuSans-29" x="367.578125"/>
     </g>
    </g>
   </g>
   <g id="matplotlib.axis_2">
    <g id="ytick_1">
     <g id="line2d_11">
      <path d="M 144 554.04 
L 1036.8 554.04 
" clip-path="url(#pa2a07b66a5)" style="fill: none; stroke: #b0b0b0; stroke-width: 0.8; stroke-linecap: square"/>
     </g>
     <g id="line2d_12">
      <defs>
       <path id="m059b95ac00" d="M 0 0 
L -3.5 0 
" style="stroke: #000000; stroke-width: 0.8"/>
      </defs>
      <g>
       <use xlink:href="#m059b95ac00" x="144" y="554.04" style="stroke: #000000; stroke-width: 0.8"/>
      </g>
     </g>
     <g id="text_7">
      <!-- 0 -->
      <g transform="translate(130.6375 557.839219)scale(0.1 -0.1)">
       <use xlink:href="#DejaVuSans-30"/>
      </g>
     </g>
    </g>
    <g id="ytick_2">
     <g id="line2d_13">
      <path d="M 144 461.615696 
L 1036.8 461.615696 
" clip-path="url(#pa2a07b66a5)" style="fill: none; stroke: #b0b0b0; stroke-width: 0.8; stroke-linecap: square"/>
     </g>
     <g id="line2d_14">
      <g>
       <use xlink:href="#m059b95ac00" x="144" y="461.615696" style="stroke: #000000; stroke-width: 0.8"/>
      </g>
     </g>
     <g id="text_8">
      <!-- 1 -->
      <g transform="translate(130.6375 465.414915)scale(0.1 -0.1)">
       <use xlink:href="#DejaVuSans-31"/>
      </g>
     </g>
    </g>
    <g id="ytick_3">
     <g id="line2d_15">
      <path d="M 144 369.191392 
L 1036.8 369.191392 
" clip-path="url(#pa2a07b66a5)" style="fill: none; stroke: #b0b0b0; stroke-width: 0.8; stroke-linecap: square"/>
     </g>
     <g id="line2d_16">
      <g>
       <use xlink:href="#m059b95ac00" x="144" y="369.191392" style="stroke: #000000; stroke-width: 0.8"/>
      </g>
     </g>
     <g id="text_9">
      <!-- 2 -->
      <g transform="translate(130.6375 372.99061)scale(0.1 -0.1)">
       <use xlink:href="#DejaVuSans-32"/>
      </g>
     </g>
    </g>
    <g id="ytick_4">
     <g id="line2d_17">
      <path d="M 144 276.767087 
L 1036.8 276.767087 
" clip-path="url(#pa2a07b66a5)" style="fill: none; stroke: #b0b0b0; stroke-width: 0.8; stroke-linecap: square"/>
     </g>
     <g id="line2d_18">
      <g>
       <use xlink:href="#m059b95ac00" x="144" y="276.767087" style="stroke: #000000; stroke-width: 0.8"/>
      </g>
     </g>
     <g id="text_10">
      <!-- 3 -->
      <g transform="translate(130.6375 280.566306)scale(0.1 -0.1)">
       <use xlink:href="#DejaVuSans-33"/>
      </g>
     </g>
    </g>
    <g id="ytick_5">
     <g id="line2d_19">
      <path d="M 144 184.342783 
L 1036.8 184.342783 
" clip-path="url(#pa2a07b66a5)" style="fill: none; stroke: #b0b0b0; stroke-width: 0.8; stroke-linecap: square"/>
     </g>
     <g id="line2d_20">
      <g>
       <use xlink:href="#m059b95ac00" x="144" y="184.342783" style="stroke: #000000; stroke-width: 0.8"/>
      </g>
     </g>
     <g id="text_11">
      <!-- 4 -->
      <g transform="translate(130.6375 188.142002)scale(0.1 -0.1)">
       <use xlink:href="#DejaVuSans-34"/>
      </g>
     </g>
    </g>
    <g id="ytick_6">
     <g id="line2d_21">
      <path d="M 144 91.918479 
L 1036.8 91.918479 
" clip-path="url(#pa2a07b66a5)" style="fill: none; stroke: #b0b0b0; stroke-width: 0.8; stroke-linecap: square"/>
     </g>
     <g id="line2d_22">
      <g>
       <use xlink:href="#m059b95ac00" x="144" y="91.918479" style="stroke: #000000; stroke-width: 0.8"/>
      </g>
     </g>
     <g id="text_12">
      <!-- 5 -->
      <g transform="translate(130.6375 95.717698)scale(0.1 -0.1)">
       <defs>
        <path id="DejaVuSans-35" d="M 691 4666 
L 3169 4666 
L 3169 4134 
L 1269 4134 
L 1269 2991 
Q 1406 3038 1543 3061 
Q 1681 3084 1819 3084 
Q 2600 3084 3056 2656 
Q 3513 2228 3513 1497 
Q 3513 744 3044 326 
Q 2575 -91 1722 -91 
Q 1428 -91 1123 -41 
Q 819 9 494 109 
L 494 744 
Q 775 591 1075 516 
Q 1375 441 1709 441 
Q 2250 441 2565 725 
Q 2881 1009 2881 1497 
Q 2881 1984 2565 2268 
Q 2250 2553 1709 2553 
Q 1456 2553 1204 2497 
Q 953 2441 691 2322 
L 691 4666 
z
" transform="scale(0.015625)"/>
       </defs>
       <use xlink:href="#DejaVuSans-35"/>
      </g>
     </g>
    </g>
    <g id="text_13">
     <!-- Boat Speed (kph) -->
     <g transform="translate(124.557812 370.747813)rotate(-90)scale(0.1 -0.1)">
      <defs>
       <path id="DejaVuSans-42" d="M 1259 2228 
L 1259 519 
L 2272 519 
Q 2781 519 3026 730 
Q 3272 941 3272 1375 
Q 3272 1813 3026 2020 
Q 2781 2228 2272 2228 
L 1259 2228 
z
M 1259 4147 
L 1259 2741 
L 2194 2741 
Q 2656 2741 2882 2914 
Q 3109 3088 3109 3444 
Q 3109 3797 2882 3972 
Q 2656 4147 2194 4147 
L 1259 4147 
z
M 628 4666 
L 2241 4666 
Q 2963 4666 3353 4366 
Q 3744 4066 3744 3513 
Q 3744 3084 3544 2831 
Q 3344 2578 2956 2516 
Q 3422 2416 3680 2098 
Q 3938 1781 3938 1306 
Q 3938 681 3513 340 
Q 3088 0 2303 0 
L 628 0 
L 628 4666 
z
" transform="scale(0.015625)"/>
       <path id="DejaVuSans-6f" d="M 1959 3097 
Q 1497 3097 1228 2736 
Q 959 2375 959 1747 
Q 959 1119 1226 758 
Q 1494 397 1959 397 
Q 2419 397 2687 759 
Q 2956 1122 2956 1747 
Q 2956 2369 2687 2733 
Q 2419 3097 1959 3097 
z
M 1959 3584 
Q 2709 3584 3137 3096 
Q 3566 2609 3566 1747 
Q 3566 888 3137 398 
Q 2709 -91 1959 -91 
Q 1206 -91 779 398 
Q 353 888 353 1747 
Q 353 2609 779 3096 
Q 1206 3584 1959 3584 
z
" transform="scale(0.015625)"/>
       <path id="DejaVuSans-61" d="M 2194 1759 
Q 1497 1759 1228 1600 
Q 959 1441 959 1056 
Q 959 750 1161 570 
Q 1363 391 1709 391 
Q 2188 391 2477 730 
Q 2766 1069 2766 1631 
L 2766 1759 
L 2194 1759 
z
M 3341 1997 
L 3341 0 
L 2766 0 
L 2766 531 
Q 2569 213 2275 61 
Q 1981 -91 1556 -91 
Q 1019 -91 701 211 
Q 384 513 384 1019 
Q 384 1609 779 1909 
Q 1175 2209 1959 2209 
L 2766 2209 
L 2766 2266 
Q 2766 2663 2505 2880 
Q 2244 3097 1772 3097 
Q 1472 3097 1187 3025 
Q 903 2953 641 2809 
L 641 3341 
Q 956 3463 1253 3523 
Q 1550 3584 1831 3584 
Q 2591 3584 2966 3190 
Q 3341 2797 3341 1997 
z
" transform="scale(0.015625)"/>
       <path id="DejaVuSans-74" d="M 1172 4494 
L 1172 3500 
L 2356 3500 
L 2356 3053 
L 1172 3053 
L 1172 1153 
Q 1172 725 1289 603 
Q 1406 481 1766 481 
L 2356 481 
L 2356 0 
L 1766 0 
Q 1100 0 847 248 
Q 594 497 594 1153 
L 594 3053 
L 172 3053 
L 172 3500 
L 594 3500 
L 594 4494 
L 1172 4494 
z
" transform="scale(0.015625)"/>
       <path id="DejaVuSans-53" d="M 3425 4513 
L 3425 3897 
Q 3066 4069 2747 4153 
Q 2428 4238 2131 4238 
Q 1616 4238 1336 4038 
Q 1056 3838 1056 3469 
Q 1056 3159 1242 3001 
Q 1428 2844 1947 2747 
L 2328 2669 
Q 3034 2534 3370 2195 
Q 3706 1856 3706 1288 
Q 3706 609 3251 259 
Q 2797 -91 1919 -91 
Q 1588 -91 1214 -16 
Q 841 59 441 206 
L 441 856 
Q 825 641 1194 531 
Q 1563 422 1919 422 
Q 2459 422 2753 634 
Q 3047 847 3047 1241 
Q 3047 1584 2836 1778 
Q 2625 1972 2144 2069 
L 1759 2144 
Q 1053 2284 737 2584 
Q 422 2884 422 3419 
Q 422 4038 858 4394 
Q 1294 4750 2059 4750 
Q 2388 4750 2728 4690 
Q 3069 4631 3425 4513 
z
" transform="scale(0.015625)"/>
       <path id="DejaVuSans-70" d="M 1159 525 
L 1159 -1331 
L 581 -1331 
L 581 3500 
L 1159 3500 
L 1159 2969 
Q 1341 3281 1617 3432 
Q 1894 3584 2278 3584 
Q 2916 3584 3314 3078 
Q 3713 2572 3713 1747 
Q 3713 922 3314 415 
Q 2916 -91 2278 -91 
Q 1894 -91 1617 61 
Q 1341 213 1159 525 
z
M 3116 1747 
Q 3116 2381 2855 2742 
Q 2594 3103 2138 3103 
Q 1681 3103 1420 2742 
Q 1159 2381 1159 1747 
Q 1159 1113 1420 752 
Q 1681 391 2138 391 
Q 2594 391 2855 752 
Q 3116 1113 3116 1747 
z
" transform="scale(0.015625)"/>
       <path id="DejaVuSans-64" d="M 2906 2969 
L 2906 4863 
L 3481 4863 
L 3481 0 
L 2906 0 
L 2906 525 
Q 2725 213 2448 61 
Q 2172 -91 1784 -91 
Q 1150 -91 751 415 
Q 353 922 353 1747 
Q 353 2572 751 3078 
Q 1150 3584 1784 3584 
Q 2172 3584 2448 3432 
Q 2725 3281 2906 2969 
z
M 947 1747 
Q 947 1113 1208 752 
Q 1469 391 1925 391 
Q 2381 391 2643 752 
Q 2906 1113 2906 1747 
Q 2906 2381 2643 2742 
Q 2381 3103 1925 3103 
Q 1469 3103 1208 2742 
Q 947 2381 947 1747 
z
" transform="scale(0.015625)"/>
       <path id="DejaVuSans-6b" d="M 581 4863 
L 1159 4863 
L 1159 1991 
L 2875 3500 
L 3609 3500 
L 1753 1863 
L 3688 0 
L 2938 0 
L 1159 1709 
L 1159 0 
L 581 0 
L 581 4863 
z
" transform="scale(0.015625)"/>
       <path id="DejaVuSans-68" d="M 3513 2113 
L 3513 0 
L 2938 0 
L 2938 2094 
Q 2938 2591 2744 2837 
Q 2550 3084 2163 3084 
Q 1697 3084 1428 2787 
Q 1159 2491 1159 1978 
L 1159 0 
L 581 0 
L 581 4863 
L 1159 4863 
L 1159 2956 
Q 1366 3272 1645 3428 
Q 1925 3584 2291 3584 
Q 2894 3584 3203 3211 
Q 3513 2838 3513 2113 
z
" transform="scale(0.015625)"/>
      </defs>
      <use xlink:href="#DejaVuSans-42"/>
      <use xlink:href="#DejaVuSans-6f" x="68.603516"/>
      <use xlink:href="#DejaVuSans-61" x="129.785156"/>
      <use xlink:href="#DejaVuSans-74" x="191.064453"/>
      <use xlink:href="#DejaVuSans-20" x="230.273438"/>
      <use xlink:href="#DejaVuSans-53" x="262.060547"/>
      <use xlink:href="#DejaVuSans-70" x="325.537109"/>
      <use xlink:href="#DejaVuSans-65" x="389.013672"/>
      <use xlink:href="#DejaVuSans-65" x="450.537109"/>
      <use xlink:href="#DejaVuSans-64" x="512.060547"/>
      <use xlink:href="#DejaVuSans-20" x="575.537109"/>
      <use xlink:href="#DejaVuSans-28" x="607.324219"/>
      <use xlink:href="#DejaVuSans-6b" x="646.337891"/>
      <use xlink:href="#DejaVuSans-70" x="704.248047"/>
      <use xlink:href="#DejaVuSans-68" x="767.724609"/>
      <use xlink:href="#DejaVuSans-29" x="831.103516"/>
     </g>
    </g>
   </g>
   <g id="line2d_23">
    <path d="M 184.581818 554.04 
L 662.737582 554.04 
L 662.894937 338.366038 
L 664.528606 338.366038 
L 664.687729 292.150189 
L 666.31963 292.150189 
L 666.471682 269.898113 
L 668.047005 269.898113 
L 668.199057 298.996981 
L 669.823885 298.996981 
L 669.984777 302.420377 
L 671.554796 302.420377 
L 671.706848 554.04 
L 692.776578 554.04 
L 692.921557 389.716981 
L 694.544618 389.716981 
L 694.701974 394.852075 
L 696.326802 394.852075 
L 696.477086 396.563774 
L 698.119595 396.563774 
L 698.269878 408.54566 
L 699.809841 408.54566 
L 699.968964 554.04 
L 713.98952 554.04 
L 714.141572 411.969057 
L 715.762864 411.969057 
L 715.921988 346.924528 
L 717.483167 346.924528 
L 717.635218 348.636226 
L 719.258279 348.636226 
L 719.41033 350.347925 
L 721.024551 350.347925 
L 721.181906 370.888302 
L 722.817343 370.888302 
L 722.969394 399.98717 
L 724.599527 399.98717 
L 724.74981 413.680755 
L 726.376407 413.680755 
L 726.531995 554.04 
L 737.037687 554.04 
L 737.187971 377.735094 
L 738.733237 377.735094 
L 738.888825 358.906415 
L 740.503045 358.906415 
L 740.653329 336.65434 
L 742.279925 336.65434 
L 742.423137 310.978868 
L 744.046197 310.978868 
L 744.205321 321.249057 
L 745.826613 321.249057 
L 745.976897 319.537358 
L 747.619406 319.537358 
L 747.771457 312.690566 
L 749.389214 312.690566 
L 749.544801 321.249057 
L 751.160789 321.249057 
L 751.316377 346.924528 
L 752.866948 346.924528 
L 753.026071 353.771321 
L 754.643828 353.771321 
L 754.802951 365.753208 
L 756.42778 365.753208 
L 756.585136 374.311698 
L 758.229413 374.311698 
L 758.379696 391.428679 
L 759.916123 391.428679 
L 760.073478 410.257358 
L 761.701843 410.257358 
L 761.852126 420.527547 
L 763.473419 420.527547 
L 763.632542 403.410566 
L 765.253835 403.410566 
L 765.414727 405.122264 
L 767.048395 405.122264 
L 767.198679 393.140377 
L 768.827043 393.140377 
L 768.977327 396.563774 
L 770.596851 396.563774 
L 770.752439 413.680755 
L 772.306546 413.680755 
L 772.458597 406.833962 
L 774.085194 406.833962 
L 774.242549 410.257358 
L 775.86561 410.257358 
L 776.024734 417.104151 
L 777.66017 417.104151 
L 777.810454 554.04 
L 788.225976 554.04 
L 788.379796 391.428679 
L 790.073578 391.428679 
L 790.223861 372.6 
L 791.783273 372.6 
L 791.942396 374.311698 
L 793.567225 374.311698 
L 793.717508 382.870189 
L 795.349409 382.870189 
L 795.499692 300.708679 
L 797.131593 300.708679 
L 797.287181 302.420377 
L 798.906705 302.420377 
L 799.056988 268.186415 
L 800.680049 268.186415 
L 800.8321 225.393962 
L 802.464001 225.393962 
L 802.619589 182.601509 
L 804.161319 182.601509 
L 804.311603 146.655849 
L 805.927591 146.655849 
L 806.086715 110.710189 
L 807.722152 110.710189 
L 807.875971 112.421887 
L 809.506104 112.421887 
L 809.658155 151.790943 
L 811.284752 151.790943 
L 811.442107 208.276981 
L 813.003287 208.276981 
L 813.155338 225.393962 
L 814.780167 225.393962 
L 814.93045 179.178113 
L 816.558815 179.178113 
L 816.71617 114.133585 
L 818.358679 114.133585 
L 818.516035 198.006792 
L 820.068374 198.006792 
L 820.220425 100.44 
L 821.841718 100.44 
L 822.014986 107.286792 
L 823.636278 107.286792 
L 823.791866 139.809057 
L 825.409622 139.809057 
L 825.559905 170.619623 
L 827.200646 170.619623 
L 827.358002 209.988679 
L 828.97399 209.988679 
L 829.124274 249.357736 
L 830.75087 249.357736 
L 830.901154 247.646038 
L 832.536591 247.646038 
L 832.692178 259.627925 
L 834.237445 259.627925 
L 834.387728 263.051321 
L 836.007253 263.051321 
L 836.164608 336.65434 
L 837.792973 336.65434 
L 837.945024 321.249057 
L 839.488523 321.249057 
L 839.645879 317.82566 
L 841.337893 317.82566 
L 841.489944 329.807547 
L 843.118309 329.807547 
L 843.268592 357.194717 
L 844.884581 357.194717 
L 845.040168 340.077736 
L 846.663229 340.077736 
L 846.813512 346.924528 
L 850.142731 346.924528 
L 850.294783 352.059623 
L 851.905467 352.059623 
L 852.062822 398.275472 
L 853.765445 398.275472 
L 853.921032 554.04 
L 857.227267 554.04 
L 857.395231 413.680755 
L 859.009451 413.680755 
L 859.166806 554.04 
L 862.481881 554.04 
L 862.637469 398.275472 
L 864.327715 398.275472 
L 864.477998 401.698868 
L 866.023265 401.698868 
L 866.182389 358.906415 
L 867.816057 358.906415 
L 867.971645 324.672453 
L 869.585865 324.672453 
L 869.736149 338.366038 
L 871.357441 338.366038 
L 871.516565 298.996981 
L 873.146697 298.996981 
L 873.302285 295.573585 
L 874.920041 295.573585 
L 875.070325 290.438491 
L 876.693385 290.438491 
L 876.850741 302.420377 
L 878.40308 302.420377 
L 878.555131 333.230943 
L 880.156975 333.230943 
L 880.316099 329.807547 
L 881.940928 329.807547 
L 882.098283 348.636226 
L 883.723112 348.636226 
L 883.875163 338.366038 
L 885.494688 338.366038 
L 885.653811 312.690566 
L 887.276872 312.690566 
L 887.446604 309.26717 
L 889.060824 309.26717 
L 889.211107 322.960755 
L 890.834168 322.960755 
L 890.991523 321.249057 
L 892.550935 321.249057 
L 892.701218 353.771321 
L 894.318974 353.771321 
L 894.47633 348.636226 
L 896.173648 348.636226 
L 896.339844 346.924528 
L 897.895719 346.924528 
L 898.046002 352.059623 
L 899.653151 352.059623 
L 899.810506 406.833962 
L 901.426494 406.833962 
L 901.58385 413.680755 
L 903.215751 413.680755 
L 903.366034 396.563774 
L 904.907765 396.563774 
L 905.066888 408.54566 
L 906.764207 408.54566 
L 906.921562 415.392453 
L 908.472133 415.392453 
L 908.625953 554.04 
L 943.802873 554.04 
L 943.954924 420.527547 
L 945.567377 420.527547 
L 945.722964 418.815849 
L 947.342489 418.815849 
L 947.498076 398.275472 
L 949.202467 398.275472 
L 949.358054 401.698868 
L 950.896249 401.698868 
L 951.0483 554.04 
L 954.439401 554.04 
L 954.594988 374.311698 
L 956.207441 374.311698 
L 956.359492 364.041509 
L 957.994929 364.041509 
L 958.14698 340.077736 
L 959.762969 340.077736 
L 959.918556 346.924528 
L 961.536313 346.924528 
L 961.6919 304.132075 
L 963.247775 304.132075 
L 963.399827 292.150189 
L 965.105985 292.150189 
L 965.256268 314.402264 
L 966.819216 314.402264 
L 966.976571 319.537358 
L 968.53775 319.537358 
L 968.689802 304.132075 
L 970.397728 304.132075 
L 970.548012 297.285283 
L 972.107423 297.285283 
L 972.259474 336.65434 
L 973.893143 336.65434 
L 974.050498 328.095849 
L 975.677095 328.095849 
L 975.834451 357.194717 
L 977.397398 357.194717 
L 977.547681 394.852075 
L 979.174278 394.852075 
L 979.331633 384.581887 
L 980.954694 384.581887 
L 981.113818 408.54566 
L 982.75279 408.54566 
L 982.904842 420.527547 
L 984.538511 420.527547 
L 984.688794 554.04 
L 996.218182 554.04 
L 996.218182 554.04 
" clip-path="url(#pa2a07b66a5)" style="fill: none; stroke: #1f77b4; stroke-width: 1.5; stroke-linecap: square"/>
   </g>
   <g id="patch_3">
    <path d="M 144 576.72 
L 144 77.76 
" style="fill: none; stroke: #000000; stroke-width: 0.8; stroke-linejoin: miter; stroke-linecap: square"/>
   </g>
   <g id="patch_4">
    <path d="M 1036.8 576.72 
L 1036.8 77.76 
" style="fill: none; stroke: #000000; stroke-width: 0.8; stroke-linejoin: miter; stroke-linecap: square"/>
   </g>
   <g id="patch_5">
    <path d="M 144 576.72 
L 1036.8 576.72 
" style="fill: none; stroke: #000000; stroke-width: 0.8; stroke-linejoin: miter; stroke-linecap: square"/>
   </g>
   <g id="patch_6">
    <path d="M 144 77.76 
L 1036.8 77.76 
" style="fill: none; stroke: #000000; stroke-width: 0.8; stroke-linejoin: miter; stroke-linecap: square"/>
   </g>
   <g id="text_14">
    <!-- Boat Speed vs Time -->
    <g transform="translate(530.694375 71.76)scale(0.12 -0.12)">
     <defs>
      <path id="DejaVuSans-76" d="M 191 3500 
L 800 3500 
L 1894 563 
L 2988 3500 
L 3597 3500 
L 2284 0 
L 1503 0 
L 191 3500 
z
" transform="scale(0.015625)"/>
     </defs>
     <use xlink:href="#DejaVuSans-42"/>
     <use xlink:href="#DejaVuSans-6f" x="68.603516"/>
     <use xlink:href="#DejaVuSans-61" x="129.785156"/>
     <use xlink:href="#DejaVuSans-74" x="191.064453"/>
     <use xlink:href="#DejaVuSans-20" x="230.273438"/>
     <use xlink:href="#DejaVuSans-53" x="262.060547"/>
     <use xlink:href="#DejaVuSans-70" x="325.537109"/>
     <use xlink:href="#DejaVuSans-65" x="389.013672"/>
     <use xlink:href="#DejaVuSans-65" x="450.537109"/>
     <use xlink:href="#DejaVuSans-64" x="512.060547"/>
     <use xlink:href="#DejaVuSans-20" x="575.537109"/>
     <use xlink:href="#DejaVuSans-76" x="607.324219"/>
     <use xlink:href="#DejaVuSans-73" x="666.503906"/>
     <use xlink:href="#DejaVuSans-20" x="718.603516"/>
     <use xlink:href="#DejaVuSans-54" x="750.390625"/>
     <use xlink:href="#DejaVuSans-69" x="808.349609"/>
     <use xlink:href="#DejaVuSans-6d" x="836.132812"/>
     <use xlink:href="#DejaVuSans-65" x="933.544922"/>
    </g>
   </g>
  </g>
 </g>
 <defs>
  <clipPath id="pa2a07b66a5">
   <rect x="144" y="77.76" width="892.8" height="498.96"/>
  </clipPath>
 </defs>
</svg>
