<?xml version="1.0" encoding="utf-8" standalone="no"?>
<!DOCTYPE svg PUBLIC "-//W3C//DTD SVG 1.1//EN"
  "http://www.w3.org/Graphics/SVG/1.1/DTD/svg11.dtd">
<svg xmlns:xlink="http://www.w3.org/1999/xlink" width="1152pt" height="648pt" viewBox="0 0 1152 648" xmlns="http://www.w3.org/2000/svg" version="1.1">
 <metadata>
  <rdf:RDF xmlns:dc="http://purl.org/dc/elements/1.1/" xmlns:cc="http://creativecommons.org/ns#" xmlns:rdf="http://www.w3.org/1999/02/22-rdf-syntax-ns#">
   <cc:Work>
    <dc:type rdf:resource="http://purl.org/dc/dcmitype/StillImage"/>
    <dc:date>2024-09-22T15:44:17.948714</dc:date>
    <dc:format>image/svg+xml</dc:format>
    <dc:creator>
     <cc:Agent>
      <dc:title>Matplotlib v3.5.1, https://matplotlib.org/</dc:title>
     </cc:Agent>
    </dc:creator>
   </cc:Work>
  </rdf:RDF>
 </metadata>
 <defs>
  <style type="text/css">*{stroke-linejoin: round; stroke-linecap: butt}</style>
 </defs>
 <g id="figure_1">
  <g id="patch_1">
   <path d="M 0 648 
L 1152 648 
L 1152 0 
L 0 0 
z
" style="fill: #ffffff"/>
  </g>
  <g id="axes_1">
   <g id="patch_2">
    <path d="M 144 576.72 
L 1036.8 576.72 
L 1036.8 77.76 
L 144 77.76 
z
" style="fill: #ffffff"/>
   </g>
   <g id="matplotlib.axis_1">
    <g id="xtick_1">
     <g id="line2d_1">
      <path d="M 184.581818 576.72 
L 184.581818 77.76 
" clip-path="url(#pfb1bf982a2)" style="fill: none; stroke: #b0b0b0; stroke-width: 0.8; stroke-linecap: square"/>
     </g>
     <g id="line2d_2">
      <defs>
       <path id="m0d656d6769" d="M 0 0 
L 0 3.5 
" style="stroke: #000000; stroke-width: 0.8"/>
      </defs>
      <g>
       <use xlink:href="#m0d656d6769" x="184.581818" y="576.72" style="stroke: #000000; stroke-width: 0.8"/>
      </g>
     </g>
     <g id="text_1">
      <!-- 0 -->
      <g transform="translate(181.400568 591.318438)scale(0.1 -0.1)">
       <defs>
        <path id="DejaVuSans-30" d="M 2034 4250 
Q 1547 4250 1301 3770 
Q 1056 3291 1056 2328 
Q 1056 1369 1301 889 
Q 1547 409 2034 409 
Q 2525 409 2770 889 
Q 3016 1369 3016 2328 
Q 3016 3291 2770 3770 
Q 2525 4250 2034 4250 
z
M 2034 4750 
Q 2819 4750 3233 4129 
Q 3647 3509 3647 2328 
Q 3647 1150 3233 529 
Q 2819 -91 2034 -91 
Q 1250 -91 836 529 
Q 422 1150 422 2328 
Q 422 3509 836 4129 
Q 1250 4750 2034 4750 
z
" transform="scale(0.015625)"/>
       </defs>
       <use xlink:href="#DejaVuSans-30"/>
      </g>
     </g>
    </g>
    <g id="xtick_2">
     <g id="line2d_3">
      <path d="M 361.385801 576.72 
L 361.385801 77.76 
" clip-path="url(#pfb1bf982a2)" style="fill: none; stroke: #b0b0b0; stroke-width: 0.8; stroke-linecap: square"/>
     </g>
     <g id="line2d_4">
      <g>
       <use xlink:href="#m0d656d6769" x="361.385801" y="576.72" style="stroke: #000000; stroke-width: 0.8"/>
      </g>
     </g>
     <g id="text_2">
      <!-- 100 -->
      <g transform="translate(351.842051 591.318438)scale(0.1 -0.1)">
       <defs>
        <path id="DejaVuSans-31" d="M 794 531 
L 1825 531 
L 1825 4091 
L 703 3866 
L 703 4441 
L 1819 4666 
L 2450 4666 
L 2450 531 
L 3481 531 
L 3481 0 
L 794 0 
L 794 531 
z
" transform="scale(0.015625)"/>
       </defs>
       <use xlink:href="#DejaVuSans-31"/>
       <use xlink:href="#DejaVuSans-30" x="63.623047"/>
       <use xlink:href="#DejaVuSans-30" x="127.246094"/>
      </g>
     </g>
    </g>
    <g id="xtick_3">
     <g id="line2d_5">
      <path d="M 538.189784 576.72 
L 538.189784 77.76 
" clip-path="url(#pfb1bf982a2)" style="fill: none; stroke: #b0b0b0; stroke-width: 0.8; stroke-linecap: square"/>
     </g>
     <g id="line2d_6">
      <g>
       <use xlink:href="#m0d656d6769" x="538.189784" y="576.72" style="stroke: #000000; stroke-width: 0.8"/>
      </g>
     </g>
     <g id="text_3">
      <!-- 200 -->
      <g transform="translate(528.646034 591.318438)scale(0.1 -0.1)">
       <defs>
        <path id="DejaVuSans-32" d="M 1228 531 
L 3431 531 
L 3431 0 
L 469 0 
L 469 531 
Q 828 903 1448 1529 
Q 2069 2156 2228 2338 
Q 2531 2678 2651 2914 
Q 2772 3150 2772 3378 
Q 2772 3750 2511 3984 
Q 2250 4219 1831 4219 
Q 1534 4219 1204 4116 
Q 875 4013 500 3803 
L 500 4441 
Q 881 4594 1212 4672 
Q 1544 4750 1819 4750 
Q 2544 4750 2975 4387 
Q 3406 4025 3406 3419 
Q 3406 3131 3298 2873 
Q 3191 2616 2906 2266 
Q 2828 2175 2409 1742 
Q 1991 1309 1228 531 
z
" transform="scale(0.015625)"/>
       </defs>
       <use xlink:href="#DejaVuSans-32"/>
       <use xlink:href="#DejaVuSans-30" x="63.623047"/>
       <use xlink:href="#DejaVuSans-30" x="127.246094"/>
      </g>
     </g>
    </g>
    <g id="xtick_4">
     <g id="line2d_7">
      <path d="M 714.993767 576.72 
L 714.993767 77.76 
" clip-path="url(#pfb1bf982a2)" style="fill: none; stroke: #b0b0b0; stroke-width: 0.8; stroke-linecap: square"/>
     </g>
     <g id="line2d_8">
      <g>
       <use xlink:href="#m0d656d6769" x="714.993767" y="576.72" style="stroke: #000000; stroke-width: 0.8"/>
      </g>
     </g>
     <g id="text_4">
      <!-- 300 -->
      <g transform="translate(705.450017 591.318438)scale(0.1 -0.1)">
       <defs>
        <path id="DejaVuSans-33" d="M 2597 2516 
Q 3050 2419 3304 2112 
Q 3559 1806 3559 1356 
Q 3559 666 3084 287 
Q 2609 -91 1734 -91 
Q 1441 -91 1130 -33 
Q 819 25 488 141 
L 488 750 
Q 750 597 1062 519 
Q 1375 441 1716 441 
Q 2309 441 2620 675 
Q 2931 909 2931 1356 
Q 2931 1769 2642 2001 
Q 2353 2234 1838 2234 
L 1294 2234 
L 1294 2753 
L 1863 2753 
Q 2328 2753 2575 2939 
Q 2822 3125 2822 3475 
Q 2822 3834 2567 4026 
Q 2313 4219 1838 4219 
Q 1578 4219 1281 4162 
Q 984 4106 628 3988 
L 628 4550 
Q 988 4650 1302 4700 
Q 1616 4750 1894 4750 
Q 2613 4750 3031 4423 
Q 3450 4097 3450 3541 
Q 3450 3153 3228 2886 
Q 3006 2619 2597 2516 
z
" transform="scale(0.015625)"/>
       </defs>
       <use xlink:href="#DejaVuSans-33"/>
       <use xlink:href="#DejaVuSans-30" x="63.623047"/>
       <use xlink:href="#DejaVuSans-30" x="127.246094"/>
      </g>
     </g>
    </g>
    <g id="xtick_5">
     <g id="line2d_9">
      <path d="M 891.79775 576.72 
L 891.79775 77.76 
" clip-path="url(#pfb1bf982a2)" style="fill: none; stroke: #b0b0b0; stroke-width: 0.8; stroke-linecap: square"/>
     </g>
     <g id="line2d_10">
      <g>
       <use xlink:href="#m0d656d6769" x="891.79775" y="576.72" style="stroke: #000000; stroke-width: 0.8"/>
      </g>
     </g>
     <g id="text_5">
      <!-- 400 -->
      <g transform="translate(882.254 591.318438)scale(0.1 -0.1)">
       <defs>
        <path id="DejaVuSans-34" d="M 2419 4116 
L 825 1625 
L 2419 1625 
L 2419 4116 
z
M 2253 4666 
L 3047 4666 
L 3047 1625 
L 3713 1625 
L 3713 1100 
L 3047 1100 
L 3047 0 
L 2419 0 
L 2419 1100 
L 313 1100 
L 313 1709 
L 2253 4666 
z
" transform="scale(0.015625)"/>
       </defs>
       <use xlink:href="#DejaVuSans-34"/>
       <use xlink:href="#DejaVuSans-30" x="63.623047"/>
       <use xlink:href="#DejaVuSans-30" x="127.246094"/>
      </g>
     </g>
    </g>
    <g id="text_6">
     <!-- Time (s) -->
     <g transform="translate(570.071094 604.996562)scale(0.1 -0.1)">
      <defs>
       <path id="DejaVuSans-54" d="M -19 4666 
L 3928 4666 
L 3928 4134 
L 2272 4134 
L 2272 0 
L 1638 0 
L 1638 4134 
L -19 4134 
L -19 4666 
z
" transform="scale(0.015625)"/>
       <path id="DejaVuSans-69" d="M 603 3500 
L 1178 3500 
L 1178 0 
L 603 0 
L 603 3500 
z
M 603 4863 
L 1178 4863 
L 1178 4134 
L 603 4134 
L 603 4863 
z
" transform="scale(0.015625)"/>
       <path id="DejaVuSans-6d" d="M 3328 2828 
Q 3544 3216 3844 3400 
Q 4144 3584 4550 3584 
Q 5097 3584 5394 3201 
Q 5691 2819 5691 2113 
L 5691 0 
L 5113 0 
L 5113 2094 
Q 5113 2597 4934 2840 
Q 4756 3084 4391 3084 
Q 3944 3084 3684 2787 
Q 3425 2491 3425 1978 
L 3425 0 
L 2847 0 
L 2847 2094 
Q 2847 2600 2669 2842 
Q 2491 3084 2119 3084 
Q 1678 3084 1418 2786 
Q 1159 2488 1159 1978 
L 1159 0 
L 581 0 
L 581 3500 
L 1159 3500 
L 1159 2956 
Q 1356 3278 1631 3431 
Q 1906 3584 2284 3584 
Q 2666 3584 2933 3390 
Q 3200 3197 3328 2828 
z
" transform="scale(0.015625)"/>
       <path id="DejaVuSans-65" d="M 3597 1894 
L 3597 1613 
L 953 1613 
Q 991 1019 1311 708 
Q 1631 397 2203 397 
Q 2534 397 2845 478 
Q 3156 559 3463 722 
L 3463 178 
Q 3153 47 2828 -22 
Q 2503 -91 2169 -91 
Q 1331 -91 842 396 
Q 353 884 353 1716 
Q 353 2575 817 3079 
Q 1281 3584 2069 3584 
Q 2775 3584 3186 3129 
Q 3597 2675 3597 1894 
z
M 3022 2063 
Q 3016 2534 2758 2815 
Q 2500 3097 2075 3097 
Q 1594 3097 1305 2825 
Q 1016 2553 972 2059 
L 3022 2063 
z
" transform="scale(0.015625)"/>
       <path id="DejaVuSans-20" transform="scale(0.015625)"/>
       <path id="DejaVuSans-28" d="M 1984 4856 
Q 1566 4138 1362 3434 
Q 1159 2731 1159 2009 
Q 1159 1288 1364 580 
Q 1569 -128 1984 -844 
L 1484 -844 
Q 1016 -109 783 600 
Q 550 1309 550 2009 
Q 550 2706 781 3412 
Q 1013 4119 1484 4856 
L 1984 4856 
z
" transform="scale(0.015625)"/>
       <path id="DejaVuSans-73" d="M 2834 3397 
L 2834 2853 
Q 2591 2978 2328 3040 
Q 2066 3103 1784 3103 
Q 1356 3103 1142 2972 
Q 928 2841 928 2578 
Q 928 2378 1081 2264 
Q 1234 2150 1697 2047 
L 1894 2003 
Q 2506 1872 2764 1633 
Q 3022 1394 3022 966 
Q 3022 478 2636 193 
Q 2250 -91 1575 -91 
Q 1294 -91 989 -36 
Q 684 19 347 128 
L 347 722 
Q 666 556 975 473 
Q 1284 391 1588 391 
Q 1994 391 2212 530 
Q 2431 669 2431 922 
Q 2431 1156 2273 1281 
Q 2116 1406 1581 1522 
L 1381 1569 
Q 847 1681 609 1914 
Q 372 2147 372 2553 
Q 372 3047 722 3315 
Q 1072 3584 1716 3584 
Q 2034 3584 2315 3537 
Q 2597 3491 2834 3397 
z
" transform="scale(0.015625)"/>
       <path id="DejaVuSans-29" d="M 513 4856 
L 1013 4856 
Q 1481 4119 1714 3412 
Q 1947 2706 1947 2009 
Q 1947 1309 1714 600 
Q 1481 -109 1013 -844 
L 513 -844 
Q 928 -128 1133 580 
Q 1338 1288 1338 2009 
Q 1338 2731 1133 3434 
Q 928 4138 513 4856 
z
" transform="scale(0.015625)"/>
      </defs>
      <use xlink:href="#DejaVuSans-54"/>
      <use xlink:href="#DejaVuSans-69" x="57.958984"/>
      <use xlink:href="#DejaVuSans-6d" x="85.742188"/>
      <use xlink:href="#DejaVuSans-65" x="183.154297"/>
      <use xlink:href="#DejaVuSans-20" x="244.677734"/>
      <use xlink:href="#DejaVuSans-28" x="276.464844"/>
      <use xlink:href="#DejaVuSans-73" x="315.478516"/>
      <use xlink:href="#DejaVuSans-29" x="367.578125"/>
     </g>
    </g>
   </g>
   <g id="matplotlib.axis_2">
    <g id="ytick_1">
     <g id="line2d_11">
      <path d="M 144 554.04 
L 1036.8 554.04 
" clip-path="url(#pfb1bf982a2)" style="fill: none; stroke: #b0b0b0; stroke-width: 0.8; stroke-linecap: square"/>
     </g>
     <g id="line2d_12">
      <defs>
       <path id="mb974e3b71c" d="M 0 0 
L -3.5 0 
" style="stroke: #000000; stroke-width: 0.8"/>
      </defs>
      <g>
       <use xlink:href="#mb974e3b71c" x="144" y="554.04" style="stroke: #000000; stroke-width: 0.8"/>
      </g>
     </g>
     <g id="text_7">
      <!-- 0.0 -->
      <g transform="translate(121.096875 557.839219)scale(0.1 -0.1)">
       <defs>
        <path id="DejaVuSans-2e" d="M 684 794 
L 1344 794 
L 1344 0 
L 684 0 
L 684 794 
z
" transform="scale(0.015625)"/>
       </defs>
       <use xlink:href="#DejaVuSans-30"/>
       <use xlink:href="#DejaVuSans-2e" x="63.623047"/>
       <use xlink:href="#DejaVuSans-30" x="95.410156"/>
      </g>
     </g>
    </g>
    <g id="ytick_2">
     <g id="line2d_13">
      <path d="M 144 463.32 
L 1036.8 463.32 
" clip-path="url(#pfb1bf982a2)" style="fill: none; stroke: #b0b0b0; stroke-width: 0.8; stroke-linecap: square"/>
     </g>
     <g id="line2d_14">
      <g>
       <use xlink:href="#mb974e3b71c" x="144" y="463.32" style="stroke: #000000; stroke-width: 0.8"/>
      </g>
     </g>
     <g id="text_8">
      <!-- 0.2 -->
      <g transform="translate(121.096875 467.119219)scale(0.1 -0.1)">
       <use xlink:href="#DejaVuSans-30"/>
       <use xlink:href="#DejaVuSans-2e" x="63.623047"/>
       <use xlink:href="#DejaVuSans-32" x="95.410156"/>
      </g>
     </g>
    </g>
    <g id="ytick_3">
     <g id="line2d_15">
      <path d="M 144 372.6 
L 1036.8 372.6 
" clip-path="url(#pfb1bf982a2)" style="fill: none; stroke: #b0b0b0; stroke-width: 0.8; stroke-linecap: square"/>
     </g>
     <g id="line2d_16">
      <g>
       <use xlink:href="#mb974e3b71c" x="144" y="372.6" style="stroke: #000000; stroke-width: 0.8"/>
      </g>
     </g>
     <g id="text_9">
      <!-- 0.4 -->
      <g transform="translate(121.096875 376.399219)scale(0.1 -0.1)">
       <use xlink:href="#DejaVuSans-30"/>
       <use xlink:href="#DejaVuSans-2e" x="63.623047"/>
       <use xlink:href="#DejaVuSans-34" x="95.410156"/>
      </g>
     </g>
    </g>
    <g id="ytick_4">
     <g id="line2d_17">
      <path d="M 144 281.88 
L 1036.8 281.88 
" clip-path="url(#pfb1bf982a2)" style="fill: none; stroke: #b0b0b0; stroke-width: 0.8; stroke-linecap: square"/>
     </g>
     <g id="line2d_18">
      <g>
       <use xlink:href="#mb974e3b71c" x="144" y="281.88" style="stroke: #000000; stroke-width: 0.8"/>
      </g>
     </g>
     <g id="text_10">
      <!-- 0.6 -->
      <g transform="translate(121.096875 285.679219)scale(0.1 -0.1)">
       <defs>
        <path id="DejaVuSans-36" d="M 2113 2584 
Q 1688 2584 1439 2293 
Q 1191 2003 1191 1497 
Q 1191 994 1439 701 
Q 1688 409 2113 409 
Q 2538 409 2786 701 
Q 3034 994 3034 1497 
Q 3034 2003 2786 2293 
Q 2538 2584 2113 2584 
z
M 3366 4563 
L 3366 3988 
Q 3128 4100 2886 4159 
Q 2644 4219 2406 4219 
Q 1781 4219 1451 3797 
Q 1122 3375 1075 2522 
Q 1259 2794 1537 2939 
Q 1816 3084 2150 3084 
Q 2853 3084 3261 2657 
Q 3669 2231 3669 1497 
Q 3669 778 3244 343 
Q 2819 -91 2113 -91 
Q 1303 -91 875 529 
Q 447 1150 447 2328 
Q 447 3434 972 4092 
Q 1497 4750 2381 4750 
Q 2619 4750 2861 4703 
Q 3103 4656 3366 4563 
z
" transform="scale(0.015625)"/>
       </defs>
       <use xlink:href="#DejaVuSans-30"/>
       <use xlink:href="#DejaVuSans-2e" x="63.623047"/>
       <use xlink:href="#DejaVuSans-36" x="95.410156"/>
      </g>
     </g>
    </g>
    <g id="ytick_5">
     <g id="line2d_19">
      <path d="M 144 191.16 
L 1036.8 191.16 
" clip-path="url(#pfb1bf982a2)" style="fill: none; stroke: #b0b0b0; stroke-width: 0.8; stroke-linecap: square"/>
     </g>
     <g id="line2d_20">
      <g>
       <use xlink:href="#mb974e3b71c" x="144" y="191.16" style="stroke: #000000; stroke-width: 0.8"/>
      </g>
     </g>
     <g id="text_11">
      <!-- 0.8 -->
      <g transform="translate(121.096875 194.959219)scale(0.1 -0.1)">
       <defs>
        <path id="DejaVuSans-38" d="M 2034 2216 
Q 1584 2216 1326 1975 
Q 1069 1734 1069 1313 
Q 1069 891 1326 650 
Q 1584 409 2034 409 
Q 2484 409 2743 651 
Q 3003 894 3003 1313 
Q 3003 1734 2745 1975 
Q 2488 2216 2034 2216 
z
M 1403 2484 
Q 997 2584 770 2862 
Q 544 3141 544 3541 
Q 544 4100 942 4425 
Q 1341 4750 2034 4750 
Q 2731 4750 3128 4425 
Q 3525 4100 3525 3541 
Q 3525 3141 3298 2862 
Q 3072 2584 2669 2484 
Q 3125 2378 3379 2068 
Q 3634 1759 3634 1313 
Q 3634 634 3220 271 
Q 2806 -91 2034 -91 
Q 1263 -91 848 271 
Q 434 634 434 1313 
Q 434 1759 690 2068 
Q 947 2378 1403 2484 
z
M 1172 3481 
Q 1172 3119 1398 2916 
Q 1625 2713 2034 2713 
Q 2441 2713 2670 2916 
Q 2900 3119 2900 3481 
Q 2900 3844 2670 4047 
Q 2441 4250 2034 4250 
Q 1625 4250 1398 4047 
Q 1172 3844 1172 3481 
z
" transform="scale(0.015625)"/>
       </defs>
       <use xlink:href="#DejaVuSans-30"/>
       <use xlink:href="#DejaVuSans-2e" x="63.623047"/>
       <use xlink:href="#DejaVuSans-38" x="95.410156"/>
      </g>
     </g>
    </g>
    <g id="ytick_6">
     <g id="line2d_21">
      <path d="M 144 100.44 
L 1036.8 100.44 
" clip-path="url(#pfb1bf982a2)" style="fill: none; stroke: #b0b0b0; stroke-width: 0.8; stroke-linecap: square"/>
     </g>
     <g id="line2d_22">
      <g>
       <use xlink:href="#mb974e3b71c" x="144" y="100.44" style="stroke: #000000; stroke-width: 0.8"/>
      </g>
     </g>
     <g id="text_12">
      <!-- 1.0 -->
      <g transform="translate(121.096875 104.239219)scale(0.1 -0.1)">
       <use xlink:href="#DejaVuSans-31"/>
       <use xlink:href="#DejaVuSans-2e" x="63.623047"/>
       <use xlink:href="#DejaVuSans-30" x="95.410156"/>
      </g>
     </g>
    </g>
    <g id="text_13">
     <!-- Command (%) -->
     <g transform="translate(115.017187 363.179844)rotate(-90)scale(0.1 -0.1)">
      <defs>
       <path id="DejaVuSans-43" d="M 4122 4306 
L 4122 3641 
Q 3803 3938 3442 4084 
Q 3081 4231 2675 4231 
Q 1875 4231 1450 3742 
Q 1025 3253 1025 2328 
Q 1025 1406 1450 917 
Q 1875 428 2675 428 
Q 3081 428 3442 575 
Q 3803 722 4122 1019 
L 4122 359 
Q 3791 134 3420 21 
Q 3050 -91 2638 -91 
Q 1578 -91 968 557 
Q 359 1206 359 2328 
Q 359 3453 968 4101 
Q 1578 4750 2638 4750 
Q 3056 4750 3426 4639 
Q 3797 4528 4122 4306 
z
" transform="scale(0.015625)"/>
       <path id="DejaVuSans-6f" d="M 1959 3097 
Q 1497 3097 1228 2736 
Q 959 2375 959 1747 
Q 959 1119 1226 758 
Q 1494 397 1959 397 
Q 2419 397 2687 759 
Q 2956 1122 2956 1747 
Q 2956 2369 2687 2733 
Q 2419 3097 1959 3097 
z
M 1959 3584 
Q 2709 3584 3137 3096 
Q 3566 2609 3566 1747 
Q 3566 888 3137 398 
Q 2709 -91 1959 -91 
Q 1206 -91 779 398 
Q 353 888 353 1747 
Q 353 2609 779 3096 
Q 1206 3584 1959 3584 
z
" transform="scale(0.015625)"/>
       <path id="DejaVuSans-61" d="M 2194 1759 
Q 1497 1759 1228 1600 
Q 959 1441 959 1056 
Q 959 750 1161 570 
Q 1363 391 1709 391 
Q 2188 391 2477 730 
Q 2766 1069 2766 1631 
L 2766 1759 
L 2194 1759 
z
M 3341 1997 
L 3341 0 
L 2766 0 
L 2766 531 
Q 2569 213 2275 61 
Q 1981 -91 1556 -91 
Q 1019 -91 701 211 
Q 384 513 384 1019 
Q 384 1609 779 1909 
Q 1175 2209 1959 2209 
L 2766 2209 
L 2766 2266 
Q 2766 2663 2505 2880 
Q 2244 3097 1772 3097 
Q 1472 3097 1187 3025 
Q 903 2953 641 2809 
L 641 3341 
Q 956 3463 1253 3523 
Q 1550 3584 1831 3584 
Q 2591 3584 2966 3190 
Q 3341 2797 3341 1997 
z
" transform="scale(0.015625)"/>
       <path id="DejaVuSans-6e" d="M 3513 2113 
L 3513 0 
L 2938 0 
L 2938 2094 
Q 2938 2591 2744 2837 
Q 2550 3084 2163 3084 
Q 1697 3084 1428 2787 
Q 1159 2491 1159 1978 
L 1159 0 
L 581 0 
L 581 3500 
L 1159 3500 
L 1159 2956 
Q 1366 3272 1645 3428 
Q 1925 3584 2291 3584 
Q 2894 3584 3203 3211 
Q 3513 2838 3513 2113 
z
" transform="scale(0.015625)"/>
       <path id="DejaVuSans-64" d="M 2906 2969 
L 2906 4863 
L 3481 4863 
L 3481 0 
L 2906 0 
L 2906 525 
Q 2725 213 2448 61 
Q 2172 -91 1784 -91 
Q 1150 -91 751 415 
Q 353 922 353 1747 
Q 353 2572 751 3078 
Q 1150 3584 1784 3584 
Q 2172 3584 2448 3432 
Q 2725 3281 2906 2969 
z
M 947 1747 
Q 947 1113 1208 752 
Q 1469 391 1925 391 
Q 2381 391 2643 752 
Q 2906 1113 2906 1747 
Q 2906 2381 2643 2742 
Q 2381 3103 1925 3103 
Q 1469 3103 1208 2742 
Q 947 2381 947 1747 
z
" transform="scale(0.015625)"/>
       <path id="DejaVuSans-25" d="M 4653 2053 
Q 4381 2053 4226 1822 
Q 4072 1591 4072 1178 
Q 4072 772 4226 539 
Q 4381 306 4653 306 
Q 4919 306 5073 539 
Q 5228 772 5228 1178 
Q 5228 1588 5073 1820 
Q 4919 2053 4653 2053 
z
M 4653 2450 
Q 5147 2450 5437 2106 
Q 5728 1763 5728 1178 
Q 5728 594 5436 251 
Q 5144 -91 4653 -91 
Q 4153 -91 3862 251 
Q 3572 594 3572 1178 
Q 3572 1766 3864 2108 
Q 4156 2450 4653 2450 
z
M 1428 4353 
Q 1159 4353 1004 4120 
Q 850 3888 850 3481 
Q 850 3069 1003 2837 
Q 1156 2606 1428 2606 
Q 1700 2606 1854 2837 
Q 2009 3069 2009 3481 
Q 2009 3884 1853 4118 
Q 1697 4353 1428 4353 
z
M 4250 4750 
L 4750 4750 
L 1831 -91 
L 1331 -91 
L 4250 4750 
z
M 1428 4750 
Q 1922 4750 2215 4408 
Q 2509 4066 2509 3481 
Q 2509 2891 2217 2550 
Q 1925 2209 1428 2209 
Q 931 2209 642 2551 
Q 353 2894 353 3481 
Q 353 4063 643 4406 
Q 934 4750 1428 4750 
z
" transform="scale(0.015625)"/>
      </defs>
      <use xlink:href="#DejaVuSans-43"/>
      <use xlink:href="#DejaVuSans-6f" x="69.824219"/>
      <use xlink:href="#DejaVuSans-6d" x="131.005859"/>
      <use xlink:href="#DejaVuSans-6d" x="228.417969"/>
      <use xlink:href="#DejaVuSans-61" x="325.830078"/>
      <use xlink:href="#DejaVuSans-6e" x="387.109375"/>
      <use xlink:href="#DejaVuSans-64" x="450.488281"/>
      <use xlink:href="#DejaVuSans-20" x="513.964844"/>
      <use xlink:href="#DejaVuSans-28" x="545.751953"/>
      <use xlink:href="#DejaVuSans-25" x="584.765625"/>
      <use xlink:href="#DejaVuSans-29" x="679.785156"/>
     </g>
    </g>
   </g>
   <g id="line2d_23">
    <path d="M 144 100.44 
L 1036.8 100.44 
" clip-path="url(#pfb1bf982a2)" style="fill: none; stroke-dasharray: 10.5,4.5; stroke-dashoffset: 0; stroke: #808080; stroke-width: 1.5"/>
   </g>
   <g id="line2d_24">
    <path d="M 144 554.04 
L 1036.8 554.04 
" clip-path="url(#pfb1bf982a2)" style="fill: none; stroke-dasharray: 10.5,4.5; stroke-dashoffset: 0; stroke: #808080; stroke-width: 1.5"/>
   </g>
   <g id="line2d_25">
    <path d="M 184.581818 363.9816 
L 184.806359 357.1776 
L 184.882385 357.1776 
L 185.191792 353.0952 
L 185.575457 353.0952 
L 185.73458 351.7344 
L 235.575623 351.7344 
L 235.725906 353.0952 
L 244.790646 353.0952 
L 244.946234 354.456 
L 247.545253 354.456 
L 247.693768 353.0952 
L 265.630532 353.0952 
L 265.630532 353.0952 
" clip-path="url(#pfb1bf982a2)" style="fill: none; stroke: #0000ff; stroke-width: 1.5; stroke-linecap: square"/>
   </g>
   <g id="line2d_26">
    <path d="M 184.581818 549.504 
L 184.728565 535.4424 
L 184.965483 485.5464 
L 185.575457 311.364 
L 185.808838 272.808 
L 186.038683 240.1488 
L 186.344554 208.8504 
L 186.804244 184.8096 
L 186.885574 184.8096 
L 187.194981 171.2016 
L 187.42129 171.2016 
L 187.576878 167.1192 
L 187.810259 167.1192 
L 187.958774 163.0368 
L 188.499794 163.0368 
L 188.651846 158.9544 
L 190.257226 158.9544 
L 190.412814 163.0368 
L 192.336441 163.0368 
L 192.486724 158.9544 
L 202.725443 158.9544 
L 202.884566 163.0368 
L 202.960592 158.9544 
L 203.03485 163.0368 
L 203.112644 158.9544 
L 203.269999 163.0368 
L 219.005554 163.0368 
L 219.162909 158.9544 
L 232.041311 158.9544 
L 232.189827 154.872 
L 233.724485 154.872 
L 233.878305 151.2432 
L 234.258433 151.2432 
L 234.410485 147.1608 
L 234.580216 147.1608 
L 234.732268 140.3568 
L 234.806526 140.3568 
L 235.725906 102.708 
L 235.809004 102.2544 
L 235.955751 100.44 
L 236.268695 100.44 
L 236.959998 104.0688 
L 237.03956 104.0688 
L 237.188075 104.976 
L 237.341895 104.976 
L 237.49041 106.3368 
L 238.029662 106.3368 
L 238.179946 108.1512 
L 244.790646 108.1512 
L 244.946234 109.512 
L 247.393201 109.512 
L 247.545253 111.3264 
L 247.61951 111.3264 
L 247.921845 117.6768 
L 248.301974 117.6768 
L 248.459329 119.9448 
L 248.844762 119.9448 
L 248.996813 125.388 
L 252.304816 125.388 
L 252.456867 128.1096 
L 252.536429 128.1096 
L 252.68848 134.46 
L 253.075681 134.46 
L 253.231269 140.8104 
L 253.765217 140.8104 
L 253.998598 148.068 
L 254.074624 148.068 
L 254.613876 168.0264 
L 254.688133 168.0264 
L 254.841953 172.1088 
L 254.916211 172.1088 
L 255.082406 176.6448 
L 255.381205 163.944 
L 255.538561 163.944 
L 255.690612 155.7792 
L 255.849736 155.7792 
L 256.000019 163.944 
L 256.843374 209.7576 
L 257.529373 257.3856 
L 257.684961 257.3856 
L 257.913038 268.272 
L 258.070394 268.272 
L 258.218909 273.7152 
L 258.300239 273.7152 
L 259.136522 215.2008 
L 260.13016 273.7152 
L 260.37415 273.7152 
L 260.529737 268.272 
L 260.678252 268.272 
L 260.835608 273.7152 
L 260.911634 273.7152 
L 261.061917 279.612 
L 261.295298 279.612 
L 261.454422 285.0552 
L 261.604705 285.0552 
L 261.760293 290.4984 
L 262.212911 290.4984 
L 262.36673 295.9416 
L 262.900678 295.9416 
L 263.132292 285.0552 
L 263.208317 285.0552 
L 263.441699 273.7152 
L 263.515956 273.7152 
L 263.894317 241.056 
L 264.589156 163.944 
L 264.665182 163.944 
L 264.815466 155.7792 
L 264.972821 163.944 
L 265.047079 163.944 
L 265.439584 190.2528 
L 265.513841 195.2424 
L 265.630532 195.2424 
L 265.630532 195.2424 
" clip-path="url(#pfb1bf982a2)" style="fill: none; stroke-dasharray: 15,4.5; stroke-dashoffset: 0; stroke: #ffa500; stroke-width: 1.5"/>
   </g>
   <g id="line2d_27">
    <path d="M 265.630532 353.0952 
L 635.766134 353.0952 
L 635.843928 359.4456 
L 635.843928 359.4456 
" clip-path="url(#pfb1bf982a2)" style="fill: none; stroke-dasharray: 9.6,2.4,1.5,2.4; stroke-dashoffset: 0; stroke: #ff00ff; stroke-width: 1.5"/>
   </g>
   <g id="line2d_28">
    <path d="M 265.630532 195.2424 
L 635.766134 195.2424 
L 635.843928 240.1488 
L 635.843928 240.1488 
" clip-path="url(#pfb1bf982a2)" style="fill: none; stroke-dasharray: 9.6,2.4,1.5,2.4; stroke-dashoffset: 0; stroke: #ff00ff; stroke-width: 1.5"/>
   </g>
   <g id="line2d_29">
    <path d="M 635.843928 359.4456 
L 636.305386 359.4456 
L 636.475118 358.0848 
L 637.926679 358.0848 
L 638.084034 357.1776 
L 638.766498 357.1776 
L 638.915013 355.8168 
L 641.609506 355.8168 
L 641.758021 361.26 
L 643.131788 442.0008 
L 643.814251 459.6912 
L 644.116586 464.6808 
L 644.337591 466.9488 
L 644.494947 355.8168 
L 647.03562 355.8168 
L 647.184135 354.456 
L 647.643826 354.456 
L 647.792341 353.0952 
L 648.259103 353.0952 
L 648.411155 351.7344 
L 648.487181 351.7344 
L 648.646304 350.8272 
L 649.026433 350.8272 
L 649.18202 351.7344 
L 649.404793 351.7344 
L 649.560381 353.0952 
L 649.793762 353.0952 
L 649.945813 354.456 
L 650.569931 354.456 
L 650.723751 355.8168 
L 651.881817 355.8168 
L 652.039173 357.1776 
L 652.801198 357.1776 
L 652.958553 358.0848 
L 653.107069 358.0848 
L 653.262656 357.1776 
L 654.258063 357.1776 
L 654.406578 358.0848 
L 654.480836 358.0848 
L 654.712449 360.8064 
L 654.868036 360.8064 
L 655.096113 363.0744 
L 655.177443 363.0744 
L 655.564644 368.5176 
L 655.64067 368.5176 
L 656.024334 372.1464 
L 656.105664 372.1464 
L 656.254179 373.5072 
L 656.330205 373.5072 
L 657.116983 383.4864 
L 657.955034 396.1872 
L 658.03106 396.1872 
L 658.49075 401.1768 
L 659.18559 401.1768 
L 659.337641 399.816 
L 659.641744 399.816 
L 659.797331 401.1768 
L 659.945847 401.1768 
L 660.101434 402.5376 
L 660.251718 402.5376 
L 660.409073 403.4448 
L 660.71848 403.4448 
L 660.870531 402.5376 
L 661.027887 402.5376 
L 661.17817 401.1768 
L 661.484041 401.1768 
L 661.653773 399.816 
L 662.111695 399.816 
L 662.270819 387.5688 
L 662.424638 387.5688 
L 662.659788 384.8472 
L 662.737582 384.8472 
L 662.970963 382.5792 
L 663.046989 382.5792 
L 663.204344 381.2184 
L 663.7489 381.2184 
L 663.976977 384.8472 
L 664.763755 384.8472 
L 664.914039 386.208 
L 664.995368 386.208 
L 665.531084 393.9192 
L 665.691976 396.1872 
L 665.845796 402.5376 
L 666.082713 407.5272 
L 666.471682 417.5064 
L 667.650964 448.8048 
L 667.732294 448.8048 
L 667.963907 451.0728 
L 668.047005 451.0728 
L 668.273314 453.7944 
L 668.354644 453.7944 
L 668.504927 455.1552 
L 668.580953 455.1552 
L 668.738309 456.0624 
L 669.045948 456.0624 
L 669.197999 455.1552 
L 669.279329 456.0624 
L 669.59404 451.98 
L 669.670066 451.98 
L 669.984777 446.9904 
L 671.477002 422.0424 
L 671.554796 422.0424 
L 672.249636 411.6096 
L 672.323893 411.6096 
L 672.948012 405.2592 
L 673.025805 405.2592 
L 673.259187 402.5376 
L 673.33698 402.5376 
L 673.570362 400.2696 
L 673.646387 400.2696 
L 673.876232 397.548 
L 673.952258 397.548 
L 674.183871 395.28 
L 674.334155 395.28 
L 674.571072 393.012 
L 674.647098 393.012 
L 674.882247 390.2904 
L 675.036067 390.2904 
L 675.271216 388.0224 
L 675.428571 388.0224 
L 675.578855 386.6616 
L 675.654881 386.6616 
L 675.812236 385.3008 
L 675.886494 385.3008 
L 676.043849 383.94 
L 676.119875 383.94 
L 676.271926 382.5792 
L 676.372705 382.5792 
L 676.524756 381.672 
L 676.68388 381.672 
L 676.837699 380.3112 
L 676.915493 380.3112 
L 677.072848 378.9504 
L 677.223132 378.9504 
L 677.380487 377.5896 
L 677.456513 377.5896 
L 677.612101 376.6824 
L 677.686358 376.6824 
L 677.843714 375.3216 
L 677.917972 375.3216 
L 678.071791 373.9608 
L 678.153121 373.9608 
L 678.305172 372.6 
L 678.464296 372.6 
L 678.619883 371.2392 
L 678.697677 371.2392 
L 678.851497 370.332 
L 679.003548 370.332 
L 679.159135 368.9712 
L 679.309419 368.9712 
L 679.465006 367.6104 
L 679.541032 367.6104 
L 679.698388 366.2496 
L 679.850439 366.2496 
L 680.009563 365.3424 
L 680.085588 365.3424 
L 680.239408 363.9816 
L 680.398531 363.9816 
L 680.550583 362.6208 
L 680.631913 362.6208 
L 680.782196 361.26 
L 680.937784 361.26 
L 681.088067 359.8992 
L 681.162325 359.8992 
L 681.330288 358.992 
L 681.404546 358.992 
L 681.56367 357.6312 
L 681.639695 357.6312 
L 681.791747 356.2704 
L 681.949102 356.2704 
L 682.102922 354.9096 
L 682.184252 354.9096 
L 682.336303 354.0024 
L 682.410561 354.0024 
L 682.566148 352.6416 
L 682.642174 352.6416 
L 682.792457 351.2808 
L 682.861411 351.2808 
L 683.011694 349.92 
L 683.08772 349.92 
L 683.230931 348.5592 
L 683.382983 348.5592 
L 683.52973 347.652 
L 683.681781 347.652 
L 683.826761 346.2912 
L 683.98058 346.2912 
L 684.122023 344.9304 
L 684.34126 344.9304 
L 684.489776 343.5696 
L 684.634755 343.5696 
L 684.785038 342.6624 
L 685.004275 342.6624 
L 685.158095 341.3016 
L 685.955481 341.3016 
L 686.480588 339.9408 
L 686.607887 339.9408 
L 686.758171 338.58 
L 686.834196 338.58 
L 686.979176 337.2192 
L 687.297423 337.2192 
L 687.451242 336.312 
L 687.960438 336.312 
L 688.103649 334.9512 
L 689.067231 334.9512 
L 689.22105 333.5904 
L 690.393261 333.5904 
L 690.540008 332.2296 
L 691.645033 332.2296 
L 691.795316 331.3224 
L 692.25147 331.3224 
L 692.403522 339.4872 
L 692.479548 339.4872 
L 692.624527 338.1264 
L 693.153171 338.1264 
L 693.305222 336.7656 
L 693.687119 336.7656 
L 693.844474 335.4048 
L 694.155649 335.4048 
L 694.307701 334.4976 
L 694.620644 334.4976 
L 694.777999 333.1368 
L 695.009613 333.1368 
L 695.159896 331.776 
L 695.467535 331.776 
L 695.62489 330.4152 
L 695.937833 330.4152 
L 696.089885 329.508 
L 696.477086 329.508 
L 696.632673 328.1472 
L 697.493708 328.1472 
L 697.647528 327.24 
L 698.575749 327.24 
L 698.733104 325.8792 
L 701.033324 325.8792 
L 701.19068 324.5184 
L 704.804553 324.5184 
L 704.961909 323.1576 
L 705.423367 323.1576 
L 705.578955 321.7968 
L 705.960851 321.7968 
L 706.111135 320.8896 
L 706.503639 320.8896 
L 706.655691 319.5288 
L 706.979242 319.5288 
L 707.136598 318.168 
L 707.442469 318.168 
L 707.592752 316.8072 
L 707.898623 316.8072 
L 708.055978 315.4464 
L 708.444947 315.4464 
L 708.596999 314.5392 
L 709.060225 314.5392 
L 709.20874 313.1784 
L 709.74092 313.1784 
L 709.900044 311.8176 
L 710.439296 311.8176 
L 710.593116 310.4568 
L 710.973244 310.4568 
L 711.127064 309.5496 
L 711.507192 309.5496 
L 711.661012 308.1888 
L 712.138382 308.1888 
L 712.292202 306.828 
L 712.75366 306.828 
L 712.903944 305.4672 
L 713.284072 305.4672 
L 713.443196 304.1064 
L 713.595247 303.6528 
L 713.754371 303.6528 
L 713.906422 302.292 
L 714.215829 302.292 
L 714.371417 301.3848 
L 714.831107 301.3848 
L 714.988463 300.024 
L 715.140514 300.024 
L 715.299638 299.5704 
L 715.534787 299.5704 
L 715.686838 298.6632 
L 716.933306 298.6632 
L 717.094198 297.756 
L 718.715491 297.756 
L 718.86931 297.3024 
L 719.870021 297.3024 
L 720.020304 298.6632 
L 720.48353 298.6632 
L 720.635582 298.2096 
L 721.562035 298.2096 
L 721.737071 299.5704 
L 722.271019 299.5704 
L 722.428374 299.1168 
L 723.278801 299.1168 
L 723.436157 300.024 
L 723.975409 300.024 
L 724.129229 299.1168 
L 724.907166 299.1168 
L 725.057449 300.4776 
L 732.014686 300.4776 
L 732.16497 299.1168 
L 733.940082 299.1168 
L 734.090365 298.2096 
L 734.862998 298.2096 
L 735.01505 296.8488 
L 735.937967 296.8488 
L 736.095322 295.488 
L 736.404729 295.488 
L 736.55678 294.5808 
L 738.110887 294.5808 
L 738.270011 294.1272 
L 738.655444 294.1272 
L 738.809263 292.7664 
L 739.958489 292.7664 
L 740.115845 291.4056 
L 741.344632 291.4056 
L 741.493148 292.7664 
L 741.662879 292.7664 
L 741.816699 292.3128 
L 742.202132 292.3128 
L 742.348879 293.6736 
L 743.270028 293.6736 
L 743.422079 295.0344 
L 743.582971 294.5808 
L 744.355604 294.5808 
L 744.511192 295.9416 
L 745.202495 295.9416 
L 745.354547 295.0344 
L 745.437645 295.0344 
L 745.589696 296.3952 
L 746.687649 296.3952 
L 746.836164 297.756 
L 746.995288 297.756 
L 747.147339 297.3024 
L 747.536308 297.3024 
L 747.695431 298.2096 
L 748.540554 298.2096 
L 748.692606 299.5704 
L 749.92493 299.5704 
L 750.080517 300.9312 
L 750.540207 300.9312 
L 750.697563 300.024 
L 753.871194 300.024 
L 754.021478 301.3848 
L 754.097504 301.3848 
L 754.256627 300.9312 
L 755.803662 300.9312 
L 755.955713 300.4776 
L 756.827357 300.4776 
L 756.986481 301.8384 
L 759.373334 301.8384 
L 759.53069 301.3848 
L 761.143142 301.3848 
L 761.302266 301.8384 
L 762.232255 301.8384 
L 762.38961 302.7456 
L 762.930631 302.7456 
L 763.08445 302.292 
L 763.160476 302.292 
L 763.319599 303.6528 
L 764.553691 303.6528 
L 764.707511 305.0136 
L 764.866634 304.56 
L 766.661195 304.56 
L 766.813246 305.9208 
L 769.357455 305.9208 
L 769.513043 307.2816 
L 769.894939 307.2816 
L 770.055831 305.9208 
L 771.993603 305.9208 
L 772.145654 304.56 
L 774.54842 304.56 
L 774.698704 303.1992 
L 775.31575 303.1992 
L 775.474873 303.6528 
L 778.811164 303.6528 
L 778.963216 302.7456 
L 779.810107 302.7456 
L 779.96039 304.1064 
L 780.807281 304.1064 
L 780.964637 305.4672 
L 781.35007 305.4672 
L 781.498585 306.828 
L 781.892858 306.828 
L 782.034301 308.1888 
L 782.42327 308.1888 
L 782.582393 309.096 
L 783.202975 309.096 
L 783.353259 310.4568 
L 786.684246 310.4568 
L 786.834529 309.096 
L 787.603626 309.096 
L 787.757446 353.0952 
L 788.225976 353.0952 
L 788.379796 351.7344 
L 788.459358 351.7344 
L 788.609641 350.3736 
L 788.685667 350.3736 
L 788.841254 349.0128 
L 788.915512 349.0128 
L 789.069331 348.1056 
L 789.145357 348.1056 
L 789.293872 346.7448 
L 789.375202 346.7448 
L 789.451228 345.384 
L 789.605047 346.2912 
L 789.838429 343.5696 
L 789.995784 343.5696 
L 790.147836 342.6624 
L 790.223861 342.6624 
L 790.453707 339.9408 
L 790.609294 339.9408 
L 790.757809 338.58 
L 790.835603 338.58 
L 790.991191 337.2192 
L 791.065448 337.2192 
L 791.224572 336.312 
L 791.300598 336.7656 
L 791.459721 335.8584 
L 791.555195 335.8584 
L 791.707247 334.4976 
L 791.783273 334.4976 
L 791.942396 333.1368 
L 792.016654 333.1368 
L 792.168705 331.776 
L 792.250035 331.776 
L 792.400318 330.4152 
L 792.474576 330.4152 
L 792.631932 329.508 
L 792.707957 329.508 
L 792.865313 328.1472 
L 792.943107 328.1472 
L 793.095158 326.7864 
L 793.254282 326.7864 
L 793.406333 325.4256 
L 793.489431 325.4256 
L 793.64325 324.0648 
L 793.800606 324.0648 
L 793.949121 322.704 
L 794.025147 322.704 
L 794.180735 321.7968 
L 794.25676 321.7968 
L 794.412348 320.436 
L 794.562631 320.436 
L 794.723523 319.0752 
L 794.799548 320.8896 
L 794.9516 319.5288 
L 795.112492 319.5288 
L 795.264543 318.168 
L 795.499692 318.168 
L 795.65528 316.8072 
L 795.805563 316.8072 
L 795.962919 315.9 
L 796.189228 315.9 
L 796.344815 314.5392 
L 796.496867 314.5392 
L 796.81865 313.1784 
L 797.052031 313.1784 
L 797.212923 311.8176 
L 797.363206 311.8176 
L 797.517026 310.4568 
L 797.667309 310.4568 
L 797.743335 328.6008 
L 797.898922 309.096 
L 798.049206 307.7352 
L 798.125231 307.7352 
L 798.284355 306.828 
L 798.360381 307.2816 
L 798.519504 305.9208 
L 798.671556 305.9208 
L 798.828911 305.0136 
L 798.982731 305.0136 
L 799.138318 303.6528 
L 799.286834 303.6528 
L 799.362859 318.6216 
L 799.520215 307.2816 
L 799.594472 307.2816 
L 799.670498 308.1888 
L 799.902111 317.2608 
L 800.059467 300.9312 
L 800.211518 301.8384 
L 800.368874 300.4776 
L 800.520925 300.4776 
L 800.680049 299.1168 
L 800.8321 299.1168 
L 800.98592 297.756 
L 801.136203 297.756 
L 801.286487 296.8488 
L 801.367816 296.8488 
L 801.443842 308.1888 
L 801.592358 290.4984 
L 801.763857 299.5704 
L 801.839883 307.2816 
L 801.999007 293.6736 
L 802.151058 292.3128 
L 802.227084 292.3128 
L 802.386207 291.4056 
L 802.464001 291.4056 
L 802.619589 290.0448 
L 802.769872 290.0448 
L 802.927228 288.684 
L 803.077511 288.684 
L 803.151769 303.1992 
L 803.307356 276.8904 
L 803.455871 286.416 
L 803.542505 286.416 
L 803.770583 284.148 
L 803.927938 284.148 
L 804.07999 282.7872 
L 804.161319 282.7872 
L 804.311603 281.88 
L 804.387628 281.88 
L 804.541448 280.5192 
L 804.691731 280.5192 
L 804.847319 279.1584 
L 805.077164 279.1584 
L 805.227447 277.7976 
L 805.305241 277.7976 
L 805.614648 276.4368 
L 806.236998 276.4368 
L 806.392586 275.076 
L 807.02024 275.076 
L 807.174059 273.2616 
L 808.646836 273.2616 
L 808.79712 274.6224 
L 808.881986 274.6224 
L 809.034037 273.2616 
L 809.193161 274.6224 
L 809.345212 274.6224 
L 809.506104 275.5296 
L 809.658155 275.5296 
L 809.815511 276.8904 
L 809.965794 276.8904 
L 810.12315 278.2512 
L 810.199175 278.2512 
L 810.349459 279.612 
L 810.506814 279.612 
L 810.658866 280.5192 
L 810.741964 280.5192 
L 810.895783 281.4264 
L 811.054907 281.4264 
L 811.206958 282.7872 
L 811.366082 282.7872 
L 811.516365 284.148 
L 811.760355 284.148 
L 811.910638 285.5088 
L 812.069762 285.5088 
L 812.220045 286.8696 
L 812.379168 286.8696 
L 812.532988 286.416 
L 812.692112 286.416 
L 812.844163 285.0552 
L 812.927261 285.0552 
L 813.462977 277.344 
L 813.69459 273.7152 
L 814.076487 267.3648 
L 814.619275 262.3752 
L 814.93045 256.0248 
L 815.239857 251.9424 
L 815.473238 251.9424 
L 815.623522 250.5816 
L 815.780877 251.9424 
L 816.169846 251.9424 
L 816.404995 254.664 
L 816.481021 254.664 
L 816.868222 259.6536 
L 816.961928 259.6536 
L 817.269567 263.2824 
L 817.343824 263.2824 
L 817.654999 267.3648 
L 817.891917 267.3648 
L 818.121762 269.6328 
L 818.280885 269.6328 
L 818.432937 270.9936 
L 818.516035 270.9936 
L 818.666318 272.3544 
L 818.742344 272.3544 
L 818.899699 273.7152 
L 819.357622 273.7152 
L 819.44072 275.076 
L 819.594539 273.7152 
L 819.983508 273.7152 
L 820.144399 275.076 
L 820.376013 275.076 
L 820.528064 276.4368 
L 820.683652 276.4368 
L 820.833935 277.344 
L 820.909961 277.344 
L 821.067316 278.7048 
L 821.143342 278.7048 
L 821.302466 280.0656 
L 821.378491 279.612 
L 821.613641 282.3336 
L 821.765692 282.3336 
L 822.014986 284.6016 
L 822.089243 284.6016 
L 822.246599 285.9624 
L 822.320856 285.9624 
L 822.554238 288.684 
L 822.704521 288.684 
L 822.861877 289.5912 
L 822.937902 289.5912 
L 823.089954 291.4056 
L 823.173052 291.4056 
L 823.325103 292.7664 
L 823.401129 292.7664 
L 823.558484 294.1272 
L 823.636278 294.1272 
L 823.791866 295.0344 
L 823.942149 295.0344 
L 824.095968 296.3952 
L 824.246252 296.3952 
L 824.400071 297.756 
L 824.550355 297.756 
L 824.705942 299.1168 
L 824.783736 299.1168 
L 825.094911 300.4776 
L 825.409622 300.4776 
L 825.559905 301.8384 
L 826.482822 301.8384 
L 826.649018 303.6528 
L 827.89195 303.6528 
L 828.042233 305.0136 
L 828.349872 305.0136 
L 828.501924 305.4672 
L 829.124274 305.4672 
L 829.281629 306.828 
L 830.130288 306.828 
L 830.28234 307.2816 
L 830.515721 307.2816 
L 830.667772 308.6424 
L 831.898328 308.6424 
L 832.071596 308.1888 
L 833.616863 308.1888 
L 833.770682 309.096 
L 835.383135 309.096 
L 835.542258 309.5496 
L 837.172391 309.5496 
L 837.324442 310.0032 
L 838.942199 310.0032 
L 839.101322 311.8176 
L 839.253374 311.8176 
L 839.412497 310.4568 
L 842.494191 310.4568 
L 842.646242 310.9104 
L 844.263999 310.9104 
L 844.421354 311.8176 
L 847.741733 311.8176 
L 847.900857 311.364 
L 849.522149 311.364 
L 849.674201 312.2712 
L 853.144863 312.2712 
L 853.303986 311.8176 
L 853.765445 311.8176 
L 853.921032 313.1784 
L 854.836877 313.1784 
L 854.992464 314.0856 
L 856.452865 314.0856 
L 856.604917 314.9928 
L 858.155488 314.9928 
L 858.312843 316.3536 
L 858.390637 316.3536 
L 858.547993 315.9 
L 858.700044 315.9 
L 858.855631 314.9928 
L 860.146301 314.9928 
L 860.298352 314.5392 
L 861.923181 314.5392 
L 862.084072 315.4464 
L 863.093623 315.4464 
L 863.247442 314.0856 
L 863.707133 314.0856 
L 863.864488 315.4464 
L 864.249921 315.4464 
L 864.401972 314.0856 
L 865.397379 314.0856 
L 865.560038 314.9928 
L 865.636064 314.9928 
L 865.795188 313.632 
L 866.795898 313.632 
L 866.946182 312.2712 
L 867.179563 312.2712 
L 867.351063 311.8176 
L 868.121928 311.8176 
L 868.275748 310.9104 
L 868.963515 310.9104 
L 869.117335 310.4568 
L 869.96953 310.4568 
L 870.118045 309.096 
L 870.733323 309.096 
L 870.892447 310.0032 
L 870.97024 310.0032 
L 871.127596 308.6424 
L 872.057585 308.6424 
L 872.2061 307.2816 
L 872.527883 307.2816 
L 872.685239 308.1888 
L 874.295923 308.1888 
L 874.447975 309.096 
L 876.067499 309.096 
L 876.228391 310.0032 
L 877.625142 310.0032 
L 877.78073 308.6424 
L 879.536393 308.6424 
L 879.695517 309.5496 
L 880.931377 309.5496 
L 881.08166 308.1888 
L 883.026504 308.1888 
L 883.180323 306.3744 
L 884.255292 306.3744 
L 884.412647 305.4672 
L 884.872338 305.4672 
L 885.031461 305.0136 
L 886.109965 305.0136 
L 886.267321 303.6528 
L 886.650986 303.6528 
L 886.811877 304.56 
L 887.123052 304.56 
L 887.276872 303.1992 
L 890.21005 303.1992 
L 890.370941 304.1064 
L 891.916208 304.1064 
L 892.070028 303.6528 
L 893.39429 303.6528 
L 893.544573 305.0136 
L 893.701928 305.0136 
L 893.85398 305.9208 
L 895.54953 305.9208 
L 895.708654 305.4672 
L 899.039641 305.4672 
L 899.186388 305.0136 
L 900.804144 305.0136 
L 900.963268 306.3744 
L 902.595169 306.3744 
L 902.74722 305.9208 
L 903.595879 305.9208 
L 903.751467 304.56 
L 904.285415 304.56 
L 904.444538 303.6528 
L 905.828914 303.6528 
L 905.988037 304.56 
L 906.141857 304.56 
L 906.30098 305.4672 
L 909.619591 305.4672 
L 909.778715 304.1064 
L 911.392935 304.1064 
L 911.544986 305.4672 
L 922.254004 305.4672 
L 922.409591 306.3744 
L 924.715115 306.3744 
L 924.870703 307.7352 
L 927.229268 307.7352 
L 927.386623 309.096 
L 928.92305 309.096 
L 929.080405 310.4568 
L 930.302121 310.4568 
L 930.450636 311.364 
L 931.382393 311.364 
L 931.537981 312.7248 
L 932.920588 312.7248 
L 933.070871 314.0856 
L 937.89762 314.0856 
L 938.049671 315.4464 
L 939.725773 315.4464 
L 939.883129 316.8072 
L 942.955982 316.8072 
L 943.104497 315.4464 
L 943.185827 315.4464 
L 943.337879 323.6112 
L 944.948563 323.6112 
L 945.105918 324.5184 
L 945.3393 324.5184 
L 945.489583 323.1576 
L 946.410732 323.1576 
L 946.566319 322.2504 
L 946.718371 322.2504 
L 946.877494 321.7968 
L 947.188669 321.7968 
L 947.342489 320.436 
L 947.816323 320.436 
L 947.966607 319.5288 
L 948.428065 319.5288 
L 948.581885 318.168 
L 948.73924 317.7144 
L 949.278492 317.7144 
L 949.43408 316.8072 
L 949.969796 316.8072 
L 950.121847 315.4464 
L 950.277435 315.4464 
L 950.429486 316.3536 
L 950.738893 316.3536 
L 950.896249 315.4464 
L 951.426661 315.4464 
L 951.582248 314.0856 
L 951.886351 314.0856 
L 952.036635 312.7248 
L 952.34781 312.7248 
L 952.505165 311.364 
L 952.975464 311.364 
L 953.132819 310.0032 
L 953.587205 310.0032 
L 953.741025 308.6424 
L 953.818819 308.6424 
L 953.976174 307.2816 
L 954.439401 307.2816 
L 954.594988 305.9208 
L 955.58509 305.9208 
L 955.73891 306.828 
L 955.896265 306.828 
L 956.048317 305.9208 
L 956.82095 305.9208 
L 956.971234 304.56 
L 957.361971 304.56 
L 957.514022 304.1064 
L 957.590048 304.1064 
L 957.761548 302.7456 
L 958.608439 302.7456 
L 958.758722 301.3848 
L 959.609149 301.3848 
L 959.762969 300.024 
L 960.915731 300.024 
L 961.073086 299.5704 
L 962.623657 299.5704 
L 962.777477 300.4776 
L 964.480099 300.4776 
L 964.791274 299.1168 
L 966.191561 299.1168 
L 966.352453 298.6632 
L 966.819216 298.6632 
L 966.976571 300.024 
L 967.98789 300.024 
L 968.148782 299.5704 
L 968.995673 299.5704 
L 969.154796 298.2096 
L 969.77361 298.2096 
L 969.925662 297.756 
L 971.476232 297.756 
L 971.637124 297.3024 
L 972.503464 297.3024 
L 972.653747 298.6632 
L 973.267257 298.6632 
L 973.428148 298.2096 
L 973.739323 298.2096 
L 973.893143 299.5704 
L 975.125467 299.5704 
L 975.28459 300.4776 
L 975.984734 300.4776 
L 976.143858 301.8384 
L 976.676038 301.8384 
L 976.759135 303.1992 
L 976.836929 302.7456 
L 977.22413 302.7456 
L 977.397398 304.1064 
L 977.781062 304.1064 
L 977.931346 305.4672 
L 978.548392 305.4672 
L 978.861335 307.7352 
L 982.116296 307.7352 
L 982.268348 307.2816 
L 983.912625 307.2816 
L 984.066444 308.6424 
L 985.150252 308.6424 
L 985.300536 307.2816 
L 985.684201 307.2816 
L 985.843324 306.828 
L 987.402735 306.828 
L 987.554787 308.1888 
L 988.871976 308.1888 
L 989.02226 306.828 
L 990.952959 306.828 
L 991.112083 308.1888 
L 996.218182 308.1888 
L 996.218182 308.1888 
" clip-path="url(#pfb1bf982a2)" style="fill: none; stroke: #0000ff; stroke-width: 1.5; stroke-linecap: square"/>
   </g>
   <g id="line2d_30">
    <path d="M 635.843928 240.1488 
L 635.994211 245.592 
L 636.079077 245.592 
L 636.22936 256.0248 
L 636.305386 256.0248 
L 636.475118 261.9216 
L 636.623633 261.9216 
L 636.779221 267.3648 
L 637.307865 267.3648 
L 637.466988 272.808 
L 637.850653 272.808 
L 638.008008 278.2512 
L 638.234318 278.2512 
L 638.462395 289.1376 
L 638.536652 289.1376 
L 639.303982 349.92 
L 639.689414 391.1976 
L 639.841466 405.7128 
L 640.914666 516.8448 
L 641.36198 543.1536 
L 641.683763 549.504 
L 644.337591 549.504 
L 644.648766 547.236 
L 645.264044 541.3392 
L 645.343606 541.3392 
L 645.566379 538.164 
L 645.868714 538.164 
L 646.024301 535.896 
L 646.174584 535.896 
L 646.333708 534.5352 
L 646.560017 534.5352 
L 646.731517 533.1744 
L 646.807543 533.1744 
L 647.488238 521.3808 
L 648.101748 483.2784 
L 648.335129 462.4128 
L 648.56851 450.6192 
L 648.796587 429.7536 
L 648.952175 429.7536 
L 649.256278 416.1456 
L 649.404793 416.1456 
L 649.560381 411.6096 
L 650.723751 411.6096 
L 650.874034 402.084 
L 650.95006 402.084 
L 651.484008 366.7032 
L 651.881817 301.3848 
L 652.422837 163.944 
L 652.72694 106.3368 
L 652.877223 100.44 
L 653.032811 107.6976 
L 653.490733 163.0368 
L 654.031753 208.8504 
L 654.183805 213.84 
L 654.258063 213.84 
L 654.562165 229.2624 
L 654.712449 219.2832 
L 654.786706 219.2832 
L 654.942294 213.84 
L 655.177443 213.84 
L 655.40552 203.8608 
L 656.105664 203.8608 
L 656.330205 213.84 
L 656.411535 213.84 
L 656.883602 245.592 
L 657.040957 245.592 
L 657.196545 256.0248 
L 657.355668 261.9216 
L 658.566776 261.9216 
L 658.800157 272.808 
L 658.876183 272.808 
L 659.261615 295.0344 
L 659.337641 295.0344 
L 659.641744 311.364 
L 659.721306 311.364 
L 659.945847 322.704 
L 660.485099 322.704 
L 660.642454 333.5904 
L 660.794506 333.5904 
L 660.951861 339.0336 
L 661.027887 339.0336 
L 661.17817 344.4768 
L 661.804057 344.4768 
L 661.959644 349.92 
L 662.111695 349.92 
L 662.270819 395.28 
L 662.583762 395.28 
L 662.737582 405.2592 
L 662.894937 471.9384 
L 663.046989 419.3208 
L 663.28037 349.0128 
L 663.356395 349.0128 
L 663.437725 343.5696 
L 663.665802 364.8888 
L 664.061843 427.9392 
L 664.528606 404.8056 
L 664.763755 427.9392 
L 664.914039 436.5576 
L 664.995368 427.9392 
L 665.223446 315.9 
L 665.380801 202.9536 
L 665.456827 212.9328 
L 665.614182 374.868 
L 665.845796 158.5008 
L 665.928893 310.9104 
L 666.006687 294.1272 
L 666.158739 124.4808 
L 666.31963 283.2408 
L 666.471682 107.6976 
L 666.643182 218.376 
L 666.793465 110.8728 
L 666.876563 223.8192 
L 667.026846 101.3472 
L 667.184202 179.82 
L 667.336253 104.0688 
L 667.412279 104.0688 
L 667.57317 168.0264 
L 667.650964 148.068 
L 667.886114 100.8936 
L 668.123031 119.4912 
L 668.354644 100.8936 
L 668.580953 131.2848 
L 668.814334 125.388 
L 668.89036 125.388 
L 669.120205 140.8104 
L 669.279329 100.44 
L 669.433148 139.4496 
L 669.670066 103.1616 
L 669.823885 148.9752 
L 669.984777 107.244 
L 670.060803 124.0272 
L 670.136828 104.5224 
L 670.218158 108.6048 
L 670.370209 153.0576 
L 670.446235 100.8936 
L 670.527565 114.5016 
L 670.603591 100.44 
L 670.753874 173.4696 
L 670.836972 148.9752 
L 670.989023 103.6152 
L 671.066817 106.7904 
L 671.227709 206.5824 
L 671.477002 100.8936 
L 671.554796 102.2544 
L 671.706848 135.3672 
L 671.940229 145.3464 
L 672.014487 145.3464 
L 672.323893 164.8512 
L 672.636837 178.0056 
L 672.712862 178.0056 
L 672.790656 187.0776 
L 672.866682 183.4488 
L 673.101831 192.9744 
L 673.259187 192.9744 
L 673.414774 207.4896 
L 673.4908 207.4896 
L 673.720645 217.9224 
L 673.876232 217.9224 
L 674.41018 249.2208 
L 674.493278 249.2208 
L 674.571072 248.3136 
L 674.723124 264.6432 
L 674.806221 264.6432 
L 675.428571 303.1992 
L 675.504597 303.1992 
L 675.886494 325.4256 
L 676.043849 325.4256 
L 676.194133 336.312 
L 676.524756 352.6416 
L 676.761673 352.6416 
L 676.915493 363.0744 
L 676.996823 363.0744 
L 677.223132 373.5072 
L 677.380487 373.5072 
L 677.536075 378.4968 
L 677.612101 378.4968 
L 677.843714 388.9296 
L 677.993997 388.9296 
L 678.153121 393.9192 
L 678.229147 393.9192 
L 678.382966 398.4552 
L 678.464296 398.4552 
L 678.619883 403.4448 
L 678.777239 403.4448 
L 678.927522 408.4344 
L 679.309419 408.4344 
L 679.465006 417.5064 
L 679.541032 417.5064 
L 679.698388 422.0424 
L 679.850439 422.0424 
L 680.009563 426.5784 
L 680.085588 426.5784 
L 680.239408 431.1144 
L 680.398531 431.1144 
L 680.550583 435.1968 
L 680.631913 435.1968 
L 680.782196 439.7328 
L 680.937784 439.7328 
L 681.088067 443.8152 
L 681.162325 443.8152 
L 681.330288 447.8976 
L 681.404546 447.8976 
L 681.56367 451.98 
L 681.639695 451.98 
L 681.791747 455.6088 
L 681.949102 455.6088 
L 682.102922 459.6912 
L 682.184252 459.6912 
L 682.336303 463.32 
L 682.410561 463.32 
L 682.566148 466.9488 
L 682.861411 466.9488 
L 683.08772 459.6912 
L 683.154905 459.6912 
L 683.681781 426.5784 
L 684.122023 378.4968 
L 684.272307 368.5176 
L 684.415518 352.6416 
L 685.004275 314.0856 
L 685.080301 314.0856 
L 685.311914 303.1992 
L 686.480588 303.1992 
L 687.055201 280.9728 
L 687.131227 280.9728 
L 689.067231 169.3872 
L 689.143256 169.3872 
L 689.514545 153.0576 
L 689.58173 153.0576 
L 689.873457 142.1712 
L 690.02374 142.1712 
L 690.317235 132.192 
L 690.616034 132.192 
L 690.759245 129.0168 
L 690.909528 129.0168 
L 691.056275 126.2952 
L 691.427564 126.2952 
L 691.577847 123.5736 
L 692.030465 123.5736 
L 692.180749 126.2952 
L 692.25147 126.2952 
L 692.403522 111.3264 
L 692.776578 111.3264 
L 692.921557 175.7376 
L 692.997583 175.7376 
L 693.153171 180.2736 
L 693.229196 180.2736 
L 693.305222 175.7376 
L 693.381248 180.2736 
L 693.612861 143.9856 
L 693.844474 104.976 
L 693.998294 100.44 
L 694.307701 106.3368 
L 694.392567 106.3368 
L 694.777999 100.44 
L 694.852257 100.8936 
L 695.08387 109.0584 
L 695.317251 124.9344 
L 696.013859 198.8712 
L 696.165911 198.8712 
L 696.402828 179.82 
L 696.782956 130.3776 
L 697.18607 104.976 
L 697.493708 100.44 
L 697.725322 102.2544 
L 697.806652 103.1616 
L 698.034729 108.6048 
L 698.344136 108.6048 
L 698.651775 114.048 
L 698.733104 114.048 
L 699.038975 120.852 
L 699.265284 120.852 
L 699.42264 121.3056 
L 699.498666 121.3056 
L 699.656021 123.5736 
L 699.809841 123.5736 
L 699.968964 112.2336 
L 700.115712 114.048 
L 700.191737 114.048 
L 700.347325 116.316 
L 700.497608 116.316 
L 700.651428 118.584 
L 701.033324 118.584 
L 701.19068 120.3984 
L 701.970385 120.3984 
L 702.124205 123.12 
L 702.654617 123.12 
L 702.799596 125.8416 
L 703.027673 125.8416 
L 703.186797 129.0168 
L 703.421946 129.0168 
L 703.572229 134.9136 
L 705.349109 134.9136 
L 705.497625 129.0168 
L 705.884826 129.0168 
L 706.035109 125.8416 
L 706.420542 125.8416 
L 706.579665 123.12 
L 706.979242 123.12 
L 707.136598 120.852 
L 707.442469 120.852 
L 707.592752 118.1304 
L 707.898623 118.1304 
L 708.055978 115.8624 
L 708.520973 115.8624 
L 708.680096 113.5944 
L 709.134483 113.5944 
L 709.288302 111.78 
L 709.900044 111.78 
L 710.052095 109.9656 
L 710.518858 109.9656 
L 710.669141 108.1512 
L 710.973244 108.1512 
L 711.127064 106.7904 
L 711.507192 106.7904 
L 711.661012 105.4296 
L 712.75366 105.4296 
L 712.903944 103.1616 
L 713.284072 103.1616 
L 713.519221 101.8008 
L 713.754371 101.8008 
L 713.906422 101.3472 
L 713.98952 101.3472 
L 714.065546 154.4184 
L 714.141572 150.7896 
L 714.680824 107.6976 
L 714.988463 100.44 
L 715.06272 100.44 
L 715.140514 100.8936 
L 715.451689 106.7904 
L 715.762864 120.852 
L 715.921988 141.7176 
L 716.153601 148.9752 
L 716.685781 148.9752 
L 716.857281 145.3464 
L 717.009332 150.336 
L 717.635218 150.336 
L 717.790806 146.7072 
L 717.941089 150.336 
L 718.098445 146.7072 
L 718.172702 146.7072 
L 718.330058 143.0784 
L 718.404316 143.0784 
L 718.554599 139.9032 
L 718.715491 139.9032 
L 718.86931 141.264 
L 719.024898 137.6352 
L 719.484588 137.6352 
L 719.790459 128.5632 
L 719.870021 128.5632 
L 720.094562 117.6768 
L 720.559556 107.244 
L 720.948525 101.8008 
L 721.024551 101.8008 
L 721.256164 100.44 
L 721.411751 100.44 
L 721.643365 101.8008 
L 721.961612 106.7904 
L 722.271019 116.316 
L 722.817343 125.388 
L 722.893369 119.9448 
L 723.975409 155.3256 
L 724.36261 160.7688 
L 724.438635 160.7688 
L 724.599527 164.8512 
L 724.673785 152.604 
L 724.74981 156.6864 
L 725.057449 156.6864 
L 725.214805 152.604 
L 725.289063 152.604 
L 725.672727 138.5424 
L 725.748753 138.5424 
L 725.983902 132.192 
L 726.144794 132.192 
L 726.298613 129.0168 
L 726.376407 129.0168 
L 726.531995 100.8936 
L 731.3888 100.8936 
L 731.540851 102.2544 
L 731.935124 102.2544 
L 732.090712 103.1616 
L 732.16497 103.1616 
L 732.318789 104.0688 
L 732.545098 104.0688 
L 732.700686 105.4296 
L 734.32021 105.4296 
L 734.470493 106.7904 
L 734.939024 106.7904 
L 735.091075 108.1512 
L 735.174173 108.1512 
L 735.326225 109.9656 
L 735.400482 109.9656 
L 735.632096 113.5944 
L 735.708121 113.5944 
L 736.013992 120.3984 
L 736.095322 120.3984 
L 736.245605 125.8416 
L 736.404729 134.9136 
L 736.480755 132.6456 
L 736.55678 132.6456 
L 737.037687 149.4288 
L 737.187971 100.8936 
L 737.262228 100.8936 
L 737.419584 100.44 
L 737.725455 100.44 
L 737.877506 100.8936 
L 738.033094 100.8936 
L 738.110887 101.3472 
L 738.186913 100.8936 
L 738.498088 103.1616 
L 738.733237 106.3368 
L 738.809263 102.2544 
L 739.039108 104.976 
L 739.113366 104.976 
L 739.267186 106.3368 
L 739.343211 106.3368 
L 739.417469 108.1512 
L 739.574824 137.6352 
L 739.725108 137.6352 
L 739.958489 144.4392 
L 740.034515 141.264 
L 740.19187 144.8928 
L 740.503045 144.8928 
L 740.653329 137.6352 
L 740.808916 137.6352 
L 741.569173 109.9656 
L 741.816699 105.8832 
L 741.892725 105.8832 
L 742.279925 114.9552 
L 742.348879 112.6872 
L 742.730776 127.2024 
L 743.036646 143.0784 
L 743.422079 166.6656 
L 743.735022 188.4384 
L 743.970171 207.4896 
L 744.893088 320.8896 
L 745.354547 350.3736 
L 745.437645 350.3736 
L 745.589696 360.8064 
L 746.061763 386.6616 
L 746.13602 386.6616 
L 746.286304 391.6512 
L 746.593943 391.6512 
L 746.91219 371.2392 
L 747.147339 309.5496 
L 747.695431 138.996 
L 747.927045 119.0376 
L 748.153354 110.4192 
L 748.308941 108.6048 
L 748.540554 108.6048 
L 748.851729 114.048 
L 748.927755 114.048 
L 749.544801 135.3672 
L 750.2308 161.2224 
L 750.386388 161.2224 
L 750.540207 165.3048 
L 750.697563 163.4904 
L 751.00697 163.4904 
L 751.316377 176.6448 
L 751.392403 176.6448 
L 751.46666 180.7272 
L 751.540918 172.1088 
L 752.014753 199.7784 
L 752.241062 209.7576 
L 752.325928 209.7576 
L 752.401953 208.8504 
L 752.554005 213.84 
L 753.026071 213.84 
L 753.176355 218.8296 
L 753.563556 218.8296 
L 754.180601 255.1176 
L 754.256627 255.1176 
L 754.408679 260.5608 
L 754.802951 260.5608 
L 755.029261 271.4472 
L 755.112358 271.4472 
L 755.260874 276.8904 
L 755.335131 276.8904 
L 755.494255 282.7872 
L 755.803662 282.7872 
L 755.955713 285.9624 
L 756.190863 285.9624 
L 756.677074 324.5184 
L 757.060738 367.6104 
L 757.136764 372.6 
L 757.292352 421.5888 
L 757.68132 439.2792 
L 757.757346 439.2792 
L 757.91647 443.3616 
L 758.229413 443.3616 
L 758.379696 430.6608 
L 758.609541 430.6608 
L 758.685567 426.1248 
L 758.759825 430.6608 
L 758.915412 426.1248 
L 758.991438 426.1248 
L 759.454664 392.5584 
L 759.916123 318.168 
L 760.073478 285.0552 
L 760.529632 257.3856 
L 760.60389 257.3856 
L 761.530343 200.6856 
L 761.624049 200.6856 
L 761.701843 195.696 
L 761.931688 141.264 
L 762.232255 100.44 
L 762.313585 107.6976 
L 762.38961 124.4808 
L 762.771507 283.2408 
L 763.006656 340.848 
L 763.319599 357.1776 
L 763.473419 357.1776 
L 763.556517 372.6 
L 763.632542 367.6104 
L 763.940181 351.7344 
L 764.477665 351.7344 
L 764.629717 346.2912 
L 764.707511 346.2912 
L 764.94266 336.7656 
L 765.101783 336.7656 
L 765.253835 331.3224 
L 765.331629 331.3224 
L 765.56501 319.9824 
L 765.946907 319.9824 
L 766.335875 341.7552 
L 766.411901 341.7552 
L 766.889272 373.5072 
L 767.048395 373.5072 
L 767.198679 363.0744 
L 767.281777 368.5176 
L 767.43206 363.0744 
L 767.508086 363.0744 
L 767.97308 388.9296 
L 768.049106 388.9296 
L 768.206461 451.98 
L 768.515868 463.32 
L 768.591894 463.32 
L 768.745714 466.9488 
L 768.827043 466.9488 
L 769.051584 480.5568 
L 769.131146 480.5568 
L 769.28143 490.0824 
L 769.357455 490.0824 
L 769.587301 495.9792 
L 769.818914 495.9792 
L 769.894939 493.2576 
L 769.974501 495.9792 
L 770.443032 484.6392 
L 770.519058 484.6392 
L 770.596851 481.464 
L 770.676413 496.4328 
L 770.752439 493.7112 
L 771.760221 493.7112 
L 771.836247 493.2576 
L 771.993603 496.4328 
L 772.069628 496.4328 
L 772.382571 504.144 
L 772.458597 504.144 
L 772.768004 511.8552 
L 772.999617 515.9376 
L 773.459308 515.9376 
L 773.618431 518.2056 
L 774.0074 518.2056 
L 774.316807 524.1024 
L 774.392833 524.1024 
L 774.624446 527.2776 
L 774.781802 527.2776 
L 774.930317 529.092 
L 775.239724 529.092 
L 775.398847 530.4528 
L 775.474873 530.4528 
L 775.71179 533.628 
L 775.789584 533.628 
L 776.251043 540.8856 
L 776.332372 540.8856 
L 776.558682 542.7 
L 776.652388 542.7 
L 776.876929 544.5144 
L 776.958259 544.5144 
L 777.112078 544.968 
L 777.501047 544.968 
L 777.66017 545.8752 
L 777.810454 542.7 
L 778.811164 542.7 
L 778.963216 543.1536 
L 779.429978 543.1536 
L 779.580262 542.2464 
L 780.345823 542.2464 
L 780.496106 540.8856 
L 780.883307 540.8856 
L 781.040663 539.9784 
L 781.424327 539.9784 
L 781.594059 539.0712 
L 781.892858 539.0712 
L 782.034301 537.7104 
L 782.184584 537.7104 
L 782.81047 526.3704 
L 782.969594 516.8448 
L 783.202975 488.268 
L 783.353259 461.052 
L 783.65913 359.4456 
L 784.350433 103.6152 
L 784.433531 100.44 
L 784.509557 102.2544 
L 784.746474 125.8416 
L 785.276886 196.1496 
L 785.74188 241.9632 
L 785.816138 241.9632 
L 786.051287 252.8496 
L 786.127313 252.8496 
L 786.362462 263.736 
L 786.834529 263.736 
L 786.990117 258.2928 
L 787.22173 258.2928 
L 787.370245 252.8496 
L 787.603626 252.8496 
L 787.757446 437.9184 
L 787.916569 433.3824 
L 788.225976 433.3824 
L 788.302002 469.2168 
L 788.533615 391.6512 
L 788.915512 267.3648 
L 788.98977 284.148 
L 789.375202 515.0304 
L 789.605047 487.8144 
L 789.914454 374.4144 
L 790.303423 222.4584 
L 790.377681 243.7776 
L 790.683552 511.8552 
L 790.835603 496.4328 
L 790.991191 456.516 
L 791.707247 210.2112 
L 791.783273 220.644 
L 791.942396 351.2808 
L 792.09268 458.784 
L 792.250035 480.1032 
L 792.324293 476.928 
L 792.557674 430.2072 
L 793.254282 235.6128 
L 793.406333 273.7152 
L 793.800606 458.3304 
L 793.874864 458.3304 
L 794.025147 433.836 
L 794.180735 397.0944 
L 794.875574 226.5408 
L 794.9516 226.5408 
L 795.112492 275.5296 
L 795.65528 504.144 
L 795.731305 501.4224 
L 796.270558 431.1144 
L 797.131593 268.7256 
L 797.212923 274.1688 
L 797.287181 290.952 
L 797.743335 549.504 
L 798.360381 409.7952 
L 798.671556 305.0136 
L 798.828911 288.2304 
L 798.906705 299.5704 
L 798.982731 277.344 
L 799.444189 549.504 
L 799.902111 549.504 
L 800.135493 523.6488 
L 800.4449 470.124 
L 800.680049 402.5376 
L 801.061946 247.4064 
L 801.136203 236.52 
L 801.210461 247.4064 
L 801.592358 549.504 
L 801.839883 549.504 
L 802.310182 437.9184 
L 802.927228 180.7272 
L 803.001485 194.3352 
L 803.307356 549.504 
L 803.381614 549.504 
L 803.618531 506.412 
L 803.851912 426.5784 
L 804.311603 258.7464 
L 804.46719 314.0856 
L 804.771293 509.1336 
L 804.921577 517.752 
L 805.077164 511.4016 
L 806.392586 376.6824 
L 807.251853 271.4472 
L 807.487002 260.5608 
L 807.799945 260.5608 
L 807.957301 266.004 
L 808.107584 266.004 
L 808.18361 260.5608 
L 808.26494 266.004 
L 808.339197 260.5608 
L 808.722862 293.6736 
L 808.958011 369.4248 
L 809.421238 467.856 
L 809.732413 501.876 
L 809.889768 504.5976 
L 809.965794 499.1544 
L 810.12315 452.4336 
L 810.430789 342.6624 
L 810.58284 358.992 
L 811.442107 511.4016 
L 811.686097 521.8344 
L 811.760355 521.8344 
L 811.83638 520.02 
L 811.995504 508.68 
L 812.456962 446.5368 
L 812.616086 433.836 
L 812.692112 442.4544 
L 812.927261 500.5152 
L 813.003287 500.5152 
L 813.155338 458.3304 
L 813.386951 339.9408 
L 813.620332 489.1752 
L 813.851946 339.9408 
L 813.926203 361.26 
L 814.076487 479.6496 
L 814.438935 334.4976 
L 814.619275 350.8272 
L 814.695301 461.9592 
L 814.780167 446.5368 
L 815.006476 272.3544 
L 815.089574 294.5808 
L 815.315883 453.3408 
L 815.473238 457.4232 
L 815.547496 453.3408 
L 815.856903 464.6808 
L 815.932929 464.6808 
L 816.092052 410.2488 
L 816.328969 294.5808 
L 816.404995 305.4672 
L 816.793964 485.5464 
L 816.868222 481.9176 
L 817.112211 250.128 
L 817.188237 272.3544 
L 817.654999 468.3096 
L 817.732793 437.0112 
L 817.967942 245.592 
L 818.043968 251.0352 
L 818.203092 317.2608 
L 818.666318 465.1344 
L 818.899699 479.196 
L 819.133081 465.1344 
L 819.283364 457.8768 
L 819.829688 355.8168 
L 820.068374 306.828 
L 820.220425 256.932 
L 820.294683 256.932 
L 820.452038 273.2616 
L 820.833935 381.672 
L 821.219368 489.1752 
L 821.302466 495.072 
L 821.378491 494.1648 
L 821.456285 481.9176 
L 821.765692 288.684 
L 821.841718 294.1272 
L 822.014986 349.0128 
L 822.396882 494.1648 
L 822.554238 510.0408 
L 822.630263 510.0408 
L 822.780547 449.2584 
L 823.013928 327.24 
L 823.089954 329.0544 
L 823.866123 515.0304 
L 824.095968 525.0096 
L 824.171994 525.0096 
L 824.400071 500.5152 
L 824.859762 383.94 
L 825.011813 383.94 
L 825.246962 408.4344 
L 825.324756 403.4448 
L 825.715493 435.6504 
L 825.791519 435.6504 
L 827.046827 500.0616 
L 827.358002 507.7728 
L 827.43226 507.7728 
L 827.89195 518.6592 
L 827.966208 518.6592 
L 828.272079 524.556 
L 828.349872 524.556 
L 828.501924 526.824 
L 828.662815 526.824 
L 828.814867 528.6384 
L 828.97399 528.6384 
L 829.124274 523.6488 
L 829.205604 523.6488 
L 829.515011 515.484 
L 829.739552 506.412 
L 830.28234 487.8144 
L 830.515721 467.856 
L 830.667772 456.516 
L 831.056741 427.4856 
L 831.130999 427.4856 
L 831.360844 413.8776 
L 831.511127 409.3416 
L 831.587153 409.3416 
L 831.663179 399.816 
L 831.744509 364.4352 
L 831.820534 369.4248 
L 831.898328 369.4248 
L 832.071596 363.528 
L 832.223648 363.528 
L 832.382771 368.5176 
L 833.305688 368.5176 
L 833.531997 358.0848 
L 833.616863 358.0848 
L 833.770682 360.3528 
L 833.928038 360.3528 
L 834.080089 355.3632 
L 834.313471 355.3632 
L 834.543316 344.4768 
L 834.617573 344.4768 
L 834.767857 339.0336 
L 834.845651 339.0336 
L 834.995934 333.5904 
L 835.383135 333.5904 
L 835.542258 336.312 
L 836.007253 336.312 
L 836.164608 378.9504 
L 836.314892 378.9504 
L 836.470479 373.5072 
L 837.172391 373.5072 
L 837.324442 317.2608 
L 837.715179 317.2608 
L 837.792973 322.704 
L 837.945024 311.8176 
L 838.024586 311.8176 
L 838.17487 317.2608 
L 838.250895 317.2608 
L 838.482509 328.1472 
L 838.556766 328.1472 
L 838.942199 360.8064 
L 839.87042 483.2784 
L 840.793337 515.0304 
L 840.874666 515.0304 
L 841.026718 517.2984 
L 841.337893 517.2984 
L 841.489944 515.0304 
L 842.494191 515.0304 
L 842.646242 516.3912 
L 842.805366 516.3912 
L 843.033443 520.4736 
L 843.118309 520.4736 
L 843.268592 511.8552 
L 843.500206 511.8552 
L 843.730051 516.3912 
L 844.035922 516.3912 
L 844.186205 518.6592 
L 844.263999 518.6592 
L 844.421354 519.5664 
L 844.884581 519.5664 
L 845.040168 525.4632 
L 845.266477 525.4632 
L 845.422065 527.2776 
L 845.961317 527.2776 
L 846.115136 528.6384 
L 846.585435 528.6384 
L 846.967332 521.3808 
L 847.117615 521.3808 
L 847.285579 519.5664 
L 847.435862 521.3808 
L 847.741733 521.3808 
L 847.900857 520.9272 
L 848.052908 522.7416 
L 849.522149 522.7416 
L 849.674201 524.1024 
L 849.983608 524.1024 
L 850.142731 522.288 
L 850.598885 522.288 
L 850.828731 525.9168 
L 851.132833 525.9168 
L 851.290189 527.7312 
L 851.44224 527.2776 
L 851.905467 527.2776 
L 852.062822 513.6696 
L 853.144863 513.6696 
L 853.303986 513.216 
L 853.765445 513.216 
L 853.921032 458.784 
L 854.836877 458.784 
L 854.992464 461.5056 
L 856.452865 461.5056 
L 856.604917 465.1344 
L 856.76404 464.6808 
L 857.227267 464.6808 
L 857.395231 380.7648 
L 857.775359 359.8992 
L 857.929179 364.8888 
L 858.236818 364.8888 
L 858.390637 370.332 
L 858.547993 369.4248 
L 858.62225 369.4248 
L 858.77607 374.868 
L 858.933425 374.868 
L 859.009451 379.8576 
L 859.166806 481.464 
L 859.241064 481.464 
L 859.391348 487.8144 
L 859.757332 487.8144 
L 859.912919 490.9896 
L 859.988945 490.9896 
L 860.146301 493.7112 
L 860.222326 493.7112 
L 860.374378 496.4328 
L 860.609527 496.4328 
L 860.768651 499.1544 
L 861.389233 499.1544 
L 861.539516 501.876 
L 861.923181 501.876 
L 862.084072 503.6904 
L 862.481881 503.6904 
L 862.557907 462.8664 
L 862.637469 466.4952 
L 862.787752 476.928 
L 863.473752 530.4528 
L 863.707133 537.2568 
L 863.940514 540.432 
L 864.01654 540.432 
L 864.633586 528.1848 
L 864.783869 523.1952 
L 864.865199 523.1952 
L 865.08974 519.1128 
L 865.17107 519.1128 
L 865.560038 511.8552 
L 865.636064 511.8552 
L 866.023265 502.3296 
L 866.106363 509.5872 
L 866.182389 507.3192 
L 866.332672 502.3296 
L 866.638543 481.464 
L 867.736496 403.4448 
L 868.121928 378.9504 
L 868.581619 325.4256 
L 868.731902 309.096 
L 868.963515 280.9728 
L 869.041309 279.612 
L 869.502767 252.396 
L 869.585865 252.396 
L 869.736149 263.2824 
L 869.893504 257.8392 
L 870.199375 285.0552 
L 870.425684 334.9512 
L 871.046266 478.7424 
L 871.357441 502.3296 
L 871.516565 524.556 
L 871.59259 524.556 
L 871.749946 526.3704 
L 871.824204 526.3704 
L 872.057585 522.7416 
L 872.131843 522.7416 
L 872.375832 518.6592 
L 872.527883 518.6592 
L 872.685239 518.2056 
L 872.83729 518.2056 
L 873.070672 514.1232 
L 873.222723 514.1232 
L 873.376543 511.8552 
L 873.452568 511.8552 
L 873.756671 504.144 
L 873.912259 493.2576 
L 874.21813 484.1856 
L 874.295923 484.1856 
L 874.524 489.6288 
L 875.301938 489.6288 
L 875.450453 486.4536 
L 875.839422 486.4536 
L 875.991473 483.2784 
L 876.067499 483.2784 
L 876.228391 485.5464 
L 876.46354 479.196 
L 876.693385 479.196 
L 876.924999 472.392 
L 877.001024 472.392 
L 877.156612 468.7632 
L 877.400601 468.7632 
L 877.549117 465.1344 
L 877.78073 465.1344 
L 877.858524 464.6808 
L 878.091905 456.9696 
L 878.327054 456.9696 
L 878.634693 445.176 
L 878.784976 445.176 
L 878.940564 441.0936 
L 879.014822 441.0936 
L 879.165105 436.5576 
L 879.310084 436.5576 
L 879.771543 413.424 
L 879.847568 413.424 
L 880.156975 398.9088 
L 880.623738 398.9088 
L 880.774021 393.9192 
L 880.931377 393.9192 
L 881.315041 373.9608 
L 881.392835 372.6 
L 881.551959 362.1672 
L 881.787108 340.848 
L 881.940928 335.4048 
L 882.016953 335.4048 
L 882.174309 329.9616 
L 882.248566 329.9616 
L 882.492556 319.0752 
L 882.566814 319.0752 
L 883.954725 225.18 
L 884.105008 225.18 
L 884.33839 215.2008 
L 884.796312 215.2008 
L 884.872338 209.7576 
L 885.031461 213.84 
L 885.26661 213.84 
L 885.494688 223.8192 
L 885.577785 203.8608 
L 885.653811 208.3968 
L 885.802326 223.8192 
L 886.109965 272.3544 
L 886.963929 487.8144 
L 887.123052 493.7112 
L 887.276872 490.536 
L 887.520861 496.4328 
L 887.90099 496.4328 
L 888.056577 493.7112 
L 888.362448 493.7112 
L 888.516268 490.0824 
L 888.825675 490.0824 
L 889.13685 480.5568 
L 890.21005 480.5568 
L 890.370941 482.8248 
L 890.446967 482.8248 
L 890.606091 505.9584 
L 891.30093 505.9584 
L 891.532544 510.4944 
L 891.606801 510.4944 
L 891.840183 515.0304 
L 891.916208 515.0304 
L 892.070028 516.8448 
L 892.550935 516.8448 
L 892.701218 502.7832 
L 893.470315 502.7832 
L 894.089129 481.464 
L 894.165155 481.464 
L 894.318974 478.2888 
L 894.400304 481.464 
L 894.47633 478.2888 
L 894.932484 493.7112 
L 895.013814 493.7112 
L 895.164097 496.4328 
L 895.321453 496.4328 
L 895.395711 499.1544 
L 895.63086 492.804 
L 895.860705 492.804 
L 896.019829 490.0824 
L 896.173648 490.0824 
L 896.339844 492.804 
L 896.490127 490.0824 
L 897.260993 490.0824 
L 897.414812 489.6288 
L 897.895719 489.6288 
L 898.046002 486.4536 
L 899.039641 486.4536 
L 899.577125 454.248 
L 899.653151 446.5368 
L 899.810506 401.6304 
L 899.884764 401.6304 
L 900.040351 396.6408 
L 900.114609 396.6408 
L 900.264892 391.6512 
L 900.804144 391.6512 
L 900.963268 395.7336 
L 901.426494 395.7336 
L 901.58385 390.744 
L 901.893257 390.744 
L 902.517375 428.3928 
L 902.595169 428.3928 
L 902.671194 432.0216 
L 902.82855 490.9896 
L 902.904576 490.9896 
L 903.215751 502.3296 
L 903.366034 522.288 
L 903.519854 524.1024 
L 903.670137 524.1024 
L 903.825725 522.288 
L 904.285415 522.288 
L 904.444538 520.4736 
L 904.907765 520.4736 
L 905.066888 511.8552 
L 905.828914 511.8552 
L 905.904939 514.1232 
L 906.141857 509.5872 
L 906.30098 509.1336 
L 906.529057 504.144 
L 906.764207 504.144 
L 906.921562 493.2576 
L 907.768453 493.2576 
L 908.081396 483.732 
L 908.162726 483.732 
L 908.314778 480.5568 
L 908.472133 480.5568 
L 908.625953 362.6208 
L 909.619591 362.6208 
L 909.778715 356.724 
L 911.392935 356.724 
L 911.468961 361.26 
L 911.628084 512.7624 
L 943.185827 512.7624 
L 943.337879 496.4328 
L 943.802873 496.4328 
L 943.954924 132.6456 
L 944.029182 138.996 
L 944.18477 286.8696 
L 944.335053 286.8696 
L 944.490641 281.4264 
L 944.948563 281.4264 
L 945.105918 286.416 
L 945.25797 286.416 
L 945.3393 291.8592 
L 945.415325 286.416 
L 946.030603 335.8584 
L 946.640577 439.2792 
L 946.877494 473.7528 
L 947.188669 492.804 
L 947.342489 489.6288 
L 947.418515 500.9688 
L 947.498076 498.2472 
L 947.722617 486.9072 
L 947.966607 462.8664 
L 948.504091 393.012 
L 948.73924 372.1464 
L 949.508338 279.612 
L 949.739951 257.3856 
L 949.890234 246.4992 
L 950.196105 225.18 
L 950.586842 256.932 
L 950.814919 295.488 
L 950.896249 317.7144 
L 951.0483 376.6824 
L 951.20212 366.2496 
L 951.352403 366.2496 
L 951.507991 360.8064 
L 951.812093 360.8064 
L 951.960609 350.3736 
L 952.036635 350.3736 
L 952.119732 349.4664 
L 952.271784 344.0232 
L 952.34781 344.0232 
L 952.505165 338.58 
L 952.581191 338.58 
L 952.826948 327.6936 
L 952.901206 327.6936 
L 953.281335 305.4672 
L 953.362664 305.4672 
L 953.587205 294.5808 
L 953.741025 294.5808 
L 953.976174 282.3336 
L 954.361607 282.3336 
L 954.439401 270.9936 
L 954.515426 126.7488 
L 954.594988 129.924 
L 954.671014 129.924 
L 955.049374 142.6248 
L 955.1254 139.4496 
L 955.27922 149.8824 
L 955.509065 178.9128 
L 956.283466 393.9192 
L 956.515079 439.7328 
L 956.82095 456.0624 
L 957.126821 443.8152 
L 957.202847 443.8152 
L 957.361971 435.6504 
L 957.514022 425.2176 
L 957.761548 407.0736 
L 958.070954 377.136 
L 958.3008 356.2704 
L 958.684464 318.168 
L 958.990335 290.4984 
L 959.686943 203.8608 
L 960.068839 184.8096 
L 960.300453 184.8096 
L 960.530298 175.7376 
L 960.606324 175.7376 
L 960.991756 157.5936 
L 961.073086 157.5936 
L 961.225138 153.9648 
L 961.536313 153.9648 
L 961.6919 129.924 
L 961.767926 129.924 
L 961.918209 126.7488 
L 962.149822 126.7488 
L 962.303642 124.0272 
L 962.379668 124.0272 
L 962.453925 121.3056 
L 962.623657 157.5936 
L 962.777477 160.3152 
L 962.934832 156.6864 
L 963.010858 156.6864 
L 963.475852 134.9136 
L 963.705697 134.9136 
L 963.861285 131.7384 
L 963.937311 131.7384 
L 964.087594 129.0168 
L 964.24495 129.0168 
L 964.395233 125.8416 
L 964.480099 125.8416 
L 964.63215 125.388 
L 964.708176 125.388 
L 964.945093 119.9448 
L 965.105985 119.9448 
L 965.256268 128.1096 
L 965.806129 128.1096 
L 965.95818 125.388 
L 966.191561 125.388 
L 966.352453 124.4808 
L 966.665396 124.4808 
L 966.895241 130.3776 
L 967.98789 130.3776 
L 968.148782 129.4704 
L 968.53775 129.4704 
L 968.689802 123.5736 
L 968.995673 123.5736 
L 969.154796 118.584 
L 969.77361 118.584 
L 969.925662 117.6768 
L 970.397728 117.6768 
L 970.548012 115.4088 
L 970.940516 115.4088 
L 971.0908 113.5944 
L 971.476232 113.5944 
L 971.637124 113.1408 
L 972.107423 113.1408 
L 972.259474 127.656 
L 972.427438 127.656 
L 972.733309 136.728 
L 972.809334 136.728 
L 973.815349 183.4488 
L 973.974473 183.4488 
L 974.124756 187.9848 
L 974.200782 187.9848 
L 974.665776 222.912 
L 975.43841 319.5288 
L 975.599301 336.312 
L 976.06076 388.476 
L 976.218115 403.4448 
L 976.60178 439.2792 
L 976.676038 439.2792 
L 976.759135 447.8976 
L 976.836929 446.9904 
L 976.988981 438.8256 
L 977.148104 412.0632 
L 977.623707 268.7256 
L 977.931346 226.0872 
L 978.012676 220.644 
L 978.162959 226.0872 
L 978.470598 226.0872 
L 978.785309 240.6024 
L 978.861335 240.6024 
L 979.096484 251.4888 
L 979.483685 251.4888 
L 979.715298 262.3752 
L 979.946911 262.3752 
L 980.097195 267.8184 
L 980.330576 267.8184 
L 980.491468 266.9112 
L 980.567493 266.9112 
L 980.719545 250.5816 
L 980.878668 256.0248 
L 980.954694 256.0248 
L 981.113818 266.9112 
L 981.957173 266.9112 
L 982.268348 249.6744 
L 982.36559 249.6744 
L 982.517641 244.6848 
L 982.593667 244.6848 
L 982.75279 239.2416 
L 982.904842 244.6848 
L 983.675707 244.6848 
L 983.825991 249.6744 
L 983.912625 249.6744 
L 984.066444 254.664 
L 984.538511 254.664 
L 984.688794 353.5488 
L 985.150252 353.5488 
L 985.300536 342.6624 
L 985.684201 342.6624 
L 985.843324 341.7552 
L 987.402735 341.7552 
L 987.554787 346.7448 
L 988.716389 346.7448 
L 988.871976 341.3016 
L 990.952959 341.3016 
L 991.112083 346.7448 
L 994.059405 346.7448 
L 994.214993 357.1776 
L 994.759549 357.1776 
L 994.9116 362.6208 
L 995.14675 362.6208 
L 995.297033 373.0536 
L 996.218182 373.0536 
L 996.218182 373.0536 
" clip-path="url(#pfb1bf982a2)" style="fill: none; stroke-dasharray: 15,4.5; stroke-dashoffset: 0; stroke: #ffa500; stroke-width: 1.5"/>
   </g>
   <g id="patch_3">
    <path d="M 144 576.72 
L 144 77.76 
" style="fill: none; stroke: #000000; stroke-width: 0.8; stroke-linejoin: miter; stroke-linecap: square"/>
   </g>
   <g id="patch_4">
    <path d="M 1036.8 576.72 
L 1036.8 77.76 
" style="fill: none; stroke: #000000; stroke-width: 0.8; stroke-linejoin: miter; stroke-linecap: square"/>
   </g>
   <g id="patch_5">
    <path d="M 144 576.72 
L 1036.8 576.72 
" style="fill: none; stroke: #000000; stroke-width: 0.8; stroke-linejoin: miter; stroke-linecap: square"/>
   </g>
   <g id="patch_6">
    <path d="M 144 77.76 
L 1036.8 77.76 
" style="fill: none; stroke: #000000; stroke-width: 0.8; stroke-linejoin: miter; stroke-linecap: square"/>
   </g>
   <g id="text_14">
    <!-- Servomotors Commands -->
    <g transform="translate(516.208125 71.76)scale(0.12 -0.12)">
     <defs>
      <path id="DejaVuSans-53" d="M 3425 4513 
L 3425 3897 
Q 3066 4069 2747 4153 
Q 2428 4238 2131 4238 
Q 1616 4238 1336 4038 
Q 1056 3838 1056 3469 
Q 1056 3159 1242 3001 
Q 1428 2844 1947 2747 
L 2328 2669 
Q 3034 2534 3370 2195 
Q 3706 1856 3706 1288 
Q 3706 609 3251 259 
Q 2797 -91 1919 -91 
Q 1588 -91 1214 -16 
Q 841 59 441 206 
L 441 856 
Q 825 641 1194 531 
Q 1563 422 1919 422 
Q 2459 422 2753 634 
Q 3047 847 3047 1241 
Q 3047 1584 2836 1778 
Q 2625 1972 2144 2069 
L 1759 2144 
Q 1053 2284 737 2584 
Q 422 2884 422 3419 
Q 422 4038 858 4394 
Q 1294 4750 2059 4750 
Q 2388 4750 2728 4690 
Q 3069 4631 3425 4513 
z
" transform="scale(0.015625)"/>
      <path id="DejaVuSans-72" d="M 2631 2963 
Q 2534 3019 2420 3045 
Q 2306 3072 2169 3072 
Q 1681 3072 1420 2755 
Q 1159 2438 1159 1844 
L 1159 0 
L 581 0 
L 581 3500 
L 1159 3500 
L 1159 2956 
Q 1341 3275 1631 3429 
Q 1922 3584 2338 3584 
Q 2397 3584 2469 3576 
Q 2541 3569 2628 3553 
L 2631 2963 
z
" transform="scale(0.015625)"/>
      <path id="DejaVuSans-76" d="M 191 3500 
L 800 3500 
L 1894 563 
L 2988 3500 
L 3597 3500 
L 2284 0 
L 1503 0 
L 191 3500 
z
" transform="scale(0.015625)"/>
      <path id="DejaVuSans-74" d="M 1172 4494 
L 1172 3500 
L 2356 3500 
L 2356 3053 
L 1172 3053 
L 1172 1153 
Q 1172 725 1289 603 
Q 1406 481 1766 481 
L 2356 481 
L 2356 0 
L 1766 0 
Q 1100 0 847 248 
Q 594 497 594 1153 
L 594 3053 
L 172 3053 
L 172 3500 
L 594 3500 
L 594 4494 
L 1172 4494 
z
" transform="scale(0.015625)"/>
     </defs>
     <use xlink:href="#DejaVuSans-53"/>
     <use xlink:href="#DejaVuSans-65" x="63.476562"/>
     <use xlink:href="#DejaVuSans-72" x="125"/>
     <use xlink:href="#DejaVuSans-76" x="166.113281"/>
     <use xlink:href="#DejaVuSans-6f" x="225.292969"/>
     <use xlink:href="#DejaVuSans-6d" x="286.474609"/>
     <use xlink:href="#DejaVuSans-6f" x="383.886719"/>
     <use xlink:href="#DejaVuSans-74" x="445.068359"/>
     <use xlink:href="#DejaVuSans-6f" x="484.277344"/>
     <use xlink:href="#DejaVuSans-72" x="545.458984"/>
     <use xlink:href="#DejaVuSans-73" x="586.572266"/>
     <use xlink:href="#DejaVuSans-20" x="638.671875"/>
     <use xlink:href="#DejaVuSans-43" x="670.458984"/>
     <use xlink:href="#DejaVuSans-6f" x="740.283203"/>
     <use xlink:href="#DejaVuSans-6d" x="801.464844"/>
     <use xlink:href="#DejaVuSans-6d" x="898.876953"/>
     <use xlink:href="#DejaVuSans-61" x="996.289062"/>
     <use xlink:href="#DejaVuSans-6e" x="1057.568359"/>
     <use xlink:href="#DejaVuSans-64" x="1120.947266"/>
     <use xlink:href="#DejaVuSans-73" x="1184.423828"/>
    </g>
   </g>
   <g id="legend_1">
    <g id="patch_7">
     <path d="M 907.428125 571.72 
L 1029.8 571.72 
Q 1031.8 571.72 1031.8 569.72 
L 1031.8 526.685625 
Q 1031.8 524.685625 1029.8 524.685625 
L 907.428125 524.685625 
Q 905.428125 524.685625 905.428125 526.685625 
L 905.428125 569.72 
Q 905.428125 571.72 907.428125 571.72 
z
" style="fill: #ffffff; opacity: 0.8; stroke: #cccccc; stroke-linejoin: miter"/>
    </g>
    <g id="line2d_31">
     <path d="M 909.428125 532.784063 
L 919.428125 532.784063 
L 929.428125 532.784063 
" style="fill: none; stroke: #0000ff; stroke-width: 1.5; stroke-linecap: square"/>
    </g>
    <g id="text_15">
     <!-- Rudder Command -->
     <g transform="translate(937.428125 536.284063)scale(0.1 -0.1)">
      <defs>
       <path id="DejaVuSans-52" d="M 2841 2188 
Q 3044 2119 3236 1894 
Q 3428 1669 3622 1275 
L 4263 0 
L 3584 0 
L 2988 1197 
Q 2756 1666 2539 1819 
Q 2322 1972 1947 1972 
L 1259 1972 
L 1259 0 
L 628 0 
L 628 4666 
L 2053 4666 
Q 2853 4666 3247 4331 
Q 3641 3997 3641 3322 
Q 3641 2881 3436 2590 
Q 3231 2300 2841 2188 
z
M 1259 4147 
L 1259 2491 
L 2053 2491 
Q 2509 2491 2742 2702 
Q 2975 2913 2975 3322 
Q 2975 3731 2742 3939 
Q 2509 4147 2053 4147 
L 1259 4147 
z
" transform="scale(0.015625)"/>
       <path id="DejaVuSans-75" d="M 544 1381 
L 544 3500 
L 1119 3500 
L 1119 1403 
Q 1119 906 1312 657 
Q 1506 409 1894 409 
Q 2359 409 2629 706 
Q 2900 1003 2900 1516 
L 2900 3500 
L 3475 3500 
L 3475 0 
L 2900 0 
L 2900 538 
Q 2691 219 2414 64 
Q 2138 -91 1772 -91 
Q 1169 -91 856 284 
Q 544 659 544 1381 
z
M 1991 3584 
L 1991 3584 
z
" transform="scale(0.015625)"/>
      </defs>
      <use xlink:href="#DejaVuSans-52"/>
      <use xlink:href="#DejaVuSans-75" x="64.982422"/>
      <use xlink:href="#DejaVuSans-64" x="128.361328"/>
      <use xlink:href="#DejaVuSans-64" x="191.837891"/>
      <use xlink:href="#DejaVuSans-65" x="255.314453"/>
      <use xlink:href="#DejaVuSans-72" x="316.837891"/>
      <use xlink:href="#DejaVuSans-20" x="357.951172"/>
      <use xlink:href="#DejaVuSans-43" x="389.738281"/>
      <use xlink:href="#DejaVuSans-6f" x="459.5625"/>
      <use xlink:href="#DejaVuSans-6d" x="520.744141"/>
      <use xlink:href="#DejaVuSans-6d" x="618.15625"/>
      <use xlink:href="#DejaVuSans-61" x="715.568359"/>
      <use xlink:href="#DejaVuSans-6e" x="776.847656"/>
      <use xlink:href="#DejaVuSans-64" x="840.226562"/>
     </g>
    </g>
    <g id="line2d_32">
     <path d="M 909.428125 547.462188 
L 919.428125 547.462188 
L 929.428125 547.462188 
" style="fill: none; stroke-dasharray: 15,4.5; stroke-dashoffset: 0; stroke: #ffa500; stroke-width: 1.5"/>
    </g>
    <g id="text_16">
     <!-- Sail Command -->
     <g transform="translate(937.428125 550.962188)scale(0.1 -0.1)">
      <defs>
       <path id="DejaVuSans-6c" d="M 603 4863 
L 1178 4863 
L 1178 0 
L 603 0 
L 603 4863 
z
" transform="scale(0.015625)"/>
      </defs>
      <use xlink:href="#DejaVuSans-53"/>
      <use xlink:href="#DejaVuSans-61" x="63.476562"/>
      <use xlink:href="#DejaVuSans-69" x="124.755859"/>
      <use xlink:href="#DejaVuSans-6c" x="152.539062"/>
      <use xlink:href="#DejaVuSans-20" x="180.322266"/>
      <use xlink:href="#DejaVuSans-43" x="212.109375"/>
      <use xlink:href="#DejaVuSans-6f" x="281.933594"/>
      <use xlink:href="#DejaVuSans-6d" x="343.115234"/>
      <use xlink:href="#DejaVuSans-6d" x="440.527344"/>
      <use xlink:href="#DejaVuSans-61" x="537.939453"/>
      <use xlink:href="#DejaVuSans-6e" x="599.21875"/>
      <use xlink:href="#DejaVuSans-64" x="662.597656"/>
     </g>
    </g>
    <g id="line2d_33">
     <path d="M 909.428125 562.140313 
L 919.428125 562.140313 
L 929.428125 562.140313 
" style="fill: none; stroke-dasharray: 9.6,2.4,1.5,2.4; stroke-dashoffset: 0; stroke: #ff00ff; stroke-width: 1.5"/>
    </g>
    <g id="text_17">
     <!-- RC Mode -->
     <g transform="translate(937.428125 565.640313)scale(0.1 -0.1)">
      <defs>
       <path id="DejaVuSans-4d" d="M 628 4666 
L 1569 4666 
L 2759 1491 
L 3956 4666 
L 4897 4666 
L 4897 0 
L 4281 0 
L 4281 4097 
L 3078 897 
L 2444 897 
L 1241 4097 
L 1241 0 
L 628 0 
L 628 4666 
z
" transform="scale(0.015625)"/>
      </defs>
      <use xlink:href="#DejaVuSans-52"/>
      <use xlink:href="#DejaVuSans-43" x="64.482422"/>
      <use xlink:href="#DejaVuSans-20" x="134.306641"/>
      <use xlink:href="#DejaVuSans-4d" x="166.09375"/>
      <use xlink:href="#DejaVuSans-6f" x="252.373047"/>
      <use xlink:href="#DejaVuSans-64" x="313.554688"/>
      <use xlink:href="#DejaVuSans-65" x="377.03125"/>
     </g>
    </g>
   </g>
  </g>
 </g>
 <defs>
  <clipPath id="pfb1bf982a2">
   <rect x="144" y="77.76" width="892.8" height="498.96"/>
  </clipPath>
 </defs>
</svg>
