<?xml version="1.0" encoding="utf-8" standalone="no"?>
<!DOCTYPE svg PUBLIC "-//W3C//DTD SVG 1.1//EN"
  "http://www.w3.org/Graphics/SVG/1.1/DTD/svg11.dtd">
<svg xmlns:xlink="http://www.w3.org/1999/xlink" width="1152pt" height="648pt" viewBox="0 0 1152 648" xmlns="http://www.w3.org/2000/svg" version="1.1">
 <metadata>
  <rdf:RDF xmlns:dc="http://purl.org/dc/elements/1.1/" xmlns:cc="http://creativecommons.org/ns#" xmlns:rdf="http://www.w3.org/1999/02/22-rdf-syntax-ns#">
   <cc:Work>
    <dc:type rdf:resource="http://purl.org/dc/dcmitype/StillImage"/>
    <dc:date>2024-09-22T15:44:17.208050</dc:date>
    <dc:format>image/svg+xml</dc:format>
    <dc:creator>
     <cc:Agent>
      <dc:title>Matplotlib v3.5.1, https://matplotlib.org/</dc:title>
     </cc:Agent>
    </dc:creator>
   </cc:Work>
  </rdf:RDF>
 </metadata>
 <defs>
  <style type="text/css">*{stroke-linejoin: round; stroke-linecap: butt}</style>
 </defs>
 <g id="figure_1">
  <g id="patch_1">
   <path d="M 0 648 
L 1152 648 
L 1152 0 
L 0 0 
z
" style="fill: #ffffff"/>
  </g>
  <g id="axes_1">
   <g id="patch_2">
    <path d="M 144 576.72 
L 1036.8 576.72 
L 1036.8 77.76 
L 144 77.76 
z
" style="fill: #ffffff"/>
   </g>
   <g id="matplotlib.axis_1">
    <g id="xtick_1">
     <g id="line2d_1">
      <path d="M 184.581818 576.72 
L 184.581818 77.76 
" clip-path="url(#p870fc68d94)" style="fill: none; stroke: #b0b0b0; stroke-width: 0.8; stroke-linecap: square"/>
     </g>
     <g id="line2d_2">
      <defs>
       <path id="md765328719" d="M 0 0 
L 0 3.5 
" style="stroke: #000000; stroke-width: 0.8"/>
      </defs>
      <g>
       <use xlink:href="#md765328719" x="184.581818" y="576.72" style="stroke: #000000; stroke-width: 0.8"/>
      </g>
     </g>
     <g id="text_1">
      <!-- 0 -->
      <g transform="translate(181.400568 591.318438)scale(0.1 -0.1)">
       <defs>
        <path id="DejaVuSans-30" d="M 2034 4250 
Q 1547 4250 1301 3770 
Q 1056 3291 1056 2328 
Q 1056 1369 1301 889 
Q 1547 409 2034 409 
Q 2525 409 2770 889 
Q 3016 1369 3016 2328 
Q 3016 3291 2770 3770 
Q 2525 4250 2034 4250 
z
M 2034 4750 
Q 2819 4750 3233 4129 
Q 3647 3509 3647 2328 
Q 3647 1150 3233 529 
Q 2819 -91 2034 -91 
Q 1250 -91 836 529 
Q 422 1150 422 2328 
Q 422 3509 836 4129 
Q 1250 4750 2034 4750 
z
" transform="scale(0.015625)"/>
       </defs>
       <use xlink:href="#DejaVuSans-30"/>
      </g>
     </g>
    </g>
    <g id="xtick_2">
     <g id="line2d_3">
      <path d="M 361.385801 576.72 
L 361.385801 77.76 
" clip-path="url(#p870fc68d94)" style="fill: none; stroke: #b0b0b0; stroke-width: 0.8; stroke-linecap: square"/>
     </g>
     <g id="line2d_4">
      <g>
       <use xlink:href="#md765328719" x="361.385801" y="576.72" style="stroke: #000000; stroke-width: 0.8"/>
      </g>
     </g>
     <g id="text_2">
      <!-- 100 -->
      <g transform="translate(351.842051 591.318438)scale(0.1 -0.1)">
       <defs>
        <path id="DejaVuSans-31" d="M 794 531 
L 1825 531 
L 1825 4091 
L 703 3866 
L 703 4441 
L 1819 4666 
L 2450 4666 
L 2450 531 
L 3481 531 
L 3481 0 
L 794 0 
L 794 531 
z
" transform="scale(0.015625)"/>
       </defs>
       <use xlink:href="#DejaVuSans-31"/>
       <use xlink:href="#DejaVuSans-30" x="63.623047"/>
       <use xlink:href="#DejaVuSans-30" x="127.246094"/>
      </g>
     </g>
    </g>
    <g id="xtick_3">
     <g id="line2d_5">
      <path d="M 538.189784 576.72 
L 538.189784 77.76 
" clip-path="url(#p870fc68d94)" style="fill: none; stroke: #b0b0b0; stroke-width: 0.8; stroke-linecap: square"/>
     </g>
     <g id="line2d_6">
      <g>
       <use xlink:href="#md765328719" x="538.189784" y="576.72" style="stroke: #000000; stroke-width: 0.8"/>
      </g>
     </g>
     <g id="text_3">
      <!-- 200 -->
      <g transform="translate(528.646034 591.318438)scale(0.1 -0.1)">
       <defs>
        <path id="DejaVuSans-32" d="M 1228 531 
L 3431 531 
L 3431 0 
L 469 0 
L 469 531 
Q 828 903 1448 1529 
Q 2069 2156 2228 2338 
Q 2531 2678 2651 2914 
Q 2772 3150 2772 3378 
Q 2772 3750 2511 3984 
Q 2250 4219 1831 4219 
Q 1534 4219 1204 4116 
Q 875 4013 500 3803 
L 500 4441 
Q 881 4594 1212 4672 
Q 1544 4750 1819 4750 
Q 2544 4750 2975 4387 
Q 3406 4025 3406 3419 
Q 3406 3131 3298 2873 
Q 3191 2616 2906 2266 
Q 2828 2175 2409 1742 
Q 1991 1309 1228 531 
z
" transform="scale(0.015625)"/>
       </defs>
       <use xlink:href="#DejaVuSans-32"/>
       <use xlink:href="#DejaVuSans-30" x="63.623047"/>
       <use xlink:href="#DejaVuSans-30" x="127.246094"/>
      </g>
     </g>
    </g>
    <g id="xtick_4">
     <g id="line2d_7">
      <path d="M 714.993767 576.72 
L 714.993767 77.76 
" clip-path="url(#p870fc68d94)" style="fill: none; stroke: #b0b0b0; stroke-width: 0.8; stroke-linecap: square"/>
     </g>
     <g id="line2d_8">
      <g>
       <use xlink:href="#md765328719" x="714.993767" y="576.72" style="stroke: #000000; stroke-width: 0.8"/>
      </g>
     </g>
     <g id="text_4">
      <!-- 300 -->
      <g transform="translate(705.450017 591.318438)scale(0.1 -0.1)">
       <defs>
        <path id="DejaVuSans-33" d="M 2597 2516 
Q 3050 2419 3304 2112 
Q 3559 1806 3559 1356 
Q 3559 666 3084 287 
Q 2609 -91 1734 -91 
Q 1441 -91 1130 -33 
Q 819 25 488 141 
L 488 750 
Q 750 597 1062 519 
Q 1375 441 1716 441 
Q 2309 441 2620 675 
Q 2931 909 2931 1356 
Q 2931 1769 2642 2001 
Q 2353 2234 1838 2234 
L 1294 2234 
L 1294 2753 
L 1863 2753 
Q 2328 2753 2575 2939 
Q 2822 3125 2822 3475 
Q 2822 3834 2567 4026 
Q 2313 4219 1838 4219 
Q 1578 4219 1281 4162 
Q 984 4106 628 3988 
L 628 4550 
Q 988 4650 1302 4700 
Q 1616 4750 1894 4750 
Q 2613 4750 3031 4423 
Q 3450 4097 3450 3541 
Q 3450 3153 3228 2886 
Q 3006 2619 2597 2516 
z
" transform="scale(0.015625)"/>
       </defs>
       <use xlink:href="#DejaVuSans-33"/>
       <use xlink:href="#DejaVuSans-30" x="63.623047"/>
       <use xlink:href="#DejaVuSans-30" x="127.246094"/>
      </g>
     </g>
    </g>
    <g id="xtick_5">
     <g id="line2d_9">
      <path d="M 891.79775 576.72 
L 891.79775 77.76 
" clip-path="url(#p870fc68d94)" style="fill: none; stroke: #b0b0b0; stroke-width: 0.8; stroke-linecap: square"/>
     </g>
     <g id="line2d_10">
      <g>
       <use xlink:href="#md765328719" x="891.79775" y="576.72" style="stroke: #000000; stroke-width: 0.8"/>
      </g>
     </g>
     <g id="text_5">
      <!-- 400 -->
      <g transform="translate(882.254 591.318438)scale(0.1 -0.1)">
       <defs>
        <path id="DejaVuSans-34" d="M 2419 4116 
L 825 1625 
L 2419 1625 
L 2419 4116 
z
M 2253 4666 
L 3047 4666 
L 3047 1625 
L 3713 1625 
L 3713 1100 
L 3047 1100 
L 3047 0 
L 2419 0 
L 2419 1100 
L 313 1100 
L 313 1709 
L 2253 4666 
z
" transform="scale(0.015625)"/>
       </defs>
       <use xlink:href="#DejaVuSans-34"/>
       <use xlink:href="#DejaVuSans-30" x="63.623047"/>
       <use xlink:href="#DejaVuSans-30" x="127.246094"/>
      </g>
     </g>
    </g>
    <g id="text_6">
     <!-- Time (s) -->
     <g transform="translate(570.071094 604.996562)scale(0.1 -0.1)">
      <defs>
       <path id="DejaVuSans-54" d="M -19 4666 
L 3928 4666 
L 3928 4134 
L 2272 4134 
L 2272 0 
L 1638 0 
L 1638 4134 
L -19 4134 
L -19 4666 
z
" transform="scale(0.015625)"/>
       <path id="DejaVuSans-69" d="M 603 3500 
L 1178 3500 
L 1178 0 
L 603 0 
L 603 3500 
z
M 603 4863 
L 1178 4863 
L 1178 4134 
L 603 4134 
L 603 4863 
z
" transform="scale(0.015625)"/>
       <path id="DejaVuSans-6d" d="M 3328 2828 
Q 3544 3216 3844 3400 
Q 4144 3584 4550 3584 
Q 5097 3584 5394 3201 
Q 5691 2819 5691 2113 
L 5691 0 
L 5113 0 
L 5113 2094 
Q 5113 2597 4934 2840 
Q 4756 3084 4391 3084 
Q 3944 3084 3684 2787 
Q 3425 2491 3425 1978 
L 3425 0 
L 2847 0 
L 2847 2094 
Q 2847 2600 2669 2842 
Q 2491 3084 2119 3084 
Q 1678 3084 1418 2786 
Q 1159 2488 1159 1978 
L 1159 0 
L 581 0 
L 581 3500 
L 1159 3500 
L 1159 2956 
Q 1356 3278 1631 3431 
Q 1906 3584 2284 3584 
Q 2666 3584 2933 3390 
Q 3200 3197 3328 2828 
z
" transform="scale(0.015625)"/>
       <path id="DejaVuSans-65" d="M 3597 1894 
L 3597 1613 
L 953 1613 
Q 991 1019 1311 708 
Q 1631 397 2203 397 
Q 2534 397 2845 478 
Q 3156 559 3463 722 
L 3463 178 
Q 3153 47 2828 -22 
Q 2503 -91 2169 -91 
Q 1331 -91 842 396 
Q 353 884 353 1716 
Q 353 2575 817 3079 
Q 1281 3584 2069 3584 
Q 2775 3584 3186 3129 
Q 3597 2675 3597 1894 
z
M 3022 2063 
Q 3016 2534 2758 2815 
Q 2500 3097 2075 3097 
Q 1594 3097 1305 2825 
Q 1016 2553 972 2059 
L 3022 2063 
z
" transform="scale(0.015625)"/>
       <path id="DejaVuSans-20" transform="scale(0.015625)"/>
       <path id="DejaVuSans-28" d="M 1984 4856 
Q 1566 4138 1362 3434 
Q 1159 2731 1159 2009 
Q 1159 1288 1364 580 
Q 1569 -128 1984 -844 
L 1484 -844 
Q 1016 -109 783 600 
Q 550 1309 550 2009 
Q 550 2706 781 3412 
Q 1013 4119 1484 4856 
L 1984 4856 
z
" transform="scale(0.015625)"/>
       <path id="DejaVuSans-73" d="M 2834 3397 
L 2834 2853 
Q 2591 2978 2328 3040 
Q 2066 3103 1784 3103 
Q 1356 3103 1142 2972 
Q 928 2841 928 2578 
Q 928 2378 1081 2264 
Q 1234 2150 1697 2047 
L 1894 2003 
Q 2506 1872 2764 1633 
Q 3022 1394 3022 966 
Q 3022 478 2636 193 
Q 2250 -91 1575 -91 
Q 1294 -91 989 -36 
Q 684 19 347 128 
L 347 722 
Q 666 556 975 473 
Q 1284 391 1588 391 
Q 1994 391 2212 530 
Q 2431 669 2431 922 
Q 2431 1156 2273 1281 
Q 2116 1406 1581 1522 
L 1381 1569 
Q 847 1681 609 1914 
Q 372 2147 372 2553 
Q 372 3047 722 3315 
Q 1072 3584 1716 3584 
Q 2034 3584 2315 3537 
Q 2597 3491 2834 3397 
z
" transform="scale(0.015625)"/>
       <path id="DejaVuSans-29" d="M 513 4856 
L 1013 4856 
Q 1481 4119 1714 3412 
Q 1947 2706 1947 2009 
Q 1947 1309 1714 600 
Q 1481 -109 1013 -844 
L 513 -844 
Q 928 -128 1133 580 
Q 1338 1288 1338 2009 
Q 1338 2731 1133 3434 
Q 928 4138 513 4856 
z
" transform="scale(0.015625)"/>
      </defs>
      <use xlink:href="#DejaVuSans-54"/>
      <use xlink:href="#DejaVuSans-69" x="57.958984"/>
      <use xlink:href="#DejaVuSans-6d" x="85.742188"/>
      <use xlink:href="#DejaVuSans-65" x="183.154297"/>
      <use xlink:href="#DejaVuSans-20" x="244.677734"/>
      <use xlink:href="#DejaVuSans-28" x="276.464844"/>
      <use xlink:href="#DejaVuSans-73" x="315.478516"/>
      <use xlink:href="#DejaVuSans-29" x="367.578125"/>
     </g>
    </g>
   </g>
   <g id="matplotlib.axis_2">
    <g id="ytick_1">
     <g id="line2d_11">
      <path d="M 144 554.04 
L 1036.8 554.04 
" clip-path="url(#p870fc68d94)" style="fill: none; stroke: #b0b0b0; stroke-width: 0.8; stroke-linecap: square"/>
     </g>
     <g id="line2d_12">
      <defs>
       <path id="mf76ea0d604" d="M 0 0 
L -3.5 0 
" style="stroke: #000000; stroke-width: 0.8"/>
      </defs>
      <g>
       <use xlink:href="#mf76ea0d604" x="144" y="554.04" style="stroke: #000000; stroke-width: 0.8"/>
      </g>
     </g>
     <g id="text_7">
      <!-- 0 -->
      <g transform="translate(130.6375 557.839219)scale(0.1 -0.1)">
       <use xlink:href="#DejaVuSans-30"/>
      </g>
     </g>
    </g>
    <g id="ytick_2">
     <g id="line2d_13">
      <path d="M 144 491.04 
L 1036.8 491.04 
" clip-path="url(#p870fc68d94)" style="fill: none; stroke: #b0b0b0; stroke-width: 0.8; stroke-linecap: square"/>
     </g>
     <g id="line2d_14">
      <g>
       <use xlink:href="#mf76ea0d604" x="144" y="491.04" style="stroke: #000000; stroke-width: 0.8"/>
      </g>
     </g>
     <g id="text_8">
      <!-- 50 -->
      <g transform="translate(124.275 494.839219)scale(0.1 -0.1)">
       <defs>
        <path id="DejaVuSans-35" d="M 691 4666 
L 3169 4666 
L 3169 4134 
L 1269 4134 
L 1269 2991 
Q 1406 3038 1543 3061 
Q 1681 3084 1819 3084 
Q 2600 3084 3056 2656 
Q 3513 2228 3513 1497 
Q 3513 744 3044 326 
Q 2575 -91 1722 -91 
Q 1428 -91 1123 -41 
Q 819 9 494 109 
L 494 744 
Q 775 591 1075 516 
Q 1375 441 1709 441 
Q 2250 441 2565 725 
Q 2881 1009 2881 1497 
Q 2881 1984 2565 2268 
Q 2250 2553 1709 2553 
Q 1456 2553 1204 2497 
Q 953 2441 691 2322 
L 691 4666 
z
" transform="scale(0.015625)"/>
       </defs>
       <use xlink:href="#DejaVuSans-35"/>
       <use xlink:href="#DejaVuSans-30" x="63.623047"/>
      </g>
     </g>
    </g>
    <g id="ytick_3">
     <g id="line2d_15">
      <path d="M 144 428.04 
L 1036.8 428.04 
" clip-path="url(#p870fc68d94)" style="fill: none; stroke: #b0b0b0; stroke-width: 0.8; stroke-linecap: square"/>
     </g>
     <g id="line2d_16">
      <g>
       <use xlink:href="#mf76ea0d604" x="144" y="428.04" style="stroke: #000000; stroke-width: 0.8"/>
      </g>
     </g>
     <g id="text_9">
      <!-- 100 -->
      <g transform="translate(117.9125 431.839219)scale(0.1 -0.1)">
       <use xlink:href="#DejaVuSans-31"/>
       <use xlink:href="#DejaVuSans-30" x="63.623047"/>
       <use xlink:href="#DejaVuSans-30" x="127.246094"/>
      </g>
     </g>
    </g>
    <g id="ytick_4">
     <g id="line2d_17">
      <path d="M 144 365.04 
L 1036.8 365.04 
" clip-path="url(#p870fc68d94)" style="fill: none; stroke: #b0b0b0; stroke-width: 0.8; stroke-linecap: square"/>
     </g>
     <g id="line2d_18">
      <g>
       <use xlink:href="#mf76ea0d604" x="144" y="365.04" style="stroke: #000000; stroke-width: 0.8"/>
      </g>
     </g>
     <g id="text_10">
      <!-- 150 -->
      <g transform="translate(117.9125 368.839219)scale(0.1 -0.1)">
       <use xlink:href="#DejaVuSans-31"/>
       <use xlink:href="#DejaVuSans-35" x="63.623047"/>
       <use xlink:href="#DejaVuSans-30" x="127.246094"/>
      </g>
     </g>
    </g>
    <g id="ytick_5">
     <g id="line2d_19">
      <path d="M 144 302.04 
L 1036.8 302.04 
" clip-path="url(#p870fc68d94)" style="fill: none; stroke: #b0b0b0; stroke-width: 0.8; stroke-linecap: square"/>
     </g>
     <g id="line2d_20">
      <g>
       <use xlink:href="#mf76ea0d604" x="144" y="302.04" style="stroke: #000000; stroke-width: 0.8"/>
      </g>
     </g>
     <g id="text_11">
      <!-- 200 -->
      <g transform="translate(117.9125 305.839219)scale(0.1 -0.1)">
       <use xlink:href="#DejaVuSans-32"/>
       <use xlink:href="#DejaVuSans-30" x="63.623047"/>
       <use xlink:href="#DejaVuSans-30" x="127.246094"/>
      </g>
     </g>
    </g>
    <g id="ytick_6">
     <g id="line2d_21">
      <path d="M 144 239.04 
L 1036.8 239.04 
" clip-path="url(#p870fc68d94)" style="fill: none; stroke: #b0b0b0; stroke-width: 0.8; stroke-linecap: square"/>
     </g>
     <g id="line2d_22">
      <g>
       <use xlink:href="#mf76ea0d604" x="144" y="239.04" style="stroke: #000000; stroke-width: 0.8"/>
      </g>
     </g>
     <g id="text_12">
      <!-- 250 -->
      <g transform="translate(117.9125 242.839219)scale(0.1 -0.1)">
       <use xlink:href="#DejaVuSans-32"/>
       <use xlink:href="#DejaVuSans-35" x="63.623047"/>
       <use xlink:href="#DejaVuSans-30" x="127.246094"/>
      </g>
     </g>
    </g>
    <g id="ytick_7">
     <g id="line2d_23">
      <path d="M 144 176.04 
L 1036.8 176.04 
" clip-path="url(#p870fc68d94)" style="fill: none; stroke: #b0b0b0; stroke-width: 0.8; stroke-linecap: square"/>
     </g>
     <g id="line2d_24">
      <g>
       <use xlink:href="#mf76ea0d604" x="144" y="176.04" style="stroke: #000000; stroke-width: 0.8"/>
      </g>
     </g>
     <g id="text_13">
      <!-- 300 -->
      <g transform="translate(117.9125 179.839219)scale(0.1 -0.1)">
       <use xlink:href="#DejaVuSans-33"/>
       <use xlink:href="#DejaVuSans-30" x="63.623047"/>
       <use xlink:href="#DejaVuSans-30" x="127.246094"/>
      </g>
     </g>
    </g>
    <g id="ytick_8">
     <g id="line2d_25">
      <path d="M 144 113.04 
L 1036.8 113.04 
" clip-path="url(#p870fc68d94)" style="fill: none; stroke: #b0b0b0; stroke-width: 0.8; stroke-linecap: square"/>
     </g>
     <g id="line2d_26">
      <g>
       <use xlink:href="#mf76ea0d604" x="144" y="113.04" style="stroke: #000000; stroke-width: 0.8"/>
      </g>
     </g>
     <g id="text_14">
      <!-- 350 -->
      <g transform="translate(117.9125 116.839219)scale(0.1 -0.1)">
       <use xlink:href="#DejaVuSans-33"/>
       <use xlink:href="#DejaVuSans-35" x="63.623047"/>
       <use xlink:href="#DejaVuSans-30" x="127.246094"/>
      </g>
     </g>
    </g>
    <g id="text_15">
     <!-- Yaw (°) -->
     <g transform="translate(111.832812 344.750156)rotate(-90)scale(0.1 -0.1)">
      <defs>
       <path id="DejaVuSans-59" d="M -13 4666 
L 666 4666 
L 1959 2747 
L 3244 4666 
L 3922 4666 
L 2272 2222 
L 2272 0 
L 1638 0 
L 1638 2222 
L -13 4666 
z
" transform="scale(0.015625)"/>
       <path id="DejaVuSans-61" d="M 2194 1759 
Q 1497 1759 1228 1600 
Q 959 1441 959 1056 
Q 959 750 1161 570 
Q 1363 391 1709 391 
Q 2188 391 2477 730 
Q 2766 1069 2766 1631 
L 2766 1759 
L 2194 1759 
z
M 3341 1997 
L 3341 0 
L 2766 0 
L 2766 531 
Q 2569 213 2275 61 
Q 1981 -91 1556 -91 
Q 1019 -91 701 211 
Q 384 513 384 1019 
Q 384 1609 779 1909 
Q 1175 2209 1959 2209 
L 2766 2209 
L 2766 2266 
Q 2766 2663 2505 2880 
Q 2244 3097 1772 3097 
Q 1472 3097 1187 3025 
Q 903 2953 641 2809 
L 641 3341 
Q 956 3463 1253 3523 
Q 1550 3584 1831 3584 
Q 2591 3584 2966 3190 
Q 3341 2797 3341 1997 
z
" transform="scale(0.015625)"/>
       <path id="DejaVuSans-77" d="M 269 3500 
L 844 3500 
L 1563 769 
L 2278 3500 
L 2956 3500 
L 3675 769 
L 4391 3500 
L 4966 3500 
L 4050 0 
L 3372 0 
L 2619 2869 
L 1863 0 
L 1184 0 
L 269 3500 
z
" transform="scale(0.015625)"/>
       <path id="DejaVuSans-b0" d="M 1600 4347 
Q 1350 4347 1178 4173 
Q 1006 4000 1006 3750 
Q 1006 3503 1178 3333 
Q 1350 3163 1600 3163 
Q 1850 3163 2022 3333 
Q 2194 3503 2194 3750 
Q 2194 3997 2020 4172 
Q 1847 4347 1600 4347 
z
M 1600 4750 
Q 1800 4750 1984 4673 
Q 2169 4597 2303 4453 
Q 2447 4313 2519 4134 
Q 2591 3956 2591 3750 
Q 2591 3338 2302 3052 
Q 2013 2766 1594 2766 
Q 1172 2766 890 3047 
Q 609 3328 609 3750 
Q 609 4169 896 4459 
Q 1184 4750 1600 4750 
z
" transform="scale(0.015625)"/>
      </defs>
      <use xlink:href="#DejaVuSans-59"/>
      <use xlink:href="#DejaVuSans-61" x="47.333984"/>
      <use xlink:href="#DejaVuSans-77" x="108.613281"/>
      <use xlink:href="#DejaVuSans-20" x="190.400391"/>
      <use xlink:href="#DejaVuSans-28" x="222.1875"/>
      <use xlink:href="#DejaVuSans-b0" x="261.201172"/>
      <use xlink:href="#DejaVuSans-29" x="311.201172"/>
     </g>
    </g>
   </g>
   <g id="line2d_27">
    <path d="M 144 100.44 
L 1036.8 100.44 
" clip-path="url(#p870fc68d94)" style="fill: none; stroke-dasharray: 10.5,4.5; stroke-dashoffset: 0; stroke: #808080; stroke-width: 1.5"/>
   </g>
   <g id="line2d_28">
    <path d="M 144 554.04 
L 1036.8 554.04 
" clip-path="url(#p870fc68d94)" style="fill: none; stroke-dasharray: 10.5,4.5; stroke-dashoffset: 0; stroke: #808080; stroke-width: 1.5"/>
   </g>
   <g id="line2d_29">
    <path d="M 184.581818 540.936 
L 197.490277 540.936 
L 197.571607 540.81 
L 197.723658 540.936 
L 198.264678 540.936 
L 198.413194 540.81 
L 198.492756 540.81 
L 198.643039 540.936 
L 216.535602 540.936 
L 216.692958 541.062 
L 216.768983 541.062 
L 216.921035 540.936 
L 218.388508 540.936 
L 218.464533 541.062 
L 218.621889 540.936 
L 218.77394 541.062 
L 220.476563 541.062 
L 220.628614 541.188 
L 229.314994 541.188 
L 229.389252 541.314 
L 229.504174 541.188 
L 229.656226 541.314 
L 229.811813 541.314 
L 229.887839 541.188 
L 230.036354 541.314 
L 231.033529 541.314 
L 231.190884 541.188 
L 231.342936 541.188 
L 231.426033 541.314 
L 231.502059 541.188 
L 231.652343 541.314 
L 232.345414 541.314 
L 232.495698 541.188 
L 232.654821 541.314 
L 232.882898 541.314 
L 233.038486 541.188 
L 233.49464 541.188 
L 233.574202 541.314 
L 233.724485 541.188 
L 233.878305 541.188 
L 234.028588 541.314 
L 234.965649 541.314 
L 235.115933 541.44 
L 235.575623 541.44 
L 235.881494 541.818 
L 236.116643 541.818 
L 236.34472 542.07 
L 236.88574 542.07 
L 237.03956 542.196 
L 237.720255 542.196 
L 237.794513 542.322 
L 237.870539 542.196 
L 238.029662 542.322 
L 238.179946 542.322 
L 238.339069 542.196 
L 238.415095 542.196 
L 238.491121 542.322 
L 238.648476 542.196 
L 242.255277 542.196 
L 242.409097 542.322 
L 242.55938 542.196 
L 242.633638 542.322 
L 242.789225 542.196 
L 242.939509 542.196 
L 243.095096 542.448 
L 243.247148 542.322 
L 243.404503 542.322 
L 243.63258 542.7 
L 243.71391 542.574 
L 243.865962 542.7 
L 244.790646 542.7 
L 244.946234 542.826 
L 246.09546 542.826 
L 246.249279 542.7 
L 247.545253 542.7 
L 247.693768 542.574 
L 247.77333 542.7 
L 247.921845 542.574 
L 255.460767 542.574 
L 255.690612 542.322 
L 256.694859 542.322 
L 256.843374 542.196 
L 264.73944 542.196 
L 265.047079 542.574 
L 266.67898 542.574 
L 266.940649 542.448 
L 297.66211 542.448 
L 297.923779 542.574 
L 298.316284 542.322 
L 300.185102 542.322 
L 300.577607 542.07 
L 301.231782 542.07 
L 301.493452 542.196 
L 302.01856 544.59 
L 302.541899 544.59 
L 302.805337 544.842 
L 303.065239 544.716 
L 303.459512 544.716 
L 303.721182 544.842 
L 303.982852 544.716 
L 304.24629 545.094 
L 304.375357 545.346 
L 304.638795 545.346 
L 304.898697 544.968 
L 305.162134 544.464 
L 305.294737 544.464 
L 305.554639 544.59 
L 306.472252 544.59 
L 306.864757 543.96 
L 307.126427 543.834 
L 307.25903 543.834 
L 307.5207 545.094 
L 307.913204 547.11 
L 308.174874 547.866 
L 308.830817 547.236 
L 309.223322 547.866 
L 309.484992 547.992 
L 309.615827 547.992 
L 310.27177 549.126 
L 310.400836 549.126 
L 310.664274 548.748 
L 311.712722 545.976 
L 312.105227 545.724 
L 312.366897 545.85 
L 312.497732 545.85 
L 312.76117 546.48 
L 313.415344 548.244 
L 313.809617 548.496 
L 313.938684 548.244 
L 314.331189 547.11 
L 314.594627 547.488 
L 314.725462 547.488 
L 314.854529 547.236 
L 315.25057 544.59 
L 315.379637 544.716 
L 315.77391 543.96 
L 315.902976 543.96 
L 316.428084 544.338 
L 316.558919 544.338 
L 316.820589 544.212 
L 317.084027 544.212 
L 317.869037 544.842 
L 318.130707 544.842 
L 318.26331 544.716 
L 318.784881 545.22 
L 319.048319 546.48 
L 319.964164 551.898 
L 320.356669 553.914 
L 320.356669 553.914 
" clip-path="url(#p870fc68d94)" style="fill: none; stroke: #1f77b4; stroke-width: 1.5; stroke-linecap: square"/>
   </g>
   <g id="line2d_30">
    <path d="M 320.356669 553.914 
L 320.489272 100.692 
" clip-path="url(#p870fc68d94)" style="fill: none; stroke: #1f77b4; stroke-opacity: 0.2; stroke-width: 1.5; stroke-linecap: square"/>
   </g>
   <g id="line2d_31">
    <path d="M 320.489272 100.692 
L 320.620107 100.944 
L 320.750942 100.818 
L 320.881777 100.692 
L 321.012612 100.566 
L 321.145215 100.692 
L 321.274281 100.944 
L 321.405116 101.07 
L 321.537719 101.07 
L 321.668554 100.944 
L 321.797621 101.07 
L 321.930224 101.07 
L 322.061059 100.818 
" clip-path="url(#p870fc68d94)" style="fill: none; stroke: #1f77b4; stroke-width: 1.5; stroke-linecap: square"/>
   </g>
   <g id="line2d_32">
    <path d="M 322.061059 100.818 
L 322.191894 553.914 
" clip-path="url(#p870fc68d94)" style="fill: none; stroke: #1f77b4; stroke-opacity: 0.2; stroke-width: 1.5; stroke-linecap: square"/>
   </g>
   <g id="line2d_33">
    <path d="M 322.191894 553.914 
L 322.453564 552.78 
L 322.846069 552.276 
L 323.109507 551.394 
L 323.371177 551.394 
L 323.502012 551.268 
L 323.894516 550.134 
L 324.157954 551.016 
L 324.681294 554.04 
L 324.942964 554.04 
L 325.206402 553.662 
L 325.335469 553.41 
L 325.598907 552.276 
L 326.514751 545.976 
L 326.776421 545.22 
L 327.039859 544.842 
L 327.170694 544.842 
L 327.432364 544.968 
L 327.563199 544.968 
L 327.955704 544.716 
L 328.086539 544.716 
L 328.611647 544.338 
L 328.871549 544.338 
L 329.134987 544.464 
L 329.265821 544.464 
L 329.527491 544.338 
L 330.052599 544.338 
L 330.705006 543.078 
L 332.672834 543.078 
L 332.801901 543.204 
L 332.932736 543.078 
L 333.194406 543.204 
L 335.291301 543.204 
L 335.554739 543.078 
L 335.814641 543.078 
L 336.078079 542.952 
L 336.339749 543.582 
L 336.732254 545.094 
L 337.126527 546.102 
L 337.519031 546.48 
L 337.911536 547.362 
L 338.173206 547.362 
L 338.696546 547.74 
L 338.827381 547.74 
L 339.090819 547.866 
L 339.352489 547.74 
L 339.744994 548.496 
L 340.008431 548.496 
L 340.268333 548.622 
L 340.660838 548.622 
L 340.793441 548.874 
L 341.055111 549.756 
L 341.185946 549.756 
L 341.316781 549.882 
L 341.580219 550.764 
L 341.841889 550.638 
L 342.234394 550.89 
L 342.365229 550.764 
L 342.496063 550.89 
L 342.628666 550.764 
L 342.888568 550.89 
L 343.021171 550.764 
L 343.281073 550.89 
L 343.544511 550.89 
L 343.675346 550.764 
L 343.937016 550.89 
L 344.198686 550.638 
L 344.462124 551.016 
L 344.722026 550.89 
L 344.854629 550.89 
L 345.377968 551.52 
L 345.639638 552.276 
L 345.770473 552.024 
L 345.903076 552.024 
L 346.162978 552.15 
L 346.688086 551.772 
L 346.949756 551.772 
L 347.211426 551.646 
L 348.129038 551.646 
L 348.390708 551.772 
L 348.523311 551.772 
L 348.652378 551.646 
L 348.783213 551.772 
L 349.046651 551.646 
L 353.106071 551.646 
L 353.369508 551.52 
L 357.954036 551.52 
L 358.083103 551.646 
L 358.215706 551.52 
L 358.346541 551.646 
L 358.60821 551.52 
L 363.585243 551.52 
L 363.848681 551.394 
L 370.13583 551.394 
L 370.399268 551.646 
L 370.65917 551.52 
L 371.315113 551.52 
L 371.445948 551.646 
L 371.576783 551.52 
L 371.838452 551.646 
L 372.100122 551.646 
L 372.232725 551.52 
L 372.36356 551.646 
L 372.62523 551.52 
L 373.935348 551.52 
L 374.197018 551.646 
L 374.327853 551.646 
L 374.589522 551.52 
L 374.85296 551.646 
L 374.982027 551.646 
L 375.245465 551.52 
L 375.505367 551.646 
L 375.63797 551.646 
L 375.89964 551.52 
L 376.16131 551.52 
L 376.424748 551.646 
L 376.553815 551.646 
L 376.817253 551.52 
L 377.078923 551.646 
L 377.340592 551.646 
L 377.471427 551.52 
L 377.733097 551.646 
L 378.125602 551.394 
L 378.258205 551.394 
L 378.518107 551.016 
L 378.781545 550.386 
L 379.043215 550.386 
L 379.17405 550.512 
L 379.43572 550.386 
L 379.699158 550.386 
L 379.959059 550.512 
L 380.745837 550.512 
L 381.007507 550.638 
L 381.270945 550.512 
L 382.18679 550.512 
L 382.44846 550.638 
L 382.971799 550.638 
L 383.235237 550.26 
L 383.496907 549.882 
L 383.760345 549.882 
L 384.15285 550.134 
L 385.332132 550.134 
L 385.724637 549.63 
L 386.117142 549 
L 386.509647 549.252 
L 386.773085 549.252 
L 387.032987 549.126 
L 387.425492 549.126 
L 387.68893 549 
L 388.473939 549 
L 388.737377 548.748 
L 388.999047 547.74 
L 389.260717 546.732 
L 389.391552 546.48 
L 389.522387 546.48 
L 389.914892 546.858 
L 390.17833 547.74 
L 390.438231 547.614 
L 390.834272 547.614 
L 391.094174 547.488 
L 392.011787 548.244 
L 392.535127 546.606 
L 392.927632 546.984 
L 393.060235 546.858 
L 393.321904 546.984 
L 393.714409 546.984 
L 393.845244 546.858 
L 394.106914 546.984 
L 395.286197 546.984 
L 395.547867 547.11 
L 396.727149 547.11 
L 396.857984 546.984 
L 397.119654 547.11 
L 397.381324 547.11 
L 397.644762 546.984 
L 397.775597 546.984 
L 398.037267 547.11 
L 398.822276 547.11 
L 399.478219 546.606 
L 399.609054 546.606 
L 399.870724 546.732 
L 400.001559 546.732 
L 400.524899 546.354 
L 400.919172 546.354 
L 401.180841 546.48 
L 401.311676 546.48 
L 401.705949 547.236 
L 402.358356 547.236 
L 402.621794 547.362 
L 402.752629 547.362 
L 402.883464 547.236 
L 403.670242 547.866 
L 404.062746 547.866 
L 404.324416 547.992 
L 404.455251 547.992 
L 404.718689 548.118 
L 405.371096 548.118 
L 405.634534 547.74 
L 405.767137 547.488 
L 406.682981 547.488 
L 406.944651 547.614 
L 407.206321 547.488 
L 407.337156 547.488 
L 407.860496 546.858 
L 408.385604 545.598 
L 409.039779 545.598 
L 409.824788 544.842 
L 410.088226 544.338 
L 410.349896 544.212 
L 411.136674 544.212 
L 411.398344 544.338 
L 411.660014 544.338 
L 411.921683 544.464 
L 412.052518 544.464 
L 412.314188 546.102 
L 412.577626 548.496 
L 412.837528 549.252 
L 413.100966 549.378 
L 413.885976 549.378 
L 414.149414 549.504 
L 414.278481 549.504 
L 414.541918 549.378 
L 414.672753 549.378 
L 414.934423 549.504 
L 415.590366 549.504 
L 415.850268 549.378 
L 420.829068 549.378 
L 421.090738 549.504 
L 421.221573 549.504 
L 421.744913 550.386 
L 422.270021 550.386 
L 422.53169 550.26 
L 424.757653 550.26 
L 425.28276 549.882 
L 427.116218 549.882 
L 427.377888 549.252 
L 427.902995 546.984 
L 428.81884 541.566 
L 429.082278 541.188 
L 429.474783 540.936 
L 429.605618 540.936 
L 429.998123 540.684 
L 430.259793 540.684 
L 430.652297 540.18 
L 431.439075 536.778 
L 431.83158 537.03 
L 432.61659 537.03 
L 432.880028 536.778 
L 433.272532 535.77 
L 433.53597 535.644 
L 433.665037 535.644 
L 433.928475 535.77 
L 434.580882 535.77 
L 434.84432 535.896 
L 435.10599 535.896 
L 435.500263 535.644 
L 435.629329 535.644 
L 435.760164 535.77 
L 436.285272 535.266 
L 436.677777 535.644 
L 437.070282 535.14 
L 437.33372 534.636 
L 437.464555 534.636 
L 437.726225 534.762 
L 438.249565 534.258 
L 438.642069 534.51 
L 438.905507 534.258 
L 439.167177 534.636 
L 439.953955 534.636 
L 440.083022 534.51 
L 440.34646 534.636 
L 441.787412 534.636 
L 442.047314 534.762 
L 442.310752 534.762 
L 442.834092 534.384 
L 444.930987 534.384 
L 445.060054 534.51 
L 445.323492 534.384 
L 445.979435 534.384 
L 446.108502 534.51 
L 446.371939 534.384 
L 447.059707 534.384 
L 447.452212 534.132 
L 447.713882 534.258 
L 447.975552 534.258 
L 448.631494 533.754 
L 449.023999 534.132 
L 449.416504 533.754 
L 449.547339 534.006 
L 450.072447 533.628 
L 450.203282 533.628 
L 450.332349 533.502 
L 450.988291 531.864 
L 451.249961 531.99 
L 451.380796 531.99 
L 451.773301 531.612 
L 452.036739 532.242 
L 452.296641 532.368 
L 452.952584 531.864 
L 453.216022 532.368 
L 453.608527 532.368 
L 453.870196 531.99 
L 454.131866 532.368 
L 454.262701 532.368 
L 454.524371 532.494 
L 455.309381 532.494 
L 455.572819 532.242 
L 455.965324 532.494 
L 456.097927 532.494 
L 456.490431 532.242 
L 456.621266 532.242 
L 457.013771 532.494 
L 457.275441 532.368 
L 457.537111 532.494 
L 457.798781 532.368 
L 458.847229 532.368 
L 459.239733 532.872 
L 459.503171 533.376 
L 461.859968 533.376 
L 462.121638 533.502 
L 462.383308 533.502 
L 462.646746 533.376 
L 462.908416 533.502 
L 465.921156 533.502 
L 466.313661 532.746 
L 466.444496 532.746 
L 466.706166 532.872 
L 467.885448 532.872 
L 468.14535 532.746 
L 469.718905 532.746 
L 469.980575 532.872 
L 470.11141 532.746 
L 470.37308 532.872 
L 471.029023 532.872 
L 471.290693 532.746 
L 472.337372 532.746 
L 472.731645 532.494 
L 473.38582 532.494 
L 473.64749 532.242 
L 473.910928 532.494 
L 474.17083 532.368 
L 475.611782 532.368 
L 475.87522 532.494 
L 476.267725 532.494 
L 476.39856 532.746 
L 476.791065 532.746 
L 477.054503 533.376 
L 477.708677 533.376 
L 478.362852 534.636 
L 478.495455 534.636 
L 478.624522 534.51 
L 478.88796 534.636 
L 480.459747 534.636 
L 480.721417 534.762 
L 480.852252 534.636 
L 481.113922 534.762 
L 481.375592 534.762 
L 481.508195 535.014 
L 482.029767 535.014 
L 482.293205 534.888 
L 483.734157 534.888 
L 483.864992 535.014 
L 483.995827 534.888 
L 484.126662 535.014 
L 484.388332 534.888 
L 485.042507 534.888 
L 485.173342 535.014 
L 485.43678 534.888 
L 486.090954 534.888 
L 486.354392 534.762 
L 498.009311 534.762 
L 498.534419 535.14 
L 500.106206 535.14 
L 500.367876 535.014 
L 503.249781 535.014 
L 503.511451 534.888 
L 503.903956 534.888 
L 504.165625 534.762 
L 504.298228 534.762 
L 505.083238 534.132 
L 505.739181 534.132 
L 506.524191 533.502 
L 507.57087 533.502 
L 507.834308 533.628 
L 508.880988 533.628 
L 509.144426 533.502 
L 509.404327 533.628 
L 510.191105 533.628 
L 510.452775 533.754 
L 510.58361 533.754 
L 510.716213 533.628 
L 510.976115 533.754 
L 511.893727 533.754 
L 512.288 533.502 
L 512.417067 533.502 
L 512.547902 533.376 
L 512.942175 533.628 
L 513.465515 533.628 
L 513.728953 533.88 
L 513.85802 533.754 
L 514.644797 534.384 
L 515.429807 534.384 
L 515.953147 534.006 
L 516.478255 534.006 
L 516.87076 533.754 
L 517.786604 533.754 
L 518.180877 533.502 
L 518.442547 533.502 
L 518.705985 533.628 
L 519.229325 533.628 
L 519.490995 533.754 
L 519.752665 533.628 
L 521.455287 533.628 
L 521.718725 533.754 
L 522.242065 533.754 
L 522.503735 534.132 
L 522.763636 534.258 
L 525.647309 534.258 
L 525.908979 533.754 
L 527.219097 533.754 
L 527.611602 533.502 
L 528.134941 533.502 
L 528.660049 533.124 
L 528.789116 533.124 
L 529.183389 532.872 
L 529.704961 532.872 
L 529.968399 532.746 
L 530.101002 532.746 
L 530.360904 532.872 
L 530.493506 532.872 
L 531.147681 533.502 
L 531.409351 534.006 
L 531.672789 533.754 
L 532.065294 534.006 
L 532.325196 534.006 
L 532.588634 534.132 
L 536.255548 534.132 
L 536.517218 534.258 
L 537.302228 534.258 
L 537.565666 534.132 
L 538.219841 534.132 
L 538.350675 534.006 
L 538.614113 533.376 
L 539.529958 533.376 
L 539.791628 533.25 
L 539.922463 533.25 
L 540.184133 533.124 
L 540.314968 533.124 
L 540.578406 533.25 
L 540.707473 533.25 
L 540.970911 533.124 
L 549.353187 533.124 
L 549.484022 532.998 
L 549.745692 532.494 
L 550.138197 532.746 
L 550.401635 532.746 
L 550.79414 532.998 
L 551.054042 532.62 
L 551.31748 532.116 
L 551.579149 532.242 
L 551.709984 532.242 
L 551.840819 532.116 
L 552.102489 532.242 
L 554.986162 532.242 
L 555.246064 533.754 
L 555.378667 533.88 
L 555.638569 533.754 
L 558.258804 533.754 
L 558.783912 534.384 
L 559.307252 535.644 
L 560.615601 535.644 
L 560.879039 535.77 
L 561.140709 535.77 
L 561.664049 536.148 
L 562.579893 536.148 
L 562.843331 536.022 
L 563.235836 536.022 
L 563.760944 535.644 
L 563.891779 535.644 
L 564.153449 535.77 
L 565.069293 535.77 
L 565.332731 535.896 
L 567.297024 535.896 
L 567.427859 536.148 
L 567.689528 537.534 
L 567.94943 538.92 
L 568.605373 538.92 
L 568.868811 538.794 
L 569.130481 538.92 
L 569.392151 538.794 
L 569.917259 538.794 
L 570.046325 538.542 
L 570.43883 538.542 
L 571.356443 536.904 
L 571.618113 536.904 
L 571.881551 537.03 
L 572.010618 537.03 
L 572.141453 537.408 
L 572.666561 540.432 
L 572.797395 540.306 
L 573.1899 537.912 
L 573.582405 536.022 
L 573.845843 535.896 
L 574.369183 535.896 
L 574.630853 536.022 
L 574.761688 535.896 
L 575.154193 536.148 
L 576.20264 536.148 
L 576.46431 535.644 
L 576.595145 535.644 
L 576.858583 535.518 
L 577.118485 535.518 
L 577.51099 535.266 
L 577.643593 535.392 
L 577.903494 535.266 
L 578.428602 535.266 
L 578.559437 535.14 
L 578.822875 535.266 
L 579.082777 535.14 
L 584.88018 535.14 
L 585.140082 535.014 
L 585.665189 535.014 
L 585.926859 534.888 
L 587.236977 534.888 
L 587.629482 534.636 
L 588.023754 534.636 
L 588.283656 534.51 
L 590.249717 534.51 
L 590.380552 534.384 
L 590.642221 534.51 
L 591.165561 534.51 
L 591.296396 534.384 
L 591.558066 534.51 
L 591.688901 534.51 
L 591.952339 534.384 
L 592.868184 534.384 
L 593.000787 534.258 
L 593.260688 532.998 
L 593.653193 530.982 
L 593.916631 530.1 
L 594.045698 529.974 
L 594.178301 530.1 
L 594.439971 531.108 
L 594.701641 532.242 
L 594.965079 532.242 
L 595.094146 532.116 
L 595.224981 531.738 
L 595.486651 531.738 
L 595.750089 531.864 
L 598.532983 531.864 
L 598.794653 531.99 
L 598.925488 531.99 
L 599.188926 531.864 
L 599.450596 531.99 
L 599.581431 531.99 
L 599.710498 531.864 
L 599.973936 531.99 
L 600.88978 531.99 
L 601.282285 532.242 
L 601.545723 532.242 
L 601.938228 531.36 
L 602.986676 531.36 
L 603.510015 531.738 
L 603.771685 531.738 
L 604.033355 532.116 
L 604.165958 532.368 
L 604.42586 532.368 
L 604.950968 531.99 
L 605.212638 532.62 
L 605.474308 532.494 
L 605.735977 532.494 
L 605.999415 532.368 
L 606.13025 532.368 
L 606.39192 532.494 
L 606.65359 532.494 
L 606.91526 532.368 
L 607.046095 532.368 
L 607.307765 531.99 
L 607.571203 531.486 
L 607.831105 531.486 
L 608.094543 531.36 
L 608.356212 531.36 
L 608.879552 530.982 
L 609.272057 530.982 
L 609.535495 531.108 
L 609.664562 531.108 
L 609.928 530.982 
L 610.187902 531.108 
L 610.320505 531.108 
L 610.974679 531.738 
L 611.236349 532.368 
L 612.023127 532.368 
L 612.284797 532.494 
L 612.415632 532.494 
L 612.677302 532.368 
L 612.808137 532.368 
L 613.071575 532.494 
L 613.200642 532.494 
L 613.46408 532.368 
L 613.725749 532.494 
L 613.856584 532.494 
L 614.118254 532.368 
L 614.249089 532.368 
L 614.512527 532.494 
L 614.641594 532.494 
L 615.164934 532.116 
L 616.084315 532.116 
L 616.344216 532.494 
L 616.605886 532.368 
L 616.869324 532.494 
L 620.012899 532.494 
L 620.274569 532.62 
L 624.072319 532.62 
L 624.333988 533.124 
L 624.595658 534.258 
L 626.036611 545.976 
L 626.430884 545.724 
L 626.690786 545.724 
L 626.954223 545.598 
L 627.08329 545.598 
L 627.346728 544.968 
L 627.477563 544.842 
L 628.395176 545.598 
L 629.047583 545.598 
L 629.311021 545.724 
L 629.441855 545.346 
L 629.57269 545.346 
L 630.228633 547.488 
L 630.359468 547.614 
L 631.275313 546.858 
L 631.407916 546.984 
L 631.800421 548.874 
L 631.931256 549.504 
L 632.192925 549.378 
L 632.32376 549.378 
L 632.716265 549.126 
L 632.8471 549.126 
L 632.977935 549.378 
L 633.239605 549.378 
L 635.766134 549.504 
L 635.919953 547.74 
L 635.994211 547.74 
L 636.22936 547.236 
L 636.305386 547.236 
L 636.475118 547.11 
L 636.927736 547.11 
L 637.083324 546.984 
L 637.231839 546.984 
L 637.307865 547.11 
L 638.313879 545.472 
L 638.462395 545.094 
L 638.616214 544.968 
L 638.994575 544.968 
L 639.222652 544.716 
L 639.380007 544.842 
L 640.990692 544.842 
L 641.142743 544.716 
L 641.837583 544.716 
L 641.986098 544.59 
L 642.141686 544.716 
L 642.668561 544.716 
L 642.824149 544.59 
L 643.131788 544.59 
L 643.358097 544.842 
L 643.587942 544.842 
L 643.741762 544.716 
L 643.814251 544.716 
L 644.116586 544.338 
L 644.418921 544.338 
L 644.730096 544.716 
L 644.880379 544.716 
L 645.039503 544.59 
L 645.264044 544.59 
L 645.566379 544.212 
L 646.174584 544.212 
L 646.333708 544.086 
L 646.961362 544.086 
L 647.643826 542.07 
L 647.718083 542.07 
L 647.866599 541.944 
L 647.947928 541.944 
L 648.025722 541.818 
L 648.56851 538.92 
L 648.796587 539.424 
L 648.952175 540.18 
L 649.330536 542.196 
L 649.793762 543.456 
L 650.338318 544.212 
L 650.569931 544.212 
L 650.644189 544.338 
L 650.798009 544.212 
L 650.874034 544.212 
L 651.328421 544.842 
L 651.407982 544.842 
L 652.191224 545.976 
L 652.26725 545.976 
L 652.571353 546.732 
L 652.958553 546.732 
L 653.414708 545.472 
L 653.646321 545.22 
L 653.955728 545.85 
L 654.183805 546.984 
L 654.712449 551.268 
L 655.016552 553.662 
L 655.016552 553.662 
" clip-path="url(#p870fc68d94)" style="fill: none; stroke: #1f77b4; stroke-width: 1.5; stroke-linecap: square"/>
   </g>
   <g id="line2d_34">
    <path d="M 655.016552 553.662 
L 655.096113 100.818 
" clip-path="url(#p870fc68d94)" style="fill: none; stroke: #1f77b4; stroke-opacity: 0.2; stroke-width: 1.5; stroke-linecap: square"/>
   </g>
   <g id="line2d_35">
    <path d="M 655.096113 100.818 
L 655.799793 108.504 
L 656.105664 110.016 
L 656.330205 110.898 
L 656.56005 113.166 
L 657.955034 134.838 
L 658.411188 137.736 
L 658.49075 137.736 
L 658.644569 137.358 
L 658.800157 136.602 
L 659.107796 135.216 
L 659.261615 135.216 
L 659.337641 135.342 
L 659.417203 135.216 
L 659.49146 135.342 
L 659.871589 137.61 
L 660.175692 139.248 
L 660.331279 139.5 
L 660.485099 139.122 
L 661.103913 135.468 
L 661.33199 135.09 
L 661.484041 135.468 
L 661.885386 134.712 
L 662.111695 134.334 
L 662.424638 131.94 
L 662.737582 128.286 
L 663.046989 126.144 
L 663.128318 126.144 
L 663.823158 129.168 
L 663.976977 129.546 
L 664.061843 129.546 
L 664.374786 128.79 
L 664.604632 129.294 
L 664.838013 130.68 
L 665.614182 145.044 
L 666.568924 170.244 
L 667.026846 184.23 
L 667.336253 189.144 
L 667.57317 190.782 
L 668.199057 194.31 
L 668.504927 196.074 
L 668.664051 196.578 
L 668.814334 195.822 
L 669.120205 193.05 
L 669.670066 184.86 
L 669.823885 182.97 
L 670.603591 168.48 
L 671.151683 158.778 
L 671.63259 153.234 
L 672.948012 138.87 
L 673.4908 134.586 
L 674.647098 126.144 
L 675.347242 122.112 
L 676.119875 117.954 
L 677.223132 112.914 
L 677.380487 112.158 
L 679.772645 100.692 
L 679.772645 100.692 
" clip-path="url(#p870fc68d94)" style="fill: none; stroke: #1f77b4; stroke-width: 1.5; stroke-linecap: square"/>
   </g>
   <g id="line2d_36">
    <path d="M 679.772645 100.692 
L 679.850439 554.04 
" clip-path="url(#p870fc68d94)" style="fill: none; stroke: #1f77b4; stroke-opacity: 0.2; stroke-width: 1.5; stroke-linecap: square"/>
   </g>
   <g id="line2d_37">
    <path d="M 679.850439 554.04 
L 683.902786 534.384 
L 685.311914 529.722 
L 686.758171 526.572 
L 688.253932 524.304 
L 688.32819 524.304 
L 688.623453 523.926 
L 688.692406 523.926 
L 688.922251 523.674 
L 688.991205 523.674 
L 689.290004 523.296 
L 689.364261 523.296 
L 689.58173 523.044 
L 689.655988 523.044 
L 689.949483 522.666 
L 690.02374 522.666 
L 690.241209 522.414 
L 690.317235 522.414 
L 690.460446 522.288 
L 690.540008 522.288 
L 690.759245 522.036 
L 690.83527 522.036 
L 691.208327 521.532 
L 691.284353 521.532 
L 692.403522 519.642 
L 692.479548 519.642 
L 693.229196 518.13 
L 693.9205 516.114 
L 694.079624 515.736 
L 695.009613 512.964 
L 695.234154 512.46 
L 696.249008 509.688 
L 696.632673 509.184 
L 696.708699 509.184 
L 696.954456 508.932 
L 697.028714 508.932 
L 697.410611 508.428 
L 697.493708 508.428 
L 697.806652 508.05 
L 697.882677 508.05 
L 698.501491 507.168 
L 698.575749 507.168 
L 698.80913 506.916 
L 698.883388 506.916 
L 699.189259 506.538 
L 699.346614 506.538 
L 699.574691 506.286 
L 700.727453 506.286 
L 700.957299 506.034 
L 701.10935 506.034 
L 701.266705 505.908 
L 703.338848 505.908 
L 703.497972 505.782 
L 703.572229 505.782 
L 703.803843 505.53 
L 703.954126 505.53 
L 704.111482 505.404 
L 704.259997 505.404 
L 705.11396 503.892 
L 705.803496 502.002 
L 706.111135 501.372 
L 706.655691 499.986 
L 706.903216 499.356 
L 707.361139 498.222 
L 708.209798 495.954 
L 708.756122 494.946 
L 708.984199 494.442 
L 710.285477 492.174 
L 710.743399 490.914 
L 710.973244 490.41 
L 711.277347 489.654 
L 711.661012 488.898 
L 712.138382 487.89 
L 712.75366 486.756 
L 713.443196 484.74 
L 713.595247 484.362 
L 714.065546 483.228 
L 714.371417 482.598 
L 714.680824 481.842 
L 715.610813 480.456 
L 715.686838 480.456 
L 715.845962 480.33 
L 716.070503 480.33 
L 716.227859 480.456 
L 716.303884 480.456 
L 716.378142 480.582 
L 716.533729 480.456 
L 716.609755 480.456 
L 716.781255 480.582 
L 716.933306 480.456 
L 717.559193 480.456 
L 717.716548 480.582 
L 717.866831 480.456 
L 717.941089 480.456 
L 718.098445 480.582 
L 718.172702 480.582 
L 718.330058 480.708 
L 719.41033 480.708 
L 719.640175 480.96 
L 719.714433 480.96 
L 719.946046 481.212 
L 720.020304 481.212 
L 720.324407 481.59 
L 720.400433 481.59 
L 720.559556 481.716 
L 720.635582 481.716 
L 720.794705 481.842 
L 720.872499 481.842 
L 721.10588 482.094 
L 721.181906 482.094 
L 721.332189 482.22 
L 721.411751 482.22 
L 721.737071 482.598 
L 721.811328 482.598 
L 722.193225 483.102 
L 722.656451 483.102 
L 722.817343 483.228 
L 722.893369 483.228 
L 723.360131 483.858 
L 723.510415 483.858 
L 723.818053 484.236 
L 723.894079 484.236 
L 724.129229 484.488 
L 724.286584 484.488 
L 724.438635 484.614 
L 724.514661 484.614 
L 724.74981 484.866 
L 724.824068 484.866 
L 725.057449 485.118 
L 725.133475 485.118 
L 725.365088 485.37 
L 725.522444 485.37 
L 725.672727 485.496 
L 726.531995 485.496 
L 726.682278 485.37 
L 727.774927 485.37 
L 728.010076 485.118 
L 728.162127 485.118 
L 728.395509 484.866 
L 728.775637 484.866 
L 728.931225 484.992 
L 729.390915 484.992 
L 729.546503 484.866 
L 729.85591 484.866 
L 730.009729 484.992 
L 730.773522 484.992 
L 730.923806 484.866 
L 730.998063 484.866 
L 731.155419 484.74 
L 732.014686 484.74 
L 732.239227 484.488 
L 732.318789 484.488 
L 732.545098 484.236 
L 732.774943 484.236 
L 732.928763 484.11 
L 733.089654 484.11 
L 733.241706 483.984 
L 733.323036 483.984 
L 733.858752 483.228 
L 733.940082 483.228 
L 734.862998 481.842 
L 734.939024 481.842 
L 735.326225 481.338 
L 735.400482 481.338 
L 736.095322 480.456 
L 736.16958 480.456 
L 736.319863 480.33 
L 736.878564 480.33 
L 737.037687 480.456 
L 737.111945 480.456 
L 737.262228 480.582 
L 737.493842 480.582 
L 737.651197 480.456 
L 737.725455 480.456 
L 738.270011 479.7 
L 738.346037 479.7 
L 738.498088 479.574 
L 738.579418 479.574 
L 738.733237 479.448 
L 739.725108 479.448 
L 739.880695 479.322 
L 740.808916 479.322 
L 741.114787 479.7 
L 741.189045 479.7 
L 742.656518 481.968 
L 742.730776 481.968 
L 742.962389 482.22 
L 743.036646 482.22 
L 743.346053 482.598 
L 743.422079 482.598 
L 743.735022 482.976 
L 743.811048 482.976 
L 745.043372 484.74 
L 745.124701 484.74 
L 745.278521 484.866 
L 745.437645 484.866 
L 745.74882 485.244 
L 745.826613 485.244 
L 746.369402 486 
L 746.443659 486 
L 747.536308 487.638 
L 747.845715 488.016 
L 747.927045 488.016 
L 748.460993 488.772 
L 748.540554 488.772 
L 748.768632 489.024 
L 748.851729 489.024 
L 749.161136 489.402 
L 749.237162 489.402 
L 749.544801 489.78 
L 749.695084 489.78 
L 749.850672 489.906 
L 749.92493 489.906 
L 750.080517 490.032 
L 751.00697 490.032 
L 751.160789 490.158 
L 751.236815 490.158 
L 751.46666 490.41 
L 751.540918 490.41 
L 751.938727 490.788 
L 753.407968 490.788 
L 753.563556 490.914 
L 753.639581 490.914 
L 753.945452 491.292 
L 754.802951 491.292 
L 754.953235 491.418 
L 755.029261 491.418 
L 755.184848 491.544 
L 756.038811 491.544 
L 756.903383 492.804 
L 756.986481 492.804 
L 757.136764 492.93 
L 757.211022 492.93 
L 757.368377 493.056 
L 758.839386 493.056 
L 758.915412 493.182 
L 759.065696 493.056 
L 759.145257 493.056 
L 759.840097 492.048 
L 759.993916 492.174 
L 760.073478 492.174 
L 760.379349 492.552 
L 760.453607 492.552 
L 760.683452 492.804 
L 760.833735 492.678 
L 761.302266 492.678 
L 761.931688 493.56 
L 762.007714 493.56 
L 762.463868 494.19 
L 762.539894 494.19 
L 763.7068 495.828 
L 763.782826 495.828 
L 763.940181 495.954 
L 764.171795 495.954 
L 764.322078 496.08 
L 764.396336 496.08 
L 764.78884 496.584 
L 764.866634 496.584 
L 765.101783 496.836 
L 765.177809 496.836 
L 765.414727 497.088 
L 765.488984 497.088 
L 765.641036 497.214 
L 765.722365 497.214 
L 765.872649 497.34 
L 766.104262 497.34 
L 766.17852 497.214 
L 766.335875 497.34 
L 766.563952 497.34 
L 766.73722 497.466 
L 766.813246 497.466 
L 767.048395 497.718 
L 767.124421 497.718 
L 767.356034 497.97 
L 767.665441 497.97 
L 767.815725 497.844 
L 768.282487 497.844 
L 768.669688 498.348 
L 768.745714 498.348 
L 768.977327 498.6 
L 769.131146 498.6 
L 769.28143 498.726 
L 769.665094 498.726 
L 769.894939 498.474 
L 769.974501 498.474 
L 770.207883 498.222 
L 770.285676 498.222 
L 770.443032 498.096 
L 770.519058 498.096 
L 770.676413 497.97 
L 771.056542 497.97 
L 771.288155 497.718 
L 771.362413 497.718 
L 771.682428 497.34 
L 771.760221 497.34 
L 771.993603 497.088 
L 772.069628 497.088 
L 772.458597 496.584 
L 772.532855 496.584 
L 772.691978 496.458 
L 773.855349 496.458 
L 774.085194 496.206 
L 774.168292 496.206 
L 774.392833 495.954 
L 775.239724 495.954 
L 775.398847 495.828 
L 775.474873 495.828 
L 775.71179 495.576 
L 775.789584 495.576 
L 776.024734 495.324 
L 776.100759 495.324 
L 776.251043 495.198 
L 776.332372 495.198 
L 776.482656 495.072 
L 776.652388 495.072 
L 776.800903 494.946 
L 777.501047 494.946 
L 777.66017 494.82 
L 778.27368 494.82 
L 778.423964 494.946 
L 778.811164 494.946 
L 779.734081 496.332 
L 779.810107 496.332 
L 780.039952 496.584 
L 780.11421 496.584 
L 780.807281 497.844 
L 781.194482 498.852 
L 781.498585 499.482 
L 782.499295 501.876 
L 783.202975 502.758 
L 783.277233 502.758 
L 783.508846 503.01 
L 783.733387 503.01 
L 783.890743 503.136 
L 785.582757 503.136 
L 785.816138 502.884 
L 785.893932 502.884 
L 786.127313 502.632 
L 786.203339 502.632 
L 786.362462 502.506 
L 786.438488 502.506 
L 787.603626 500.742 
L 787.68142 500.742 
L 787.992595 500.112 
L 789.219615 492.678 
L 789.914454 488.772 
L 790.527964 484.866 
L 791.300598 480.708 
L 792.324293 475.542 
L 792.943107 472.14 
L 794.799548 463.446 
L 797.437464 454.374 
L 798.049206 450.972 
L 798.436406 448.956 
L 800.4449 442.53 
L 801.915909 435.726 
L 802.151058 434.718 
L 803.001485 430.938 
L 803.151769 430.182 
L 804.387628 423 
L 805.462597 419.85 
L 805.614648 419.724 
L 805.697746 419.724 
L 807.333183 417.204 
L 807.563028 417.204 
L 807.957301 417.708 
L 808.26494 417.708 
L 808.339197 417.582 
L 808.572579 418.086 
L 809.345212 421.488 
L 809.732413 423.126 
L 811.590623 431.19 
L 812.303143 432.828 
L 812.379168 432.828 
L 812.532988 432.45 
L 812.844163 429.3 
L 813.462977 419.598 
L 814.438935 402.84 
L 814.93045 397.674 
L 815.165599 396.54 
L 815.315883 396.414 
L 815.473238 396.792 
L 815.780877 398.934 
L 816.481021 405.486 
L 817.188237 413.298 
L 817.808819 418.212 
L 818.590292 422.37 
L 819.283364 423.378 
L 819.357622 423.378 
L 820.452038 426.78 
L 822.780547 441.522 
L 824.476097 448.956 
L 825.246962 451.224 
L 825.324756 451.224 
L 825.48388 451.35 
L 825.791519 451.35 
L 826.406796 452.232 
L 826.482822 452.232 
L 826.801069 452.61 
L 826.877095 452.61 
L 827.358002 453.114 
L 827.43226 453.114 
L 827.587847 453.24 
L 827.73813 453.24 
L 828.196053 453.87 
L 828.272079 453.87 
L 828.425898 453.996 
L 828.585022 453.996 
L 829.589268 455.508 
L 829.971165 455.508 
L 830.130288 455.634 
L 830.206314 455.634 
L 830.591747 456.138 
L 830.667772 456.138 
L 830.825128 456.264 
L 831.744509 456.264 
L 831.898328 456.138 
L 833.305688 456.138 
L 833.455971 456.264 
L 834.237445 456.264 
L 834.463754 456.516 
L 834.543316 456.516 
L 834.691831 456.642 
L 835.853433 456.642 
L 836.007253 456.516 
L 837.557824 456.516 
L 837.792973 456.264 
L 838.250895 456.264 
L 838.406483 456.138 
L 838.482509 456.138 
L 838.714122 455.886 
L 838.942199 455.886 
L 839.336472 455.382 
L 839.412497 455.382 
L 839.564549 455.256 
L 840.103801 455.256 
L 840.257621 455.13 
L 840.333646 455.13 
L 840.48393 455.004 
L 842.805366 455.004 
L 842.957417 454.878 
L 843.574463 454.878 
L 843.730051 454.752 
L 845.190452 454.752 
L 845.347807 454.626 
L 846.585435 454.626 
L 846.813512 454.878 
L 847.285579 454.878 
L 847.435862 454.752 
L 849.983608 454.752 
L 850.066705 454.878 
L 850.218757 454.752 
L 850.524628 454.752 
L 850.754473 454.5 
L 853.144863 454.5 
L 853.227961 454.374 
L 853.380012 454.5 
L 853.456038 454.374 
L 853.613393 454.5 
L 853.765445 454.5 
L 853.921032 454.626 
L 853.99529 454.626 
L 854.150877 454.752 
L 854.225135 454.752 
L 854.45498 455.004 
L 854.529238 455.004 
L 854.992464 455.634 
L 855.06849 455.634 
L 855.225846 455.76 
L 856.452865 455.76 
L 856.688015 456.012 
L 856.76404 456.012 
L 857.075215 456.39 
L 857.151241 456.39 
L 857.545514 456.894 
L 857.625076 456.894 
L 857.849617 457.146 
L 858.466663 457.146 
L 858.77607 456.768 
L 859.31709 456.768 
L 859.608816 456.39 
L 859.683074 456.39 
L 859.838662 456.264 
L 860.609527 456.264 
L 860.768651 456.39 
L 861.615542 456.39 
L 861.771129 456.264 
L 861.847155 456.264 
L 862.008046 456.138 
L 862.557907 456.138 
L 863.017597 455.508 
L 863.093623 455.508 
L 863.555081 454.878 
L 863.629339 454.878 
L 863.940514 454.5 
L 864.01654 454.5 
L 864.709611 453.492 
L 865.17107 453.492 
L 865.482245 453.114 
L 865.560038 453.114 
L 865.795188 452.862 
L 865.871214 452.862 
L 866.564285 451.854 
L 866.638543 451.854 
L 866.870156 451.602 
L 866.946182 451.602 
L 867.255589 451.224 
L 867.351063 451.224 
L 867.66047 450.846 
L 867.736496 450.846 
L 867.971645 450.594 
L 868.045902 450.594 
L 869.502767 448.326 
L 869.585865 448.326 
L 869.736149 448.2 
L 869.812174 448.2 
L 870.892447 446.688 
L 870.97024 446.688 
L 871.281415 446.31 
L 871.357441 446.31 
L 872.131843 445.302 
L 872.761265 445.302 
L 872.913316 445.176 
L 872.994646 445.176 
L 873.222723 444.924 
L 873.376543 444.924 
L 873.608156 444.672 
L 873.682413 444.672 
L 873.988284 444.294 
L 874.21813 444.294 
L 874.447975 444.546 
L 874.920041 444.546 
L 875.070325 444.42 
L 875.533551 444.42 
L 875.683835 444.546 
L 876.693385 444.546 
L 876.850741 444.42 
L 877.625142 444.42 
L 877.78073 444.294 
L 877.858524 444.294 
L 878.015879 444.168 
L 878.634693 444.168 
L 878.784976 444.042 
L 878.861002 444.042 
L 879.090847 443.79 
L 879.165105 443.79 
L 879.460368 443.412 
L 879.536393 443.412 
L 879.695517 443.286 
L 879.847568 443.286 
L 880.004924 443.16 
L 880.240073 443.16 
L 880.390357 443.286 
L 880.46815 443.286 
L 880.623738 443.16 
L 880.931377 443.16 
L 881.16299 442.908 
L 881.237248 442.908 
L 881.627984 442.404 
L 881.70401 442.404 
L 881.863134 442.278 
L 882.41653 442.278 
L 882.722401 441.9 
L 882.796659 441.9 
L 883.10253 441.522 
L 883.180323 441.522 
L 883.647086 440.892 
L 883.723112 440.892 
L 883.954725 440.64 
L 884.028983 440.64 
L 884.33839 440.262 
L 884.412647 440.262 
L 884.646028 440.01 
L 885.26661 440.01 
L 885.577785 439.632 
L 885.653811 439.632 
L 885.959682 439.254 
L 886.03394 439.254 
L 886.963929 437.868 
L 887.446604 437.868 
L 887.671145 437.616 
L 887.750706 437.616 
L 887.975247 437.364 
L 888.516268 437.364 
L 888.671855 437.238 
L 891.224905 437.238 
L 891.532544 437.616 
L 891.606801 437.616 
L 891.757085 437.742 
L 892.931063 437.742 
L 893.470315 438.498 
L 893.544573 438.498 
L 893.701928 438.624 
L 894.47633 438.624 
L 894.626613 438.498 
L 894.707943 438.498 
L 894.858226 438.372 
L 895.395711 438.372 
L 895.54953 438.498 
L 899.039641 438.498 
L 899.186388 438.624 
L 899.262414 438.624 
L 899.499331 438.876 
L 901.893257 438.876 
L 902.117798 438.624 
L 902.273386 438.624 
L 902.421901 438.498 
L 902.904576 438.498 
L 903.137957 438.246 
L 903.215751 438.246 
L 903.445596 437.994 
L 905.523043 437.994 
L 905.67863 438.12 
L 905.752888 438.12 
L 906.064063 438.498 
L 907.768453 438.498 
L 907.927577 438.624 
L 910.241941 438.624 
L 910.397529 438.75 
L 911.161322 438.75 
L 911.316909 438.876 
L 915.224277 438.876 
L 915.374561 438.75 
L 915.45589 438.75 
L 915.683968 438.498 
L 915.98807 438.498 
L 916.14189 438.624 
L 916.753632 438.624 
L 916.905683 438.75 
L 917.825064 438.75 
L 917.982419 438.876 
L 918.056677 438.876 
L 918.203424 439.002 
L 918.512831 439.002 
L 918.671955 439.128 
L 918.905336 439.128 
L 919.05562 439.254 
L 919.211207 439.128 
L 919.285465 439.128 
L 919.43398 439.254 
L 919.513542 439.254 
L 919.662057 439.128 
L 920.501876 439.128 
L 920.65216 439.254 
L 921.341695 439.254 
L 921.497283 439.38 
L 922.254004 439.38 
L 922.409591 439.506 
L 922.883426 439.506 
L 923.111503 439.758 
L 923.185761 439.758 
L 923.489863 440.136 
L 923.564121 440.136 
L 923.797502 440.388 
L 924.260729 440.388 
L 924.487038 440.64 
L 924.5666 440.64 
L 924.94496 441.144 
L 925.019218 441.144 
L 925.167733 441.27 
L 925.321553 441.27 
L 925.553166 441.522 
L 925.703449 441.522 
L 925.860805 441.648 
L 926.77665 441.648 
L 926.926933 441.774 
L 927.001191 441.774 
L 927.305293 442.152 
L 927.386623 442.152 
L 927.68719 442.53 
L 927.782664 442.53 
L 927.932948 442.656 
L 928.092071 442.656 
L 928.240586 442.782 
L 928.314844 442.782 
L 928.544689 443.034 
L 928.618947 443.034 
L 929.002612 443.538 
L 929.080405 443.538 
L 929.386276 443.916 
L 929.462302 443.916 
L 929.693915 444.168 
L 929.769941 444.168 
L 929.999786 444.42 
L 930.074044 444.42 
L 930.302121 444.672 
L 930.376379 444.672 
L 931.147244 445.806 
L 931.230342 445.806 
L 931.458419 446.058 
L 931.612238 446.058 
L 931.840316 446.31 
L 931.914573 446.31 
L 932.14265 446.562 
L 932.216908 446.562 
L 932.441449 446.814 
L 932.521011 446.814 
L 932.749088 447.066 
L 932.844562 447.066 
L 932.996614 447.192 
L 933.914226 447.192 
L 934.068046 447.318 
L 934.142303 447.192 
L 934.290819 447.318 
L 934.372149 447.318 
L 934.448174 447.192 
L 934.598458 447.318 
L 934.754045 447.318 
L 934.906097 447.444 
L 935.286225 447.444 
L 935.441813 447.318 
L 935.975761 447.318 
L 936.20207 447.57 
L 936.2834 447.57 
L 936.435451 447.696 
L 936.817348 447.696 
L 936.971167 447.822 
L 937.045425 447.822 
L 937.199244 447.948 
L 937.498043 447.948 
L 937.89762 448.452 
L 937.975414 448.452 
L 938.283053 448.83 
L 938.433336 448.83 
L 938.666717 449.082 
L 938.894795 449.082 
L 939.04331 449.208 
L 939.197129 449.208 
L 939.423438 449.46 
L 939.497696 449.46 
L 939.649748 449.586 
L 939.725773 449.586 
L 939.959154 449.838 
L 941.412483 449.838 
L 941.564535 449.712 
L 942.487451 449.712 
L 942.713761 449.46 
L 942.788018 449.46 
L 943.261853 448.956 
L 943.337879 448.956 
L 943.493466 448.83 
L 943.954924 448.83 
L 944.110512 448.704 
L 944.640924 448.704 
L 944.948563 448.326 
L 945.029893 448.326 
L 945.489583 447.696 
L 945.567377 447.696 
L 945.954578 447.192 
L 946.030603 447.192 
L 947.572334 444.42 
L 947.966607 443.412 
L 948.65791 442.404 
L 948.73924 442.404 
L 949.739951 440.64 
L 950.044054 440.01 
L 951.278145 437.868 
L 952.036635 435.6 
L 952.750923 434.34 
L 953.205309 433.206 
L 954.283813 431.568 
L 954.361607 431.568 
L 954.515426 431.442 
L 954.594988 431.442 
L 954.745272 431.316 
L 954.900859 431.316 
L 955.1254 431.064 
L 955.204962 431.064 
L 955.58509 430.56 
L 955.662884 430.56 
L 955.896265 430.308 
L 955.972291 430.308 
L 958.221238 426.78 
L 958.3008 426.78 
L 958.527109 426.528 
L 958.684464 426.528 
L 959.609149 425.142 
L 959.686943 425.142 
L 959.844298 425.016 
L 959.994582 425.016 
L 960.150169 425.142 
L 960.300453 425.142 
L 960.530298 424.89 
L 960.606324 424.89 
L 960.837937 424.638 
L 960.915731 424.638 
L 961.073086 424.512 
L 961.999539 424.512 
L 962.149822 424.386 
L 962.303642 424.386 
L 962.379668 424.26 
L 962.529951 424.386 
L 962.701451 424.386 
L 962.85527 424.26 
L 963.475852 424.26 
L 963.63144 424.386 
L 963.861285 424.386 
L 964.011568 424.26 
L 964.63215 424.26 
L 964.791274 424.134 
L 966.504504 424.134 
L 966.665396 424.26 
L 966.741422 424.26 
L 966.895241 424.386 
L 968.689802 424.386 
L 968.919647 424.134 
L 968.995673 424.134 
L 969.154796 424.008 
L 970.940516 424.008 
L 971.0908 423.882 
L 972.026093 423.882 
L 972.653747 424.764 
L 972.733309 424.764 
L 973.267257 425.52 
L 973.350355 425.52 
L 973.505942 425.646 
L 973.974473 425.646 
L 974.124756 425.772 
L 974.200782 425.772 
L 976.676038 429.804 
L 977.397398 431.694 
L 978.320315 433.08 
L 978.394572 433.08 
L 978.548392 433.206 
L 978.63149 433.206 
L 978.785309 433.332 
L 978.861335 433.332 
L 979.020458 433.458 
L 979.407659 433.458 
L 979.639272 433.71 
L 980.491468 433.71 
L 980.643519 433.836 
L 981.805121 433.836 
L 982.116296 433.458 
L 982.268348 433.458 
L 982.441615 433.332 
L 983.444094 433.332 
L 983.60145 433.458 
L 984.455413 433.458 
L 984.763052 433.08 
L 984.844382 433.08 
L 984.994665 432.954 
L 985.374794 432.954 
L 985.608175 432.702 
L 985.684201 432.702 
L 985.843324 432.576 
L 986.154499 432.576 
L 986.310087 432.45 
L 986.465674 432.45 
L 986.615958 432.324 
L 987.156978 432.324 
L 987.32671 432.198 
L 988.026853 432.198 
L 988.334492 431.82 
L 988.716389 431.82 
L 988.871976 431.694 
L 989.181383 431.694 
L 989.333435 431.568 
L 989.722403 431.568 
L 989.881527 431.694 
L 990.64532 431.694 
L 990.876933 431.946 
L 991.347232 431.946 
L 991.499284 432.072 
L 991.577077 432.072 
L 991.734433 432.198 
L 991.80869 432.198 
L 991.966046 432.324 
L 992.040304 432.324 
L 992.190587 432.45 
L 992.286061 432.45 
L 992.436345 432.576 
L 992.821777 432.576 
L 993.056927 432.828 
L 993.21605 432.828 
L 993.36987 432.954 
L 994.9116 432.954 
L 995.068956 432.828 
L 996.218182 432.828 
L 996.218182 432.828 
" clip-path="url(#p870fc68d94)" style="fill: none; stroke: #1f77b4; stroke-width: 1.5; stroke-linecap: square"/>
   </g>
   <g id="line2d_38">
    <path d="M 184.581818 551.4192 
L 184.882385 545.23008 
L 185.273122 542.34342 
L 185.575457 541.51182 
L 185.964425 541.125 
L 186.494837 540.97506 
L 188.114362 540.936 
L 219.311425 541.04688 
L 224.316745 541.188 
L 230.342225 541.29888 
L 232.882898 541.29762 
L 233.49464 541.2069 
L 234.104614 541.2573 
L 235.955751 541.62396 
L 237.113818 542.10906 
L 238.179946 542.27538 
L 238.952579 542.21112 
L 242.255277 542.196 
L 242.709664 542.23506 
L 243.247148 542.29428 
L 243.556555 542.38122 
L 243.940219 542.58282 
L 244.642131 542.68488 
L 247.61951 542.67858 
L 248.301974 542.5929 
L 250.849719 542.574 
L 255.690612 542.48706 
L 256.309426 542.34972 
L 260.529737 542.196 
L 264.896795 542.26656 
L 265.291068 542.4732 
L 265.892202 542.54754 
L 267.204087 542.49714 
L 269.16838 542.44926 
L 299.364732 542.33964 
L 300.577607 542.21742 
L 301.364385 542.13426 
L 301.493452 542.14686 
L 301.75689 542.58786 
L 302.28023 543.73068 
L 302.805337 544.30902 
L 303.328677 544.54968 
L 304.375357 544.905 
L 304.76963 545.09526 
L 305.0313 544.9743 
L 305.423804 544.75002 
L 306.341417 544.62402 
L 306.603087 544.56102 
L 307.25903 544.09608 
L 307.388097 544.14396 
L 307.651535 544.66182 
L 308.436544 546.79752 
L 308.699982 547.0155 
L 309.092487 547.23978 
L 310.664274 548.70012 
L 310.925944 548.53002 
L 311.320217 547.88742 
L 312.105227 546.42456 
L 312.497732 546.14358 
L 312.76117 546.20406 
L 313.02284 546.54048 
L 313.677014 547.71228 
L 313.938684 547.94412 
L 314.202122 547.79544 
L 314.462024 547.59888 
L 314.854529 547.4943 
L 315.117967 546.9273 
L 315.643075 545.44302 
L 316.035579 544.74372 
L 316.689754 544.44636 
L 317.214862 544.33296 
L 318.917484 545.06628 
L 319.179154 545.75172 
L 319.704262 547.81056 
L 320.750942 552.78378 
L 321.145215 553.49946 
L 321.405116 553.9014 
L 321.405116 553.9014 
" clip-path="url(#p870fc68d94)" style="fill: none; stroke: #ff7f0e; stroke-width: 1.5; stroke-linecap: square"/>
   </g>
   <g id="line2d_39">
    <path d="M 321.405116 553.9014 
L 321.537719 100.45512 
" clip-path="url(#p870fc68d94)" style="fill: none; stroke: #ff7f0e; stroke-opacity: 0.2; stroke-width: 1.5; stroke-linecap: square"/>
   </g>
   <g id="line2d_40">
    <path d="M 321.537719 100.45512 
L 321.668554 100.55214 
L 321.797621 100.65546 
L 321.930224 100.73862 
L 322.061059 100.755 
L 322.191894 100.6668 
L 322.322729 100.44504 
" clip-path="url(#p870fc68d94)" style="fill: none; stroke: #ff7f0e; stroke-width: 1.5; stroke-linecap: square"/>
   </g>
   <g id="line2d_41">
    <path d="M 322.322729 100.44504 
L 322.453564 553.79178 
" clip-path="url(#p870fc68d94)" style="fill: none; stroke: #ff7f0e; stroke-opacity: 0.2; stroke-width: 1.5; stroke-linecap: square"/>
   </g>
   <g id="line2d_42">
    <path d="M 322.453564 553.79178 
L 324.025351 551.1042 
L 324.157954 551.08656 
L 324.287021 551.2239 
L 325.206402 553.25502 
L 325.466304 553.20966 
L 325.729742 552.67164 
L 326.122247 550.88118 
L 326.907256 546.99912 
L 327.299761 545.97096 
L 327.824869 545.3082 
L 328.611647 544.7097 
L 329.134987 544.53582 
L 330.183434 544.32666 
L 330.575939 543.89952 
L 331.099279 543.41442 
L 331.753453 543.18888 
L 332.801901 543.1221 
L 333.588679 543.17376 
L 335.554739 543.15738 
L 336.207146 543.09312 
L 336.470584 543.39552 
L 338.304041 546.8832 
L 338.959984 547.47414 
L 340.924276 548.71272 
L 341.972724 550.18944 
L 342.365229 550.52208 
L 342.888568 550.72368 
L 344.985464 550.89882 
L 345.508803 551.30832 
L 345.770473 551.60568 
L 346.295581 551.88918 
L 347.998203 551.67372 
L 351.536051 551.64726 
L 365.026195 551.40534 
L 370.13583 551.394 
L 371.445948 551.53638 
L 374.064415 551.54898 
L 374.982027 551.6019 
L 376.16131 551.55654 
L 377.340592 551.61576 
L 378.518107 551.36376 
L 379.17405 550.75266 
L 379.699158 550.53594 
L 382.319393 550.54224 
L 383.104402 550.5876 
L 384.15285 550.13022 
L 385.592034 550.06344 
L 385.986307 549.68544 
L 386.38058 549.3969 
L 388.866444 548.83368 
L 389.260717 547.9983 
L 389.653222 547.28262 
L 389.914892 547.08984 
L 390.701669 547.47792 
L 391.750117 547.77906 
L 392.011787 547.9668 
L 392.273457 547.7589 
L 392.798565 547.13646 
L 393.845244 546.9777 
L 399.345616 546.92352 
L 399.870724 546.78114 
L 400.264997 546.68664 
L 400.919172 546.46362 
L 401.442511 546.52284 
L 402.358356 547.07346 
L 403.014299 547.24734 
L 405.503699 548.04744 
L 406.682981 547.57116 
L 407.337156 547.5384 
L 407.860496 547.29774 
L 408.253001 546.64128 
L 408.647274 546.13224 
L 409.432283 545.63076 
L 409.824788 545.33466 
L 410.480731 544.61394 
L 411.005839 544.37706 
L 411.529179 544.34052 
L 412.052518 544.401 
L 412.185121 544.5396 
L 412.445023 545.40396 
L 413.100966 547.94916 
L 413.493471 548.64594 
L 414.018579 549.10332 
L 414.411084 549.27342 
L 415.982871 549.4221 
L 418.208833 549.37926 
L 421.221573 549.43974 
L 421.483243 549.62874 
L 422.008351 550.07604 
L 422.53169 550.21338 
L 424.497751 550.25874 
L 425.021091 550.18818 
L 425.675265 549.9828 
L 426.985383 549.89334 
L 427.247053 549.8379 
L 427.510491 549.52668 
L 427.770392 548.98362 
L 428.162897 547.51446 
L 429.211345 542.65086 
L 429.605618 541.81422 
L 430.128958 541.16028 
L 430.652297 540.70164 
L 430.915735 540.1107 
L 431.56991 538.03296 
L 431.962415 537.54282 
L 432.487523 537.24042 
L 432.880028 537.06654 
L 433.272532 536.55498 
L 433.665037 536.1102 
L 434.32098 535.88214 
L 434.975155 535.86828 
L 435.500263 535.79772 
L 437.201117 535.32396 
L 437.593622 535.014 
L 437.987895 534.79476 
L 438.380399 534.55788 
L 439.036342 534.4596 
L 439.953955 534.59946 
L 440.606362 534.61332 
L 442.703257 534.62844 
L 443.490035 534.44826 
L 444.930987 534.38904 
L 445.454327 534.39912 
L 448.106387 534.24036 
L 449.023999 534.01986 
L 449.678174 533.92788 
L 450.332349 533.71116 
L 450.595787 533.42388 
L 451.249961 532.4751 
L 451.904136 532.04292 
L 452.560079 532.18026 
L 453.085187 532.05678 
L 453.608527 532.24074 
L 454.131866 532.22184 
L 455.441984 532.43604 
L 455.834489 532.4121 
L 456.357828 532.38942 
L 456.882936 532.37304 
L 457.669714 532.41336 
L 458.978063 532.39824 
L 459.370568 532.64772 
L 459.895676 533.07738 
L 460.549851 533.27772 
L 461.727365 533.3634 
L 466.181058 533.36088 
L 466.575331 533.0862 
L 467.36034 532.9287 
L 470.11141 532.78506 
L 471.15809 532.83294 
L 475.350112 532.37556 
L 476.267725 532.45368 
L 477.316173 533.04336 
L 478.101182 533.5524 
L 478.755357 534.24036 
L 479.4113 534.50622 
L 480.721417 534.6675 
L 481.375592 534.72042 
L 482.029767 534.91824 
L 484.519167 534.90942 
L 493.426551 534.762 
L 498.272749 534.83256 
L 498.926923 535.0392 
L 500.106206 535.12614 
L 501.285489 535.02912 
L 504.165625 534.8691 
L 504.55813 534.72168 
L 505.739181 534.22524 
L 506.262521 533.96316 
L 506.78586 533.691 
L 507.57087 533.55114 
L 508.880988 533.61918 
L 509.53693 533.60154 
L 512.417067 533.62926 
L 512.81134 533.57634 
L 513.988855 533.73636 
L 514.513963 534.06396 
L 515.168137 534.27942 
L 515.693245 534.2706 
L 516.345652 534.09294 
L 517.134198 533.88252 
L 518.965887 533.62044 
L 522.242065 533.72124 
L 523.550414 534.18996 
L 525.383871 534.25548 
L 525.776376 534.18114 
L 526.301484 533.92914 
L 527.873271 533.60658 
L 528.396611 533.47428 
L 528.789116 533.2878 
L 529.837564 532.92114 
L 530.360904 532.86318 
L 530.753408 532.96272 
L 532.457799 533.90268 
L 533.242808 534.07152 
L 534.945431 534.12822 
L 538.350675 534.12444 
L 539.268288 533.5461 
L 540.970911 533.20464 
L 542.411863 533.1303 
L 549.614857 533.00304 
L 550.00913 532.82538 
L 550.661537 532.84302 
L 551.054042 532.82286 
L 551.579149 532.46376 
L 552.365927 532.28988 
L 554.330219 532.24326 
L 554.986162 532.242 
L 555.246064 532.66536 
L 555.638569 533.21346 
L 556.163677 533.53224 
L 556.950454 533.69604 
L 558.651309 533.88252 
L 558.914747 534.1383 
L 559.699756 535.20552 
L 560.223096 535.46508 
L 562.843331 536.07114 
L 563.628341 535.9023 
L 564.153449 535.7952 
L 565.592633 535.84686 
L 567.556925 536.08626 
L 567.94943 537.19128 
L 568.343703 538.03422 
L 568.737976 538.4412 
L 569.392151 538.70706 
L 570.046325 538.71588 
L 570.702268 538.48278 
L 571.094773 537.99264 
L 571.618113 537.36264 
L 572.010618 537.2001 
L 572.141453 537.24168 
L 572.403123 537.79608 
L 572.797395 539.0082 
L 572.926462 539.14176 
L 573.059065 539.07246 
L 573.320735 538.47774 
L 573.845843 537.02118 
L 574.238348 536.47182 
L 574.630853 536.2362 
L 574.892523 536.13918 
L 575.415862 536.15682 
L 576.333475 536.07492 
L 577.118485 535.6818 
L 578.036097 535.3731 
L 580.00039 535.1589 
L 584.487675 535.14 
L 585.665189 535.04676 
L 586.581034 534.92076 
L 587.760317 534.75696 
L 589.593774 534.52386 
L 593.000787 534.37014 
L 593.260688 533.99718 
L 594.309136 531.05886 
L 594.439971 531.06894 
L 595.094146 531.801 
L 595.880923 531.81612 
L 597.87704 531.86148 
L 600.366441 531.96984 
L 601.282285 532.09206 
L 601.676558 532.08954 
L 602.199898 531.65862 
L 602.854073 531.45828 
L 603.246577 531.48096 
L 603.90252 531.6687 
L 604.68753 532.0719 
L 605.081803 532.10718 
L 605.474308 532.31256 
L 605.999415 532.3743 
L 607.307765 532.29744 
L 607.963708 531.73674 
L 609.14299 531.14832 
L 609.795397 531.08532 
L 610.320505 531.08532 
L 610.843845 531.29574 
L 611.107282 531.55656 
L 611.628854 532.03536 
L 612.415632 532.3428 
L 615.035867 532.33902 
L 615.820877 532.17522 
L 616.213381 532.19664 
L 616.736721 532.33524 
L 617.654334 532.46124 
L 623.154706 532.62 
L 624.203153 532.6704 
L 624.466591 532.935 
L 624.726493 533.63808 
L 625.118998 535.88466 
L 626.298281 543.84282 
L 626.690786 544.76136 
L 627.08329 545.1696 
L 628.002671 545.13306 
L 629.441855 545.535 
L 629.703525 545.56776 
L 630.751973 547.0281 
L 631.536983 547.05708 
L 631.800421 547.59006 
L 632.192925 548.47836 
L 632.58543 548.87274 
L 633.239605 549.16632 
L 635.766134 549.2331 
L 636.305386 547.79418 
L 636.623633 547.39098 
L 637.157581 547.10748 
L 637.617272 546.84918 
L 638.462395 545.71644 
L 638.766498 545.27418 
L 639.303982 544.93776 
L 640.073079 544.85208 
L 641.837583 544.72734 
L 642.215943 544.69584 
L 642.974432 544.63914 
L 643.358097 544.69332 
L 643.814251 544.7412 
L 644.648766 544.5207 
L 645.039503 544.60638 
L 645.492121 544.5081 
L 645.942971 544.29012 
L 647.109877 543.95622 
L 648.259103 541.47654 
L 648.796587 539.69742 
L 648.952175 539.79066 
L 649.256278 540.7596 
L 649.869788 542.77686 
L 650.495674 543.86046 
L 652.34858 545.76306 
L 652.958553 546.54678 
L 653.183094 546.41826 
L 653.879702 545.57154 
L 654.106011 545.87394 
L 654.33232 546.72318 
L 654.712449 549.03402 
L 655.253469 553.3848 
L 655.253469 553.3848 
" clip-path="url(#p870fc68d94)" style="fill: none; stroke: #ff7f0e; stroke-width: 1.5; stroke-linecap: square"/>
   </g>
   <g id="line2d_43">
    <path d="M 655.253469 553.3848 
L 655.329495 100.57104 
" clip-path="url(#p870fc68d94)" style="fill: none; stroke: #ff7f0e; stroke-opacity: 0.2; stroke-width: 1.5; stroke-linecap: square"/>
   </g>
   <g id="line2d_44">
    <path d="M 655.329495 100.57104 
L 656.179922 108.41706 
L 656.636076 111.54942 
L 656.883602 114.55956 
L 658.105317 132.6519 
L 658.566776 136.22652 
L 658.800157 136.58688 
L 659.028234 136.18242 
L 659.337641 135.63684 
L 659.567486 135.55242 
L 659.721306 135.90018 
L 660.101434 137.6037 
L 660.409073 138.6558 
L 660.561125 138.72258 
L 660.71848 138.33198 
L 661.484041 135.74142 
L 661.885386 135.153 
L 662.194793 134.59482 
L 662.424638 133.54146 
L 663.356395 127.4229 
L 663.437725 127.39392 
L 663.665802 127.81098 
L 664.215663 128.9979 
L 664.528606 128.98404 
L 664.687729 129.17178 
L 664.838013 129.61404 
L 665.14742 131.9274 
L 665.456827 135.8649 
L 666.006687 147.53754 
L 666.876563 170.89416 
L 667.336253 182.8503 
L 667.732294 188.35902 
L 668.273314 192.6783 
L 668.738309 195.28272 
L 668.89036 195.35076 
L 669.045948 194.94126 
L 669.279329 193.21632 
L 670.136828 182.17116 
L 672.097584 151.3692 
L 672.948012 141.94062 
L 673.720645 135.28026 
L 675.347242 123.91632 
L 676.761673 116.52768 
L 680.085588 100.76256 
L 680.085588 100.76256 
" clip-path="url(#p870fc68d94)" style="fill: none; stroke: #ff7f0e; stroke-width: 1.5; stroke-linecap: square"/>
   </g>
   <g id="line2d_45">
    <path d="M 680.085588 100.76256 
L 680.163382 554.0211 
" clip-path="url(#p870fc68d94)" style="fill: none; stroke: #ff7f0e; stroke-opacity: 0.2; stroke-width: 1.5; stroke-linecap: square"/>
   </g>
   <g id="line2d_46">
    <path d="M 680.163382 554.0211 
L 681.791747 546.04026 
L 682.861411 540.37404 
L 683.826761 535.96404 
L 684.928249 531.78588 
L 685.311914 530.63928 
L 685.955481 530.15418 
L 686.480588 529.53804 
L 687.297423 526.44726 
L 687.960438 525.13938 
L 688.692406 524.20572 
L 690.099766 522.8424 
L 691.645033 521.3304 
L 693.071841 519.05736 
L 693.687119 517.6071 
L 696.708699 509.59476 
L 697.260327 508.97862 
L 699.42264 506.68794 
L 700.041454 506.35908 
L 702.799596 505.90926 
L 703.646487 505.80846 
L 704.880579 504.86976 
L 705.273084 504.14022 
L 706.979242 499.95324 
L 708.83038 495.3807 
L 709.666663 493.80696 
L 710.593116 492.08076 
L 712.373532 488.0664 
L 713.059531 486.62874 
L 714.831107 482.22252 
L 715.686838 480.8529 
L 716.070503 480.50136 
L 717.405373 480.46608 
L 718.172702 480.53034 
L 718.715491 480.6702 
L 719.790459 480.8781 
L 720.324407 481.28004 
L 722.580426 482.99112 
L 723.052492 483.228 
L 724.286584 484.30278 
L 725.672727 485.30322 
L 726.222588 485.45568 
L 726.848474 485.41536 
L 728.319483 485.14068 
L 728.775637 484.93782 
L 729.466941 484.95924 
L 730.009729 484.93152 
L 730.84778 484.96176 
L 732.619356 484.42374 
L 733.634211 483.8706 
L 734.32021 483.03648 
L 735.326225 481.716 
L 736.726512 480.42072 
L 737.111945 480.42198 
L 737.568099 480.51522 
L 737.877506 480.40938 
L 739.113366 479.51856 
L 740.808916 479.3283 
L 741.265071 479.57778 
L 741.740673 480.16998 
L 743.270028 482.17086 
L 744.661475 483.87816 
L 745.124701 484.44768 
L 745.665722 484.8849 
L 746.443659 485.69382 
L 747.223365 486.77742 
L 748.234684 488.07018 
L 749.313188 489.21804 
L 749.850672 489.69306 
L 750.540207 489.98286 
L 751.392403 490.158 
L 752.401953 490.71996 
L 753.331942 490.78296 
L 753.713839 490.88628 
L 754.332653 491.21262 
L 756.349986 491.68386 
L 756.827357 492.25968 
L 757.292352 492.76116 
L 757.68132 492.95898 
L 758.379696 493.0434 
L 759.295541 492.993 
L 759.606716 492.74982 
L 760.073478 492.32016 
L 760.379349 492.41466 
L 761.852126 493.06482 
L 764.171795 495.81666 
L 765.331629 496.73016 
L 766.028236 497.214 
L 768.358513 497.87298 
L 768.669688 498.06198 
L 769.587301 498.64914 
L 769.894939 498.60756 
L 770.285676 498.38202 
L 770.902722 498.05946 
L 771.362413 497.87424 
L 772.532855 496.8738 
L 772.999617 496.56762 
L 773.696225 496.47312 
L 774.168292 496.34208 
L 774.781802 496.03086 
L 775.789584 495.73854 
L 776.800903 495.1035 
L 777.347227 494.97876 
L 778.88719 494.9523 
L 779.270855 495.3114 
L 780.266261 496.48698 
L 780.807281 497.29212 
L 781.892858 499.7907 
L 782.499295 501.1767 
L 783.202975 502.35984 
L 783.890743 502.94826 
L 784.433531 503.09694 
L 785.665855 503.10954 
L 786.051287 502.92306 
L 786.915859 502.16328 
L 788.148183 500.19894 
L 788.533615 498.48408 
L 793.330307 471.86028 
L 795.881589 460.73952 
L 797.667309 454.5945 
L 798.360381 450.9657 
L 798.906705 448.65108 
L 799.670498 446.32512 
L 800.211518 444.51828 
L 800.98592 441.3897 
L 803.151769 431.60454 
L 803.694557 428.544 
L 804.46719 424.12896 
L 805.227447 421.1919 
L 805.697746 420.16752 
L 807.646126 417.37158 
L 808.18361 417.59712 
L 808.572579 417.75462 
L 808.881986 418.56984 
L 810.04182 423.21294 
L 811.442107 429.35922 
L 812.220045 432.06318 
L 812.532988 432.4185 
L 812.692112 432.07704 
L 812.927261 430.60788 
L 813.312694 426.33144 
L 815.315883 398.51568 
L 815.547496 397.7181 
L 815.623522 397.70928 
L 815.780877 398.04948 
L 816.092052 399.58794 
L 816.558815 403.44984 
L 818.280885 419.12298 
L 818.823674 421.76646 
L 819.207338 422.71524 
L 820.068374 424.41876 
L 820.759677 427.01562 
L 821.613641 431.86032 
L 823.173052 441.85968 
L 823.942149 445.65102 
L 825.011813 449.6679 
L 825.559905 450.93042 
L 827.280208 452.71962 
L 827.966208 453.26772 
L 829.124274 454.46976 
L 829.739552 455.25852 
L 831.511127 456.23124 
L 832.147622 456.17328 
L 833.381714 456.16446 
L 834.080089 456.25014 
L 834.463754 456.36606 
L 835.45916 456.62562 
L 836.314892 456.5475 
L 838.325153 456.27408 
L 839.101322 455.90994 
L 840.103801 455.30766 
L 840.874666 455.04936 
L 842.184784 455.00526 
L 843.500206 454.89438 
L 845.266477 454.72806 
L 846.037343 454.63734 
L 846.813512 454.7142 
L 847.285579 454.83516 
L 848.130702 454.75956 
L 850.904756 454.60836 
L 851.67739 454.51134 
L 853.921032 454.53528 
L 854.375419 454.73184 
L 854.914671 455.21316 
L 855.377897 455.59746 
L 855.991407 455.73228 
L 856.76404 455.87718 
L 857.471256 456.45678 
L 858.005204 456.94818 
L 858.466663 457.09434 
L 858.933425 456.90408 
L 859.912919 456.43158 
L 860.457476 456.29928 
L 860.993192 456.35598 
L 861.847155 456.32574 
L 862.32983 456.18714 
L 862.787752 456.06366 
L 863.399494 455.4576 
L 864.939457 453.7125 
L 866.023265 452.96028 
L 866.414002 452.51802 
L 867.027512 451.79982 
L 868.351773 450.48564 
L 870.892447 447.07482 
L 871.976255 445.8627 
L 872.375832 445.48596 
L 874.06431 444.54222 
L 874.371949 444.44142 
L 874.996067 444.50316 
L 875.607809 444.45906 
L 876.380442 444.53718 
L 877.305127 444.44016 
L 877.934549 444.32424 
L 878.555131 444.19446 
L 878.940564 444.07728 
L 879.384342 443.78622 
L 879.930666 443.3805 
L 880.316099 443.25702 
L 880.855351 443.19528 
L 881.237248 443.05164 
L 882.492556 442.29564 
L 882.872684 442.03734 
L 883.413705 441.51948 
L 884.955435 440.13474 
L 885.728069 439.76934 
L 886.811877 438.48918 
L 887.199078 438.07212 
L 888.825675 437.31108 
L 889.826385 437.24178 
L 891.451214 437.32494 
L 892.070028 437.6601 
L 893.39429 438.03936 
L 893.85398 438.45264 
L 894.400304 438.58746 
L 894.707943 438.54714 
L 895.238355 438.40854 
L 895.784679 438.46398 
L 897.183199 438.498 
L 899.338439 438.59754 
L 900.346222 438.85836 
L 901.967515 438.8508 
L 903.137957 438.43122 
L 904.285415 438.01416 
L 905.67863 438.03936 
L 905.988037 438.17418 
L 906.377006 438.39216 
L 907.071846 438.48414 
L 910.623838 438.70842 
L 913.160975 438.876 
L 915.531916 438.77646 
L 916.217916 438.60132 
L 917.982419 438.79158 
L 920.03865 439.14186 
L 920.811283 439.2036 
L 923.185761 439.61688 
L 926.087114 441.55602 
L 927.305293 441.9063 
L 927.932948 442.41534 
L 929.080405 443.25828 
L 930.302121 444.39228 
L 930.680481 444.78666 
L 931.458419 445.72032 
L 933.229995 447.07734 
L 934.068046 447.22728 
L 934.679788 447.28524 
L 936.435451 447.53346 
L 938.207027 448.41924 
L 938.740975 448.86402 
L 940.728252 449.81154 
L 941.647633 449.775 
L 942.955982 449.47512 
L 943.954924 448.88544 
L 944.490641 448.7418 
L 944.872537 448.62966 
L 945.648707 447.90012 
L 947.031314 446.05674 
L 947.64836 444.85092 
L 948.65791 442.85886 
L 949.202467 442.11546 
L 949.969796 440.74206 
L 950.662868 439.5942 
L 951.352403 438.34806 
L 952.657217 435.12498 
L 953.132819 434.12454 
L 953.741025 432.87588 
L 954.515426 431.75322 
L 956.207441 430.30044 
L 956.82095 429.34158 
L 957.837573 427.77666 
L 958.452851 426.96396 
L 960.068839 425.205 
L 960.606324 425.0349 
L 961.384261 424.59138 
L 963.323801 424.28268 
L 966.582298 424.1592 
L 967.911864 424.3797 
L 968.919647 424.29906 
L 969.77361 424.03572 
L 972.259474 423.97146 
L 972.809334 424.53846 
L 973.663298 425.46834 
L 974.589751 426.01014 
L 976.451497 428.72166 
L 978.238985 432.51174 
L 978.785309 433.09134 
L 979.715298 433.54998 
L 980.25455 433.67598 
L 982.038502 433.7478 
L 982.593667 433.44414 
L 983.368068 433.3446 
L 983.98865 433.43406 
L 984.688794 433.36854 
L 985.226278 433.05606 
L 985.767298 432.80406 
L 986.391416 432.55332 
L 987.94906 432.21438 
L 988.260235 432.09846 
L 988.640363 431.91072 
L 990.111372 431.66502 
L 991.036057 431.83764 
L 992.286061 432.324 
L 992.745752 432.51048 
L 993.132952 432.67428 
L 994.140735 432.93636 
L 995.14675 432.891 
L 996.142156 432.83178 
L 996.218182 432.83052 
L 996.218182 432.83052 
" clip-path="url(#p870fc68d94)" style="fill: none; stroke: #ff7f0e; stroke-width: 1.5; stroke-linecap: square"/>
   </g>
   <g id="line2d_47">
    <path d="M 184.581818 397.17 
L 662.737582 397.17 
L 662.894937 137.975411 
L 664.528606 137.975411 
L 664.687729 132.305411 
L 666.31963 132.305411 
L 666.471682 131.473806 
L 668.047005 131.473806 
L 668.199057 136.665 
L 669.823885 136.665 
L 669.984777 132.708582 
L 671.554796 132.708582 
L 671.706848 100.805411 
L 673.33698 100.805411 
L 673.4908 142.095597 
L 675.120932 142.095597 
L 675.271216 149.265 
L 692.776578 149.265 
L 692.776578 149.265 
" clip-path="url(#p870fc68d94)" style="fill: none; stroke-dasharray: 12.8,3.2,2,3.2; stroke-dashoffset: 0; stroke: #2ca02c; stroke-width: 2"/>
   </g>
   <g id="line2d_48">
    <path d="M 692.776578 149.265 
L 692.8473 528.7896 
" clip-path="url(#p870fc68d94)" style="fill: none; stroke-dasharray: 12.8,3.2,2,3.2; stroke-dashoffset: 0; stroke: #2ca02c; stroke-opacity: 0.2; stroke-width: 2"/>
   </g>
   <g id="line2d_49">
    <path d="M 692.8473 528.7896 
L 694.544618 528.7896 
L 694.701974 527.7564 
L 696.326802 527.7564 
L 696.477086 526.95 
L 698.119595 526.95 
L 698.269878 526.5972 
L 699.809841 526.5972 
L 699.968964 525.123 
L 701.576112 525.123 
L 701.726396 524.6064 
L 703.338848 524.6064 
L 703.497972 523.522801 
L 713.98952 523.522801 
L 714.141572 502.279199 
L 715.762864 502.279199 
L 715.921988 500.729399 
L 717.483167 500.729399 
L 717.635218 487.0332 
L 719.258279 487.0332 
L 719.41033 490.561199 
L 721.024551 490.561199 
L 721.181906 489.175201 
L 722.817343 489.175201 
L 722.969394 490.057203 
L 724.599527 490.057203 
L 724.74981 494.265603 
L 726.376407 494.265603 
L 726.531995 497.050201 
L 729.933703 497.100603 
L 730.083987 496.432799 
L 737.037687 496.432799 
L 737.187971 494.240401 
L 738.733237 494.240401 
L 738.888825 490.535999 
L 740.503045 490.535999 
L 740.653329 488.3814 
L 742.279925 488.3814 
L 742.423137 489.6414 
L 744.046197 489.6414 
L 744.205321 490.170603 
L 745.826613 490.170603 
L 745.976897 494.152203 
L 747.619406 494.152203 
L 747.771457 496.7982 
L 749.389214 496.7982 
L 749.544801 499.255201 
L 751.160789 499.255201 
L 751.316377 497.566801 
L 752.866948 497.566801 
L 753.026071 502.619399 
L 754.643828 502.619399 
L 754.802951 502.884003 
L 756.42778 502.884003 
L 756.585136 503.450999 
L 758.229413 503.450999 
L 758.379696 506.4498 
L 759.916123 506.4498 
L 760.073478 507.9996 
L 761.701843 507.9996 
L 761.852126 500.4648 
L 763.473419 500.4648 
L 763.632542 507.218401 
L 765.253835 507.218401 
L 765.414727 507.5082 
L 767.048395 507.5082 
L 767.198679 509.158803 
L 768.827043 509.158803 
L 768.977327 509.814003 
L 770.596851 509.814003 
L 770.752439 510.179399 
L 772.306546 510.179399 
L 772.458597 510.922799 
L 774.085194 510.922799 
L 774.242549 511.578 
L 775.86561 511.578 
L 776.024734 511.212599 
L 777.66017 511.212599 
L 777.810454 510.759003 
L 779.429978 510.759003 
L 779.580262 510.910201 
L 781.194482 510.910201 
L 781.35007 513.909 
L 788.225976 513.909 
L 788.379796 515.622601 
L 790.073578 515.622601 
L 790.223861 516.4416 
L 791.783273 516.4416 
L 791.942396 502.770603 
L 793.567225 502.770603 
L 793.717508 481.9932 
L 795.349409 481.9932 
L 795.499692 491.922001 
L 797.131593 491.922001 
L 797.287181 478.7046 
L 798.906705 478.7046 
L 799.056988 469.657799 
L 800.680049 469.657799 
L 800.8321 456.629404 
L 802.464001 456.629404 
L 802.619589 454.2732 
L 804.161319 454.2732 
L 804.311603 450.9846 
L 805.927591 450.9846 
L 806.086715 437.0364 
L 807.722152 437.0364 
L 807.875971 435.095999 
L 809.506104 435.095999 
L 809.658155 426.880803 
L 811.284752 426.880803 
L 811.442107 435.927604 
L 813.003287 435.927604 
L 813.155338 444.735 
L 814.780167 444.735 
L 814.93045 444.331801 
L 816.558815 444.331801 
L 816.71617 411.849003 
L 818.358679 411.849003 
L 818.516035 408.837604 
L 820.068374 408.837604 
L 820.220425 432.198005 
L 821.841718 432.198005 
L 822.014986 445.188601 
L 823.636278 445.188601 
L 823.791866 458.708396 
L 825.409622 458.708396 
L 825.559905 462.853797 
L 827.200646 462.853797 
L 827.358002 466.595999 
L 828.97399 466.595999 
L 829.124274 462.249003 
L 830.75087 462.249003 
L 830.901154 471.207604 
L 832.536591 471.207604 
L 832.692178 464.088601 
L 834.237445 464.088601 
L 834.387728 479.2716 
L 836.007253 479.2716 
L 836.164608 486.390603 
L 837.792973 486.390603 
L 837.945024 495.777599 
L 839.488523 495.777599 
L 839.645879 488.746801 
L 841.337893 488.746801 
L 841.489944 489.087001 
L 843.118309 489.087001 
L 843.268592 481.552203 
L 844.884581 481.552203 
L 845.040168 480.342599 
L 846.663229 480.342599 
L 846.813512 479.120401 
L 848.365851 479.120401 
L 848.523207 468.296996 
L 850.142731 468.296996 
L 850.294783 478.44 
L 851.905467 478.44 
L 852.062822 484.853401 
L 853.765445 484.853401 
L 853.921032 487.814399 
L 855.460995 487.814399 
L 855.611278 488.4696 
L 857.227267 488.4696 
L 857.395231 483.152403 
L 859.009451 483.152403 
L 859.166806 466.306204 
L 860.768651 466.306204 
L 860.918934 479.082599 
L 862.481881 479.082599 
L 862.637469 489.679199 
L 864.327715 489.679199 
L 864.477998 489.4398 
L 866.023265 489.4398 
L 866.182389 483.240603 
L 867.816057 483.240603 
L 867.971645 484.021801 
L 869.585865 484.021801 
L 869.736149 485.395201 
L 871.357441 485.395201 
L 871.516565 482.358601 
L 873.146697 482.358601 
L 873.302285 486.8316 
L 874.920041 486.8316 
L 875.070325 483.265803 
L 876.693385 483.265803 
L 876.850741 482.371199 
L 878.40308 482.371199 
L 878.555131 475.743601 
L 880.156975 475.743601 
L 880.316099 476.348401 
L 881.940928 476.348401 
L 882.098283 471.2832 
L 883.723112 471.2832 
L 883.875163 473.765401 
L 885.494688 473.765401 
L 885.653811 466.696801 
L 887.276872 466.696801 
L 887.446604 466.9614 
L 889.060824 466.9614 
L 889.211107 471.320999 
L 890.834168 471.320999 
L 890.991523 463.458601 
L 892.550935 463.458601 
L 892.701218 461.808005 
L 894.318974 461.808005 
L 894.47633 457.901996 
L 896.173648 457.901996 
L 896.339844 452.861996 
L 897.895719 452.861996 
L 898.046002 456.755401 
L 899.653151 456.755401 
L 899.810506 450.72 
L 901.426494 450.72 
L 901.58385 455.281204 
L 903.215751 455.281204 
L 903.366034 458.116204 
L 904.907765 458.116204 
L 905.066888 443.298601 
L 906.764207 443.298601 
L 906.921562 450.619199 
L 908.472133 450.619199 
L 908.625953 454.701605 
L 910.241941 454.701605 
L 910.397529 446.700597 
L 912.009981 446.700597 
L 912.160264 463.420803 
L 943.802873 463.420803 
L 943.954924 488.948401 
L 945.567377 488.948401 
L 945.722964 492.778803 
L 947.342489 492.778803 
L 947.498076 485.105401 
L 949.202467 485.105401 
L 949.358054 479.939399 
L 950.896249 479.939399 
L 951.0483 484.74 
L 952.657217 484.74 
L 952.826948 469.531801 
L 954.439401 469.531801 
L 954.594988 456.830999 
L 956.207441 456.830999 
L 956.359492 464.605196 
L 957.994929 464.605196 
L 958.14698 464.139003 
L 959.762969 464.139003 
L 959.918556 462.538797 
L 961.536313 462.538797 
L 961.6919 467.163005 
L 963.247775 467.163005 
L 963.399827 463.836605 
L 965.105985 463.836605 
L 965.256268 462.211204 
L 966.819216 462.211204 
L 966.976571 457.750803 
L 968.53775 457.750803 
L 968.689802 456.364805 
L 970.397728 456.364805 
L 970.548012 449.674199 
L 972.107423 449.674199 
L 972.259474 452.118601 
L 973.893143 452.118601 
L 974.050498 448.729199 
L 975.677095 448.729199 
L 975.834451 444.407397 
L 977.397398 444.407397 
L 977.547681 443.273396 
L 979.174278 443.273396 
L 979.331633 450.279003 
L 980.954694 450.279003 
L 981.113818 452.673005 
L 982.75279 452.673005 
L 982.904842 454.7646 
L 984.538511 454.7646 
L 984.688794 458.292604 
L 986.310087 458.292604 
L 986.465674 466.495196 
L 988.026853 466.495196 
L 988.177137 468.271801 
L 996.218182 468.271801 
L 996.218182 468.271801 
" clip-path="url(#p870fc68d94)" style="fill: none; stroke-dasharray: 12.8,3.2,2,3.2; stroke-dashoffset: 0; stroke: #2ca02c; stroke-width: 2"/>
   </g>
   <g id="patch_3">
    <path d="M 144 576.72 
L 144 77.76 
" style="fill: none; stroke: #000000; stroke-width: 0.8; stroke-linejoin: miter; stroke-linecap: square"/>
   </g>
   <g id="patch_4">
    <path d="M 1036.8 576.72 
L 1036.8 77.76 
" style="fill: none; stroke: #000000; stroke-width: 0.8; stroke-linejoin: miter; stroke-linecap: square"/>
   </g>
   <g id="patch_5">
    <path d="M 144 576.72 
L 1036.8 576.72 
" style="fill: none; stroke: #000000; stroke-width: 0.8; stroke-linejoin: miter; stroke-linecap: square"/>
   </g>
   <g id="patch_6">
    <path d="M 144 77.76 
L 1036.8 77.76 
" style="fill: none; stroke: #000000; stroke-width: 0.8; stroke-linejoin: miter; stroke-linecap: square"/>
   </g>
   <g id="text_16">
    <!-- Yaw vs Time -->
    <g transform="translate(553.805625 71.76)scale(0.12 -0.12)">
     <defs>
      <path id="DejaVuSans-76" d="M 191 3500 
L 800 3500 
L 1894 563 
L 2988 3500 
L 3597 3500 
L 2284 0 
L 1503 0 
L 191 3500 
z
" transform="scale(0.015625)"/>
     </defs>
     <use xlink:href="#DejaVuSans-59"/>
     <use xlink:href="#DejaVuSans-61" x="47.333984"/>
     <use xlink:href="#DejaVuSans-77" x="108.613281"/>
     <use xlink:href="#DejaVuSans-20" x="190.400391"/>
     <use xlink:href="#DejaVuSans-76" x="222.1875"/>
     <use xlink:href="#DejaVuSans-73" x="281.367188"/>
     <use xlink:href="#DejaVuSans-20" x="333.466797"/>
     <use xlink:href="#DejaVuSans-54" x="365.253906"/>
     <use xlink:href="#DejaVuSans-69" x="423.212891"/>
     <use xlink:href="#DejaVuSans-6d" x="450.996094"/>
     <use xlink:href="#DejaVuSans-65" x="548.408203"/>
    </g>
   </g>
   <g id="legend_1">
    <g id="patch_7">
     <path d="M 939.582812 350.757187 
L 1029.8 350.757187 
Q 1031.8 350.757187 1031.8 348.757187 
L 1031.8 305.722812 
Q 1031.8 303.722812 1029.8 303.722812 
L 939.582812 303.722812 
Q 937.582812 303.722812 937.582812 305.722812 
L 937.582812 348.757187 
Q 937.582812 350.757187 939.582812 350.757187 
z
" style="fill: #ffffff; opacity: 0.8; stroke: #cccccc; stroke-linejoin: miter"/>
    </g>
    <g id="line2d_50">
     <path d="M 941.582812 311.82125 
L 951.582812 311.82125 
L 961.582812 311.82125 
" style="fill: none; stroke: #1f77b4; stroke-width: 1.5; stroke-linecap: square"/>
    </g>
    <g id="text_17">
     <!-- Yaw raw -->
     <g transform="translate(969.582812 315.32125)scale(0.1 -0.1)">
      <defs>
       <path id="DejaVuSans-72" d="M 2631 2963 
Q 2534 3019 2420 3045 
Q 2306 3072 2169 3072 
Q 1681 3072 1420 2755 
Q 1159 2438 1159 1844 
L 1159 0 
L 581 0 
L 581 3500 
L 1159 3500 
L 1159 2956 
Q 1341 3275 1631 3429 
Q 1922 3584 2338 3584 
Q 2397 3584 2469 3576 
Q 2541 3569 2628 3553 
L 2631 2963 
z
" transform="scale(0.015625)"/>
      </defs>
      <use xlink:href="#DejaVuSans-59"/>
      <use xlink:href="#DejaVuSans-61" x="47.333984"/>
      <use xlink:href="#DejaVuSans-77" x="108.613281"/>
      <use xlink:href="#DejaVuSans-20" x="190.400391"/>
      <use xlink:href="#DejaVuSans-72" x="222.1875"/>
      <use xlink:href="#DejaVuSans-61" x="263.300781"/>
      <use xlink:href="#DejaVuSans-77" x="324.580078"/>
     </g>
    </g>
    <g id="line2d_51">
     <path d="M 941.582812 326.499375 
L 951.582812 326.499375 
L 961.582812 326.499375 
" style="fill: none; stroke: #ff7f0e; stroke-width: 1.5; stroke-linecap: square"/>
    </g>
    <g id="text_18">
     <!-- Yaw filtered -->
     <g transform="translate(969.582812 329.999375)scale(0.1 -0.1)">
      <defs>
       <path id="DejaVuSans-66" d="M 2375 4863 
L 2375 4384 
L 1825 4384 
Q 1516 4384 1395 4259 
Q 1275 4134 1275 3809 
L 1275 3500 
L 2222 3500 
L 2222 3053 
L 1275 3053 
L 1275 0 
L 697 0 
L 697 3053 
L 147 3053 
L 147 3500 
L 697 3500 
L 697 3744 
Q 697 4328 969 4595 
Q 1241 4863 1831 4863 
L 2375 4863 
z
" transform="scale(0.015625)"/>
       <path id="DejaVuSans-6c" d="M 603 4863 
L 1178 4863 
L 1178 0 
L 603 0 
L 603 4863 
z
" transform="scale(0.015625)"/>
       <path id="DejaVuSans-74" d="M 1172 4494 
L 1172 3500 
L 2356 3500 
L 2356 3053 
L 1172 3053 
L 1172 1153 
Q 1172 725 1289 603 
Q 1406 481 1766 481 
L 2356 481 
L 2356 0 
L 1766 0 
Q 1100 0 847 248 
Q 594 497 594 1153 
L 594 3053 
L 172 3053 
L 172 3500 
L 594 3500 
L 594 4494 
L 1172 4494 
z
" transform="scale(0.015625)"/>
       <path id="DejaVuSans-64" d="M 2906 2969 
L 2906 4863 
L 3481 4863 
L 3481 0 
L 2906 0 
L 2906 525 
Q 2725 213 2448 61 
Q 2172 -91 1784 -91 
Q 1150 -91 751 415 
Q 353 922 353 1747 
Q 353 2572 751 3078 
Q 1150 3584 1784 3584 
Q 2172 3584 2448 3432 
Q 2725 3281 2906 2969 
z
M 947 1747 
Q 947 1113 1208 752 
Q 1469 391 1925 391 
Q 2381 391 2643 752 
Q 2906 1113 2906 1747 
Q 2906 2381 2643 2742 
Q 2381 3103 1925 3103 
Q 1469 3103 1208 2742 
Q 947 2381 947 1747 
z
" transform="scale(0.015625)"/>
      </defs>
      <use xlink:href="#DejaVuSans-59"/>
      <use xlink:href="#DejaVuSans-61" x="47.333984"/>
      <use xlink:href="#DejaVuSans-77" x="108.613281"/>
      <use xlink:href="#DejaVuSans-20" x="190.400391"/>
      <use xlink:href="#DejaVuSans-66" x="222.1875"/>
      <use xlink:href="#DejaVuSans-69" x="257.392578"/>
      <use xlink:href="#DejaVuSans-6c" x="285.175781"/>
      <use xlink:href="#DejaVuSans-74" x="312.958984"/>
      <use xlink:href="#DejaVuSans-65" x="352.167969"/>
      <use xlink:href="#DejaVuSans-72" x="413.691406"/>
      <use xlink:href="#DejaVuSans-65" x="452.554688"/>
      <use xlink:href="#DejaVuSans-64" x="514.078125"/>
     </g>
    </g>
    <g id="line2d_52">
     <path d="M 941.582812 341.1775 
L 951.582812 341.1775 
L 961.582812 341.1775 
" style="fill: none; stroke-dasharray: 12.8,3.2,2,3.2; stroke-dashoffset: 0; stroke: #2ca02c; stroke-width: 2"/>
    </g>
    <g id="text_19">
     <!-- GPS Course -->
     <g transform="translate(969.582812 344.6775)scale(0.1 -0.1)">
      <defs>
       <path id="DejaVuSans-47" d="M 3809 666 
L 3809 1919 
L 2778 1919 
L 2778 2438 
L 4434 2438 
L 4434 434 
Q 4069 175 3628 42 
Q 3188 -91 2688 -91 
Q 1594 -91 976 548 
Q 359 1188 359 2328 
Q 359 3472 976 4111 
Q 1594 4750 2688 4750 
Q 3144 4750 3555 4637 
Q 3966 4525 4313 4306 
L 4313 3634 
Q 3963 3931 3569 4081 
Q 3175 4231 2741 4231 
Q 1884 4231 1454 3753 
Q 1025 3275 1025 2328 
Q 1025 1384 1454 906 
Q 1884 428 2741 428 
Q 3075 428 3337 486 
Q 3600 544 3809 666 
z
" transform="scale(0.015625)"/>
       <path id="DejaVuSans-50" d="M 1259 4147 
L 1259 2394 
L 2053 2394 
Q 2494 2394 2734 2622 
Q 2975 2850 2975 3272 
Q 2975 3691 2734 3919 
Q 2494 4147 2053 4147 
L 1259 4147 
z
M 628 4666 
L 2053 4666 
Q 2838 4666 3239 4311 
Q 3641 3956 3641 3272 
Q 3641 2581 3239 2228 
Q 2838 1875 2053 1875 
L 1259 1875 
L 1259 0 
L 628 0 
L 628 4666 
z
" transform="scale(0.015625)"/>
       <path id="DejaVuSans-53" d="M 3425 4513 
L 3425 3897 
Q 3066 4069 2747 4153 
Q 2428 4238 2131 4238 
Q 1616 4238 1336 4038 
Q 1056 3838 1056 3469 
Q 1056 3159 1242 3001 
Q 1428 2844 1947 2747 
L 2328 2669 
Q 3034 2534 3370 2195 
Q 3706 1856 3706 1288 
Q 3706 609 3251 259 
Q 2797 -91 1919 -91 
Q 1588 -91 1214 -16 
Q 841 59 441 206 
L 441 856 
Q 825 641 1194 531 
Q 1563 422 1919 422 
Q 2459 422 2753 634 
Q 3047 847 3047 1241 
Q 3047 1584 2836 1778 
Q 2625 1972 2144 2069 
L 1759 2144 
Q 1053 2284 737 2584 
Q 422 2884 422 3419 
Q 422 4038 858 4394 
Q 1294 4750 2059 4750 
Q 2388 4750 2728 4690 
Q 3069 4631 3425 4513 
z
" transform="scale(0.015625)"/>
       <path id="DejaVuSans-43" d="M 4122 4306 
L 4122 3641 
Q 3803 3938 3442 4084 
Q 3081 4231 2675 4231 
Q 1875 4231 1450 3742 
Q 1025 3253 1025 2328 
Q 1025 1406 1450 917 
Q 1875 428 2675 428 
Q 3081 428 3442 575 
Q 3803 722 4122 1019 
L 4122 359 
Q 3791 134 3420 21 
Q 3050 -91 2638 -91 
Q 1578 -91 968 557 
Q 359 1206 359 2328 
Q 359 3453 968 4101 
Q 1578 4750 2638 4750 
Q 3056 4750 3426 4639 
Q 3797 4528 4122 4306 
z
" transform="scale(0.015625)"/>
       <path id="DejaVuSans-6f" d="M 1959 3097 
Q 1497 3097 1228 2736 
Q 959 2375 959 1747 
Q 959 1119 1226 758 
Q 1494 397 1959 397 
Q 2419 397 2687 759 
Q 2956 1122 2956 1747 
Q 2956 2369 2687 2733 
Q 2419 3097 1959 3097 
z
M 1959 3584 
Q 2709 3584 3137 3096 
Q 3566 2609 3566 1747 
Q 3566 888 3137 398 
Q 2709 -91 1959 -91 
Q 1206 -91 779 398 
Q 353 888 353 1747 
Q 353 2609 779 3096 
Q 1206 3584 1959 3584 
z
" transform="scale(0.015625)"/>
       <path id="DejaVuSans-75" d="M 544 1381 
L 544 3500 
L 1119 3500 
L 1119 1403 
Q 1119 906 1312 657 
Q 1506 409 1894 409 
Q 2359 409 2629 706 
Q 2900 1003 2900 1516 
L 2900 3500 
L 3475 3500 
L 3475 0 
L 2900 0 
L 2900 538 
Q 2691 219 2414 64 
Q 2138 -91 1772 -91 
Q 1169 -91 856 284 
Q 544 659 544 1381 
z
M 1991 3584 
L 1991 3584 
z
" transform="scale(0.015625)"/>
      </defs>
      <use xlink:href="#DejaVuSans-47"/>
      <use xlink:href="#DejaVuSans-50" x="77.490234"/>
      <use xlink:href="#DejaVuSans-53" x="137.792969"/>
      <use xlink:href="#DejaVuSans-20" x="201.269531"/>
      <use xlink:href="#DejaVuSans-43" x="233.056641"/>
      <use xlink:href="#DejaVuSans-6f" x="302.880859"/>
      <use xlink:href="#DejaVuSans-75" x="364.0625"/>
      <use xlink:href="#DejaVuSans-72" x="427.441406"/>
      <use xlink:href="#DejaVuSans-73" x="468.554688"/>
      <use xlink:href="#DejaVuSans-65" x="520.654297"/>
     </g>
    </g>
   </g>
  </g>
 </g>
 <defs>
  <clipPath id="p870fc68d94">
   <rect x="144" y="77.76" width="892.8" height="498.96"/>
  </clipPath>
 </defs>
</svg>
